<?xml version="1.0" encoding="UTF-8" standalone="no"?><svg xmlns="http://www.w3.org/2000/svg" xmlns:xlink="http://www.w3.org/1999/xlink" contentScriptType="application/ecmascript" contentStyleType="text/css" height="1345px" preserveAspectRatio="none" style="width:1578px;height:1345px;background:#FFFFFF;" version="1.1" viewBox="0 0 1578 1345" width="1578.75px" zoomAndPan="magnify"><defs><filter height="300%" id="fbuuoijts52hz" width="300%" x="-1" y="-1"><feGaussianBlur result="blurOut" stdDeviation="2.5"/><feColorMatrix in="blurOut" result="blurOut2" type="matrix" values="0 0 0 0 0 0 0 0 0 0 0 0 0 0 0 0 0 0 .4 0"/><feOffset dx="5.0" dy="5.0" in="blurOut2" result="blurOut3"/><feBlend in="SourceGraphic" in2="blurOut3" mode="normal"/></filter></defs><g><rect fill="#FFFFFF" filter="url(#fbuuoijts52hz)" height="1041.4355" style="stroke:#A80036;stroke-width:1.25;" width="12.5" x="610.625" y="172.8906"/><rect fill="#FFFFFF" filter="url(#fbuuoijts52hz)" height="963.0566" style="stroke:#A80036;stroke-width:1.25;" width="12.5" x="889.375" y="223.3301"/><rect fill="#FFFFFF" filter="url(#fbuuoijts52hz)" height="67.7734" style="stroke:#A80036;stroke-width:1.25;" width="12.5" x="1113.75" y="303.6035"/><rect fill="#FFFFFF" filter="url(#fbuuoijts52hz)" height="67.7734" style="stroke:#A80036;stroke-width:1.25;" width="12.5" x="1297.5" y="383.877"/><rect fill="#FFFFFF" filter="url(#fbuuoijts52hz)" height="37.5" style="stroke:#A80036;stroke-width:1.25;" width="12.5" x="1468.75" y="787.0605"/><rect fill="#FFFFFF" filter="url(#fbuuoijts52hz)" height="37.5" style="stroke:#A80036;stroke-width:1.25;" width="12.5" x="1468.75" y="1035.5078"/><rect fill="#FFFFFF" filter="url(#fbuuoijts52hz)" height="230.9473" style="stroke:#000000;stroke-width:2.5;" width="1050" x="511.25" y="698.2422"/><rect fill="#FFFFFF" filter="url(#fbuuoijts52hz)" height="77.1289" style="stroke:#000000;stroke-width:2.5;" width="395.625" x="758.75" y="843.3105"/><rect fill="#FFFFFF" filter="url(#fbuuoijts52hz)" height="230.9473" style="stroke:#000000;stroke-width:2.5;" width="1050" x="511.25" y="946.6895"/><rect fill="#FFFFFF" filter="url(#fbuuoijts52hz)" height="77.1289" style="stroke:#000000;stroke-width:2.5;" width="395.625" x="758.75" y="1091.7578"/><line style="stroke:#A80036;stroke-width:1.25;stroke-dasharray:5.0,5.0;" x1="27.5" x2="27.5" y1="112.0117" y2="1236.8262"/><line style="stroke:#A80036;stroke-width:1.25;stroke-dasharray:5.0,5.0;" x1="616.25" x2="616.25" y1="112.0117" y2="1236.8262"/><line style="stroke:#A80036;stroke-width:1.25;stroke-dasharray:5.0,5.0;" x1="895" x2="895" y1="235.5273" y2="1236.8262"/><line style="stroke:#A80036;stroke-width:1.25;stroke-dasharray:5.0,5.0;" x1="1120" x2="1120" y1="315.8008" y2="1236.8262"/><line style="stroke:#A80036;stroke-width:1.25;stroke-dasharray:5.0,5.0;" x1="1303.75" x2="1303.75" y1="396.0742" y2="1236.8262"/><line style="stroke:#A80036;stroke-width:1.25;stroke-dasharray:5.0,5.0;" x1="1475" x2="1475" y1="493.2227" y2="1236.8262"/><text fill="#000000" font-family="sans-serif" font-size="17.5" lengthAdjust="spacing" textLength="36.25" x="6.25" y="108.1665">GSH</text><ellipse cx="28.125" cy="18.75" fill="#FEFECE" filter="url(#fbuuoijts52hz)" rx="10" ry="10" style="stroke:#A80036;stroke-width:2.5;"/><path d="M28.125,28.75 L28.125,62.5 M11.875,38.75 L44.375,38.75 M28.125,62.5 L11.875,81.25 M28.125,62.5 L44.375,81.25 " fill="none" filter="url(#fbuuoijts52hz)" style="stroke:#A80036;stroke-width:2.5;"/><text fill="#000000" font-family="sans-serif" font-size="17.5" lengthAdjust="spacing" textLength="36.25" x="6.25" y="1253.7427">GSH</text><ellipse cx="28.125" cy="1270.0879" fill="#FEFECE" filter="url(#fbuuoijts52hz)" rx="10" ry="10" style="stroke:#A80036;stroke-width:2.5;"/><path d="M28.125,1280.0879 L28.125,1313.8379 M11.875,1290.0879 L44.375,1290.0879 M28.125,1313.8379 L11.875,1332.5879 M28.125,1313.8379 L44.375,1332.5879 " fill="none" filter="url(#fbuuoijts52hz)" style="stroke:#A80036;stroke-width:2.5;"/><rect fill="#FEFECE" filter="url(#fbuuoijts52hz)" height="61.5234" style="stroke:#A80036;stroke-width:1.875;" width="181.25" x="523.75" y="44.2383"/><text fill="#000000" font-family="sans-serif" font-size="17.5" font-style="italic" lengthAdjust="spacing" textLength="118.75" x="555" y="71.1548">«presentation»</text><text fill="#000000" font-family="sans-serif" font-size="17.5" lengthAdjust="spacing" textLength="163.75" x="532.5" y="93.1665">ListarCumprimentoUI</text><rect fill="#FEFECE" filter="url(#fbuuoijts52hz)" height="61.5234" style="stroke:#A80036;stroke-width:1.875;" width="181.25" x="523.75" y="1235.5762"/><text fill="#000000" font-family="sans-serif" font-size="17.5" font-style="italic" lengthAdjust="spacing" textLength="118.75" x="555" y="1262.4927">«presentation»</text><text fill="#000000" font-family="sans-serif" font-size="17.5" lengthAdjust="spacing" textLength="163.75" x="532.5" y="1284.5044">ListarCumprimentoUI</text><rect fill="#FEFECE" filter="url(#fbuuoijts52hz)" height="61.5234" style="stroke:#A80036;stroke-width:1.875;" width="243.75" x="771.25" y="1235.5762"/><text fill="#000000" font-family="sans-serif" font-size="17.5" font-style="italic" lengthAdjust="spacing" textLength="105" x="840.625" y="1262.4927">«application»</text><text fill="#000000" font-family="sans-serif" font-size="17.5" lengthAdjust="spacing" textLength="226.25" x="780" y="1284.5044">ListarCumprimentoController</text><rect fill="#FEFECE" filter="url(#fbuuoijts52hz)" height="61.5234" style="stroke:#A80036;stroke-width:1.875;" width="170" x="1032.5" y="1235.5762"/><text fill="#000000" font-family="sans-serif" font-size="17.5" font-style="italic" lengthAdjust="spacing" textLength="111.25" x="1061.875" y="1262.4927">«persistence»</text><text fill="#000000" font-family="sans-serif" font-size="17.5" lengthAdjust="spacing" textLength="152.5" x="1041.25" y="1284.5044">PersistenceContext</text><rect fill="#FEFECE" filter="url(#fbuuoijts52hz)" height="61.5234" style="stroke:#A80036;stroke-width:1.875;" width="162.5" x="1220" y="1235.5762"/><text fill="#000000" font-family="sans-serif" font-size="17.5" font-style="italic" lengthAdjust="spacing" textLength="73.75" x="1264.375" y="1262.4927">«factory»</text><text fill="#000000" font-family="sans-serif" font-size="17.5" lengthAdjust="spacing" textLength="145" x="1228.75" y="1284.5044">RepositoryFactory</text><text fill="#000000" font-family="sans-serif" font-size="17.5" font-style="italic" lengthAdjust="spacing" textLength="98.75" x="1421.875" y="1253.7427">«repository»</text><text fill="#000000" font-family="sans-serif" font-size="17.5" lengthAdjust="spacing" textLength="140" x="1401.25" y="1275.7544">PedidoRepository</text><path d="M1452.5,1292.0996 C1452.5,1279.5996 1475,1279.5996 1475,1279.5996 C1475,1279.5996 1497.5,1279.5996 1497.5,1292.0996 L1497.5,1324.5996 C1497.5,1337.0996 1475,1337.0996 1475,1337.0996 C1475,1337.0996 1452.5,1337.0996 1452.5,1324.5996 L1452.5,1292.0996 " fill="#FEFECE" filter="url(#fbuuoijts52hz)" style="stroke:#000000;stroke-width:1.875;"/><path d="M1452.5,1292.0996 C1452.5,1304.5996 1475,1304.5996 1475,1304.5996 C1475,1304.5996 1497.5,1304.5996 1497.5,1292.0996 " fill="none" style="stroke:#000000;stroke-width:1.875;"/><rect fill="#FFFFFF" filter="url(#fbuuoijts52hz)" height="1041.4355" style="stroke:#A80036;stroke-width:1.25;" width="12.5" x="610.625" y="172.8906"/><rect fill="#FFFFFF" filter="url(#fbuuoijts52hz)" height="963.0566" style="stroke:#A80036;stroke-width:1.25;" width="12.5" x="889.375" y="223.3301"/><rect fill="#FFFFFF" filter="url(#fbuuoijts52hz)" height="67.7734" style="stroke:#A80036;stroke-width:1.25;" width="12.5" x="1113.75" y="303.6035"/><rect fill="#FFFFFF" filter="url(#fbuuoijts52hz)" height="67.7734" style="stroke:#A80036;stroke-width:1.25;" width="12.5" x="1297.5" y="383.877"/><rect fill="#FFFFFF" filter="url(#fbuuoijts52hz)" height="37.5" style="stroke:#A80036;stroke-width:1.25;" width="12.5" x="1468.75" y="787.0605"/><rect fill="#FFFFFF" filter="url(#fbuuoijts52hz)" height="37.5" style="stroke:#A80036;stroke-width:1.25;" width="12.5" x="1468.75" y="1035.5078"/><polygon fill="#A80036" points="595.625,167.8906,608.125,172.8906,595.625,177.8906,600.625,172.8906" style="stroke:#A80036;stroke-width:1.25;"/><line style="stroke:#A80036;stroke-width:1.25;stroke-dasharray:2.0,2.0;" x1="28.125" x2="603.125" y1="172.8906" y2="172.8906"/><text fill="#000000" font-family="sans-serif" font-size="16.25" font-weight="bold" lengthAdjust="spacing" textLength="8.75" x="36.875" y="156.6003">1</text><text fill="#000000" font-family="sans-serif" font-size="16.25" lengthAdjust="spacing" textLength="317.5" x="50.625" y="146.3806">Visualizar o cumprimento ou incumprimento</text><text fill="#000000" font-family="sans-serif" font-size="16.25" lengthAdjust="spacing" textLength="227.5" x="55.625" y="166.8201">dos contratos SLA nos pedidos</text><polygon fill="#A80036" points="756.25,205.8301,768.75,210.8301,756.25,215.8301,761.25,210.8301" style="stroke:#A80036;stroke-width:1.25;"/><line style="stroke:#A80036;stroke-width:1.25;" x1="623.125" x2="763.75" y1="210.8301" y2="210.8301"/><text fill="#000000" font-family="sans-serif" font-size="16.25" font-weight="bold" lengthAdjust="spacing" textLength="8.75" x="631.875" y="204.7595">2</text><text fill="#000000" font-family="sans-serif" font-size="16.25" lengthAdjust="spacing" textLength="45" x="645.625" y="204.7595">create</text><rect fill="#FEFECE" filter="url(#fbuuoijts52hz)" height="61.5234" style="stroke:#A80036;stroke-width:1.875;" width="243.75" x="771.25" y="182.8906"/><text fill="#000000" font-family="sans-serif" font-size="17.5" font-style="italic" lengthAdjust="spacing" textLength="105" x="840.625" y="209.8071">«application»</text><text fill="#000000" font-family="sans-serif" font-size="17.5" lengthAdjust="spacing" textLength="226.25" x="780" y="231.8188">ListarCumprimentoController</text><polygon fill="#A80036" points="1017.5,286.1035,1030,291.1035,1017.5,296.1035,1022.5,291.1035" style="stroke:#A80036;stroke-width:1.25;"/><line style="stroke:#A80036;stroke-width:1.25;" x1="901.875" x2="1025" y1="291.1035" y2="291.1035"/><text fill="#000000" font-family="sans-serif" font-size="16.25" font-weight="bold" lengthAdjust="spacing" textLength="8.75" x="910.625" y="285.033">3</text><text fill="#000000" font-family="sans-serif" font-size="16.25" lengthAdjust="spacing" textLength="45" x="924.375" y="285.033">create</text><rect fill="#FEFECE" filter="url(#fbuuoijts52hz)" height="61.5234" style="stroke:#A80036;stroke-width:1.875;" width="170" x="1032.5" y="263.1641"/><text fill="#000000" font-family="sans-serif" font-size="17.5" font-style="italic" lengthAdjust="spacing" textLength="111.25" x="1061.875" y="290.0806">«persistence»</text><text fill="#000000" font-family="sans-serif" font-size="17.5" lengthAdjust="spacing" textLength="152.5" x="1041.25" y="312.0923">PersistenceContext</text><polygon fill="#A80036" points="1205,366.377,1217.5,371.377,1205,376.377,1210,371.377" style="stroke:#A80036;stroke-width:1.25;"/><line style="stroke:#A80036;stroke-width:1.25;" x1="1120" x2="1212.5" y1="371.377" y2="371.377"/><text fill="#000000" font-family="sans-serif" font-size="16.25" font-weight="bold" lengthAdjust="spacing" textLength="8.75" x="1128.75" y="365.3064">4</text><text fill="#000000" font-family="sans-serif" font-size="16.25" lengthAdjust="spacing" textLength="45" x="1142.5" y="365.3064">create</text><rect fill="#FEFECE" filter="url(#fbuuoijts52hz)" height="61.5234" style="stroke:#A80036;stroke-width:1.875;" width="162.5" x="1220" y="343.4375"/><text fill="#000000" font-family="sans-serif" font-size="17.5" font-style="italic" lengthAdjust="spacing" textLength="73.75" x="1264.375" y="370.354">«factory»</text><text fill="#000000" font-family="sans-serif" font-size="17.5" lengthAdjust="spacing" textLength="145" x="1228.75" y="392.3657">RepositoryFactory</text><polygon fill="#A80036" points="1386.25,446.6504,1398.75,451.6504,1386.25,456.6504,1391.25,451.6504" style="stroke:#A80036;stroke-width:1.25;"/><line style="stroke:#A80036;stroke-width:1.25;" x1="1303.75" x2="1393.75" y1="451.6504" y2="451.6504"/><text fill="#000000" font-family="sans-serif" font-size="16.25" font-weight="bold" lengthAdjust="spacing" textLength="8.75" x="1312.5" y="445.5798">5</text><text fill="#000000" font-family="sans-serif" font-size="16.25" lengthAdjust="spacing" textLength="47.5" x="1326.25" y="445.5798">pedido</text><text fill="#000000" font-family="sans-serif" font-size="17.5" font-style="italic" lengthAdjust="spacing" textLength="98.75" x="1421.875" y="499.3774">«repository»</text><text fill="#000000" font-family="sans-serif" font-size="17.5" lengthAdjust="spacing" textLength="140" x="1401.25" y="521.3892">PedidoRepository</text><path d="M1452.5,436.2109 C1452.5,423.7109 1475,423.7109 1475,423.7109 C1475,423.7109 1497.5,423.7109 1497.5,436.2109 L1497.5,468.7109 C1497.5,481.2109 1475,481.2109 1475,481.2109 C1475,481.2109 1452.5,481.2109 1452.5,468.7109 L1452.5,436.2109 " fill="#FEFECE" filter="url(#fbuuoijts52hz)" style="stroke:#000000;stroke-width:1.875;"/><path d="M1452.5,436.2109 C1452.5,448.7109 1475,448.7109 1475,448.7109 C1475,448.7109 1497.5,448.7109 1497.5,436.2109 " fill="none" style="stroke:#000000;stroke-width:1.875;"/><polygon fill="#A80036" points="41.875,560.6738,29.375,565.6738,41.875,570.6738,36.875,565.6738" style="stroke:#A80036;stroke-width:1.25;"/><line style="stroke:#A80036;stroke-width:1.25;stroke-dasharray:2.0,2.0;" x1="34.375" x2="609.375" y1="565.6738" y2="565.6738"/><text fill="#000000" font-family="sans-serif" font-size="16.25" font-weight="bold" lengthAdjust="spacing" textLength="8.75" x="49.375" y="559.6033">6</text><text fill="#000000" font-family="sans-serif" font-size="16.25" lengthAdjust="spacing" textLength="538.75" x="63.125" y="559.6033">Pede para indicar se pretende visualizar o cumprimento ou incumprimento.</text><polygon fill="#A80036" points="595.625,598.6133,608.125,603.6133,595.625,608.6133,600.625,603.6133" style="stroke:#A80036;stroke-width:1.25;"/><line style="stroke:#A80036;stroke-width:1.25;" x1="28.125" x2="603.125" y1="603.6133" y2="603.6133"/><text fill="#000000" font-family="sans-serif" font-size="16.25" font-weight="bold" lengthAdjust="spacing" textLength="8.75" x="36.875" y="597.5427">7</text><text fill="#000000" font-family="sans-serif" font-size="16.25" lengthAdjust="spacing" textLength="210" x="50.625" y="597.5427">Insere a opção que pretende.</text><polygon fill="#A80036" points="41.875,636.5527,29.375,641.5527,41.875,646.5527,36.875,641.5527" style="stroke:#A80036;stroke-width:1.25;"/><line style="stroke:#A80036;stroke-width:1.25;stroke-dasharray:2.0,2.0;" x1="34.375" x2="609.375" y1="641.5527" y2="641.5527"/><text fill="#000000" font-family="sans-serif" font-size="16.25" font-weight="bold" lengthAdjust="spacing" textLength="8.75" x="49.375" y="635.4822">8</text><text fill="#000000" font-family="sans-serif" font-size="16.25" lengthAdjust="spacing" textLength="340" x="63.125" y="635.4822">Pede para indicar as datas para procurar entre.</text><polygon fill="#A80036" points="595.625,674.4922,608.125,679.4922,595.625,684.4922,600.625,679.4922" style="stroke:#A80036;stroke-width:1.25;"/><line style="stroke:#A80036;stroke-width:1.25;" x1="28.125" x2="603.125" y1="679.4922" y2="679.4922"/><text fill="#000000" font-family="sans-serif" font-size="16.25" font-weight="bold" lengthAdjust="spacing" textLength="8.75" x="36.875" y="673.4216">9</text><text fill="#000000" font-family="sans-serif" font-size="16.25" lengthAdjust="spacing" textLength="202.5" x="50.625" y="673.4216">Insere as datas (first e last).</text><path d="M511.25,698.2422 L855,698.2422 L855,708.2422 L842.5,720.7422 L511.25,720.7422 L511.25,698.2422 " fill="#EEEEEE" style="stroke:#000000;stroke-width:1.25;"/><rect fill="none" height="230.9473" style="stroke:#000000;stroke-width:2.5;" width="1050" x="511.25" y="698.2422"/><text fill="#000000" font-family="sans-serif" font-size="16.25" font-weight="bold" lengthAdjust="spacing" textLength="287.5" x="530" y="716.3611">if (pretende visualizar cumprimento)</text><polygon fill="#A80036" points="874.375,744.1211,886.875,749.1211,874.375,754.1211,879.375,749.1211" style="stroke:#A80036;stroke-width:1.25;"/><line style="stroke:#A80036;stroke-width:1.25;" x1="623.125" x2="881.875" y1="749.1211" y2="749.1211"/><text fill="#000000" font-family="sans-serif" font-size="16.25" font-weight="bold" lengthAdjust="spacing" textLength="17.5" x="631.875" y="743.0505">10</text><text fill="#000000" font-family="sans-serif" font-size="16.25" lengthAdjust="spacing" textLength="203.75" x="654.375" y="743.0505">listarCumprimento(first, last)</text><polygon fill="#A80036" points="1453.75,782.0605,1466.25,787.0605,1453.75,792.0605,1458.75,787.0605" style="stroke:#A80036;stroke-width:1.25;"/><line style="stroke:#A80036;stroke-width:1.25;" x1="901.875" x2="1461.25" y1="787.0605" y2="787.0605"/><text fill="#000000" font-family="sans-serif" font-size="16.25" font-weight="bold" lengthAdjust="spacing" textLength="17.5" x="910.625" y="780.99">11</text><text fill="#000000" font-family="sans-serif" font-size="16.25" lengthAdjust="spacing" textLength="410" x="933.125" y="780.99">listaPedidos = getPedidosBetweenDatesCump(first, last)</text><path d="M758.75,843.3105 L986.25,843.3105 L986.25,853.3105 L973.75,865.8105 L758.75,865.8105 L758.75,843.3105 " fill="#EEEEEE" style="stroke:#000000;stroke-width:1.25;"/><rect fill="none" height="77.1289" style="stroke:#000000;stroke-width:2.5;" width="395.625" x="758.75" y="843.3105"/><text fill="#000000" font-family="sans-serif" font-size="16.25" font-weight="bold" lengthAdjust="spacing" textLength="171.25" x="777.5" y="861.4294">foreach (listaPedidos)</text><line style="stroke:#A80036;stroke-width:1.25;" x1="901.875" x2="954.375" y1="894.1895" y2="894.1895"/><line style="stroke:#A80036;stroke-width:1.25;" x1="954.375" x2="954.375" y1="894.1895" y2="910.4395"/><line style="stroke:#A80036;stroke-width:1.25;" x1="903.125" x2="954.375" y1="910.4395" y2="910.4395"/><polygon fill="#A80036" points="915.625,905.4395,903.125,910.4395,915.625,915.4395,910.625,910.4395" style="stroke:#A80036;stroke-width:1.25;"/><text fill="#000000" font-family="sans-serif" font-size="16.25" font-weight="bold" lengthAdjust="spacing" textLength="17.5" x="910.625" y="888.1189">12</text><text fill="#000000" font-family="sans-serif" font-size="16.25" lengthAdjust="spacing" textLength="0" x="938.125" y="888.1189"/><path d="M963.75,874.375 L963.75,906.875 L1123.75,906.875 L1123.75,886.875 L1111.25,874.375 L963.75,874.375 " fill="#FBFB77" filter="url(#fbuuoijts52hz)" style="stroke:#A80036;stroke-width:1.25;"/><path d="M1111.25,874.375 L1111.25,886.875 L1123.75,886.875 L1111.25,874.375 " fill="#FBFB77" style="stroke:#A80036;stroke-width:1.25;"/><text fill="#000000" font-family="sans-serif" font-size="16.25" lengthAdjust="spacing" textLength="133.75" x="971.25" y="897.4939">mostra os pedidos</text><path d="M511.25,946.6895 L870,946.6895 L870,956.6895 L857.5,969.1895 L511.25,969.1895 L511.25,946.6895 " fill="#EEEEEE" style="stroke:#000000;stroke-width:1.25;"/><rect fill="none" height="230.9473" style="stroke:#000000;stroke-width:2.5;" width="1050" x="511.25" y="946.6895"/><text fill="#000000" font-family="sans-serif" font-size="16.25" font-weight="bold" lengthAdjust="spacing" textLength="302.5" x="530" y="964.8083">if (pretende visualizar incumprimento)</text><polygon fill="#A80036" points="874.375,992.5684,886.875,997.5684,874.375,1002.5684,879.375,997.5684" style="stroke:#A80036;stroke-width:1.25;"/><line style="stroke:#A80036;stroke-width:1.25;" x1="623.125" x2="881.875" y1="997.5684" y2="997.5684"/><text fill="#000000" font-family="sans-serif" font-size="16.25" font-weight="bold" lengthAdjust="spacing" textLength="17.5" x="631.875" y="991.4978">13</text><text fill="#000000" font-family="sans-serif" font-size="16.25" lengthAdjust="spacing" textLength="213.75" x="654.375" y="991.4978">listarIncumprimento(first, last)</text><polygon fill="#A80036" points="1453.75,1030.5078,1466.25,1035.5078,1453.75,1040.5078,1458.75,1035.5078" style="stroke:#A80036;stroke-width:1.25;"/><line style="stroke:#A80036;stroke-width:1.25;" x1="901.875" x2="1461.25" y1="1035.5078" y2="1035.5078"/><text fill="#000000" font-family="sans-serif" font-size="16.25" font-weight="bold" lengthAdjust="spacing" textLength="17.5" x="910.625" y="1029.4373">14</text><text fill="#000000" font-family="sans-serif" font-size="16.25" lengthAdjust="spacing" textLength="420" x="933.125" y="1029.4373">listaPedidos = getPedidosBetweenDatesIncump(first, last)</text><path d="M758.75,1091.7578 L986.25,1091.7578 L986.25,1101.7578 L973.75,1114.2578 L758.75,1114.2578 L758.75,1091.7578 " fill="#EEEEEE" style="stroke:#000000;stroke-width:1.25;"/><rect fill="none" height="77.1289" style="stroke:#000000;stroke-width:2.5;" width="395.625" x="758.75" y="1091.7578"/><text fill="#000000" font-family="sans-serif" font-size="16.25" font-weight="bold" lengthAdjust="spacing" textLength="171.25" x="777.5" y="1109.8767">foreach (listaPedidos)</text><line style="stroke:#A80036;stroke-width:1.25;" x1="901.875" x2="954.375" y1="1142.6367" y2="1142.6367"/><line style="stroke:#A80036;stroke-width:1.25;" x1="954.375" x2="954.375" y1="1142.6367" y2="1158.8867"/><line style="stroke:#A80036;stroke-width:1.25;" x1="903.125" x2="954.375" y1="1158.8867" y2="1158.8867"/><polygon fill="#A80036" points="915.625,1153.8867,903.125,1158.8867,915.625,1163.8867,910.625,1158.8867" style="stroke:#A80036;stroke-width:1.25;"/><text fill="#000000" font-family="sans-serif" font-size="16.25" font-weight="bold" lengthAdjust="spacing" textLength="17.5" x="910.625" y="1136.5662">15</text><text fill="#000000" font-family="sans-serif" font-size="16.25" lengthAdjust="spacing" textLength="0" x="938.125" y="1136.5662"/><path d="M963.75,1122.8223 L963.75,1155.3223 L1123.75,1155.3223 L1123.75,1135.3223 L1111.25,1122.8223 L963.75,1122.8223 " fill="#FBFB77" filter="url(#fbuuoijts52hz)" style="stroke:#A80036;stroke-width:1.25;"/><path d="M1111.25,1122.8223 L1111.25,1135.3223 L1123.75,1135.3223 L1111.25,1122.8223 " fill="#FBFB77" style="stroke:#A80036;stroke-width:1.25;"/><text fill="#000000" font-family="sans-serif" font-size="16.25" lengthAdjust="spacing" textLength="133.75" x="971.25" y="1145.9412">mostra os pedidos</text><polygon fill="#A80036" points="41.875,1209.3262,29.375,1214.3262,41.875,1219.3262,36.875,1214.3262" style="stroke:#A80036;stroke-width:1.25;"/><line style="stroke:#A80036;stroke-width:1.25;stroke-dasharray:2.0,2.0;" x1="34.375" x2="615.625" y1="1214.3262" y2="1214.3262"/><text fill="#000000" font-family="sans-serif" font-size="16.25" font-weight="bold" lengthAdjust="spacing" textLength="17.5" x="49.375" y="1208.2556">16</text><text fill="#000000" font-family="sans-serif" font-size="16.25" lengthAdjust="spacing" textLength="210" x="71.875" y="1208.2556">Mostra sucesso de operação</text><!--MD5=[2f9747c5982dc27f84bd2f847b030cd8]
@startuml
'https://plantuml.com/sequence-diagram

autonumber

actor "GSH" as ator
participant ListarCumprimentoUI as UI <<presentation>>
participant ListarCumprimentoController as CTRL <<application>>
participant PersistenceContext as PER <<persistence>>
participant RepositoryFactory as FAC <<factory>>
database PedidoRepository as PEDR <<repository>>

ator - -> UI : Visualizar o cumprimento ou incumprimento \n dos contratos SLA nos pedidos
activate UI

UI -> CTRL**: create
activate CTRL

CTRL -> PER**: create
activate PER
PER -> FAC**: create
deactivate PER
activate FAC
FAC -> PEDR**: pedido
deactivate FAC

UI - -> ator: Pede para indicar se pretende visualizar o cumprimento ou incumprimento.
ator -> UI: Insere a opção que pretende.

UI - -> ator: Pede para indicar as datas para procurar entre.
ator -> UI: Insere as datas (first e last).

group if (pretende visualizar cumprimento)
UI -> CTRL: listarCumprimento(first, last)

CTRL -> PEDR: listaPedidos = getPedidosBetweenDatesCump(first, last)
activate PEDR
deactivate PEDR

group foreach (listaPedidos)
CTRL -> CTRL:
note right: mostra os pedidos
end
end

group if (pretende visualizar incumprimento)
UI -> CTRL: listarIncumprimento(first, last)

CTRL -> PEDR: listaPedidos = getPedidosBetweenDatesIncump(first, last)
activate PEDR
deactivate PEDR

group foreach (listaPedidos)
CTRL -> CTRL:
note right: mostra os pedidos
end
end

deactivate CTRL

UI - -> ator: Mostra sucesso de operação
deactivate UI
@enduml

@startuml

autonumber

actor "GSH" as ator
participant ListarCumprimentoUI as UI <<presentation>>
participant ListarCumprimentoController as CTRL <<application>>
participant PersistenceContext as PER <<persistence>>
participant RepositoryFactory as FAC <<factory>>
database PedidoRepository as PEDR <<repository>>

ator - -> UI : Visualizar o cumprimento ou incumprimento \n dos contratos SLA nos pedidos
activate UI

UI -> CTRL**: create
activate CTRL

CTRL -> PER**: create
activate PER
PER -> FAC**: create
deactivate PER
activate FAC
FAC -> PEDR**: pedido
deactivate FAC

UI - -> ator: Pede para indicar se pretende visualizar o cumprimento ou incumprimento.
ator -> UI: Insere a opção que pretende.

UI - -> ator: Pede para indicar as datas para procurar entre.
ator -> UI: Insere as datas (first e last).

group if (pretende visualizar cumprimento)
UI -> CTRL: listarCumprimento(first, last)

CTRL -> PEDR: listaPedidos = getPedidosBetweenDatesCump(first, last)
activate PEDR
deactivate PEDR

group foreach (listaPedidos)
CTRL -> CTRL:
note right: mostra os pedidos
end
end

group if (pretende visualizar incumprimento)
UI -> CTRL: listarIncumprimento(first, last)

CTRL -> PEDR: listaPedidos = getPedidosBetweenDatesIncump(first, last)
activate PEDR
deactivate PEDR

group foreach (listaPedidos)
CTRL -> CTRL:
note right: mostra os pedidos
end
end

deactivate CTRL

UI - -> ator: Mostra sucesso de operação
deactivate UI
@enduml

PlantUML version 1.2021.7(Sun May 23 13:40:07 BST 2021)
(GPL source distribution)
Java Runtime: OpenJDK Runtime Environment
JVM: Dynamic Code Evolution 64-Bit Server VM
Default Encoding: Cp1252
Language: en
Country: US
--></g></svg>