<?xml version="1.0" encoding="UTF-8" standalone="no"?><svg xmlns="http://www.w3.org/2000/svg" xmlns:xlink="http://www.w3.org/1999/xlink" contentScriptType="application/ecmascript" contentStyleType="text/css" height="926.25px" preserveAspectRatio="none" style="width:1953px;height:926px;" version="1.1" viewBox="0 0 1953 926" width="1953.75px" zoomAndPan="magnify"><defs><filter height="300%" id="fwkqe3ighmck6" width="300%" x="-1" y="-1"><feGaussianBlur result="blurOut" stdDeviation="2.5"/><feColorMatrix in="blurOut" result="blurOut2" type="matrix" values="0 0 0 0 0 0 0 0 0 0 0 0 0 0 0 0 0 0 .4 0"/><feOffset dx="5.0" dy="5.0" in="blurOut2" result="blurOut3"/><feBlend in="SourceGraphic" in2="blurOut3" mode="normal"/></filter></defs><g><!--MD5=[eae7ec724ddb57b8442b173ee9ef684e]
class AddUserUI--><rect codeLine="2" fill="#FEFECE" filter="url(#fwkqe3ighmck6)" height="70.2344" id="AddUserUI" style="stroke:#A80036;stroke-width:1.875;" width="137.5" x="1353.75" y="8.75"/><ellipse cx="1372.5" cy="33.8672" fill="#ADD1B2" rx="13.75" ry="13.75" style="stroke:#A80036;stroke-width:1.25;"/><path d="M1375,29.4922 Q1375.2539,28.8672 1375.5469,28.5547 Q1375.8398,28.2422 1376.1719,28.2422 Q1376.7578,28.2422 1377.1289,28.5938 Q1377.5,28.9453 1377.5,29.7656 L1377.5,31.7188 Q1377.5,32.5391 1377.1484,32.8906 Q1376.7969,33.2422 1376.25,33.2422 Q1375.7617,33.2422 1375.4492,33.0273 Q1375.1367,32.8125 1375,32.2461 Q1374.9414,31.8555 1374.7266,31.6406 Q1374.3359,31.2305 1373.6328,30.9961 Q1372.9297,30.7422 1372.2266,30.7422 Q1371.3477,30.7422 1370.6055,31.0938 Q1369.8828,31.4453 1369.3164,32.2266 Q1368.75,33.0078 1368.75,34.082 L1368.75,35.2344 Q1368.75,36.5234 1369.8047,37.3828 Q1370.8594,38.2422 1372.7344,38.2422 Q1373.8477,38.2422 1374.6289,37.9883 Q1375.0781,37.8516 1375.5859,37.4023 Q1375.918,37.1484 1376.0938,37.0703 Q1376.2695,36.9922 1376.4844,36.9922 Q1376.8945,36.9922 1377.1875,37.3242 Q1377.5,37.6367 1377.5,38.0859 Q1377.5,38.5156 1377.0703,39.0234 Q1376.4453,39.7656 1375.4492,40.1758 Q1374.1406,40.7422 1372.5391,40.7422 Q1370.6641,40.7422 1369.1602,40 Q1367.9492,39.4141 1367.0898,38.1445 Q1366.25,36.875 1366.25,35.3711 L1366.25,34.0039 Q1366.25,32.4414 1366.9922,31.0742 Q1367.7539,29.707 1369.0625,28.9844 Q1370.3906,28.2422 1371.875,28.2422 Q1372.7734,28.2422 1373.5547,28.5547 Q1374.3359,28.8672 1375,29.4922 Z " fill="#000000"/><text fill="#000000" font-family="sans-serif" font-size="15" font-style="italic" lengthAdjust="spacing" textLength="102.5" x="1387.5" y="30.5713">«presentation»</text><text fill="#000000" font-family="sans-serif" font-size="15" lengthAdjust="spacing" textLength="75" x="1401.25" y="49.4385">AddUserUI</text><line style="stroke:#A80036;stroke-width:1.875;" x1="1355" x2="1490" y1="58.9844" y2="58.9844"/><line style="stroke:#A80036;stroke-width:1.875;" x1="1355" x2="1490" y1="68.9844" y2="68.9844"/><!--MD5=[8c59cfbc2252cb07c050d5e7108b82d8]
class AddUserController--><rect codeLine="5" fill="#FEFECE" filter="url(#fwkqe3ighmck6)" height="260.4785" id="AddUserController" style="stroke:#A80036;stroke-width:1.875;" width="337.5" x="777.5" y="176.25"/><ellipse cx="877.1875" cy="201.3672" fill="#ADD1B2" rx="13.75" ry="13.75" style="stroke:#A80036;stroke-width:1.25;"/><path d="M879.6875,196.9922 Q879.9414,196.3672 880.2344,196.0547 Q880.5273,195.7422 880.8594,195.7422 Q881.4453,195.7422 881.8164,196.0938 Q882.1875,196.4453 882.1875,197.2656 L882.1875,199.2188 Q882.1875,200.0391 881.8359,200.3906 Q881.4844,200.7422 880.9375,200.7422 Q880.4492,200.7422 880.1367,200.5273 Q879.8242,200.3125 879.6875,199.7461 Q879.6289,199.3555 879.4141,199.1406 Q879.0234,198.7305 878.3203,198.4961 Q877.6172,198.2422 876.9141,198.2422 Q876.0352,198.2422 875.293,198.5938 Q874.5703,198.9453 874.0039,199.7266 Q873.4375,200.5078 873.4375,201.582 L873.4375,202.7344 Q873.4375,204.0234 874.4922,204.8828 Q875.5469,205.7422 877.4219,205.7422 Q878.5352,205.7422 879.3164,205.4883 Q879.7656,205.3516 880.2734,204.9023 Q880.6055,204.6484 880.7813,204.5703 Q880.957,204.4922 881.1719,204.4922 Q881.582,204.4922 881.875,204.8242 Q882.1875,205.1367 882.1875,205.5859 Q882.1875,206.0156 881.7578,206.5234 Q881.1328,207.2656 880.1367,207.6758 Q878.8281,208.2422 877.2266,208.2422 Q875.3516,208.2422 873.8477,207.5 Q872.6367,206.9141 871.7773,205.6445 Q870.9375,204.375 870.9375,202.8711 L870.9375,201.5039 Q870.9375,199.9414 871.6797,198.5742 Q872.4414,197.207 873.75,196.4844 Q875.0781,195.7422 876.5625,195.7422 Q877.4609,195.7422 878.2422,196.0547 Q879.0234,196.3672 879.6875,196.9922 Z " fill="#000000"/><text fill="#000000" font-family="sans-serif" font-size="15" font-style="italic" lengthAdjust="spacing" textLength="92.5" x="920.3125" y="198.0713">«application»</text><text fill="#000000" font-family="sans-serif" font-size="15" lengthAdjust="spacing" textLength="127.5" x="902.8125" y="216.9385">AddUserController</text><line style="stroke:#A80036;stroke-width:1.875;" x1="778.75" x2="1113.75" y1="226.4844" y2="226.4844"/><line style="stroke:#A80036;stroke-width:1.875;" x1="778.75" x2="1113.75" y1="236.4844" y2="236.4844"/><text fill="#000000" font-family="sans-serif" font-size="13.75" lengthAdjust="spacing" textLength="322.5" x="785" y="255.7581">addUser(userName,FirstName,LastName,E-mail,roles)</text><text fill="#000000" font-family="sans-serif" font-size="13.75" lengthAdjust="spacing" textLength="140" x="785" y="273.053">showListOfFunctions()</text><text fill="#000000" font-family="sans-serif" font-size="13.75" lengthAdjust="spacing" textLength="107.5" x="785" y="290.3479">associarFuncao()</text><text fill="#000000" font-family="sans-serif" font-size="13.75" lengthAdjust="spacing" textLength="128.75" x="785" y="307.6428">showListOfEquipas()</text><text fill="#000000" font-family="sans-serif" font-size="13.75" lengthAdjust="spacing" textLength="142.5" x="785" y="324.9377">associarEquipa(equipa)</text><text fill="#000000" font-family="sans-serif" font-size="13.75" lengthAdjust="spacing" textLength="158.75" x="785" y="342.2327">showListOfColaborators()</text><text fill="#000000" font-family="sans-serif" font-size="13.75" lengthAdjust="spacing" textLength="282.5" x="785" y="359.5276">associarResponsavelHierarquico(colaborador)</text><text fill="#000000" font-family="sans-serif" font-size="13.75" lengthAdjust="spacing" textLength="293.75" x="785" y="376.8225">adicionarColaborador(nomeCurto,nomeCompleto,</text><text fill="#000000" font-family="sans-serif" font-size="13.75" lengthAdjust="spacing" textLength="242.5" x="785" y="394.1174">dataNascimento, numeroMecanografico,</text><text fill="#000000" font-family="sans-serif" font-size="13.75" lengthAdjust="spacing" textLength="216.25" x="785" y="411.4124">contactoTelefonico,funcao,equipas,</text><text fill="#000000" font-family="sans-serif" font-size="13.75" lengthAdjust="spacing" textLength="172.5" x="788.75" y="428.7073">localResidenciaColaborador)</text><!--MD5=[48590afff58a68e2fcba47824d6f8a11]
class RepositoryFactory--><rect codeLine="16" fill="#FEFECE" filter="url(#fwkqe3ighmck6)" height="156.709" id="RepositoryFactory" style="stroke:#A80036;stroke-width:1.875;" width="180" x="856.25" y="533.75"/><ellipse cx="882.3125" cy="558.8672" fill="#B4A7E5" rx="13.75" ry="13.75" style="stroke:#A80036;stroke-width:1.25;"/><path d="M883.5625,555.1172 L883.5625,562.6172 L886.0625,562.6172 L886.668,562.6172 L887.3125,563.3984 L887.3125,563.8672 L887.3125,564.3359 L886.668,565.1172 L886.0625,565.1172 L878.5625,565.1172 L877.957,565.1172 L877.3125,564.3359 L877.3125,563.8672 L877.3125,563.3984 L877.957,562.6172 L878.5625,562.6172 L881.0625,562.6172 L881.0625,555.1172 L878.5625,555.1172 L877.957,555.1172 L877.3125,554.3359 L877.3125,553.8672 L877.3125,553.3984 L877.957,552.6172 L878.5625,552.6172 L886.0625,552.6172 L886.668,552.6172 L887.3125,553.3984 L887.3125,553.8672 L887.3125,554.3359 L886.668,555.1172 L886.0625,555.1172 L883.5625,555.1172 Z " fill="#000000"/><text fill="#000000" font-family="sans-serif" font-size="15" font-style="italic" lengthAdjust="spacing" textLength="62.5" x="932.0625" y="555.5713">«factory»</text><text fill="#000000" font-family="sans-serif" font-size="15" font-style="italic" lengthAdjust="spacing" textLength="123.75" x="901.4375" y="574.4385">RepositoryFactory</text><line style="stroke:#A80036;stroke-width:1.875;" x1="857.5" x2="1035" y1="583.9844" y2="583.9844"/><line style="stroke:#A80036;stroke-width:1.875;" x1="857.5" x2="1035" y1="593.9844" y2="593.9844"/><text fill="#000000" font-family="sans-serif" font-size="13.75" lengthAdjust="spacing" textLength="165" x="863.75" y="613.2581">newTransactionalContext()</text><text fill="#000000" font-family="sans-serif" font-size="13.75" lengthAdjust="spacing" textLength="45" x="863.75" y="630.553">users()</text><text fill="#000000" font-family="sans-serif" font-size="13.75" lengthAdjust="spacing" textLength="60" x="863.75" y="647.8479">funcoes()</text><text fill="#000000" font-family="sans-serif" font-size="13.75" lengthAdjust="spacing" textLength="57.5" x="863.75" y="665.1428">equipas()</text><text fill="#000000" font-family="sans-serif" font-size="13.75" lengthAdjust="spacing" textLength="97.5" x="863.75" y="682.4377">colaboradores()</text><!--MD5=[c04a228c2edc8cb4edb0b8536253a65d]
class UserBuilder--><rect codeLine="24" fill="#FEFECE" filter="url(#fwkqe3ighmck6)" height="87.5293" id="UserBuilder" style="stroke:#A80036;stroke-width:1.875;" width="122.5" x="8.75" y="568.125"/><ellipse cx="27.5" cy="593.2422" fill="#ADD1B2" rx="13.75" ry="13.75" style="stroke:#A80036;stroke-width:1.25;"/><path d="M30,588.8672 Q30.2539,588.2422 30.5469,587.9297 Q30.8398,587.6172 31.1719,587.6172 Q31.7578,587.6172 32.1289,587.9688 Q32.5,588.3203 32.5,589.1406 L32.5,591.0938 Q32.5,591.9141 32.1484,592.2656 Q31.7969,592.6172 31.25,592.6172 Q30.7617,592.6172 30.4492,592.4023 Q30.1367,592.1875 30,591.6211 Q29.9414,591.2305 29.7266,591.0156 Q29.3359,590.6055 28.6328,590.3711 Q27.9297,590.1172 27.2266,590.1172 Q26.3477,590.1172 25.6055,590.4688 Q24.8828,590.8203 24.3164,591.6016 Q23.75,592.3828 23.75,593.457 L23.75,594.6094 Q23.75,595.8984 24.8047,596.7578 Q25.8594,597.6172 27.7344,597.6172 Q28.8477,597.6172 29.6289,597.3633 Q30.0781,597.2266 30.5859,596.7773 Q30.918,596.5234 31.0938,596.4453 Q31.2695,596.3672 31.4844,596.3672 Q31.8945,596.3672 32.1875,596.6992 Q32.5,597.0117 32.5,597.4609 Q32.5,597.8906 32.0703,598.3984 Q31.4453,599.1406 30.4492,599.5508 Q29.1406,600.1172 27.5391,600.1172 Q25.6641,600.1172 24.1602,599.375 Q22.9492,598.7891 22.0898,597.5195 Q21.25,596.25 21.25,594.7461 L21.25,593.3789 Q21.25,591.8164 21.9922,590.4492 Q22.7539,589.082 24.0625,588.3594 Q25.3906,587.6172 26.875,587.6172 Q27.7734,587.6172 28.5547,587.9297 Q29.3359,588.2422 30,588.8672 Z " fill="#000000"/><text fill="#000000" font-family="sans-serif" font-size="15" font-style="italic" lengthAdjust="spacing" textLength="66.25" x="53.125" y="589.9463">«builder»</text><text fill="#000000" font-family="sans-serif" font-size="15" lengthAdjust="spacing" textLength="82.5" x="45" y="608.8135">UserBuilder</text><line style="stroke:#A80036;stroke-width:1.875;" x1="10" x2="130" y1="618.3594" y2="618.3594"/><line style="stroke:#A80036;stroke-width:1.875;" x1="10" x2="130" y1="628.3594" y2="628.3594"/><text fill="#000000" font-family="sans-serif" font-size="13.75" lengthAdjust="spacing" textLength="77.5" x="16.25" y="647.6331">createUser()</text><!--MD5=[e8c189551b7885b999ad7cefb30fc2a3]
class PersistenceContext--><rect codeLine="28" fill="#FEFECE" filter="url(#fwkqe3ighmck6)" height="87.5293" id="PersistenceContext" style="stroke:#A80036;stroke-width:1.875;" width="173.75" x="296.875" y="568.125"/><ellipse cx="315.625" cy="593.2422" fill="#ADD1B2" rx="13.75" ry="13.75" style="stroke:#A80036;stroke-width:1.25;"/><path d="M318.125,588.8672 Q318.3789,588.2422 318.6719,587.9297 Q318.9648,587.6172 319.2969,587.6172 Q319.8828,587.6172 320.2539,587.9688 Q320.625,588.3203 320.625,589.1406 L320.625,591.0938 Q320.625,591.9141 320.2734,592.2656 Q319.9219,592.6172 319.375,592.6172 Q318.8867,592.6172 318.5742,592.4023 Q318.2617,592.1875 318.125,591.6211 Q318.0664,591.2305 317.8516,591.0156 Q317.4609,590.6055 316.7578,590.3711 Q316.0547,590.1172 315.3516,590.1172 Q314.4727,590.1172 313.7305,590.4688 Q313.0078,590.8203 312.4414,591.6016 Q311.875,592.3828 311.875,593.457 L311.875,594.6094 Q311.875,595.8984 312.9297,596.7578 Q313.9844,597.6172 315.8594,597.6172 Q316.9727,597.6172 317.7539,597.3633 Q318.2031,597.2266 318.7109,596.7773 Q319.043,596.5234 319.2188,596.4453 Q319.3945,596.3672 319.6094,596.3672 Q320.0195,596.3672 320.3125,596.6992 Q320.625,597.0117 320.625,597.4609 Q320.625,597.8906 320.1953,598.3984 Q319.5703,599.1406 318.5742,599.5508 Q317.2656,600.1172 315.6641,600.1172 Q313.7891,600.1172 312.2852,599.375 Q311.0742,598.7891 310.2148,597.5195 Q309.375,596.25 309.375,594.7461 L309.375,593.3789 Q309.375,591.8164 310.1172,590.4492 Q310.8789,589.082 312.1875,588.3594 Q313.5156,587.6172 315,587.6172 Q315.8984,587.6172 316.6797,587.9297 Q317.4609,588.2422 318.125,588.8672 Z " fill="#000000"/><text fill="#000000" font-family="sans-serif" font-size="15" font-style="italic" lengthAdjust="spacing" textLength="97.5" x="351.25" y="589.9463">«Persistence»</text><text fill="#000000" font-family="sans-serif" font-size="15" lengthAdjust="spacing" textLength="133.75" x="333.125" y="608.8135">PersistenceContext</text><line style="stroke:#A80036;stroke-width:1.875;" x1="298.125" x2="469.375" y1="618.3594" y2="618.3594"/><line style="stroke:#A80036;stroke-width:1.875;" x1="298.125" x2="469.375" y1="628.3594" y2="628.3594"/><text fill="#000000" font-family="sans-serif" font-size="13.75" lengthAdjust="spacing" textLength="81.25" x="304.375" y="647.6331">repositories()</text><!--MD5=[a9c3518912244ace3e0f1f7595c5b60b]
class ColaboradorBuilder--><rect codeLine="31" fill="#FEFECE" filter="url(#fwkqe3ighmck6)" height="156.709" id="ColaboradorBuilder" style="stroke:#A80036;stroke-width:1.875;" width="297.5" x="515" y="533.75"/><ellipse cx="590.9375" cy="558.8672" fill="#ADD1B2" rx="13.75" ry="13.75" style="stroke:#A80036;stroke-width:1.25;"/><path d="M593.4375,554.4922 Q593.6914,553.8672 593.9844,553.5547 Q594.2773,553.2422 594.6094,553.2422 Q595.1953,553.2422 595.5664,553.5938 Q595.9375,553.9453 595.9375,554.7656 L595.9375,556.7188 Q595.9375,557.5391 595.5859,557.8906 Q595.2344,558.2422 594.6875,558.2422 Q594.1992,558.2422 593.8867,558.0273 Q593.5742,557.8125 593.4375,557.2461 Q593.3789,556.8555 593.1641,556.6406 Q592.7734,556.2305 592.0703,555.9961 Q591.3672,555.7422 590.6641,555.7422 Q589.7852,555.7422 589.043,556.0938 Q588.3203,556.4453 587.7539,557.2266 Q587.1875,558.0078 587.1875,559.082 L587.1875,560.2344 Q587.1875,561.5234 588.2422,562.3828 Q589.2969,563.2422 591.1719,563.2422 Q592.2852,563.2422 593.0664,562.9883 Q593.5156,562.8516 594.0234,562.4023 Q594.3555,562.1484 594.5313,562.0703 Q594.707,561.9922 594.9219,561.9922 Q595.332,561.9922 595.625,562.3242 Q595.9375,562.6367 595.9375,563.0859 Q595.9375,563.5156 595.5078,564.0234 Q594.8828,564.7656 593.8867,565.1758 Q592.5781,565.7422 590.9766,565.7422 Q589.1016,565.7422 587.5977,565 Q586.3867,564.4141 585.5273,563.1445 Q584.6875,561.875 584.6875,560.3711 L584.6875,559.0039 Q584.6875,557.4414 585.4297,556.0742 Q586.1914,554.707 587.5,553.9844 Q588.8281,553.2422 590.3125,553.2422 Q591.2109,553.2422 591.9922,553.5547 Q592.7734,553.8672 593.4375,554.4922 Z " fill="#000000"/><text fill="#000000" font-family="sans-serif" font-size="15" font-style="italic" lengthAdjust="spacing" textLength="66.25" x="650.9375" y="555.5713">«builder»</text><text fill="#000000" font-family="sans-serif" font-size="15" lengthAdjust="spacing" textLength="135" x="616.5625" y="574.4385">ColaboradorBuilder</text><line style="stroke:#A80036;stroke-width:1.875;" x1="516.25" x2="811.25" y1="583.9844" y2="583.9844"/><line style="stroke:#A80036;stroke-width:1.875;" x1="516.25" x2="811.25" y1="593.9844" y2="593.9844"/><text fill="#000000" font-family="sans-serif" font-size="13.75" lengthAdjust="spacing" textLength="150" x="522.5" y="613.2581">associarFuncao(funcao)</text><text fill="#000000" font-family="sans-serif" font-size="13.75" lengthAdjust="spacing" textLength="142.5" x="522.5" y="630.553">associarEquipa(equipa)</text><text fill="#000000" font-family="sans-serif" font-size="13.75" lengthAdjust="spacing" textLength="282.5" x="522.5" y="647.8479">associarResponsavelHierarquico(colaborador)</text><text fill="#000000" font-family="sans-serif" font-size="13.75" lengthAdjust="spacing" textLength="167.5" x="522.5" y="665.1428">withNomeCurto(nomeCurto)</text><text fill="#000000" font-family="sans-serif" font-size="13.75" lengthAdjust="spacing" textLength="37.5" x="522.5" y="682.4377">build()</text><!--MD5=[288bffab58163169a8d16c57b889bc0c]
class TransactionalContext--><rect codeLine="39" fill="#FEFECE" filter="url(#fwkqe3ighmck6)" height="104.8242" id="TransactionalContext" style="stroke:#A80036;stroke-width:1.875;" width="185" x="996.25" y="796.25"/><ellipse cx="1015" cy="821.3672" fill="#B4A7E5" rx="13.75" ry="13.75" style="stroke:#A80036;stroke-width:1.25;"/><path d="M1016.25,817.6172 L1016.25,825.1172 L1018.75,825.1172 L1019.3555,825.1172 L1020,825.8984 L1020,826.3672 L1020,826.8359 L1019.3555,827.6172 L1018.75,827.6172 L1011.25,827.6172 L1010.6445,827.6172 L1010,826.8359 L1010,826.3672 L1010,825.8984 L1010.6445,825.1172 L1011.25,825.1172 L1013.75,825.1172 L1013.75,817.6172 L1011.25,817.6172 L1010.6445,817.6172 L1010,816.8359 L1010,816.3672 L1010,815.8984 L1010.6445,815.1172 L1011.25,815.1172 L1018.75,815.1172 L1019.3555,815.1172 L1020,815.8984 L1020,816.3672 L1020,816.8359 L1019.3555,817.6172 L1018.75,817.6172 L1016.25,817.6172 Z " fill="#000000"/><text fill="#000000" font-family="sans-serif" font-size="15" font-style="italic" lengthAdjust="spacing" textLength="96.25" x="1056.875" y="818.0713">«persistence»</text><text fill="#000000" font-family="sans-serif" font-size="15" font-style="italic" lengthAdjust="spacing" textLength="145" x="1032.5" y="836.9385">TransactionalContext</text><line style="stroke:#A80036;stroke-width:1.875;" x1="997.5" x2="1180" y1="846.4844" y2="846.4844"/><line style="stroke:#A80036;stroke-width:1.875;" x1="997.5" x2="1180" y1="856.4844" y2="856.4844"/><text fill="#000000" font-family="sans-serif" font-size="13.75" lengthAdjust="spacing" textLength="113.75" x="1003.75" y="875.7581">beginTransaction()</text><text fill="#000000" font-family="sans-serif" font-size="13.75" lengthAdjust="spacing" textLength="51.25" x="1003.75" y="893.053">commit()</text><!--MD5=[3fd616f346a44cd59a91eb10b19e157c]
class User--><rect codeLine="44" fill="#FEFECE" filter="url(#fwkqe3ighmck6)" height="122.1191" id="User" style="stroke:#A80036;stroke-width:1.875;" width="190" x="1253.75" y="550.625"/><ellipse cx="1312.8125" cy="575.7422" fill="#ADD1B2" rx="13.75" ry="13.75" style="stroke:#A80036;stroke-width:1.25;"/><path d="M1315.3125,571.3672 Q1315.5664,570.7422 1315.8594,570.4297 Q1316.1523,570.1172 1316.4844,570.1172 Q1317.0703,570.1172 1317.4414,570.4688 Q1317.8125,570.8203 1317.8125,571.6406 L1317.8125,573.5938 Q1317.8125,574.4141 1317.4609,574.7656 Q1317.1094,575.1172 1316.5625,575.1172 Q1316.0742,575.1172 1315.7617,574.9023 Q1315.4492,574.6875 1315.3125,574.1211 Q1315.2539,573.7305 1315.0391,573.5156 Q1314.6484,573.1055 1313.9453,572.8711 Q1313.2422,572.6172 1312.5391,572.6172 Q1311.6602,572.6172 1310.918,572.9688 Q1310.1953,573.3203 1309.6289,574.1016 Q1309.0625,574.8828 1309.0625,575.957 L1309.0625,577.1094 Q1309.0625,578.3984 1310.1172,579.2578 Q1311.1719,580.1172 1313.0469,580.1172 Q1314.1602,580.1172 1314.9414,579.8633 Q1315.3906,579.7266 1315.8984,579.2773 Q1316.2305,579.0234 1316.4063,578.9453 Q1316.582,578.8672 1316.7969,578.8672 Q1317.207,578.8672 1317.5,579.1992 Q1317.8125,579.5117 1317.8125,579.9609 Q1317.8125,580.3906 1317.3828,580.8984 Q1316.7578,581.6406 1315.7617,582.0508 Q1314.4531,582.6172 1312.8516,582.6172 Q1310.9766,582.6172 1309.4727,581.875 Q1308.2617,581.2891 1307.4023,580.0195 Q1306.5625,578.75 1306.5625,577.2461 L1306.5625,575.8789 Q1306.5625,574.3164 1307.3047,572.9492 Q1308.0664,571.582 1309.375,570.8594 Q1310.7031,570.1172 1312.1875,570.1172 Q1313.0859,570.1172 1313.8672,570.4297 Q1314.6484,570.7422 1315.3125,571.3672 Z " fill="#000000"/><text fill="#000000" font-family="sans-serif" font-size="15" font-style="italic" lengthAdjust="spacing" textLength="66.25" x="1335.9375" y="572.4463">«system»</text><text fill="#000000" font-family="sans-serif" font-size="15" lengthAdjust="spacing" textLength="33.75" x="1352.1875" y="591.3135">User</text><line style="stroke:#A80036;stroke-width:1.875;" x1="1255" x2="1442.5" y1="600.8594" y2="600.8594"/><line style="stroke:#A80036;stroke-width:1.875;" x1="1255" x2="1442.5" y1="610.8594" y2="610.8594"/><text fill="#000000" font-family="sans-serif" font-size="13.75" lengthAdjust="spacing" textLength="175" x="1261.25" y="630.1331">create(userName,password,</text><text fill="#000000" font-family="sans-serif" font-size="13.75" lengthAdjust="spacing" textLength="120" x="1265" y="647.428">firstName,lastName,</text><text fill="#000000" font-family="sans-serif" font-size="13.75" lengthAdjust="spacing" textLength="68.75" x="1265" y="664.7229">email,roles)</text><!--MD5=[ac8682ea5466d223e49472789fb200d2]
class Colaborador--><rect codeLine="48" fill="#FEFECE" filter="url(#fwkqe3ighmck6)" height="104.8242" id="Colaborador" style="stroke:#A80036;stroke-width:1.875;" width="448.75" x="1488.125" y="559.375"/><ellipse cx="1664.0625" cy="584.4922" fill="#ADD1B2" rx="13.75" ry="13.75" style="stroke:#A80036;stroke-width:1.25;"/><path d="M1666.5625,580.1172 Q1666.8164,579.4922 1667.1094,579.1797 Q1667.4023,578.8672 1667.7344,578.8672 Q1668.3203,578.8672 1668.6914,579.2188 Q1669.0625,579.5703 1669.0625,580.3906 L1669.0625,582.3438 Q1669.0625,583.1641 1668.7109,583.5156 Q1668.3594,583.8672 1667.8125,583.8672 Q1667.3242,583.8672 1667.0117,583.6523 Q1666.6992,583.4375 1666.5625,582.8711 Q1666.5039,582.4805 1666.2891,582.2656 Q1665.8984,581.8555 1665.1953,581.6211 Q1664.4922,581.3672 1663.7891,581.3672 Q1662.9102,581.3672 1662.168,581.7188 Q1661.4453,582.0703 1660.8789,582.8516 Q1660.3125,583.6328 1660.3125,584.707 L1660.3125,585.8594 Q1660.3125,587.1484 1661.3672,588.0078 Q1662.4219,588.8672 1664.2969,588.8672 Q1665.4102,588.8672 1666.1914,588.6133 Q1666.6406,588.4766 1667.1484,588.0273 Q1667.4805,587.7734 1667.6563,587.6953 Q1667.832,587.6172 1668.0469,587.6172 Q1668.457,587.6172 1668.75,587.9492 Q1669.0625,588.2617 1669.0625,588.7109 Q1669.0625,589.1406 1668.6328,589.6484 Q1668.0078,590.3906 1667.0117,590.8008 Q1665.7031,591.3672 1664.1016,591.3672 Q1662.2266,591.3672 1660.7227,590.625 Q1659.5117,590.0391 1658.6523,588.7695 Q1657.8125,587.5 1657.8125,585.9961 L1657.8125,584.6289 Q1657.8125,583.0664 1658.5547,581.6992 Q1659.3164,580.332 1660.625,579.6094 Q1661.9531,578.8672 1663.4375,578.8672 Q1664.3359,578.8672 1665.1172,579.1797 Q1665.8984,579.4922 1666.5625,580.1172 Z " fill="#000000"/><text fill="#000000" font-family="sans-serif" font-size="15" font-style="italic" lengthAdjust="spacing" textLength="70" x="1697.8125" y="581.1963">«domain»</text><text fill="#000000" font-family="sans-serif" font-size="15" lengthAdjust="spacing" textLength="86.25" x="1689.6875" y="600.0635">Colaborador</text><line style="stroke:#A80036;stroke-width:1.875;" x1="1489.375" x2="1935.625" y1="609.6094" y2="609.6094"/><line style="stroke:#A80036;stroke-width:1.875;" x1="1489.375" x2="1935.625" y1="619.6094" y2="619.6094"/><text fill="#000000" font-family="sans-serif" font-size="13.75" lengthAdjust="spacing" textLength="266.25" x="1495.625" y="638.8831">create(user,nomeCompleto,dataNascimento,</text><text fill="#000000" font-family="sans-serif" font-size="13.75" lengthAdjust="spacing" textLength="430" x="1499.375" y="656.178">numeroMecanografico,contactoTelefonico,localResidenciaColaborador)</text><!--MD5=[093c210125347143eef5bb9199eae634]
class UserRepository--><rect codeLine="52" fill="#FEFECE" filter="url(#fwkqe3ighmck6)" height="104.8242" id="UserRepository" style="stroke:#A80036;stroke-width:1.875;" width="150" x="107.5" y="796.25"/><ellipse cx="127.375" cy="821.3672" fill="#ADD1B2" rx="13.75" ry="13.75" style="stroke:#A80036;stroke-width:1.25;"/><path d="M129.875,816.9922 Q130.1289,816.3672 130.4219,816.0547 Q130.7148,815.7422 131.0469,815.7422 Q131.6328,815.7422 132.0039,816.0938 Q132.375,816.4453 132.375,817.2656 L132.375,819.2188 Q132.375,820.0391 132.0234,820.3906 Q131.6719,820.7422 131.125,820.7422 Q130.6367,820.7422 130.3242,820.5273 Q130.0117,820.3125 129.875,819.7461 Q129.8164,819.3555 129.6016,819.1406 Q129.2109,818.7305 128.5078,818.4961 Q127.8047,818.2422 127.1016,818.2422 Q126.2227,818.2422 125.4805,818.5938 Q124.7578,818.9453 124.1914,819.7266 Q123.625,820.5078 123.625,821.582 L123.625,822.7344 Q123.625,824.0234 124.6797,824.8828 Q125.7344,825.7422 127.6094,825.7422 Q128.7227,825.7422 129.5039,825.4883 Q129.9531,825.3516 130.4609,824.9023 Q130.793,824.6484 130.9688,824.5703 Q131.1445,824.4922 131.3594,824.4922 Q131.7695,824.4922 132.0625,824.8242 Q132.375,825.1367 132.375,825.5859 Q132.375,826.0156 131.9453,826.5234 Q131.3203,827.2656 130.3242,827.6758 Q129.0156,828.2422 127.4141,828.2422 Q125.5391,828.2422 124.0352,827.5 Q122.8242,826.9141 121.9648,825.6445 Q121.125,824.375 121.125,822.8711 L121.125,821.5039 Q121.125,819.9414 121.8672,818.5742 Q122.6289,817.207 123.9375,816.4844 Q125.2656,815.7422 126.75,815.7422 Q127.6484,815.7422 128.4297,816.0547 Q129.2109,816.3672 129.875,816.9922 Z " fill="#000000"/><text fill="#000000" font-family="sans-serif" font-size="15" font-style="italic" lengthAdjust="spacing" textLength="85" x="156.375" y="818.0713">«repository»</text><text fill="#000000" font-family="sans-serif" font-size="15" lengthAdjust="spacing" textLength="107.5" x="145.125" y="836.9385">UserRepository</text><line style="stroke:#A80036;stroke-width:1.875;" x1="108.75" x2="256.25" y1="846.4844" y2="846.4844"/><line style="stroke:#A80036;stroke-width:1.875;" x1="108.75" x2="256.25" y1="856.4844" y2="856.4844"/><text fill="#000000" font-family="sans-serif" font-size="13.75" lengthAdjust="spacing" textLength="68.75" x="115" y="875.7581">save(User)</text><text fill="#000000" font-family="sans-serif" font-size="13.75" lengthAdjust="spacing" textLength="135" x="115" y="893.053">usersRegistration(ctx)</text><!--MD5=[25ef1d309e5391bf1cd66b01d6bc17b2]
class FuncaoRepository--><rect codeLine="57" fill="#FEFECE" filter="url(#fwkqe3ighmck6)" height="87.5293" id="FuncaoRepository" style="stroke:#A80036;stroke-width:1.875;" width="165" x="301.25" y="805"/><ellipse cx="320" cy="830.1172" fill="#ADD1B2" rx="13.75" ry="13.75" style="stroke:#A80036;stroke-width:1.25;"/><path d="M322.5,825.7422 Q322.7539,825.1172 323.0469,824.8047 Q323.3398,824.4922 323.6719,824.4922 Q324.2578,824.4922 324.6289,824.8438 Q325,825.1953 325,826.0156 L325,827.9688 Q325,828.7891 324.6484,829.1406 Q324.2969,829.4922 323.75,829.4922 Q323.2617,829.4922 322.9492,829.2773 Q322.6367,829.0625 322.5,828.4961 Q322.4414,828.1055 322.2266,827.8906 Q321.8359,827.4805 321.1328,827.2461 Q320.4297,826.9922 319.7266,826.9922 Q318.8477,826.9922 318.1055,827.3438 Q317.3828,827.6953 316.8164,828.4766 Q316.25,829.2578 316.25,830.332 L316.25,831.4844 Q316.25,832.7734 317.3047,833.6328 Q318.3594,834.4922 320.2344,834.4922 Q321.3477,834.4922 322.1289,834.2383 Q322.5781,834.1016 323.0859,833.6523 Q323.418,833.3984 323.5938,833.3203 Q323.7695,833.2422 323.9844,833.2422 Q324.3945,833.2422 324.6875,833.5742 Q325,833.8867 325,834.3359 Q325,834.7656 324.5703,835.2734 Q323.9453,836.0156 322.9492,836.4258 Q321.6406,836.9922 320.0391,836.9922 Q318.1641,836.9922 316.6602,836.25 Q315.4492,835.6641 314.5898,834.3945 Q313.75,833.125 313.75,831.6211 L313.75,830.2539 Q313.75,828.6914 314.4922,827.3242 Q315.2539,825.957 316.5625,825.2344 Q317.8906,824.4922 319.375,824.4922 Q320.2734,824.4922 321.0547,824.8047 Q321.8359,825.1172 322.5,825.7422 Z " fill="#000000"/><text fill="#000000" font-family="sans-serif" font-size="15" font-style="italic" lengthAdjust="spacing" textLength="85" x="357.5" y="826.8213">«repository»</text><text fill="#000000" font-family="sans-serif" font-size="15" lengthAdjust="spacing" textLength="125" x="337.5" y="845.6885">FuncaoRepository</text><line style="stroke:#A80036;stroke-width:1.875;" x1="302.5" x2="465" y1="855.2344" y2="855.2344"/><line style="stroke:#A80036;stroke-width:1.875;" x1="302.5" x2="465" y1="865.2344" y2="865.2344"/><text fill="#000000" font-family="sans-serif" font-size="13.75" lengthAdjust="spacing" textLength="47.5" x="308.75" y="884.5081">findAll()</text><!--MD5=[e3d99162b7328c3f1201e3bd1b8bcde6]
class EquipaRepository--><rect codeLine="61" fill="#FEFECE" filter="url(#fwkqe3ighmck6)" height="87.5293" id="EquipaRepository" style="stroke:#A80036;stroke-width:1.875;" width="162.5" x="510" y="805"/><ellipse cx="528.75" cy="830.1172" fill="#ADD1B2" rx="13.75" ry="13.75" style="stroke:#A80036;stroke-width:1.25;"/><path d="M531.25,825.7422 Q531.5039,825.1172 531.7969,824.8047 Q532.0898,824.4922 532.4219,824.4922 Q533.0078,824.4922 533.3789,824.8438 Q533.75,825.1953 533.75,826.0156 L533.75,827.9688 Q533.75,828.7891 533.3984,829.1406 Q533.0469,829.4922 532.5,829.4922 Q532.0117,829.4922 531.6992,829.2773 Q531.3867,829.0625 531.25,828.4961 Q531.1914,828.1055 530.9766,827.8906 Q530.5859,827.4805 529.8828,827.2461 Q529.1797,826.9922 528.4766,826.9922 Q527.5977,826.9922 526.8555,827.3438 Q526.1328,827.6953 525.5664,828.4766 Q525,829.2578 525,830.332 L525,831.4844 Q525,832.7734 526.0547,833.6328 Q527.1094,834.4922 528.9844,834.4922 Q530.0977,834.4922 530.8789,834.2383 Q531.3281,834.1016 531.8359,833.6523 Q532.168,833.3984 532.3438,833.3203 Q532.5195,833.2422 532.7344,833.2422 Q533.1445,833.2422 533.4375,833.5742 Q533.75,833.8867 533.75,834.3359 Q533.75,834.7656 533.3203,835.2734 Q532.6953,836.0156 531.6992,836.4258 Q530.3906,836.9922 528.7891,836.9922 Q526.9141,836.9922 525.4102,836.25 Q524.1992,835.6641 523.3398,834.3945 Q522.5,833.125 522.5,831.6211 L522.5,830.2539 Q522.5,828.6914 523.2422,827.3242 Q524.0039,825.957 525.3125,825.2344 Q526.6406,824.4922 528.125,824.4922 Q529.0234,824.4922 529.8047,824.8047 Q530.5859,825.1172 531.25,825.7422 Z " fill="#000000"/><text fill="#000000" font-family="sans-serif" font-size="15" font-style="italic" lengthAdjust="spacing" textLength="85" x="565" y="826.8213">«repository»</text><text fill="#000000" font-family="sans-serif" font-size="15" lengthAdjust="spacing" textLength="122.5" x="546.25" y="845.6885">EquipaRepository</text><line style="stroke:#A80036;stroke-width:1.875;" x1="511.25" x2="671.25" y1="855.2344" y2="855.2344"/><line style="stroke:#A80036;stroke-width:1.875;" x1="511.25" x2="671.25" y1="865.2344" y2="865.2344"/><text fill="#000000" font-family="sans-serif" font-size="13.75" lengthAdjust="spacing" textLength="137.5" x="517.5" y="884.5081">findEquipasPossiveis()</text><!--MD5=[9a0e8f7957502662f95e783c1c3d84fe]
class ColaboradorRepository--><rect codeLine="65" fill="#FEFECE" filter="url(#fwkqe3ighmck6)" height="122.1191" id="ColaboradorRepository" style="stroke:#A80036;stroke-width:1.875;" width="200" x="716.25" y="787.5"/><ellipse cx="735" cy="812.6172" fill="#ADD1B2" rx="13.75" ry="13.75" style="stroke:#A80036;stroke-width:1.25;"/><path d="M737.5,808.2422 Q737.7539,807.6172 738.0469,807.3047 Q738.3398,806.9922 738.6719,806.9922 Q739.2578,806.9922 739.6289,807.3438 Q740,807.6953 740,808.5156 L740,810.4688 Q740,811.2891 739.6484,811.6406 Q739.2969,811.9922 738.75,811.9922 Q738.2617,811.9922 737.9492,811.7773 Q737.6367,811.5625 737.5,810.9961 Q737.4414,810.6055 737.2266,810.3906 Q736.8359,809.9805 736.1328,809.7461 Q735.4297,809.4922 734.7266,809.4922 Q733.8477,809.4922 733.1055,809.8438 Q732.3828,810.1953 731.8164,810.9766 Q731.25,811.7578 731.25,812.832 L731.25,813.9844 Q731.25,815.2734 732.3047,816.1328 Q733.3594,816.9922 735.2344,816.9922 Q736.3477,816.9922 737.1289,816.7383 Q737.5781,816.6016 738.0859,816.1523 Q738.418,815.8984 738.5938,815.8203 Q738.7695,815.7422 738.9844,815.7422 Q739.3945,815.7422 739.6875,816.0742 Q740,816.3867 740,816.8359 Q740,817.2656 739.5703,817.7734 Q738.9453,818.5156 737.9492,818.9258 Q736.6406,819.4922 735.0391,819.4922 Q733.1641,819.4922 731.6602,818.75 Q730.4492,818.1641 729.5898,816.8945 Q728.75,815.625 728.75,814.1211 L728.75,812.7539 Q728.75,811.1914 729.4922,809.8242 Q730.2539,808.457 731.5625,807.7344 Q732.8906,806.9922 734.375,806.9922 Q735.2734,806.9922 736.0547,807.3047 Q736.8359,807.6172 737.5,808.2422 Z " fill="#000000"/><text fill="#000000" font-family="sans-serif" font-size="15" font-style="italic" lengthAdjust="spacing" textLength="85" x="790" y="809.3213">«repository»</text><text fill="#000000" font-family="sans-serif" font-size="15" lengthAdjust="spacing" textLength="160" x="752.5" y="828.1885">ColaboradorRepository</text><line style="stroke:#A80036;stroke-width:1.875;" x1="717.5" x2="915" y1="837.7344" y2="837.7344"/><line style="stroke:#A80036;stroke-width:1.875;" x1="717.5" x2="915" y1="847.7344" y2="847.7344"/><text fill="#000000" font-family="sans-serif" font-size="13.75" lengthAdjust="spacing" textLength="47.5" x="723.75" y="867.0081">findAll()</text><text fill="#000000" font-family="sans-serif" font-size="13.75" lengthAdjust="spacing" textLength="72.5" x="723.75" y="884.303">save(colab)</text><text fill="#000000" font-family="sans-serif" font-size="13.75" lengthAdjust="spacing" textLength="158.75" x="723.75" y="901.5979">registoColaboradores(ctx)</text><!--MD5=[0f6c5aca6998816433db9e5ce6ee5e43]
link AddUserUI to AddUserController--><path codeLine="71" d="M1360.2375,78.9875 C1299.55,112.125 1204.4125,164.0625 1120.6375,209.7875 " fill="none" id="AddUserUI-to-AddUserController" style="stroke:#A80036;stroke-width:1.25;"/><polygon fill="#A80036" points="1115.1375,212.8,1127.4067,211.7856,1120.6202,209.7997,1122.6062,203.0132,1115.1375,212.8" style="stroke:#A80036;stroke-width:1.25;"/><text fill="#000000" font-family="sans-serif" font-size="16.25" lengthAdjust="spacing" textLength="91.25" x="1283.75" y="134.3689">theController</text><!--MD5=[44563857b34da57fe60d5e67f401b4a8]
link AddUserUI to User--><path codeLine="74" d="M1424.125,78.925 C1426.9625,154.7875 1429.5625,343.525 1395,496.25 C1391.4125,512.1125 1385.8875,528.625 1379.875,544 " fill="none" id="AddUserUI-to-User" style="stroke:#A80036;stroke-width:1.25;stroke-dasharray:7.0,7.0;"/><polygon fill="#A80036" points="1377.475,550.0625,1386.2955,541.4741,1379.7962,544.2595,1377.0108,537.7602,1377.475,550.0625" style="stroke:#A80036;stroke-width:1.25;"/><text fill="#000000" font-family="sans-serif" font-size="16.25" lengthAdjust="spacing" textLength="56.25" x="1427.5" y="313.1189">theUser</text><!--MD5=[3935194cd159869fb9d81e86f853981f]
link AddUserUI to Colaborador--><path codeLine="75" d="M1441.65,78.7875 C1456.5,105.175 1477.425,142.85 1495,176.25 C1565.475,310.175 1644.025,469.775 1684.6875,553.25 " fill="none" id="AddUserUI-to-Colaborador" style="stroke:#A80036;stroke-width:1.25;stroke-dasharray:7.0,7.0;"/><polygon fill="#A80036" points="1687.55,559.125,1687.1324,546.821,1684.8194,553.5031,1678.1373,551.1901,1687.55,559.125" style="stroke:#A80036;stroke-width:1.25;"/><text fill="#000000" font-family="sans-serif" font-size="16.25" lengthAdjust="spacing" textLength="86.25" x="1628.75" y="313.1189">Colaborador</text><!--MD5=[95bfb34022e9b188e71e6aed35af273a]
link AddUserController to UserRepository--><path codeLine="76" d="M777.15,314.35 C615.275,330.3875 376.325,380.575 241.25,533.75 C178.7625,604.6125 173.45,720.2625 176.875,789.6 " fill="none" id="AddUserController-to-UserRepository" style="stroke:#A80036;stroke-width:1.25;"/><polygon fill="#A80036" points="177.225,796.1625,181.6078,784.658,176.8862,789.9217,171.6225,785.2001,177.225,796.1625" style="stroke:#A80036;stroke-width:1.25;"/><text fill="#000000" font-family="sans-serif" font-size="16.25" lengthAdjust="spacing" textLength="31.25" x="242.5" y="618.7439">repo</text><!--MD5=[95282d9388d9cef29660a0812661ab72]
link AddUserController to TransactionalContext--><path codeLine="77" d="M1016.9,436.65 C1031.9125,467.7875 1046.525,501.425 1057.5,533.75 C1085.725,616.9125 1087.6,640.1125 1096.25,727.5 C1098.25,747.65 1097.65,769.775 1096.1375,789.4625 " fill="none" id="AddUserController-to-TransactionalContext" style="stroke:#A80036;stroke-width:1.25;stroke-dasharray:7.0,7.0;"/><polygon fill="#A80036" points="1095.6,796.05,1101.5144,785.2527,1096.1176,789.8215,1091.5488,784.4246,1095.6,796.05" style="stroke:#A80036;stroke-width:1.25;"/><text fill="#000000" font-family="sans-serif" font-size="16.25" lengthAdjust="spacing" textLength="83.75" x="1093.75" y="618.7439">persistence</text><!--MD5=[8f4aabb34a5d96535bee493d712df1da]
link AddUserController to User--><path codeLine="79" d="M1113.4375,436.4375 C1139.825,456.55 1166.85,477.0375 1192.5,496.25 C1214.325,512.6 1238.0125,530.075 1260.1875,546.3125 " fill="none" id="AddUserController-to-User" style="stroke:#A80036;stroke-width:1.25;"/><polygon fill="#A80036" points="1265.7875,550.425,1259.6772,539.7373,1260.7492,546.7267,1253.7598,547.7986,1265.7875,550.425" style="stroke:#A80036;stroke-width:1.25;"/><text fill="#000000" font-family="sans-serif" font-size="16.25" lengthAdjust="spacing" textLength="56.25" x="1193.75" y="491.8689">theUser</text><!--MD5=[6b6360ed708ddab73886606f2eacac63]
link AddUserController to Colaborador--><path codeLine="80" d="M1115.35,374.4 C1253.9625,429.2375 1447.6125,505.8375 1576.375,556.775 " fill="none" id="AddUserController-to-Colaborador" style="stroke:#A80036;stroke-width:1.25;"/><polygon fill="#A80036" points="1582.45,559.175,1573.8382,550.3773,1576.6409,556.8692,1570.149,559.6719,1582.45,559.175" style="stroke:#A80036;stroke-width:1.25;"/><text fill="#000000" font-family="sans-serif" font-size="16.25" lengthAdjust="spacing" textLength="86.25" x="1422.5" y="491.8689">Colaborador</text><!--MD5=[2b69555e76a46d130683fd2fe3dc6d86]
link AddUserController to ColaboradorBuilder--><path codeLine="83" d="M826.0375,436.4875 C796.9375,467.7125 766.6125,500.25 740.1625,528.6375 " fill="none" id="AddUserController-to-ColaboradorBuilder" style="stroke:#A80036;stroke-width:1.25;"/><polygon fill="#A80036" points="735.6125,533.5125,746.9445,528.7013,739.8776,528.944,739.6349,521.8771,735.6125,533.5125" style="stroke:#A80036;stroke-width:1.25;"/><text fill="#000000" font-family="sans-serif" font-size="16.25" lengthAdjust="spacing" textLength="33.75" x="790" y="491.8689">build</text><!--MD5=[0fda860d3d8e03702ddf23813751bd1b]
link AddUserController to UserBuilder--><path codeLine="84" d="M777.1625,326.5375 C574.125,352.15 248.575,402.8 150,473.75 C119.95,495.375 99.3875,532.075 86.6375,562.025 " fill="none" id="AddUserController-to-UserBuilder" style="stroke:#A80036;stroke-width:1.25;"/><polygon fill="#A80036" points="84.2,567.925,93.1293,559.4497,86.595,562.1521,83.8926,555.6178,84.2,567.925" style="stroke:#A80036;stroke-width:1.25;"/><text fill="#000000" font-family="sans-serif" font-size="16.25" lengthAdjust="spacing" textLength="33.75" x="151.25" y="491.8689">build</text><!--MD5=[479aaa8fa35354c474e825e01f61d0f9]
link AddUserController to RepositoryFactory--><path codeLine="85" d="M946.25,436.4875 C946.25,467.2 946.25,499.175 946.25,527.225 " fill="none" id="AddUserController-to-RepositoryFactory" style="stroke:#A80036;stroke-width:1.25;"/><polygon fill="#A80036" points="946.25,533.5125,951.25,522.2625,946.25,527.2625,941.25,522.2625,946.25,533.5125" style="stroke:#A80036;stroke-width:1.25;"/><text fill="#000000" font-family="sans-serif" font-size="16.25" lengthAdjust="spacing" textLength="48.75" x="947.5" y="491.8689">factory</text><!--MD5=[bef66019003fc36b203f188c965b4875]
link AddUserController to PersistenceContext--><path codeLine="89" d="M777.05,384.2875 C690.2875,425.55 583.9125,479.0875 492.5,533.75 C477.125,542.95 461.0875,553.6125 446.2125,564.025 " fill="none" id="AddUserController-to-PersistenceContext" style="stroke:#A80036;stroke-width:1.25;"/><polygon fill="#A80036" points="440.7875,567.85,452.8667,565.4721,445.901,564.2563,447.1168,557.2905,440.7875,567.85" style="stroke:#A80036;stroke-width:1.25;"/><text fill="#000000" font-family="sans-serif" font-size="16.25" lengthAdjust="spacing" textLength="83.75" x="591.25" y="491.8689">persistence</text><!--MD5=[552222dc2e1c179bec6356e0163f8b9d]
link PersistenceContext to UserRepository--><path codeLine="90" d="M346.8375,656.1125 C314.2375,694.0875 266.475,749.7125 230.825,791.2125 " fill="none" id="PersistenceContext-to-UserRepository" style="stroke:#A80036;stroke-width:1.25;"/><polygon fill="#A80036" points="226.55,796.2,237.6775,790.933,230.6263,791.4622,230.0971,784.411,226.55,796.2" style="stroke:#A80036;stroke-width:1.25;"/><text fill="#000000" font-family="sans-serif" font-size="16.25" lengthAdjust="spacing" textLength="31.25" x="285" y="745.6189">repo</text><!--MD5=[256b3214990f6eb1a44807ff8e57bcc7]
link PersistenceContext to FuncaoRepository--><path codeLine="91" d="M383.75,656.1125 C383.75,696.25 383.75,756.125 383.75,798.1875 " fill="none" id="PersistenceContext-to-FuncaoRepository" style="stroke:#A80036;stroke-width:1.25;"/><polygon fill="#A80036" points="383.75,804.7875,388.75,793.5375,383.75,798.5375,378.75,793.5375,383.75,804.7875" style="stroke:#A80036;stroke-width:1.25;"/><text fill="#000000" font-family="sans-serif" font-size="16.25" lengthAdjust="spacing" textLength="31.25" x="385" y="745.6189">repo</text><!--MD5=[220d566646908776f583778b1aa0a8b0]
link PersistenceContext to EquipaRepository--><path codeLine="92" d="M421.8125,656.1125 C457.7875,696.75 511.6625,757.6125 548.9625,799.7375 " fill="none" id="PersistenceContext-to-EquipaRepository" style="stroke:#A80036;stroke-width:1.25;"/><polygon fill="#A80036" points="553.4375,804.7875,549.7227,793.0503,549.2941,800.1083,542.236,799.6797,553.4375,804.7875" style="stroke:#A80036;stroke-width:1.25;"/><text fill="#000000" font-family="sans-serif" font-size="16.25" lengthAdjust="spacing" textLength="31.25" x="501.25" y="745.6189">repo</text><!--MD5=[b41437e2739974f4201be0aff7d578d2]
link PersistenceContext to ColaboradorRepository--><path codeLine="93" d="M440.15,655.625 C456.65,667.3375 474.975,679.6625 492.5,690 C578.0875,740.525 604.4,743.975 693.75,787.5 C699.175,790.15 704.7375,792.8625 710.3625,795.6 " fill="none" id="PersistenceContext-to-ColaboradorRepository" style="stroke:#A80036;stroke-width:1.25;"/><polygon fill="#A80036" points="715.9875,798.35,708.0767,788.917,710.3726,795.6049,703.6846,797.9008,715.9875,798.35" style="stroke:#A80036;stroke-width:1.25;"/><text fill="#000000" font-family="sans-serif" font-size="16.25" lengthAdjust="spacing" textLength="31.25" x="611.25" y="745.6189">repo</text><!--MD5=[23f54f096760680859c6511b50905cdc]
link RepositoryFactory to TransactionalContext--><path codeLine="95" d="M974.45,690.1375 C983.1125,710.25 993.4375,731.4625 1005,750 C1013.75,764.0375 1024.4625,778.125 1035.2625,791.0625 " fill="none" id="RepositoryFactory-to-TransactionalContext" style="stroke:#A80036;stroke-width:1.25;"/><polygon fill="#A80036" points="1039.5625,796.1375,1036.1106,784.3203,1035.5246,791.367,1028.4778,790.781,1039.5625,796.1375" style="stroke:#A80036;stroke-width:1.25;"/><text fill="#000000" font-family="sans-serif" font-size="16.25" lengthAdjust="spacing" textLength="83.75" x="1006.25" y="745.6189">persistence</text><!--MD5=[d69ebc7a1d411ac04aed88b327e0826a]
@startuml

class AddUserUI <<presentation>>{
}

class AddUserController <<application>>{
addUser(userName,FirstName,LastName,E-mail,roles)
showListOfFunctions()
associarFuncao()
showListOfEquipas()
associarEquipa(equipa)
showListOfColaborators()
associarResponsavelHierarquico(colaborador)
adicionarColaborador(nomeCurto,nomeCompleto,\ndataNascimento, numeroMecanografico,\ncontactoTelefonico,funcao,equipas,\n localResidenciaColaborador)
}

interface RepositoryFactory <<factory>>{
newTransactionalContext()
users()
funcoes()
equipas()
colaboradores()
}

class UserBuilder <<builder>>{
createUser()
}

class PersistenceContext <<Persistence>>{
repositories()
}
class ColaboradorBuilder <<builder>>{
associarFuncao(funcao)
associarEquipa(equipa)
associarResponsavelHierarquico(colaborador)
withNomeCurto(nomeCurto)
build()
}

interface TransactionalContext <<persistence>>{
beginTransaction()
commit()
}

class User <<system>>{
create(userName,password,\n firstName,lastName,\n email,roles)
}

class Colaborador <<domain>>{
create(user,nomeCompleto,dataNascimento,\n numeroMecanografico,contactoTelefonico,localResidenciaColaborador)
}

class UserRepository <<repository>>{
save(User)
usersRegistration(ctx)
}

class FuncaoRepository <<repository>>{
findAll()
}

class EquipaRepository <<repository>>{
findEquipasPossiveis()
}

class ColaboradorRepository <<repository>>{
findAll()
save(colab)
registoColaboradores(ctx)
}

AddUserUI - -> AddUserController : theController


AddUserUI ..> User : theUser
AddUserUI ..> Colaborador : Colaborador
AddUserController - -> UserRepository : repo
AddUserController ..> TransactionalContext : persistence

AddUserController - -> User : theUser
AddUserController - -> Colaborador : Colaborador


AddUserController - -> ColaboradorBuilder : build
AddUserController - -> UserBuilder : build
AddUserController - -> RepositoryFactory : factory



AddUserController - -> PersistenceContext : persistence
PersistenceContext - -> UserRepository : repo
PersistenceContext - -> FuncaoRepository : repo
PersistenceContext - -> EquipaRepository : repo
PersistenceContext - -> ColaboradorRepository : repo

RepositoryFactory - -> TransactionalContext : persistence


@enduml

PlantUML version 1.2021.5(Sun Apr 25 12:20:28 BST 2021)
(GPL source distribution)
Java Runtime: OpenJDK Runtime Environment
JVM: Dynamic Code Evolution 64-Bit Server VM
Default Encoding: Cp1252
Language: pt
Country: PT
--></g></svg>