<?xml version="1.0" encoding="UTF-8" standalone="no"?><svg xmlns="http://www.w3.org/2000/svg" xmlns:xlink="http://www.w3.org/1999/xlink" contentScriptType="application/ecmascript" contentStyleType="text/css" height="453.27px" preserveAspectRatio="none" style="width:459px;height:453px;" version="1.1" viewBox="0 0 459 453" width="459.36px" zoomAndPan="magnify"><defs><filter height="300%" id="f18cqk1njttd5j" width="300%" x="-1" y="-1"><feGaussianBlur result="blurOut" stdDeviation="1.74"/><feColorMatrix in="blurOut" result="blurOut2" type="matrix" values="0 0 0 0 0 0 0 0 0 0 0 0 0 0 0 0 0 0 .4 0"/><feOffset dx="3.48" dy="3.48" in="blurOut2" result="blurOut3"/><feBlend in="SourceGraphic" in2="blurOut3" mode="normal"/></filter></defs><g><!--MD5=[c3fc93456e82d1a7e8b6a3a0ec3a6bbf]
class CriarTipoEquipaUI--><rect codeLine="3" fill="#FEFECE" filter="url(#f18cqk1njttd5j)" height="48.8831" id="CriarTipoEquipaUI" style="stroke:#A80036;stroke-width:1.305;" width="116.58" x="256.65" y="6.09"/><ellipse cx="269.7" cy="23.5716" fill="#ADD1B2" rx="9.57" ry="9.57" style="stroke:#A80036;stroke-width:0.87;"/><path d="M271.44,20.5266 Q271.6167,20.0916 271.8206,19.8741 Q272.0245,19.6566 272.2556,19.6566 Q272.6634,19.6566 272.9217,19.9013 Q273.18,20.1459 273.18,20.7169 L273.18,22.0762 Q273.18,22.6472 272.9353,22.8919 Q272.6906,23.1366 272.31,23.1366 Q271.9702,23.1366 271.7527,22.987 Q271.5352,22.8375 271.44,22.4433 Q271.3992,22.1714 271.2497,22.0219 Q270.9778,21.7364 270.4884,21.5733 Q269.9991,21.3966 269.5097,21.3966 Q268.898,21.3966 268.3814,21.6413 Q267.8784,21.8859 267.4842,22.4297 Q267.09,22.9734 267.09,23.7211 L267.09,24.5231 Q267.09,25.4203 267.8241,26.0184 Q268.5581,26.6166 269.8631,26.6166 Q270.638,26.6166 271.1817,26.4398 Q271.4944,26.3447 271.8478,26.032 Q272.0789,25.8553 272.2013,25.8009 Q272.3236,25.7466 272.4731,25.7466 Q272.7586,25.7466 272.9625,25.9777 Q273.18,26.1952 273.18,26.5078 Q273.18,26.8069 272.8809,27.1603 Q272.4459,27.6769 271.7527,27.9623 Q270.8419,28.3566 269.7272,28.3566 Q268.4222,28.3566 267.3755,27.84 Q266.5327,27.4322 265.9345,26.5486 Q265.35,25.665 265.35,24.6183 L265.35,23.6667 Q265.35,22.5792 265.8666,21.6277 Q266.3967,20.6761 267.3075,20.1731 Q268.2319,19.6566 269.265,19.6566 Q269.8903,19.6566 270.4341,19.8741 Q270.9778,20.0916 271.44,20.5266 Z " fill="#000000"/><text fill="#000000" font-family="sans-serif" font-size="10.44" font-style="italic" lengthAdjust="spacing" textLength="71.34" x="290.58" y="21.2776">«presentation»</text><text fill="#000000" font-family="sans-serif" font-size="10.44" lengthAdjust="spacing" textLength="88.74" x="281.88" y="34.4092">CriarTipoEquipaUI</text><line style="stroke:#A80036;stroke-width:1.305;" x1="257.52" x2="372.36" y1="41.0531" y2="41.0531"/><line style="stroke:#A80036;stroke-width:1.305;" x1="257.52" x2="372.36" y1="48.0131" y2="48.0131"/><!--MD5=[f9194a0eaf1319bb52f67871a8b40f3d]
class CriarTipoEquipaController--><rect codeLine="6" fill="#FEFECE" filter="url(#f18cqk1njttd5j)" height="60.9204" id="CriarTipoEquipaController" style="stroke:#A80036;stroke-width:1.305;" width="337.56" x="31.32" y="122.67"/><ellipse cx="133.7625" cy="140.1516" fill="#ADD1B2" rx="9.57" ry="9.57" style="stroke:#A80036;stroke-width:0.87;"/><path d="M135.5025,137.1066 Q135.6792,136.6716 135.8831,136.4541 Q136.087,136.2366 136.3181,136.2366 Q136.7259,136.2366 136.9842,136.4813 Q137.2425,136.7259 137.2425,137.2969 L137.2425,138.6563 Q137.2425,139.2272 136.9978,139.4719 Q136.7531,139.7166 136.3725,139.7166 Q136.0327,139.7166 135.8152,139.567 Q135.5977,139.4175 135.5025,139.0233 Q135.4617,138.7514 135.3122,138.6019 Q135.0403,138.3164 134.5509,138.1533 Q134.0616,137.9766 133.5722,137.9766 Q132.9605,137.9766 132.4439,138.2213 Q131.9409,138.4659 131.5467,139.0097 Q131.1525,139.5534 131.1525,140.3011 L131.1525,141.1031 Q131.1525,142.0003 131.8866,142.5984 Q132.6206,143.1966 133.9256,143.1966 Q134.7005,143.1966 135.2442,143.0198 Q135.5569,142.9247 135.9103,142.612 Q136.1414,142.4353 136.2638,142.3809 Q136.3861,142.3266 136.5356,142.3266 Q136.8211,142.3266 137.025,142.5577 Q137.2425,142.7752 137.2425,143.0878 Q137.2425,143.3869 136.9434,143.7403 Q136.5084,144.2569 135.8152,144.5423 Q134.9044,144.9366 133.7897,144.9366 Q132.4847,144.9366 131.438,144.42 Q130.5952,144.0122 129.997,143.1286 Q129.4125,142.245 129.4125,141.1983 L129.4125,140.2467 Q129.4125,139.1592 129.9291,138.2077 Q130.4592,137.2561 131.37,136.7531 Q132.2944,136.2366 133.3275,136.2366 Q133.9528,136.2366 134.4966,136.4541 Q135.0403,136.6716 135.5025,137.1066 Z " fill="#000000"/><text fill="#000000" font-family="sans-serif" font-size="10.44" font-style="italic" lengthAdjust="spacing" textLength="64.38" x="182.0475" y="137.8576">«application»</text><text fill="#000000" font-family="sans-serif" font-size="10.44" lengthAdjust="spacing" textLength="125.28" x="151.5975" y="150.9892">CriarTipoEquipaController</text><line style="stroke:#A80036;stroke-width:1.305;" x1="32.19" x2="368.01" y1="157.6331" y2="157.6331"/><line style="stroke:#A80036;stroke-width:1.305;" x1="32.19" x2="368.01" y1="164.5931" y2="164.5931"/><text fill="#000000" font-family="sans-serif" font-size="9.57" lengthAdjust="spacing" textLength="327.12" x="36.54" y="178.0076">adicionarTipoEquipa(codigoInternoUnicoTipoEquipa, cor, descricaoTipoEquipa)</text><!--MD5=[e8c189551b7885b999ad7cefb30fc2a3]
class PersistenceContext--><rect codeLine="10" fill="#FEFECE" filter="url(#f18cqk1njttd5j)" height="60.9204" id="PersistenceContext" style="stroke:#A80036;stroke-width:1.305;" width="120.93" x="12.615" y="251.43"/><ellipse cx="25.665" cy="268.9116" fill="#ADD1B2" rx="9.57" ry="9.57" style="stroke:#A80036;stroke-width:0.87;"/><path d="M27.405,265.8666 Q27.5817,265.4316 27.7856,265.2141 Q27.9895,264.9966 28.2206,264.9966 Q28.6284,264.9966 28.8867,265.2413 Q29.145,265.4859 29.145,266.0569 L29.145,267.4163 Q29.145,267.9872 28.9003,268.2319 Q28.6556,268.4766 28.275,268.4766 Q27.9352,268.4766 27.7177,268.327 Q27.5002,268.1775 27.405,267.7833 Q27.3642,267.5114 27.2147,267.3619 Q26.9428,267.0764 26.4534,266.9133 Q25.9641,266.7366 25.4747,266.7366 Q24.863,266.7366 24.3464,266.9813 Q23.8434,267.2259 23.4492,267.7697 Q23.055,268.3134 23.055,269.0611 L23.055,269.8631 Q23.055,270.7603 23.7891,271.3584 Q24.5231,271.9566 25.8281,271.9566 Q26.603,271.9566 27.1467,271.7798 Q27.4594,271.6847 27.8128,271.372 Q28.0439,271.1953 28.1663,271.1409 Q28.2886,271.0866 28.4381,271.0866 Q28.7236,271.0866 28.9275,271.3177 Q29.145,271.5352 29.145,271.8478 Q29.145,272.1469 28.8459,272.5003 Q28.4109,273.0169 27.7177,273.3023 Q26.8069,273.6966 25.6922,273.6966 Q24.3872,273.6966 23.3405,273.18 Q22.4977,272.7722 21.8995,271.8886 Q21.315,271.005 21.315,269.9583 L21.315,269.0067 Q21.315,267.9192 21.8316,266.9677 Q22.3617,266.0161 23.2725,265.5131 Q24.1969,264.9966 25.23,264.9966 Q25.8553,264.9966 26.3991,265.2141 Q26.9428,265.4316 27.405,265.8666 Z " fill="#000000"/><text fill="#000000" font-family="sans-serif" font-size="10.44" font-style="italic" lengthAdjust="spacing" textLength="67.86" x="50.46" y="266.6176">«Persistence»</text><text fill="#000000" font-family="sans-serif" font-size="10.44" lengthAdjust="spacing" textLength="93.09" x="37.845" y="279.7492">PersistenceContext</text><line style="stroke:#A80036;stroke-width:1.305;" x1="13.485" x2="132.675" y1="286.3931" y2="286.3931"/><line style="stroke:#A80036;stroke-width:1.305;" x1="13.485" x2="132.675" y1="293.3531" y2="293.3531"/><text fill="#000000" font-family="sans-serif" font-size="9.57" lengthAdjust="spacing" textLength="56.55" x="17.835" y="306.7676">repositories()</text><!--MD5=[48590afff58a68e2fcba47824d6f8a11]
class RepositoryFactory--><rect codeLine="14" fill="#FEFECE" filter="url(#f18cqk1njttd5j)" height="48.8831" id="RepositoryFactory" style="stroke:#A80036;stroke-width:1.305;" width="113.1" x="164.43" y="257.52"/><ellipse cx="177.48" cy="275.0016" fill="#ADD1B2" rx="9.57" ry="9.57" style="stroke:#A80036;stroke-width:0.87;"/><path d="M179.22,271.9566 Q179.3967,271.5216 179.6006,271.3041 Q179.8045,271.0866 180.0356,271.0866 Q180.4434,271.0866 180.7017,271.3313 Q180.96,271.5759 180.96,272.1469 L180.96,273.5063 Q180.96,274.0772 180.7153,274.3219 Q180.4706,274.5666 180.09,274.5666 Q179.7502,274.5666 179.5327,274.417 Q179.3152,274.2675 179.22,273.8733 Q179.1792,273.6014 179.0297,273.4519 Q178.7578,273.1664 178.2684,273.0033 Q177.7791,272.8266 177.2897,272.8266 Q176.678,272.8266 176.1614,273.0713 Q175.6584,273.3159 175.2642,273.8597 Q174.87,274.4034 174.87,275.1511 L174.87,275.9531 Q174.87,276.8503 175.6041,277.4484 Q176.3381,278.0466 177.6431,278.0466 Q178.418,278.0466 178.9617,277.8698 Q179.2744,277.7747 179.6278,277.462 Q179.8589,277.2853 179.9813,277.2309 Q180.1036,277.1766 180.2531,277.1766 Q180.5386,277.1766 180.7425,277.4077 Q180.96,277.6252 180.96,277.9378 Q180.96,278.2369 180.6609,278.5903 Q180.2259,279.1069 179.5327,279.3923 Q178.6219,279.7866 177.5072,279.7866 Q176.2022,279.7866 175.1555,279.27 Q174.3127,278.8622 173.7145,277.9786 Q173.13,277.095 173.13,276.0483 L173.13,275.0967 Q173.13,274.0092 173.6466,273.0577 Q174.1767,272.1061 175.0875,271.6031 Q176.0119,271.0866 177.045,271.0866 Q177.6703,271.0866 178.2141,271.3041 Q178.7578,271.5216 179.22,271.9566 Z " fill="#000000"/><text fill="#000000" font-family="sans-serif" font-size="10.44" font-style="italic" lengthAdjust="spacing" textLength="43.5" x="210.54" y="272.7076">«factory»</text><text fill="#000000" font-family="sans-serif" font-size="10.44" lengthAdjust="spacing" textLength="85.26" x="189.66" y="285.8392">RepositoryFactory</text><line style="stroke:#A80036;stroke-width:1.305;" x1="165.3" x2="276.66" y1="292.4831" y2="292.4831"/><line style="stroke:#A80036;stroke-width:1.305;" x1="165.3" x2="276.66" y1="299.4431" y2="299.4431"/><!--MD5=[7ebe7a091837043f239f88bb431abcb2]
class TipoEquipaRepository--><rect codeLine="17" fill="#FEFECE" filter="url(#f18cqk1njttd5j)" height="60.9204" id="TipoEquipaRepository" style="stroke:#A80036;stroke-width:1.305;" width="133.98" x="6.09" y="380.19"/><ellipse cx="19.14" cy="397.6716" fill="#ADD1B2" rx="9.57" ry="9.57" style="stroke:#A80036;stroke-width:0.87;"/><path d="M20.88,394.6266 Q21.0567,394.1916 21.2606,393.9741 Q21.4645,393.7566 21.6956,393.7566 Q22.1034,393.7566 22.3617,394.0012 Q22.62,394.2459 22.62,394.8169 L22.62,396.1763 Q22.62,396.7472 22.3753,396.9919 Q22.1306,397.2366 21.75,397.2366 Q21.4102,397.2366 21.1927,397.087 Q20.9752,396.9375 20.88,396.5433 Q20.8392,396.2714 20.6897,396.1219 Q20.4178,395.8364 19.9284,395.6733 Q19.4391,395.4966 18.9497,395.4966 Q18.338,395.4966 17.8214,395.7413 Q17.3184,395.9859 16.9242,396.5297 Q16.53,397.0734 16.53,397.8211 L16.53,398.6231 Q16.53,399.5203 17.2641,400.1184 Q17.9981,400.7166 19.3031,400.7166 Q20.078,400.7166 20.6217,400.5398 Q20.9344,400.4447 21.2878,400.132 Q21.5189,399.9553 21.6413,399.9009 Q21.7636,399.8466 21.9131,399.8466 Q22.1986,399.8466 22.4025,400.0777 Q22.62,400.2952 22.62,400.6078 Q22.62,400.9069 22.3209,401.2603 Q21.8859,401.7769 21.1927,402.0623 Q20.2819,402.4566 19.1672,402.4566 Q17.8622,402.4566 16.8155,401.94 Q15.9727,401.5322 15.3745,400.6486 Q14.79,399.765 14.79,398.7183 L14.79,397.7667 Q14.79,396.6792 15.3066,395.7277 Q15.8367,394.7761 16.7475,394.2731 Q17.6719,393.7566 18.705,393.7566 Q19.3303,393.7566 19.8741,393.9741 Q20.4178,394.1916 20.88,394.6266 Z " fill="#000000"/><text fill="#000000" font-family="sans-serif" font-size="10.44" font-style="italic" lengthAdjust="spacing" textLength="59.16" x="54.81" y="395.3776">«repository»</text><text fill="#000000" font-family="sans-serif" font-size="10.44" lengthAdjust="spacing" textLength="106.14" x="31.32" y="408.5092">TipoEquipaRepository</text><line style="stroke:#A80036;stroke-width:1.305;" x1="6.96" x2="139.2" y1="415.1531" y2="415.1531"/><line style="stroke:#A80036;stroke-width:1.305;" x1="6.96" x2="139.2" y1="422.1131" y2="422.1131"/><text fill="#000000" font-family="sans-serif" font-size="9.57" lengthAdjust="spacing" textLength="93.96" x="11.31" y="435.5276">save(novoTipoEquipa)</text><!--MD5=[90a2bf7202f74ae320fe44f966ecd476]
class TipoEquipa--><rect codeLine="21" fill="#FEFECE" filter="url(#f18cqk1njttd5j)" height="48.8831" id="TipoEquipa" style="stroke:#A80036;stroke-width:1.305;" width="82.65" x="348.435" y="257.52"/><ellipse cx="361.485" cy="275.0016" fill="#ADD1B2" rx="9.57" ry="9.57" style="stroke:#A80036;stroke-width:0.87;"/><path d="M363.225,271.9566 Q363.4017,271.5216 363.6056,271.3041 Q363.8095,271.0866 364.0406,271.0866 Q364.4484,271.0866 364.7067,271.3313 Q364.965,271.5759 364.965,272.1469 L364.965,273.5063 Q364.965,274.0772 364.7203,274.3219 Q364.4756,274.5666 364.095,274.5666 Q363.7552,274.5666 363.5377,274.417 Q363.3202,274.2675 363.225,273.8733 Q363.1842,273.6014 363.0347,273.4519 Q362.7628,273.1664 362.2734,273.0033 Q361.7841,272.8266 361.2947,272.8266 Q360.683,272.8266 360.1664,273.0713 Q359.6634,273.3159 359.2692,273.8597 Q358.875,274.4034 358.875,275.1511 L358.875,275.9531 Q358.875,276.8503 359.6091,277.4484 Q360.3431,278.0466 361.6481,278.0466 Q362.423,278.0466 362.9667,277.8698 Q363.2794,277.7747 363.6328,277.462 Q363.8639,277.2853 363.9863,277.2309 Q364.1086,277.1766 364.2581,277.1766 Q364.5436,277.1766 364.7475,277.4077 Q364.965,277.6252 364.965,277.9378 Q364.965,278.2369 364.6659,278.5903 Q364.2309,279.1069 363.5377,279.3923 Q362.6269,279.7866 361.5122,279.7866 Q360.2072,279.7866 359.1605,279.27 Q358.3177,278.8622 357.7195,277.9786 Q357.135,277.095 357.135,276.0483 L357.135,275.0967 Q357.135,274.0092 357.6516,273.0577 Q358.1817,272.1061 359.0925,271.6031 Q360.0169,271.0866 361.05,271.0866 Q361.6753,271.0866 362.2191,271.3041 Q362.7628,271.5216 363.225,271.9566 Z " fill="#000000"/><text fill="#000000" font-family="sans-serif" font-size="10.44" font-style="italic" lengthAdjust="spacing" textLength="48.72" x="376.71" y="272.7076">«domain»</text><text fill="#000000" font-family="sans-serif" font-size="10.44" lengthAdjust="spacing" textLength="54.81" x="373.665" y="285.8392">TipoEquipa</text><line style="stroke:#A80036;stroke-width:1.305;" x1="349.305" x2="430.215" y1="292.4831" y2="292.4831"/><line style="stroke:#A80036;stroke-width:1.305;" x1="349.305" x2="430.215" y1="299.4431" y2="299.4431"/><!--MD5=[8145d859cc4516812b16e5802526aae3]
link CriarTipoEquipaUI to CriarTipoEquipaController--><path codeLine="24" d="M292.5288,54.9231 C275.1114,73.254 250.7601,98.9016 231.42,119.2683 " fill="none" id="CriarTipoEquipaUI-to-CriarTipoEquipaController" style="stroke:#A80036;stroke-width:0.87;"/><polygon fill="#A80036" points="228.3663,122.4873,236.2802,119.2025,231.3604,119.3317,231.2312,114.4119,228.3663,122.4873" style="stroke:#A80036;stroke-width:0.87;"/><text fill="#000000" font-family="sans-serif" font-size="11.31" lengthAdjust="spacing" textLength="63.51" x="268.83" y="93.5208">theController</text><!--MD5=[a91cdd313f84502e5a16cd08d880d284]
link CriarTipoEquipaUI to TipoEquipa--><path codeLine="26" d="M339.0912,54.8361 C354.96,71.9838 374.4219,96.6744 383.67,122.67 C399.0951,166.0221 396.9636,220.3275 393.6315,252.7611 " fill="none" id="CriarTipoEquipaUI-to-TipoEquipa" style="stroke:#A80036;stroke-width:0.87;stroke-dasharray:7.0,7.0;"/><polygon fill="#A80036" points="393.1356,257.3808,397.445,249.9748,393.6078,253.0565,390.5261,249.2193,393.1356,257.3808" style="stroke:#A80036;stroke-width:0.87;"/><text fill="#000000" font-family="sans-serif" font-size="11.31" lengthAdjust="spacing" textLength="55.68" x="396.72" y="157.9008">TipoEquipa</text><!--MD5=[7f8186b8690564c6a0ce25ea6659a39c]
link CriarTipoEquipaController to TipoEquipa--><path codeLine="28" d="M244.3308,183.6135 C276.6165,205.233 319.9773,234.2736 350.9319,255.0057 " fill="none" id="CriarTipoEquipaController-to-TipoEquipa" style="stroke:#A80036;stroke-width:0.87;"/><polygon fill="#A80036" points="354.6468,257.4939,350.0794,250.2442,351.0331,255.0724,346.205,256.0261,354.6468,257.4939" style="stroke:#A80036;stroke-width:0.87;"/><text fill="#000000" font-family="sans-serif" font-size="11.31" lengthAdjust="spacing" textLength="55.68" x="307.98" y="222.2808">TipoEquipa</text><!--MD5=[6df971a84ad7fdf5c400d3c9c4a79f7c]
link CriarTipoEquipaController to RepositoryFactory--><path codeLine="30" d="M204.9981,183.7701 C208.4259,204.6327 212.976,232.3335 216.3516,252.8307 " fill="none" id="CriarTipoEquipaController-to-RepositoryFactory" style="stroke:#A80036;stroke-width:0.87;"/><polygon fill="#A80036" points="217.0911,257.346,219.2754,249.0606,216.3961,253.0519,212.4048,250.1726,217.0911,257.346" style="stroke:#A80036;stroke-width:0.87;"/><text fill="#000000" font-family="sans-serif" font-size="11.31" lengthAdjust="spacing" textLength="33.93" x="213.15" y="222.2808">factory</text><!--MD5=[0ab56d8b3115a6c5f861bdcb69b2b4b8]
link CriarTipoEquipaController to PersistenceContext--><path codeLine="32" d="M169.2498,183.5961 C160.6107,191.9742 151.2321,201.144 142.68,209.67 C130.2477,222.0675 116.7366,235.8396 104.9568,247.9587 " fill="none" id="CriarTipoEquipaController-to-PersistenceContext" style="stroke:#A80036;stroke-width:0.87;"/><polygon fill="#A80036" points="101.6769,251.3256,109.6234,248.1206,104.7026,248.2003,104.6229,243.2795,101.6769,251.3256" style="stroke:#A80036;stroke-width:0.87;"/><text fill="#000000" font-family="sans-serif" font-size="11.31" lengthAdjust="spacing" textLength="58.29" x="143.55" y="222.2808">persistence</text><!--MD5=[b15ff563f2a950453b258eff1b491bd6]
link PersistenceContext to TipoEquipaRepository--><path codeLine="33" d="M73.08,312.5301 C73.08,331.4787 73.08,356.0823 73.08,375.7878 " fill="none" id="PersistenceContext-to-TipoEquipaRepository" style="stroke:#A80036;stroke-width:0.87;"/><polygon fill="#A80036" points="73.08,380.1726,76.56,372.3426,73.08,375.8226,69.6,372.3426,73.08,380.1726" style="stroke:#A80036;stroke-width:0.87;"/><text fill="#000000" font-family="sans-serif" font-size="11.31" lengthAdjust="spacing" textLength="21.75" x="73.95" y="351.0408">repo</text><!--MD5=[40e84e1a2b3cf405c43511dc4e51d141]
@startuml
'https://plantuml.com/use-case-diagram

class CriarTipoEquipaUI <<presentation>>{
}

class CriarTipoEquipaController <<application>>{
adicionarTipoEquipa(codigoInternoUnicoTipoEquipa, cor, descricaoTipoEquipa)
}

class PersistenceContext <<Persistence>>{
repositories()
}

class RepositoryFactory <<factory>>{
}

class TipoEquipaRepository <<repository>>{
save(novoTipoEquipa)
}

class TipoEquipa <<domain>>{
}

CriarTipoEquipaUI - -> CriarTipoEquipaController : theController

CriarTipoEquipaUI ..> TipoEquipa : TipoEquipa

CriarTipoEquipaController - -> TipoEquipa : TipoEquipa

CriarTipoEquipaController - -> RepositoryFactory : factory

CriarTipoEquipaController - -> PersistenceContext : persistence
PersistenceContext - -> TipoEquipaRepository : repo
@enduml

@startuml

class CriarTipoEquipaUI <<presentation>>{
}

class CriarTipoEquipaController <<application>>{
adicionarTipoEquipa(codigoInternoUnicoTipoEquipa, cor, descricaoTipoEquipa)
}

class PersistenceContext <<Persistence>>{
repositories()
}

class RepositoryFactory <<factory>>{
}

class TipoEquipaRepository <<repository>>{
save(novoTipoEquipa)
}

class TipoEquipa <<domain>>{
}

CriarTipoEquipaUI - -> CriarTipoEquipaController : theController

CriarTipoEquipaUI ..> TipoEquipa : TipoEquipa

CriarTipoEquipaController - -> TipoEquipa : TipoEquipa

CriarTipoEquipaController - -> RepositoryFactory : factory

CriarTipoEquipaController - -> PersistenceContext : persistence
PersistenceContext - -> TipoEquipaRepository : repo
@enduml

PlantUML version 1.2021.4(Sun Apr 04 09:49:39 BST 2021)
(GPL source distribution)
Java Runtime: OpenJDK Runtime Environment
JVM: Dynamic Code Evolution 64-Bit Server VM
Default Encoding: Cp1252
Language: pt
Country: PT
--></g></svg>