<?xml version="1.0" encoding="UTF-8" standalone="no"?><svg xmlns="http://www.w3.org/2000/svg" xmlns:xlink="http://www.w3.org/1999/xlink" contentScriptType="application/ecmascript" contentStyleType="text/css" height="1433.75px" preserveAspectRatio="none" style="width:1790px;height:1433px;background:#FFFFFF;" version="1.1" viewBox="0 0 1790 1433" width="1790px" zoomAndPan="magnify"><defs><filter height="300%" id="f1rmdve2sxie06" width="300%" x="-1" y="-1"><feGaussianBlur result="blurOut" stdDeviation="2.5"/><feColorMatrix in="blurOut" result="blurOut2" type="matrix" values="0 0 0 0 0 0 0 0 0 0 0 0 0 0 0 0 0 0 .4 0"/><feOffset dx="5.0" dy="5.0" in="blurOut2" result="blurOut3"/><feBlend in="SourceGraphic" in2="blurOut3" mode="normal"/></filter></defs><g><rect fill="#FFFFFF" filter="url(#f1rmdve2sxie06)" height="1150.7129" style="stroke:#A80036;stroke-width:1.25;" width="12.5" x="308.125" y="152.4512"/><rect fill="#FFFFFF" filter="url(#f1rmdve2sxie06)" height="1062.334" style="stroke:#A80036;stroke-width:1.25;" width="12.5" x="580.625" y="202.8906"/><rect fill="#FFFFFF" filter="url(#f1rmdve2sxie06)" height="67.7734" style="stroke:#A80036;stroke-width:1.25;" width="12.5" x="990.625" y="341.4258"/><rect fill="#FFFFFF" filter="url(#f1rmdve2sxie06)" height="181.7969" style="stroke:#A80036;stroke-width:1.25;" width="12.5" x="1174.375" y="421.6992"/><rect fill="#FFFFFF" filter="url(#f1rmdve2sxie06)" height="37.5" style="stroke:#A80036;stroke-width:1.25;" width="12.5" x="1345.625" y="830.8984"/><rect fill="#FFFFFF" filter="url(#f1rmdve2sxie06)" height="37.5" style="stroke:#A80036;stroke-width:1.25;" width="12.5" x="1345.625" y="1038.9063"/><rect fill="#FFFFFF" filter="url(#f1rmdve2sxie06)" height="37.5" style="stroke:#A80036;stroke-width:1.25;" width="12.5" x="1345.625" y="1227.7246"/><rect fill="#FFFFFF" filter="url(#f1rmdve2sxie06)" height="37.5" style="stroke:#A80036;stroke-width:1.25;" width="12.5" x="1527.5" y="755.459"/><rect fill="#FFFFFF" filter="url(#f1rmdve2sxie06)" height="37.5" style="stroke:#A80036;stroke-width:1.25;" width="12.5" x="1703.75" y="1152.2852"/><rect fill="#FFFFFF" filter="url(#f1rmdve2sxie06)" height="77.1289" style="stroke:#000000;stroke-width:2.5;" width="561.25" x="460.625" y="887.1484"/><line style="stroke:#A80036;stroke-width:1.25;stroke-dasharray:5.0,5.0;" x1="45" x2="45" y1="112.0117" y2="1325.6641"/><line style="stroke:#A80036;stroke-width:1.25;stroke-dasharray:5.0,5.0;" x1="314.375" x2="314.375" y1="112.0117" y2="1325.6641"/><line style="stroke:#A80036;stroke-width:1.25;stroke-dasharray:5.0,5.0;" x1="586.875" x2="586.875" y1="215.0879" y2="1325.6641"/><line style="stroke:#A80036;stroke-width:1.25;stroke-dasharray:5.0,5.0;" x1="804.375" x2="804.375" y1="284.3555" y2="1325.6641"/><line style="stroke:#A80036;stroke-width:1.25;stroke-dasharray:5.0,5.0;" x1="996.875" x2="996.875" y1="353.623" y2="1325.6641"/><line style="stroke:#A80036;stroke-width:1.25;stroke-dasharray:5.0,5.0;" x1="1180.625" x2="1180.625" y1="433.8965" y2="1325.6641"/><line style="stroke:#A80036;stroke-width:1.25;stroke-dasharray:5.0,5.0;" x1="1351.875" x2="1351.875" y1="531.0449" y2="1325.6641"/><line style="stroke:#A80036;stroke-width:1.25;stroke-dasharray:5.0,5.0;" x1="1533.125" x2="1533.125" y1="645.0684" y2="1325.6641"/><line style="stroke:#A80036;stroke-width:1.25;stroke-dasharray:5.0,5.0;" x1="1709.375" x2="1709.375" y1="112.0117" y2="1325.6641"/><text fill="#000000" font-family="sans-serif" font-size="17.5" lengthAdjust="spacing" textLength="71.25" x="6.25" y="108.1665">Utilizador</text><ellipse cx="45.625" cy="18.75" fill="#FEFECE" filter="url(#f1rmdve2sxie06)" rx="10" ry="10" style="stroke:#A80036;stroke-width:2.5;"/><path d="M45.625,28.75 L45.625,62.5 M29.375,38.75 L61.875,38.75 M45.625,62.5 L29.375,81.25 M45.625,62.5 L61.875,81.25 " fill="none" filter="url(#f1rmdve2sxie06)" style="stroke:#A80036;stroke-width:2.5;"/><text fill="#000000" font-family="sans-serif" font-size="17.5" lengthAdjust="spacing" textLength="71.25" x="6.25" y="1342.5806">Utilizador</text><ellipse cx="45.625" cy="1358.9258" fill="#FEFECE" filter="url(#f1rmdve2sxie06)" rx="10" ry="10" style="stroke:#A80036;stroke-width:2.5;"/><path d="M45.625,1368.9258 L45.625,1402.6758 M29.375,1378.9258 L61.875,1378.9258 M45.625,1402.6758 L29.375,1421.4258 M45.625,1402.6758 L61.875,1421.4258 " fill="none" filter="url(#f1rmdve2sxie06)" style="stroke:#A80036;stroke-width:2.5;"/><rect fill="#FEFECE" filter="url(#f1rmdve2sxie06)" height="61.5234" style="stroke:#A80036;stroke-width:1.875;" width="160" x="231.875" y="44.2383"/><text fill="#000000" font-family="sans-serif" font-size="17.5" font-style="italic" lengthAdjust="spacing" textLength="118.75" x="252.5" y="71.1548">«presentation»</text><text fill="#000000" font-family="sans-serif" font-size="17.5" lengthAdjust="spacing" textLength="142.5" x="240.625" y="93.1665">InserirFeedbackUI</text><rect fill="#FEFECE" filter="url(#f1rmdve2sxie06)" height="61.5234" style="stroke:#A80036;stroke-width:1.875;" width="160" x="231.875" y="1324.4141"/><text fill="#000000" font-family="sans-serif" font-size="17.5" font-style="italic" lengthAdjust="spacing" textLength="118.75" x="252.5" y="1351.3306">«presentation»</text><text fill="#000000" font-family="sans-serif" font-size="17.5" lengthAdjust="spacing" textLength="142.5" x="240.625" y="1373.3423">InserirFeedbackUI</text><rect fill="#FEFECE" filter="url(#f1rmdve2sxie06)" height="61.5234" style="stroke:#A80036;stroke-width:1.875;" width="222.5" x="473.125" y="1324.4141"/><text fill="#000000" font-family="sans-serif" font-size="17.5" font-style="italic" lengthAdjust="spacing" textLength="105" x="531.875" y="1351.3306">«application»</text><text fill="#000000" font-family="sans-serif" font-size="17.5" lengthAdjust="spacing" textLength="205" x="481.875" y="1373.3423">InserirFeedbackController</text><rect fill="#FEFECE" filter="url(#f1rmdve2sxie06)" height="39.5117" style="stroke:#A80036;stroke-width:1.875;" width="178.75" x="713.125" y="1324.4141"/><text fill="#000000" font-family="sans-serif" font-size="17.5" lengthAdjust="spacing" textLength="161.25" x="721.875" y="1351.3306">AuthorizationService</text><rect fill="#FEFECE" filter="url(#f1rmdve2sxie06)" height="61.5234" style="stroke:#A80036;stroke-width:1.875;" width="170" x="909.375" y="1324.4141"/><text fill="#000000" font-family="sans-serif" font-size="17.5" font-style="italic" lengthAdjust="spacing" textLength="111.25" x="938.75" y="1351.3306">«persistence»</text><text fill="#000000" font-family="sans-serif" font-size="17.5" lengthAdjust="spacing" textLength="152.5" x="918.125" y="1373.3423">PersistenceContext</text><rect fill="#FEFECE" filter="url(#f1rmdve2sxie06)" height="61.5234" style="stroke:#A80036;stroke-width:1.875;" width="162.5" x="1096.875" y="1324.4141"/><text fill="#000000" font-family="sans-serif" font-size="17.5" font-style="italic" lengthAdjust="spacing" textLength="73.75" x="1141.25" y="1351.3306">«factory»</text><text fill="#000000" font-family="sans-serif" font-size="17.5" lengthAdjust="spacing" textLength="145" x="1105.625" y="1373.3423">RepositoryFactory</text><text fill="#000000" font-family="sans-serif" font-size="17.5" font-style="italic" lengthAdjust="spacing" textLength="98.75" x="1298.75" y="1342.5806">«repository»</text><text fill="#000000" font-family="sans-serif" font-size="17.5" lengthAdjust="spacing" textLength="140" x="1278.125" y="1364.5923">PedidoRepository</text><path d="M1329.375,1380.9375 C1329.375,1368.4375 1351.875,1368.4375 1351.875,1368.4375 C1351.875,1368.4375 1374.375,1368.4375 1374.375,1380.9375 L1374.375,1413.4375 C1374.375,1425.9375 1351.875,1425.9375 1351.875,1425.9375 C1351.875,1425.9375 1329.375,1425.9375 1329.375,1413.4375 L1329.375,1380.9375 " fill="#FEFECE" filter="url(#f1rmdve2sxie06)" style="stroke:#000000;stroke-width:1.875;"/><path d="M1329.375,1380.9375 C1329.375,1393.4375 1351.875,1393.4375 1351.875,1393.4375 C1351.875,1393.4375 1374.375,1393.4375 1374.375,1380.9375 " fill="none" style="stroke:#000000;stroke-width:1.875;"/><text fill="#000000" font-family="sans-serif" font-size="17.5" font-style="italic" lengthAdjust="spacing" textLength="98.75" x="1480.625" y="1342.5806">«repository»</text><text fill="#000000" font-family="sans-serif" font-size="17.5" lengthAdjust="spacing" textLength="183.75" x="1438.125" y="1364.5923">ColaboradorRepository</text><path d="M1511.25,1380.9375 C1511.25,1368.4375 1533.75,1368.4375 1533.75,1368.4375 C1533.75,1368.4375 1556.25,1368.4375 1556.25,1380.9375 L1556.25,1413.4375 C1556.25,1425.9375 1533.75,1425.9375 1533.75,1425.9375 C1533.75,1425.9375 1511.25,1425.9375 1511.25,1413.4375 L1511.25,1380.9375 " fill="#FEFECE" filter="url(#f1rmdve2sxie06)" style="stroke:#000000;stroke-width:1.875;"/><path d="M1511.25,1380.9375 C1511.25,1393.4375 1533.75,1393.4375 1533.75,1393.4375 C1533.75,1393.4375 1556.25,1393.4375 1556.25,1380.9375 " fill="none" style="stroke:#000000;stroke-width:1.875;"/><rect fill="#FEFECE" filter="url(#f1rmdve2sxie06)" height="61.5234" style="stroke:#A80036;stroke-width:1.875;" width="131.25" x="1641.875" y="44.2383"/><text fill="#000000" font-family="sans-serif" font-size="17.5" font-style="italic" lengthAdjust="spacing" textLength="77.5" x="1668.75" y="71.1548">«domain»</text><text fill="#000000" font-family="sans-serif" font-size="17.5" lengthAdjust="spacing" textLength="113.75" x="1650.625" y="93.1665">pedido:Pedido</text><rect fill="#FEFECE" filter="url(#f1rmdve2sxie06)" height="61.5234" style="stroke:#A80036;stroke-width:1.875;" width="131.25" x="1641.875" y="1324.4141"/><text fill="#000000" font-family="sans-serif" font-size="17.5" font-style="italic" lengthAdjust="spacing" textLength="77.5" x="1668.75" y="1351.3306">«domain»</text><text fill="#000000" font-family="sans-serif" font-size="17.5" lengthAdjust="spacing" textLength="113.75" x="1650.625" y="1373.3423">pedido:Pedido</text><rect fill="#FFFFFF" filter="url(#f1rmdve2sxie06)" height="1150.7129" style="stroke:#A80036;stroke-width:1.25;" width="12.5" x="308.125" y="152.4512"/><rect fill="#FFFFFF" filter="url(#f1rmdve2sxie06)" height="1062.334" style="stroke:#A80036;stroke-width:1.25;" width="12.5" x="580.625" y="202.8906"/><rect fill="#FFFFFF" filter="url(#f1rmdve2sxie06)" height="67.7734" style="stroke:#A80036;stroke-width:1.25;" width="12.5" x="990.625" y="341.4258"/><rect fill="#FFFFFF" filter="url(#f1rmdve2sxie06)" height="181.7969" style="stroke:#A80036;stroke-width:1.25;" width="12.5" x="1174.375" y="421.6992"/><rect fill="#FFFFFF" filter="url(#f1rmdve2sxie06)" height="37.5" style="stroke:#A80036;stroke-width:1.25;" width="12.5" x="1345.625" y="830.8984"/><rect fill="#FFFFFF" filter="url(#f1rmdve2sxie06)" height="37.5" style="stroke:#A80036;stroke-width:1.25;" width="12.5" x="1345.625" y="1038.9063"/><rect fill="#FFFFFF" filter="url(#f1rmdve2sxie06)" height="37.5" style="stroke:#A80036;stroke-width:1.25;" width="12.5" x="1345.625" y="1227.7246"/><rect fill="#FFFFFF" filter="url(#f1rmdve2sxie06)" height="37.5" style="stroke:#A80036;stroke-width:1.25;" width="12.5" x="1527.5" y="755.459"/><rect fill="#FFFFFF" filter="url(#f1rmdve2sxie06)" height="37.5" style="stroke:#A80036;stroke-width:1.25;" width="12.5" x="1703.75" y="1152.2852"/><polygon fill="#A80036" points="293.125,147.4512,305.625,152.4512,293.125,157.4512,298.125,152.4512" style="stroke:#A80036;stroke-width:1.25;"/><line style="stroke:#A80036;stroke-width:1.25;stroke-dasharray:2.0,2.0;" x1="45.625" x2="300.625" y1="152.4512" y2="152.4512"/><text fill="#000000" font-family="sans-serif" font-size="16.25" font-weight="bold" lengthAdjust="spacing" textLength="8.75" x="54.375" y="146.3806">1</text><text fill="#000000" font-family="sans-serif" font-size="16.25" lengthAdjust="spacing" textLength="120" x="68.125" y="146.3806">inserir Feedback</text><polygon fill="#A80036" points="458.125,185.3906,470.625,190.3906,458.125,195.3906,463.125,190.3906" style="stroke:#A80036;stroke-width:1.25;"/><line style="stroke:#A80036;stroke-width:1.25;" x1="320.625" x2="465.625" y1="190.3906" y2="190.3906"/><text fill="#000000" font-family="sans-serif" font-size="16.25" font-weight="bold" lengthAdjust="spacing" textLength="8.75" x="329.375" y="184.3201">2</text><text fill="#000000" font-family="sans-serif" font-size="16.25" lengthAdjust="spacing" textLength="45" x="343.125" y="184.3201">create</text><rect fill="#FEFECE" filter="url(#f1rmdve2sxie06)" height="61.5234" style="stroke:#A80036;stroke-width:1.875;" width="222.5" x="473.125" y="162.4512"/><text fill="#000000" font-family="sans-serif" font-size="17.5" font-style="italic" lengthAdjust="spacing" textLength="105" x="531.875" y="189.3677">«application»</text><text fill="#000000" font-family="sans-serif" font-size="17.5" lengthAdjust="spacing" textLength="205" x="481.875" y="211.3794">InserirFeedbackController</text><polygon fill="#A80036" points="698.125,265.6641,710.625,270.6641,698.125,275.6641,703.125,270.6641" style="stroke:#A80036;stroke-width:1.25;"/><line style="stroke:#A80036;stroke-width:1.25;" x1="593.125" x2="705.625" y1="270.6641" y2="270.6641"/><text fill="#000000" font-family="sans-serif" font-size="16.25" font-weight="bold" lengthAdjust="spacing" textLength="8.75" x="601.875" y="264.5935">3</text><text fill="#000000" font-family="sans-serif" font-size="16.25" lengthAdjust="spacing" textLength="45" x="615.625" y="264.5935">create</text><rect fill="#FEFECE" filter="url(#f1rmdve2sxie06)" height="39.5117" style="stroke:#A80036;stroke-width:1.875;" width="178.75" x="713.125" y="242.7246"/><text fill="#000000" font-family="sans-serif" font-size="17.5" lengthAdjust="spacing" textLength="161.25" x="721.875" y="269.6411">AuthorizationService</text><polygon fill="#A80036" points="894.375,323.9258,906.875,328.9258,894.375,333.9258,899.375,328.9258" style="stroke:#A80036;stroke-width:1.25;"/><line style="stroke:#A80036;stroke-width:1.25;" x1="593.125" x2="901.875" y1="328.9258" y2="328.9258"/><text fill="#000000" font-family="sans-serif" font-size="16.25" font-weight="bold" lengthAdjust="spacing" textLength="8.75" x="601.875" y="322.8552">4</text><text fill="#000000" font-family="sans-serif" font-size="16.25" lengthAdjust="spacing" textLength="45" x="615.625" y="322.8552">create</text><rect fill="#FEFECE" filter="url(#f1rmdve2sxie06)" height="61.5234" style="stroke:#A80036;stroke-width:1.875;" width="170" x="909.375" y="300.9863"/><text fill="#000000" font-family="sans-serif" font-size="17.5" font-style="italic" lengthAdjust="spacing" textLength="111.25" x="938.75" y="327.9028">«persistence»</text><text fill="#000000" font-family="sans-serif" font-size="17.5" lengthAdjust="spacing" textLength="152.5" x="918.125" y="349.9146">PersistenceContext</text><polygon fill="#A80036" points="1081.875,404.1992,1094.375,409.1992,1081.875,414.1992,1086.875,409.1992" style="stroke:#A80036;stroke-width:1.25;"/><line style="stroke:#A80036;stroke-width:1.25;" x1="996.875" x2="1089.375" y1="409.1992" y2="409.1992"/><text fill="#000000" font-family="sans-serif" font-size="16.25" font-weight="bold" lengthAdjust="spacing" textLength="8.75" x="1005.625" y="403.1287">5</text><text fill="#000000" font-family="sans-serif" font-size="16.25" lengthAdjust="spacing" textLength="45" x="1019.375" y="403.1287">create</text><rect fill="#FEFECE" filter="url(#f1rmdve2sxie06)" height="61.5234" style="stroke:#A80036;stroke-width:1.875;" width="162.5" x="1096.875" y="381.2598"/><text fill="#000000" font-family="sans-serif" font-size="17.5" font-style="italic" lengthAdjust="spacing" textLength="73.75" x="1141.25" y="408.1763">«factory»</text><text fill="#000000" font-family="sans-serif" font-size="17.5" lengthAdjust="spacing" textLength="145" x="1105.625" y="430.188">RepositoryFactory</text><polygon fill="#A80036" points="1263.125,484.4727,1275.625,489.4727,1263.125,494.4727,1268.125,489.4727" style="stroke:#A80036;stroke-width:1.25;"/><line style="stroke:#A80036;stroke-width:1.25;" x1="1186.875" x2="1270.625" y1="489.4727" y2="489.4727"/><text fill="#000000" font-family="sans-serif" font-size="16.25" font-weight="bold" lengthAdjust="spacing" textLength="8.75" x="1195.625" y="483.4021">6</text><text fill="#000000" font-family="sans-serif" font-size="16.25" lengthAdjust="spacing" textLength="47.5" x="1209.375" y="483.4021">pedido</text><text fill="#000000" font-family="sans-serif" font-size="17.5" font-style="italic" lengthAdjust="spacing" textLength="98.75" x="1298.75" y="537.1997">«repository»</text><text fill="#000000" font-family="sans-serif" font-size="17.5" lengthAdjust="spacing" textLength="140" x="1278.125" y="559.2114">PedidoRepository</text><path d="M1329.375,474.0332 C1329.375,461.5332 1351.875,461.5332 1351.875,461.5332 C1351.875,461.5332 1374.375,461.5332 1374.375,474.0332 L1374.375,506.5332 C1374.375,519.0332 1351.875,519.0332 1351.875,519.0332 C1351.875,519.0332 1329.375,519.0332 1329.375,506.5332 L1329.375,474.0332 " fill="#FEFECE" filter="url(#f1rmdve2sxie06)" style="stroke:#000000;stroke-width:1.875;"/><path d="M1329.375,474.0332 C1329.375,486.5332 1351.875,486.5332 1351.875,486.5332 C1351.875,486.5332 1374.375,486.5332 1374.375,474.0332 " fill="none" style="stroke:#000000;stroke-width:1.875;"/><polygon fill="#A80036" points="1423.125,598.4961,1435.625,603.4961,1423.125,608.4961,1428.125,603.4961" style="stroke:#A80036;stroke-width:1.25;"/><line style="stroke:#A80036;stroke-width:1.25;" x1="1180.625" x2="1430.625" y1="603.4961" y2="603.4961"/><text fill="#000000" font-family="sans-serif" font-size="16.25" font-weight="bold" lengthAdjust="spacing" textLength="8.75" x="1189.375" y="597.4255">7</text><text fill="#000000" font-family="sans-serif" font-size="16.25" lengthAdjust="spacing" textLength="101.25" x="1203.125" y="597.4255">colaboradores</text><text fill="#000000" font-family="sans-serif" font-size="17.5" font-style="italic" lengthAdjust="spacing" textLength="98.75" x="1480.625" y="651.2231">«repository»</text><text fill="#000000" font-family="sans-serif" font-size="17.5" lengthAdjust="spacing" textLength="183.75" x="1438.125" y="673.2349">ColaboradorRepository</text><path d="M1511.25,588.0566 C1511.25,575.5566 1533.75,575.5566 1533.75,575.5566 C1533.75,575.5566 1556.25,575.5566 1556.25,588.0566 L1556.25,620.5566 C1556.25,633.0566 1533.75,633.0566 1533.75,633.0566 C1533.75,633.0566 1511.25,633.0566 1511.25,620.5566 L1511.25,588.0566 " fill="#FEFECE" filter="url(#f1rmdve2sxie06)" style="stroke:#000000;stroke-width:1.875;"/><path d="M1511.25,588.0566 C1511.25,600.5566 1533.75,600.5566 1533.75,600.5566 C1533.75,600.5566 1556.25,600.5566 1556.25,588.0566 " fill="none" style="stroke:#000000;stroke-width:1.875;"/><polygon fill="#A80036" points="565.625,712.5195,578.125,717.5195,565.625,722.5195,570.625,717.5195" style="stroke:#A80036;stroke-width:1.25;"/><line style="stroke:#A80036;stroke-width:1.25;" x1="320.625" x2="573.125" y1="717.5195" y2="717.5195"/><text fill="#000000" font-family="sans-serif" font-size="16.25" font-weight="bold" lengthAdjust="spacing" textLength="8.75" x="329.375" y="711.449">8</text><text fill="#000000" font-family="sans-serif" font-size="16.25" lengthAdjust="spacing" textLength="203.75" x="343.125" y="711.449">mostrarPedidosConcluidos()</text><polygon fill="#A80036" points="1512.5,750.459,1525,755.459,1512.5,760.459,1517.5,755.459" style="stroke:#A80036;stroke-width:1.25;"/><line style="stroke:#A80036;stroke-width:1.25;" x1="593.125" x2="1520" y1="755.459" y2="755.459"/><text fill="#000000" font-family="sans-serif" font-size="16.25" font-weight="bold" lengthAdjust="spacing" textLength="8.75" x="601.875" y="749.3884">9</text><text fill="#000000" font-family="sans-serif" font-size="16.25" lengthAdjust="spacing" textLength="258.75" x="615.625" y="749.3884">colab = findByUsername(username)</text><polygon fill="#A80036" points="1330.625,825.8984,1343.125,830.8984,1330.625,835.8984,1335.625,830.8984" style="stroke:#A80036;stroke-width:1.25;"/><line style="stroke:#A80036;stroke-width:1.25;" x1="593.125" x2="1338.125" y1="830.8984" y2="830.8984"/><text fill="#000000" font-family="sans-serif" font-size="16.25" font-weight="bold" lengthAdjust="spacing" textLength="17.5" x="601.875" y="824.8279">10</text><text fill="#000000" font-family="sans-serif" font-size="16.25" lengthAdjust="spacing" textLength="281.25" x="624.375" y="824.8279">listaPedidos = findHistoByColab(colab)</text><path d="M460.625,887.1484 L688.125,887.1484 L688.125,897.1484 L675.625,909.6484 L460.625,909.6484 L460.625,887.1484 " fill="#EEEEEE" style="stroke:#000000;stroke-width:1.25;"/><rect fill="none" height="77.1289" style="stroke:#000000;stroke-width:2.5;" width="561.25" x="460.625" y="887.1484"/><text fill="#000000" font-family="sans-serif" font-size="16.25" font-weight="bold" lengthAdjust="spacing" textLength="171.25" x="479.375" y="905.2673">foreach (listaPedidos)</text><line style="stroke:#A80036;stroke-width:1.25;" x1="593.125" x2="645.625" y1="938.0273" y2="938.0273"/><line style="stroke:#A80036;stroke-width:1.25;" x1="645.625" x2="645.625" y1="938.0273" y2="954.2773"/><line style="stroke:#A80036;stroke-width:1.25;" x1="594.375" x2="645.625" y1="954.2773" y2="954.2773"/><polygon fill="#A80036" points="606.875,949.2773,594.375,954.2773,606.875,959.2773,601.875,954.2773" style="stroke:#A80036;stroke-width:1.25;"/><text fill="#000000" font-family="sans-serif" font-size="16.25" font-weight="bold" lengthAdjust="spacing" textLength="17.5" x="601.875" y="931.9568">11</text><text fill="#000000" font-family="sans-serif" font-size="16.25" lengthAdjust="spacing" textLength="0" x="629.375" y="931.9568"/><path d="M655,918.2129 L655,950.7129 L991.25,950.7129 L991.25,930.7129 L978.75,918.2129 L655,918.2129 " fill="#FBFB77" filter="url(#f1rmdve2sxie06)" style="stroke:#A80036;stroke-width:1.25;"/><path d="M978.75,918.2129 L978.75,930.7129 L991.25,930.7129 L978.75,918.2129 " fill="#FBFB77" style="stroke:#A80036;stroke-width:1.25;"/><text fill="#000000" font-family="sans-serif" font-size="16.25" lengthAdjust="spacing" textLength="310" x="662.5" y="941.3318">mostra os pedidos disponíveis ao utilizador</text><polygon fill="#A80036" points="565.625,995.9668,578.125,1000.9668,565.625,1005.9668,570.625,1000.9668" style="stroke:#A80036;stroke-width:1.25;"/><line style="stroke:#A80036;stroke-width:1.25;" x1="320.625" x2="573.125" y1="1000.9668" y2="1000.9668"/><text fill="#000000" font-family="sans-serif" font-size="16.25" font-weight="bold" lengthAdjust="spacing" textLength="17.5" x="329.375" y="994.8962">12</text><text fill="#000000" font-family="sans-serif" font-size="16.25" lengthAdjust="spacing" textLength="207.5" x="351.875" y="994.8962">associarPedido(identificador)</text><polygon fill="#A80036" points="1330.625,1033.9063,1343.125,1038.9063,1330.625,1043.9063,1335.625,1038.9063" style="stroke:#A80036;stroke-width:1.25;"/><line style="stroke:#A80036;stroke-width:1.25;" x1="593.125" x2="1338.125" y1="1038.9063" y2="1038.9063"/><text fill="#000000" font-family="sans-serif" font-size="16.25" font-weight="bold" lengthAdjust="spacing" textLength="17.5" x="601.875" y="1032.8357">13</text><text fill="#000000" font-family="sans-serif" font-size="16.25" lengthAdjust="spacing" textLength="228.75" x="624.375" y="1032.8357">pedido = ofIdentity(identificador)</text><polygon fill="#A80036" points="565.625,1109.3457,578.125,1114.3457,565.625,1119.3457,570.625,1114.3457" style="stroke:#A80036;stroke-width:1.25;"/><line style="stroke:#A80036;stroke-width:1.25;" x1="320.625" x2="573.125" y1="1114.3457" y2="1114.3457"/><text fill="#000000" font-family="sans-serif" font-size="16.25" font-weight="bold" lengthAdjust="spacing" textLength="17.5" x="329.375" y="1108.2751">14</text><text fill="#000000" font-family="sans-serif" font-size="16.25" lengthAdjust="spacing" textLength="178.75" x="351.875" y="1108.2751">saveFeedback(feedback)</text><polygon fill="#A80036" points="1688.75,1147.2852,1701.25,1152.2852,1688.75,1157.2852,1693.75,1152.2852" style="stroke:#A80036;stroke-width:1.25;"/><line style="stroke:#A80036;stroke-width:1.25;" x1="593.125" x2="1696.25" y1="1152.2852" y2="1152.2852"/><text fill="#000000" font-family="sans-serif" font-size="16.25" font-weight="bold" lengthAdjust="spacing" textLength="17.5" x="601.875" y="1146.2146">15</text><text fill="#000000" font-family="sans-serif" font-size="16.25" lengthAdjust="spacing" textLength="207.5" x="624.375" y="1146.2146">associarFeedback(feedback)</text><polygon fill="#A80036" points="1330.625,1222.7246,1343.125,1227.7246,1330.625,1232.7246,1335.625,1227.7246" style="stroke:#A80036;stroke-width:1.25;"/><line style="stroke:#A80036;stroke-width:1.25;" x1="593.125" x2="1338.125" y1="1227.7246" y2="1227.7246"/><text fill="#000000" font-family="sans-serif" font-size="16.25" font-weight="bold" lengthAdjust="spacing" textLength="17.5" x="601.875" y="1221.6541">16</text><text fill="#000000" font-family="sans-serif" font-size="16.25" lengthAdjust="spacing" textLength="90" x="624.375" y="1221.6541">save(pedido)</text><polygon fill="#A80036" points="59.375,1298.1641,46.875,1303.1641,59.375,1308.1641,54.375,1303.1641" style="stroke:#A80036;stroke-width:1.25;"/><line style="stroke:#A80036;stroke-width:1.25;stroke-dasharray:2.0,2.0;" x1="51.875" x2="313.125" y1="1303.1641" y2="1303.1641"/><text fill="#000000" font-family="sans-serif" font-size="16.25" font-weight="bold" lengthAdjust="spacing" textLength="17.5" x="66.875" y="1297.0935">17</text><text fill="#000000" font-family="sans-serif" font-size="16.25" lengthAdjust="spacing" textLength="210" x="89.375" y="1297.0935">Mostra sucesso de operação</text><!--MD5=[4d1cb0fd09eda641482719d7ccf296e0]
@startuml
'https://plantuml.com/sequence-diagram

autonumber

actor "Utilizador" as ator
participant InserirFeedbackUI as UI <<presentation>>
participant InserirFeedbackController as CTRL <<application>>
participant AuthorizationService as AUTH
participant PersistenceContext as PER <<persistence>>
participant RepositoryFactory as FAC <<factory>>
database PedidoRepository as PEDR <<repository>>
database ColaboradorRepository as COLR <<repository>>
participant "pedido:Pedido" as PED <<domain>>

ator - -> UI : inserir Feedback
activate UI

UI -> CTRL**: create
activate CTRL

CTRL -> AUTH**: create
CTRL -> PER**: create
activate PER
PER -> FAC**: create
deactivate PER
activate FAC
FAC -> PEDR**: pedido
FAC -> COLR**: colaboradores
deactivate FAC

UI -> CTRL: mostrarPedidosConcluidos()
CTRL -> COLR: colab = findByUsername(username)
activate COLR
deactivate COLR

CTRL -> PEDR: listaPedidos = findHistoByColab(colab)
activate PEDR
deactivate PEDR

group foreach (listaPedidos)
CTRL -> CTRL:
note right: mostra os pedidos disponíveis ao utilizador
end

UI -> CTRL: associarPedido(identificador)
CTRL -> PEDR: pedido = ofIdentity(identificador)
activate PEDR
deactivate PEDR

UI -> CTRL: saveFeedback(feedback)
CTRL -> PED: associarFeedback(feedback)
activate PED
deactivate PED

CTRL -> PEDR: save(pedido)
activate PEDR
deactivate PEDR

deactivate CTRL

UI - -> ator: Mostra sucesso de operação
deactivate UI
@enduml

@startuml

autonumber

actor "Utilizador" as ator
participant InserirFeedbackUI as UI <<presentation>>
participant InserirFeedbackController as CTRL <<application>>
participant AuthorizationService as AUTH
participant PersistenceContext as PER <<persistence>>
participant RepositoryFactory as FAC <<factory>>
database PedidoRepository as PEDR <<repository>>
database ColaboradorRepository as COLR <<repository>>
participant "pedido:Pedido" as PED <<domain>>

ator - -> UI : inserir Feedback
activate UI

UI -> CTRL**: create
activate CTRL

CTRL -> AUTH**: create
CTRL -> PER**: create
activate PER
PER -> FAC**: create
deactivate PER
activate FAC
FAC -> PEDR**: pedido
FAC -> COLR**: colaboradores
deactivate FAC

UI -> CTRL: mostrarPedidosConcluidos()
CTRL -> COLR: colab = findByUsername(username)
activate COLR
deactivate COLR

CTRL -> PEDR: listaPedidos = findHistoByColab(colab)
activate PEDR
deactivate PEDR

group foreach (listaPedidos)
CTRL -> CTRL:
note right: mostra os pedidos disponíveis ao utilizador
end

UI -> CTRL: associarPedido(identificador)
CTRL -> PEDR: pedido = ofIdentity(identificador)
activate PEDR
deactivate PEDR

UI -> CTRL: saveFeedback(feedback)
CTRL -> PED: associarFeedback(feedback)
activate PED
deactivate PED

CTRL -> PEDR: save(pedido)
activate PEDR
deactivate PEDR

deactivate CTRL

UI - -> ator: Mostra sucesso de operação
deactivate UI
@enduml

PlantUML version 1.2021.7(Sun May 23 13:40:07 BST 2021)
(GPL source distribution)
Java Runtime: OpenJDK Runtime Environment
JVM: Dynamic Code Evolution 64-Bit Server VM
Default Encoding: Cp1252
Language: en
Country: US
--></g></svg>