<?xml version="1.0" encoding="UTF-8" standalone="no"?><svg xmlns="http://www.w3.org/2000/svg" xmlns:xlink="http://www.w3.org/1999/xlink" contentScriptType="application/ecmascript" contentStyleType="text/css" height="1488.75px" preserveAspectRatio="none" style="width:1297px;height:1488px;background:#FFFFFF;" version="1.1" viewBox="0 0 1297 1488" width="1297.5px" zoomAndPan="magnify"><defs/><g><rect fill="#FFFFFF" height="1252.373" style="stroke:#A80036;stroke-width:1.25;" width="12.5" x="181.875" y="119.5117"/><rect fill="#FFFFFF" height="1224.4336" style="stroke:#A80036;stroke-width:1.25;" width="12.5" x="518.75" y="147.4512"/><rect fill="#FFFFFF" height="1176.4941" style="stroke:#A80036;stroke-width:1.25;" width="12.5" x="525" y="195.3906"/><rect fill="#FFFFFF" height="75.8789" style="stroke:#A80036;stroke-width:1.25;" width="12.5" x="871.25" y="602.8906"/><rect fill="#FFFFFF" height="75.8789" style="stroke:#A80036;stroke-width:1.25;" width="12.5" x="871.25" y="1099.8535"/><rect fill="#FFFFFF" height="100.7129" style="stroke:#A80036;stroke-width:1.25;" width="12.5" x="1050" y="729.209"/><rect fill="#FFFFFF" height="100.7129" style="stroke:#A80036;stroke-width:1.25;" width="12.5" x="1050" y="1226.1719"/><rect fill="#FFFFFF" height="108.8184" style="stroke:#000000;stroke-width:2.5;" width="558.75" x="518.75" y="265.8301"/><rect fill="#FFFFFF" height="68.3789" style="stroke:#000000;stroke-width:2.5;" width="305" x="531.25" y="297.5195"/><rect fill="#FFFFFF" height="916.7969" style="stroke:#000000;stroke-width:2.5;" width="818.125" x="332.5" y="446.3379"/><rect fill="#FFFFFF" height="839.668" style="stroke:none;stroke-width:1.25;" width="818.125" x="332.5" y="523.4668"/><rect fill="#FFFFFF" height="802.373" style="stroke:#000000;stroke-width:2.5;" width="793.125" x="345" y="552.0117"/><rect fill="#FFFFFF" height="514.4629" style="stroke:none;stroke-width:1.25;" width="793.125" x="345" y="839.9219"/><rect fill="#FFFFFF" height="77.1289" style="stroke:#000000;stroke-width:2.5;" width="535" x="370" y="868.4668"/><rect fill="#FFFFFF" height="328.3496" style="stroke:#000000;stroke-width:2.5;" width="768.125" x="357.5" y="1017.2852"/><rect fill="#FFFFFF" height="287.9102" style="stroke:#000000;stroke-width:2.5;" width="743.125" x="370" y="1048.9746"/><line style="stroke:#A80036;stroke-width:1.25;stroke-dasharray:5.0,5.0;" x1="187.5" x2="187.5" y1="107.0117" y2="1384.3848"/><line style="stroke:#A80036;stroke-width:1.25;stroke-dasharray:5.0,5.0;" x1="525" x2="525" y1="107.0117" y2="1384.3848"/><line style="stroke:#A80036;stroke-width:1.25;stroke-dasharray:5.0,5.0;" x1="876.875" x2="876.875" y1="107.0117" y2="1384.3848"/><line style="stroke:#A80036;stroke-width:1.25;stroke-dasharray:5.0,5.0;" x1="1055.625" x2="1055.625" y1="1235.8691" y2="1384.3848"/><line style="stroke:#A80036;stroke-width:1.25;stroke-dasharray:5.0,5.0;" x1="1201.875" x2="1201.875" y1="107.0117" y2="1384.3848"/><text fill="#000000" font-family="sans-serif" font-size="17.5" lengthAdjust="spacing" textLength="356.25" x="6.25" y="103.1665">ExecutorTarefasAutomaticasTCPServerConn</text><ellipse cx="188.125" cy="18.75" fill="#FEFECE" rx="10" ry="10" style="stroke:#A80036;stroke-width:2.5;"/><path d="M188.125,28.75 L188.125,62.5 M171.875,38.75 L204.375,38.75 M188.125,62.5 L171.875,81.25 M188.125,62.5 L204.375,81.25 " fill="none" style="stroke:#A80036;stroke-width:2.5;"/><text fill="#000000" font-family="sans-serif" font-size="17.5" lengthAdjust="spacing" textLength="356.25" x="6.25" y="1401.3013">ExecutorTarefasAutomaticasTCPServerConn</text><ellipse cx="188.125" cy="1417.6465" fill="#FEFECE" rx="10" ry="10" style="stroke:#A80036;stroke-width:2.5;"/><path d="M188.125,1427.6465 L188.125,1461.3965 M171.875,1437.6465 L204.375,1437.6465 M188.125,1461.3965 L171.875,1480.1465 M188.125,1461.3965 L204.375,1480.1465 " fill="none" style="stroke:#A80036;stroke-width:2.5;"/><rect fill="#FEFECE" height="61.5234" style="stroke:#A80036;stroke-width:1.875;" width="285" x="382.5" y="44.2383"/><text fill="#000000" font-family="sans-serif" font-size="17.5" font-style="italic" lengthAdjust="spacing" textLength="117.5" x="466.25" y="71.1548">«escalonador»</text><text fill="#000000" font-family="sans-serif" font-size="17.5" lengthAdjust="spacing" textLength="267.5" x="391.25" y="93.1665">EscalonadorPorCargaEOcupacao</text><rect fill="#FEFECE" height="61.5234" style="stroke:#A80036;stroke-width:1.875;" width="285" x="382.5" y="1383.1348"/><text fill="#000000" font-family="sans-serif" font-size="17.5" font-style="italic" lengthAdjust="spacing" textLength="117.5" x="466.25" y="1410.0513">«escalonador»</text><text fill="#000000" font-family="sans-serif" font-size="17.5" lengthAdjust="spacing" textLength="267.5" x="391.25" y="1432.063">EscalonadorPorCargaEOcupacao</text><rect fill="#FEFECE" height="61.5234" style="stroke:#A80036;stroke-width:1.875;" width="243.75" x="755.625" y="44.2383"/><text fill="#000000" font-family="sans-serif" font-size="17.5" font-style="italic" lengthAdjust="spacing" textLength="77.5" x="838.75" y="71.1548">«domain»</text><text fill="#000000" font-family="sans-serif" font-size="17.5" lengthAdjust="spacing" textLength="226.25" x="764.375" y="93.1665">ExecutorTarefasAutomaticas</text><rect fill="#FEFECE" height="61.5234" style="stroke:#A80036;stroke-width:1.875;" width="243.75" x="755.625" y="1383.1348"/><text fill="#000000" font-family="sans-serif" font-size="17.5" font-style="italic" lengthAdjust="spacing" textLength="77.5" x="838.75" y="1410.0513">«domain»</text><text fill="#000000" font-family="sans-serif" font-size="17.5" lengthAdjust="spacing" textLength="226.25" x="764.375" y="1432.063">ExecutorTarefasAutomaticas</text><rect fill="#FEFECE" height="61.5234" style="stroke:#A80036;stroke-width:1.875;" width="88.75" x="1011.875" y="1383.1348"/><text fill="#000000" font-family="sans-serif" font-size="17.5" font-style="italic" lengthAdjust="spacing" textLength="71.25" x="1020.625" y="1410.0513">«thread»</text><text fill="#000000" font-family="sans-serif" font-size="17.5" lengthAdjust="spacing" textLength="57.5" x="1027.5" y="1432.063">Thread</text><rect fill="#FEFECE" height="61.5234" style="stroke:#A80036;stroke-width:1.875;" width="177.5" x="1113.125" y="44.2383"/><text fill="#000000" font-family="sans-serif" font-size="17.5" font-style="italic" lengthAdjust="spacing" textLength="77.5" x="1163.125" y="71.1548">«domain»</text><text fill="#000000" font-family="sans-serif" font-size="17.5" lengthAdjust="spacing" textLength="160" x="1121.875" y="93.1665">AtividadeAutomatica</text><rect fill="#FEFECE" height="61.5234" style="stroke:#A80036;stroke-width:1.875;" width="177.5" x="1113.125" y="1383.1348"/><text fill="#000000" font-family="sans-serif" font-size="17.5" font-style="italic" lengthAdjust="spacing" textLength="77.5" x="1163.125" y="1410.0513">«domain»</text><text fill="#000000" font-family="sans-serif" font-size="17.5" lengthAdjust="spacing" textLength="160" x="1121.875" y="1432.063">AtividadeAutomatica</text><rect fill="#FFFFFF" height="1252.373" style="stroke:#A80036;stroke-width:1.25;" width="12.5" x="181.875" y="119.5117"/><rect fill="#FFFFFF" height="1224.4336" style="stroke:#A80036;stroke-width:1.25;" width="12.5" x="518.75" y="147.4512"/><rect fill="#FFFFFF" height="1176.4941" style="stroke:#A80036;stroke-width:1.25;" width="12.5" x="525" y="195.3906"/><rect fill="#FFFFFF" height="75.8789" style="stroke:#A80036;stroke-width:1.25;" width="12.5" x="871.25" y="602.8906"/><rect fill="#FFFFFF" height="75.8789" style="stroke:#A80036;stroke-width:1.25;" width="12.5" x="871.25" y="1099.8535"/><rect fill="#FFFFFF" height="100.7129" style="stroke:#A80036;stroke-width:1.25;" width="12.5" x="1050" y="729.209"/><rect fill="#FFFFFF" height="100.7129" style="stroke:#A80036;stroke-width:1.25;" width="12.5" x="1050" y="1226.1719"/><polygon fill="#A80036" points="503.75,142.4512,516.25,147.4512,503.75,152.4512,508.75,147.4512" style="stroke:#A80036;stroke-width:1.25;"/><line style="stroke:#A80036;stroke-width:1.25;stroke-dasharray:2.0,2.0;" x1="194.375" x2="511.25" y1="147.4512" y2="147.4512"/><text fill="#000000" font-family="sans-serif" font-size="16.25" font-weight="bold" lengthAdjust="spacing" textLength="8.75" x="203.125" y="141.3806">1</text><text fill="#000000" font-family="sans-serif" font-size="16.25" lengthAdjust="spacing" textLength="136.25" x="216.875" y="141.3806">adicionarTrabalho()</text><line style="stroke:#A80036;stroke-width:1.25;" x1="531.25" x2="590" y1="179.1406" y2="179.1406"/><line style="stroke:#A80036;stroke-width:1.25;" x1="590" x2="590" y1="179.1406" y2="195.3906"/><line style="stroke:#A80036;stroke-width:1.25;" x1="538.75" x2="590" y1="195.3906" y2="195.3906"/><polygon fill="#A80036" points="551.25,190.3906,538.75,195.3906,551.25,200.3906,546.25,195.3906" style="stroke:#A80036;stroke-width:1.25;"/><text fill="#000000" font-family="sans-serif" font-size="16.25" font-weight="bold" lengthAdjust="spacing" textLength="8.75" x="546.25" y="173.0701">2</text><text fill="#000000" font-family="sans-serif" font-size="16.25" lengthAdjust="spacing" textLength="80" x="560" y="173.0701">escalonar()</text><path d="M543.75,217.8906 L543.75,250.3906 L798.75,250.3906 L798.75,230.3906 L786.25,217.8906 L543.75,217.8906 " fill="#FBFB77" style="stroke:#A80036;stroke-width:1.25;"/><path d="M786.25,217.8906 L786.25,230.3906 L798.75,230.3906 L786.25,217.8906 " fill="#FBFB77" style="stroke:#A80036;stroke-width:1.25;"/><text fill="#000000" font-family="sans-serif" font-size="16.25" lengthAdjust="spacing" textLength="228.75" x="551.25" y="241.0095">cria lista temporária (lista temp)</text><path d="M518.75,265.8301 L1071.25,265.8301 L1071.25,275.8301 L1058.75,288.3301 L518.75,288.3301 L518.75,265.8301 " fill="#EEEEEE" style="stroke:#000000;stroke-width:1.25;"/><rect fill="none" height="108.8184" style="stroke:#000000;stroke-width:2.5;" width="558.75" x="518.75" y="265.8301"/><text fill="#000000" font-family="sans-serif" font-size="16.25" font-weight="bold" lengthAdjust="spacing" textLength="496.25" x="537.5" y="283.949">for each (ExecutorTarefasAutomaticas instância em instâncias)</text><path d="M531.25,297.5195 L830,297.5195 L830,307.5195 L817.5,320.0195 L531.25,320.0195 L531.25,297.5195 " fill="#EEEEEE" style="stroke:#000000;stroke-width:1.25;"/><rect fill="none" height="68.3789" style="stroke:#000000;stroke-width:2.5;" width="305" x="531.25" y="297.5195"/><text fill="#000000" font-family="sans-serif" font-size="16.25" font-weight="bold" lengthAdjust="spacing" textLength="242.5" x="550" y="315.6384">if (instância não está ocupada)</text><path d="M543.75,326.709 L543.75,359.209 L763.75,359.209 L763.75,339.209 L751.25,326.709 L543.75,326.709 " fill="#FBFB77" style="stroke:#A80036;stroke-width:1.25;"/><path d="M751.25,326.709 L751.25,339.209 L763.75,339.209 L751.25,326.709 " fill="#FBFB77" style="stroke:#A80036;stroke-width:1.25;"/><text fill="#000000" font-family="sans-serif" font-size="16.25" lengthAdjust="spacing" textLength="193.75" x="551.25" y="349.8279">adiciona instância no temp</text><line style="stroke:#A80036;stroke-width:1.25;" x1="537.5" x2="590" y1="411.3379" y2="411.3379"/><line style="stroke:#A80036;stroke-width:1.25;" x1="590" x2="590" y1="411.3379" y2="427.5879"/><line style="stroke:#A80036;stroke-width:1.25;" x1="538.75" x2="590" y1="427.5879" y2="427.5879"/><polygon fill="#A80036" points="551.25,422.5879,538.75,427.5879,551.25,432.5879,546.25,427.5879" style="stroke:#A80036;stroke-width:1.25;"/><text fill="#000000" font-family="sans-serif" font-size="16.25" font-weight="bold" lengthAdjust="spacing" textLength="8.75" x="546.25" y="405.2673">3</text><text fill="#000000" font-family="sans-serif" font-size="16.25" lengthAdjust="spacing" textLength="0" x="565" y="405.2673"/><path d="M600,394.0234 L600,426.5234 L788.75,426.5234 L788.75,406.5234 L776.25,394.0234 L600,394.0234 " fill="#FBFB77" style="stroke:#A80036;stroke-width:1.25;"/><path d="M776.25,394.0234 L776.25,406.5234 L788.75,406.5234 L776.25,394.0234 " fill="#FBFB77" style="stroke:#A80036;stroke-width:1.25;"/><text fill="#000000" font-family="sans-serif" font-size="16.25" lengthAdjust="spacing" textLength="162.5" x="607.5" y="417.1423">dá sort à lista de temp</text><path d="M332.5,446.3379 L408.75,446.3379 L408.75,456.3379 L396.25,468.8379 L332.5,468.8379 L332.5,446.3379 " fill="#EEEEEE" style="stroke:#000000;stroke-width:1.25;"/><rect fill="none" height="916.7969" style="stroke:#000000;stroke-width:2.5;" width="818.125" x="332.5" y="446.3379"/><text fill="#000000" font-family="sans-serif" font-size="16.25" font-weight="bold" lengthAdjust="spacing" textLength="20" x="351.25" y="464.4568">alt</text><text fill="#000000" font-family="sans-serif" font-size="13.75" font-weight="bold" lengthAdjust="spacing" textLength="148.75" x="427.5" y="463.1116">[se (temp está vazia)]</text><line style="stroke:#A80036;stroke-width:1.25;" x1="537.5" x2="590" y1="497.2168" y2="497.2168"/><line style="stroke:#A80036;stroke-width:1.25;" x1="590" x2="590" y1="497.2168" y2="513.4668"/><line style="stroke:#A80036;stroke-width:1.25;" x1="538.75" x2="590" y1="513.4668" y2="513.4668"/><polygon fill="#A80036" points="551.25,508.4668,538.75,513.4668,551.25,518.4668,546.25,513.4668" style="stroke:#A80036;stroke-width:1.25;"/><text fill="#000000" font-family="sans-serif" font-size="16.25" font-weight="bold" lengthAdjust="spacing" textLength="8.75" x="546.25" y="491.1462">4</text><text fill="#000000" font-family="sans-serif" font-size="16.25" lengthAdjust="spacing" textLength="0" x="565" y="491.1462"/><path d="M600,479.9023 L600,512.4023 L863.75,512.4023 L863.75,492.4023 L851.25,479.9023 L600,479.9023 " fill="#FBFB77" style="stroke:#A80036;stroke-width:1.25;"/><path d="M851.25,479.9023 L851.25,492.4023 L863.75,492.4023 L851.25,479.9023 " fill="#FBFB77" style="stroke:#A80036;stroke-width:1.25;"/><text fill="#000000" font-family="sans-serif" font-size="16.25" lengthAdjust="spacing" textLength="237.5" x="607.5" y="503.0212">adiciona trabalho à fila de espera</text><line style="stroke:#000000;stroke-width:1.25;stroke-dasharray:2.0,2.0;" x1="332.5" x2="1150.625" y1="524.7168" y2="524.7168"/><text fill="#000000" font-family="sans-serif" font-size="13.75" font-weight="bold" lengthAdjust="spacing" textLength="177.5" x="338.75" y="538.9905">[se (temp não está vazia)]</text><path d="M345,552.0117 L421.25,552.0117 L421.25,562.0117 L408.75,574.5117 L345,574.5117 L345,552.0117 " fill="#EEEEEE" style="stroke:#000000;stroke-width:1.25;"/><rect fill="none" height="802.373" style="stroke:#000000;stroke-width:2.5;" width="793.125" x="345" y="552.0117"/><text fill="#000000" font-family="sans-serif" font-size="16.25" font-weight="bold" lengthAdjust="spacing" textLength="20" x="363.75" y="570.1306">alt</text><text fill="#000000" font-family="sans-serif" font-size="13.75" font-weight="bold" lengthAdjust="spacing" textLength="182.5" x="440" y="568.7854">[se (emEspera está vazia)]</text><polygon fill="#A80036" points="856.25,597.8906,868.75,602.8906,856.25,607.8906,861.25,602.8906" style="stroke:#A80036;stroke-width:1.25;"/><line style="stroke:#A80036;stroke-width:1.25;" x1="537.5" x2="863.75" y1="602.8906" y2="602.8906"/><text fill="#000000" font-family="sans-serif" font-size="16.25" font-weight="bold" lengthAdjust="spacing" textLength="8.75" x="546.25" y="596.8201">5</text><text fill="#000000" font-family="sans-serif" font-size="16.25" lengthAdjust="spacing" textLength="133.75" x="560" y="596.8201">setOcupacao(true)</text><polygon fill="#A80036" points="856.25,635.8301,868.75,640.8301,856.25,645.8301,861.25,640.8301" style="stroke:#A80036;stroke-width:1.25;"/><line style="stroke:#A80036;stroke-width:1.25;" x1="537.5" x2="863.75" y1="640.8301" y2="640.8301"/><text fill="#000000" font-family="sans-serif" font-size="16.25" font-weight="bold" lengthAdjust="spacing" textLength="8.75" x="546.25" y="634.7595">6</text><text fill="#000000" font-family="sans-serif" font-size="16.25" lengthAdjust="spacing" textLength="120" x="560" y="634.7595">aumentarCarga()</text><polygon fill="#A80036" points="862.5,673.7695,875,678.7695,862.5,683.7695,867.5,678.7695" style="stroke:#A80036;stroke-width:1.25;"/><line style="stroke:#A80036;stroke-width:1.25;" x1="537.5" x2="870" y1="678.7695" y2="678.7695"/><text fill="#000000" font-family="sans-serif" font-size="16.25" font-weight="bold" lengthAdjust="spacing" textLength="8.75" x="546.25" y="672.699">7</text><text fill="#000000" font-family="sans-serif" font-size="16.25" lengthAdjust="spacing" textLength="221.25" x="560" y="672.699">associarTrabalho(this.trabalho)</text><polygon fill="#A80036" points="996.875,711.709,1009.375,716.709,996.875,721.709,1001.875,716.709" style="stroke:#A80036;stroke-width:1.25;"/><line style="stroke:#A80036;stroke-width:1.25;stroke-dasharray:2.0,2.0;" x1="537.5" x2="1004.375" y1="716.709" y2="716.709"/><text fill="#000000" font-family="sans-serif" font-size="16.25" font-weight="bold" lengthAdjust="spacing" textLength="8.75" x="546.25" y="710.6384">8</text><text fill="#000000" font-family="sans-serif" font-size="16.25" lengthAdjust="spacing" textLength="55" x="560" y="710.6384">create()</text><rect fill="#FEFECE" height="61.5234" style="stroke:#A80036;stroke-width:1.875;" width="88.75" x="1011.875" y="688.7695"/><text fill="#000000" font-family="sans-serif" font-size="17.5" font-style="italic" lengthAdjust="spacing" textLength="71.25" x="1020.625" y="715.686">«thread»</text><text fill="#000000" font-family="sans-serif" font-size="17.5" lengthAdjust="spacing" textLength="57.5" x="1027.5" y="737.6978">Thread</text><polygon fill="#A80036" points="1035,786.9824,1047.5,791.9824,1035,796.9824,1040,791.9824" style="stroke:#A80036;stroke-width:1.25;"/><line style="stroke:#A80036;stroke-width:1.25;" x1="537.5" x2="1042.5" y1="791.9824" y2="791.9824"/><text fill="#000000" font-family="sans-serif" font-size="16.25" font-weight="bold" lengthAdjust="spacing" textLength="8.75" x="546.25" y="785.9119">9</text><text fill="#000000" font-family="sans-serif" font-size="16.25" lengthAdjust="spacing" textLength="42.5" x="560" y="785.9119">start()</text><polygon fill="#A80036" points="1041.25,824.9219,1053.75,829.9219,1041.25,834.9219,1046.25,829.9219" style="stroke:#A80036;stroke-width:1.25;"/><line style="stroke:#A80036;stroke-width:1.25;" x1="537.5" x2="1048.75" y1="829.9219" y2="829.9219"/><text fill="#000000" font-family="sans-serif" font-size="16.25" font-weight="bold" lengthAdjust="spacing" textLength="17.5" x="546.25" y="823.8513">10</text><text fill="#000000" font-family="sans-serif" font-size="16.25" lengthAdjust="spacing" textLength="35" x="568.75" y="823.8513">join()</text><line style="stroke:#000000;stroke-width:1.25;stroke-dasharray:2.0,2.0;" x1="345" x2="1138.125" y1="841.1719" y2="841.1719"/><text fill="#000000" font-family="sans-serif" font-size="13.75" font-weight="bold" lengthAdjust="spacing" textLength="211.25" x="351.25" y="855.4456">[se (emEspera não está vazia)]</text><path d="M370,868.4668 L446.25,868.4668 L446.25,878.4668 L433.75,890.9668 L370,890.9668 L370,868.4668 " fill="#EEEEEE" style="stroke:#000000;stroke-width:1.25;"/><rect fill="none" height="77.1289" style="stroke:#000000;stroke-width:2.5;" width="535" x="370" y="868.4668"/><text fill="#000000" font-family="sans-serif" font-size="16.25" font-weight="bold" lengthAdjust="spacing" textLength="20" x="388.75" y="886.5857">alt</text><text fill="#000000" font-family="sans-serif" font-size="13.75" font-weight="bold" lengthAdjust="spacing" textLength="208.75" x="465" y="885.2405">[se (this.trabalho não for null)]</text><line style="stroke:#A80036;stroke-width:1.25;" x1="537.5" x2="590" y1="919.3457" y2="919.3457"/><line style="stroke:#A80036;stroke-width:1.25;" x1="590" x2="590" y1="919.3457" y2="935.5957"/><line style="stroke:#A80036;stroke-width:1.25;" x1="538.75" x2="590" y1="935.5957" y2="935.5957"/><polygon fill="#A80036" points="551.25,930.5957,538.75,935.5957,551.25,940.5957,546.25,935.5957" style="stroke:#A80036;stroke-width:1.25;"/><text fill="#000000" font-family="sans-serif" font-size="16.25" font-weight="bold" lengthAdjust="spacing" textLength="17.5" x="546.25" y="913.2751">11</text><text fill="#000000" font-family="sans-serif" font-size="16.25" lengthAdjust="spacing" textLength="0" x="573.75" y="913.2751"/><path d="M600,902.0313 L600,934.5313 L873.75,934.5313 L873.75,914.5313 L861.25,902.0313 L600,902.0313 " fill="#FBFB77" style="stroke:#A80036;stroke-width:1.25;"/><path d="M861.25,902.0313 L861.25,914.5313 L873.75,914.5313 L861.25,902.0313 " fill="#FBFB77" style="stroke:#A80036;stroke-width:1.25;"/><text fill="#000000" font-family="sans-serif" font-size="16.25" lengthAdjust="spacing" textLength="247.5" x="607.5" y="925.1501">adiciona trabalho à lista de espera</text><line style="stroke:#A80036;stroke-width:1.25;" x1="537.5" x2="590" y1="982.2852" y2="982.2852"/><line style="stroke:#A80036;stroke-width:1.25;" x1="590" x2="590" y1="982.2852" y2="998.5352"/><line style="stroke:#A80036;stroke-width:1.25;" x1="538.75" x2="590" y1="998.5352" y2="998.5352"/><polygon fill="#A80036" points="551.25,993.5352,538.75,998.5352,551.25,1003.5352,546.25,998.5352" style="stroke:#A80036;stroke-width:1.25;"/><text fill="#000000" font-family="sans-serif" font-size="16.25" font-weight="bold" lengthAdjust="spacing" textLength="17.5" x="546.25" y="976.2146">12</text><text fill="#000000" font-family="sans-serif" font-size="16.25" lengthAdjust="spacing" textLength="0" x="573.75" y="976.2146"/><path d="M600,964.9707 L600,997.4707 L801.25,997.4707 L801.25,977.4707 L788.75,964.9707 L600,964.9707 " fill="#FBFB77" style="stroke:#A80036;stroke-width:1.25;"/><path d="M788.75,964.9707 L788.75,977.4707 L801.25,977.4707 L788.75,964.9707 " fill="#FBFB77" style="stroke:#A80036;stroke-width:1.25;"/><text fill="#000000" font-family="sans-serif" font-size="16.25" lengthAdjust="spacing" textLength="175" x="607.5" y="988.0896">dá sort à lista de espera</text><path d="M357.5,1017.2852 L1006.25,1017.2852 L1006.25,1027.2852 L993.75,1039.7852 L357.5,1039.7852 L357.5,1017.2852 " fill="#EEEEEE" style="stroke:#000000;stroke-width:1.25;"/><rect fill="none" height="328.3496" style="stroke:#000000;stroke-width:2.5;" width="768.125" x="357.5" y="1017.2852"/><text fill="#000000" font-family="sans-serif" font-size="16.25" font-weight="bold" lengthAdjust="spacing" textLength="592.5" x="376.25" y="1035.4041">for each (ExecutorTarefasAutomaticas executorTarefasAutomaticas : temp)</text><path d="M370,1048.9746 L605,1048.9746 L605,1058.9746 L592.5,1071.4746 L370,1071.4746 L370,1048.9746 " fill="#EEEEEE" style="stroke:#000000;stroke-width:1.25;"/><rect fill="none" height="287.9102" style="stroke:#000000;stroke-width:2.5;" width="743.125" x="370" y="1048.9746"/><text fill="#000000" font-family="sans-serif" font-size="16.25" font-weight="bold" lengthAdjust="spacing" textLength="178.75" x="388.75" y="1067.0935">if (emEspera.size() &gt; 0)</text><polygon fill="#A80036" points="856.25,1094.8535,868.75,1099.8535,856.25,1104.8535,861.25,1099.8535" style="stroke:#A80036;stroke-width:1.25;"/><line style="stroke:#A80036;stroke-width:1.25;" x1="537.5" x2="863.75" y1="1099.8535" y2="1099.8535"/><text fill="#000000" font-family="sans-serif" font-size="16.25" font-weight="bold" lengthAdjust="spacing" textLength="17.5" x="546.25" y="1093.783">13</text><text fill="#000000" font-family="sans-serif" font-size="16.25" lengthAdjust="spacing" textLength="133.75" x="568.75" y="1093.783">setOcupacao(true)</text><polygon fill="#A80036" points="856.25,1132.793,868.75,1137.793,856.25,1142.793,861.25,1137.793" style="stroke:#A80036;stroke-width:1.25;"/><line style="stroke:#A80036;stroke-width:1.25;" x1="537.5" x2="863.75" y1="1137.793" y2="1137.793"/><text fill="#000000" font-family="sans-serif" font-size="16.25" font-weight="bold" lengthAdjust="spacing" textLength="17.5" x="546.25" y="1131.7224">14</text><text fill="#000000" font-family="sans-serif" font-size="16.25" lengthAdjust="spacing" textLength="120" x="568.75" y="1131.7224">aumentarCarga()</text><polygon fill="#A80036" points="862.5,1170.7324,875,1175.7324,862.5,1180.7324,867.5,1175.7324" style="stroke:#A80036;stroke-width:1.25;"/><line style="stroke:#A80036;stroke-width:1.25;" x1="537.5" x2="870" y1="1175.7324" y2="1175.7324"/><text fill="#000000" font-family="sans-serif" font-size="16.25" font-weight="bold" lengthAdjust="spacing" textLength="17.5" x="546.25" y="1169.6619">15</text><text fill="#000000" font-family="sans-serif" font-size="16.25" lengthAdjust="spacing" textLength="281.25" x="568.75" y="1169.6619">associarTrabalho(emEspera.remove(0))</text><polygon fill="#A80036" points="996.875,1208.6719,1009.375,1213.6719,996.875,1218.6719,1001.875,1213.6719" style="stroke:#A80036;stroke-width:1.25;"/><line style="stroke:#A80036;stroke-width:1.25;stroke-dasharray:2.0,2.0;" x1="537.5" x2="1004.375" y1="1213.6719" y2="1213.6719"/><text fill="#000000" font-family="sans-serif" font-size="16.25" font-weight="bold" lengthAdjust="spacing" textLength="17.5" x="546.25" y="1207.6013">16</text><text fill="#000000" font-family="sans-serif" font-size="16.25" lengthAdjust="spacing" textLength="55" x="568.75" y="1207.6013">create()</text><rect fill="#FEFECE" height="61.5234" style="stroke:#A80036;stroke-width:1.875;" width="88.75" x="1011.875" y="1185.7324"/><text fill="#000000" font-family="sans-serif" font-size="17.5" font-style="italic" lengthAdjust="spacing" textLength="71.25" x="1020.625" y="1212.6489">«thread»</text><text fill="#000000" font-family="sans-serif" font-size="17.5" lengthAdjust="spacing" textLength="57.5" x="1027.5" y="1234.6606">Thread</text><polygon fill="#A80036" points="1035,1283.9453,1047.5,1288.9453,1035,1293.9453,1040,1288.9453" style="stroke:#A80036;stroke-width:1.25;"/><line style="stroke:#A80036;stroke-width:1.25;" x1="537.5" x2="1042.5" y1="1288.9453" y2="1288.9453"/><text fill="#000000" font-family="sans-serif" font-size="16.25" font-weight="bold" lengthAdjust="spacing" textLength="17.5" x="546.25" y="1282.8748">17</text><text fill="#000000" font-family="sans-serif" font-size="16.25" lengthAdjust="spacing" textLength="42.5" x="568.75" y="1282.8748">start()</text><polygon fill="#A80036" points="1041.25,1321.8848,1053.75,1326.8848,1041.25,1331.8848,1046.25,1326.8848" style="stroke:#A80036;stroke-width:1.25;"/><line style="stroke:#A80036;stroke-width:1.25;" x1="537.5" x2="1048.75" y1="1326.8848" y2="1326.8848"/><text fill="#000000" font-family="sans-serif" font-size="16.25" font-weight="bold" lengthAdjust="spacing" textLength="17.5" x="546.25" y="1320.8142">18</text><text fill="#000000" font-family="sans-serif" font-size="16.25" lengthAdjust="spacing" textLength="35" x="568.75" y="1320.8142">join()</text><!--MD5=[7051cde20ca1085dd3de52aff3936516]
@startuml
'http://plantuml.com/skinparam.html
skinparam shadowing false
autonumber

actor "ExecutorTarefasAutomaticasTCPServerConn" as TCP
participant EscalonadorPorCargaEOcupacao as ESC <<escalonador>>
participant ExecutorTarefasAutomaticas as EXEC <<domain>>
participant Thread as THR <<thread>>
participant AtividadeAutomatica as AA <<domain>>

activate TCP
TCP - -> ESC : adicionarTrabalho()
activate ESC

ESC -> ESC: escalonar()
activate ESC

note right of ESC: cria lista temporária (lista temp)
group for each (ExecutorTarefasAutomaticas instância em instâncias)
group if (instância não está ocupada)
note right of ESC: adiciona instância no temp
end
end

ESC -> ESC
note right: dá sort à lista de temp

alt se (temp está vazia)
ESC -> ESC
note right: adiciona trabalho à fila de espera

else se (temp não está vazia)
alt se (emEspera está vazia)
ESC -> EXEC : setOcupacao(true)
activate EXEC
ESC -> EXEC : aumentarCarga()
ESC -> EXEC : associarTrabalho(this.trabalho)
deactivate EXEC
ESC - -> THR** : create()
activate THR
ESC -> THR : start()
ESC -> THR : join()
deactivate THR

else se (emEspera não está vazia)
alt se (this.trabalho não for null)
ESC -> ESC
note right: adiciona trabalho à lista de espera
end

ESC -> ESC
note right: dá sort à lista de espera

group for each (ExecutorTarefasAutomaticas executorTarefasAutomaticas : temp)
group if (emEspera.size() > 0)
ESC -> EXEC : setOcupacao(true)
activate EXEC
ESC -> EXEC : aumentarCarga()
ESC -> EXEC : associarTrabalho(emEspera.remove(0))
deactivate EXEC
ESC - -> THR** : create()
activate THR
ESC -> THR : start()
ESC -> THR : join()
deactivate THR

end
end
end
end
deactivate ESC
deactivate ESC
deactivate TCP
@enduml

@startuml
skinparam shadowing false
autonumber

actor "ExecutorTarefasAutomaticasTCPServerConn" as TCP
participant EscalonadorPorCargaEOcupacao as ESC <<escalonador>>
participant ExecutorTarefasAutomaticas as EXEC <<domain>>
participant Thread as THR <<thread>>
participant AtividadeAutomatica as AA <<domain>>

activate TCP
TCP - -> ESC : adicionarTrabalho()
activate ESC

ESC -> ESC: escalonar()
activate ESC

note right of ESC: cria lista temporária (lista temp)
group for each (ExecutorTarefasAutomaticas instância em instâncias)
group if (instância não está ocupada)
note right of ESC: adiciona instância no temp
end
end

ESC -> ESC
note right: dá sort à lista de temp

alt se (temp está vazia)
ESC -> ESC
note right: adiciona trabalho à fila de espera

else se (temp não está vazia)
alt se (emEspera está vazia)
ESC -> EXEC : setOcupacao(true)
activate EXEC
ESC -> EXEC : aumentarCarga()
ESC -> EXEC : associarTrabalho(this.trabalho)
deactivate EXEC
ESC - -> THR** : create()
activate THR
ESC -> THR : start()
ESC -> THR : join()
deactivate THR

else se (emEspera não está vazia)
alt se (this.trabalho não for null)
ESC -> ESC
note right: adiciona trabalho à lista de espera
end

ESC -> ESC
note right: dá sort à lista de espera

group for each (ExecutorTarefasAutomaticas executorTarefasAutomaticas : temp)
group if (emEspera.size() > 0)
ESC -> EXEC : setOcupacao(true)
activate EXEC
ESC -> EXEC : aumentarCarga()
ESC -> EXEC : associarTrabalho(emEspera.remove(0))
deactivate EXEC
ESC - -> THR** : create()
activate THR
ESC -> THR : start()
ESC -> THR : join()
deactivate THR

end
end
end
end
deactivate ESC
deactivate ESC
deactivate TCP
@enduml

PlantUML version 1.2021.7(Sun May 23 13:40:07 BST 2021)
(GPL source distribution)
Java Runtime: OpenJDK Runtime Environment
JVM: Dynamic Code Evolution 64-Bit Server VM
Default Encoding: Cp1252
Language: en
Country: US
--></g></svg>