<?xml version="1.0" encoding="UTF-8" standalone="no"?><svg xmlns="http://www.w3.org/2000/svg" xmlns:xlink="http://www.w3.org/1999/xlink" contentScriptType="application/ecmascript" contentStyleType="text/css" height="1380px" preserveAspectRatio="none" style="width:1330px;height:1380px;background:#FFFFFF;" version="1.1" viewBox="0 0 1330 1380" width="1330px" zoomAndPan="magnify"><defs/><g><rect fill="#FFFFFF" height="1143.9941" style="stroke:#A80036;stroke-width:1.25;" width="12.5" x="181.875" y="119.5117"/><rect fill="#FFFFFF" height="1116.0547" style="stroke:#A80036;stroke-width:1.25;" width="12.5" x="572.5" y="147.4512"/><rect fill="#FFFFFF" height="1068.1152" style="stroke:#A80036;stroke-width:1.25;" width="12.5" x="578.75" y="195.3906"/><rect fill="#FFFFFF" height="75.8789" style="stroke:#A80036;stroke-width:1.25;" width="12.5" x="903.125" y="548.7012"/><rect fill="#FFFFFF" height="75.8789" style="stroke:#A80036;stroke-width:1.25;" width="12.5" x="903.125" y="991.4746"/><rect fill="#FFFFFF" height="100.7129" style="stroke:#A80036;stroke-width:1.25;" width="12.5" x="1081.875" y="675.0195"/><rect fill="#FFFFFF" height="100.7129" style="stroke:#A80036;stroke-width:1.25;" width="12.5" x="1081.875" y="1117.793"/><rect fill="#FFFFFF" height="108.8184" style="stroke:#000000;stroke-width:2.5;" width="558.75" x="572.5" y="265.8301"/><rect fill="#FFFFFF" height="68.3789" style="stroke:#000000;stroke-width:2.5;" width="305" x="585" y="297.5195"/><rect fill="#FFFFFF" height="862.6074" style="stroke:#000000;stroke-width:2.5;" width="850" x="332.5" y="392.1484"/><rect fill="#FFFFFF" height="785.4785" style="stroke:none;stroke-width:1.25;" width="850" x="332.5" y="469.2773"/><rect fill="#FFFFFF" height="748.1836" style="stroke:#000000;stroke-width:2.5;" width="825" x="345" y="497.8223"/><rect fill="#FFFFFF" height="460.2734" style="stroke:none;stroke-width:1.25;" width="825" x="345" y="785.7324"/><rect fill="#FFFFFF" height="77.1289" style="stroke:#000000;stroke-width:2.5;" width="588.75" x="370" y="814.2773"/><rect fill="#FFFFFF" height="328.3496" style="stroke:#000000;stroke-width:2.5;" width="800" x="357.5" y="908.9063"/><rect fill="#FFFFFF" height="287.9102" style="stroke:#000000;stroke-width:2.5;" width="775" x="370" y="940.5957"/><line style="stroke:#A80036;stroke-width:1.25;stroke-dasharray:5.0,5.0;" x1="187.5" x2="187.5" y1="107.0117" y2="1276.0059"/><line style="stroke:#A80036;stroke-width:1.25;stroke-dasharray:5.0,5.0;" x1="578.75" x2="578.75" y1="107.0117" y2="1276.0059"/><line style="stroke:#A80036;stroke-width:1.25;stroke-dasharray:5.0,5.0;" x1="908.75" x2="908.75" y1="107.0117" y2="1276.0059"/><line style="stroke:#A80036;stroke-width:1.25;stroke-dasharray:5.0,5.0;" x1="1087.5" x2="1087.5" y1="1127.4902" y2="1276.0059"/><line style="stroke:#A80036;stroke-width:1.25;stroke-dasharray:5.0,5.0;" x1="1233.75" x2="1233.75" y1="107.0117" y2="1276.0059"/><text fill="#000000" font-family="sans-serif" font-size="17.5" lengthAdjust="spacing" textLength="356.25" x="6.25" y="103.1665">ExecutorTarefasAutomaticasTCPServerConn</text><ellipse cx="188.125" cy="18.75" fill="#FEFECE" rx="10" ry="10" style="stroke:#A80036;stroke-width:2.5;"/><path d="M188.125,28.75 L188.125,62.5 M171.875,38.75 L204.375,38.75 M188.125,62.5 L171.875,81.25 M188.125,62.5 L204.375,81.25 " fill="none" style="stroke:#A80036;stroke-width:2.5;"/><text fill="#000000" font-family="sans-serif" font-size="17.5" lengthAdjust="spacing" textLength="356.25" x="6.25" y="1292.9224">ExecutorTarefasAutomaticasTCPServerConn</text><ellipse cx="188.125" cy="1309.2676" fill="#FEFECE" rx="10" ry="10" style="stroke:#A80036;stroke-width:2.5;"/><path d="M188.125,1319.2676 L188.125,1353.0176 M171.875,1329.2676 L204.375,1329.2676 M188.125,1353.0176 L171.875,1371.7676 M188.125,1353.0176 L204.375,1371.7676 " fill="none" style="stroke:#A80036;stroke-width:2.5;"/><rect fill="#FEFECE" height="61.5234" style="stroke:#A80036;stroke-width:1.875;" width="392.5" x="382.5" y="44.2383"/><text fill="#000000" font-family="sans-serif" font-size="17.5" font-style="italic" lengthAdjust="spacing" textLength="117.5" x="520" y="71.1548">«escalonador»</text><text fill="#000000" font-family="sans-serif" font-size="17.5" lengthAdjust="spacing" textLength="375" x="391.25" y="93.1665">EscalonadorFCFSAtividadeAutomaticaInstancia</text><rect fill="#FEFECE" height="61.5234" style="stroke:#A80036;stroke-width:1.875;" width="392.5" x="382.5" y="1274.7559"/><text fill="#000000" font-family="sans-serif" font-size="17.5" font-style="italic" lengthAdjust="spacing" textLength="117.5" x="520" y="1301.6724">«escalonador»</text><text fill="#000000" font-family="sans-serif" font-size="17.5" lengthAdjust="spacing" textLength="375" x="391.25" y="1323.6841">EscalonadorFCFSAtividadeAutomaticaInstancia</text><rect fill="#FEFECE" height="61.5234" style="stroke:#A80036;stroke-width:1.875;" width="243.75" x="787.5" y="44.2383"/><text fill="#000000" font-family="sans-serif" font-size="17.5" font-style="italic" lengthAdjust="spacing" textLength="77.5" x="870.625" y="71.1548">«domain»</text><text fill="#000000" font-family="sans-serif" font-size="17.5" lengthAdjust="spacing" textLength="226.25" x="796.25" y="93.1665">ExecutorTarefasAutomaticas</text><rect fill="#FEFECE" height="61.5234" style="stroke:#A80036;stroke-width:1.875;" width="243.75" x="787.5" y="1274.7559"/><text fill="#000000" font-family="sans-serif" font-size="17.5" font-style="italic" lengthAdjust="spacing" textLength="77.5" x="870.625" y="1301.6724">«domain»</text><text fill="#000000" font-family="sans-serif" font-size="17.5" lengthAdjust="spacing" textLength="226.25" x="796.25" y="1323.6841">ExecutorTarefasAutomaticas</text><rect fill="#FEFECE" height="61.5234" style="stroke:#A80036;stroke-width:1.875;" width="88.75" x="1043.75" y="1274.7559"/><text fill="#000000" font-family="sans-serif" font-size="17.5" font-style="italic" lengthAdjust="spacing" textLength="71.25" x="1052.5" y="1301.6724">«thread»</text><text fill="#000000" font-family="sans-serif" font-size="17.5" lengthAdjust="spacing" textLength="57.5" x="1059.375" y="1323.6841">Thread</text><rect fill="#FEFECE" height="61.5234" style="stroke:#A80036;stroke-width:1.875;" width="177.5" x="1145" y="44.2383"/><text fill="#000000" font-family="sans-serif" font-size="17.5" font-style="italic" lengthAdjust="spacing" textLength="77.5" x="1195" y="71.1548">«domain»</text><text fill="#000000" font-family="sans-serif" font-size="17.5" lengthAdjust="spacing" textLength="160" x="1153.75" y="93.1665">AtividadeAutomatica</text><rect fill="#FEFECE" height="61.5234" style="stroke:#A80036;stroke-width:1.875;" width="177.5" x="1145" y="1274.7559"/><text fill="#000000" font-family="sans-serif" font-size="17.5" font-style="italic" lengthAdjust="spacing" textLength="77.5" x="1195" y="1301.6724">«domain»</text><text fill="#000000" font-family="sans-serif" font-size="17.5" lengthAdjust="spacing" textLength="160" x="1153.75" y="1323.6841">AtividadeAutomatica</text><rect fill="#FFFFFF" height="1143.9941" style="stroke:#A80036;stroke-width:1.25;" width="12.5" x="181.875" y="119.5117"/><rect fill="#FFFFFF" height="1116.0547" style="stroke:#A80036;stroke-width:1.25;" width="12.5" x="572.5" y="147.4512"/><rect fill="#FFFFFF" height="1068.1152" style="stroke:#A80036;stroke-width:1.25;" width="12.5" x="578.75" y="195.3906"/><rect fill="#FFFFFF" height="75.8789" style="stroke:#A80036;stroke-width:1.25;" width="12.5" x="903.125" y="548.7012"/><rect fill="#FFFFFF" height="75.8789" style="stroke:#A80036;stroke-width:1.25;" width="12.5" x="903.125" y="991.4746"/><rect fill="#FFFFFF" height="100.7129" style="stroke:#A80036;stroke-width:1.25;" width="12.5" x="1081.875" y="675.0195"/><rect fill="#FFFFFF" height="100.7129" style="stroke:#A80036;stroke-width:1.25;" width="12.5" x="1081.875" y="1117.793"/><polygon fill="#A80036" points="557.5,142.4512,570,147.4512,557.5,152.4512,562.5,147.4512" style="stroke:#A80036;stroke-width:1.25;"/><line style="stroke:#A80036;stroke-width:1.25;stroke-dasharray:2.0,2.0;" x1="194.375" x2="565" y1="147.4512" y2="147.4512"/><text fill="#000000" font-family="sans-serif" font-size="16.25" font-weight="bold" lengthAdjust="spacing" textLength="8.75" x="203.125" y="141.3806">1</text><text fill="#000000" font-family="sans-serif" font-size="16.25" lengthAdjust="spacing" textLength="136.25" x="216.875" y="141.3806">adicionarTrabalho()</text><line style="stroke:#A80036;stroke-width:1.25;" x1="585" x2="643.75" y1="179.1406" y2="179.1406"/><line style="stroke:#A80036;stroke-width:1.25;" x1="643.75" x2="643.75" y1="179.1406" y2="195.3906"/><line style="stroke:#A80036;stroke-width:1.25;" x1="592.5" x2="643.75" y1="195.3906" y2="195.3906"/><polygon fill="#A80036" points="605,190.3906,592.5,195.3906,605,200.3906,600,195.3906" style="stroke:#A80036;stroke-width:1.25;"/><text fill="#000000" font-family="sans-serif" font-size="16.25" font-weight="bold" lengthAdjust="spacing" textLength="8.75" x="600" y="173.0701">2</text><text fill="#000000" font-family="sans-serif" font-size="16.25" lengthAdjust="spacing" textLength="80" x="613.75" y="173.0701">escalonar()</text><path d="M597.5,217.8906 L597.5,250.3906 L852.5,250.3906 L852.5,230.3906 L840,217.8906 L597.5,217.8906 " fill="#FBFB77" style="stroke:#A80036;stroke-width:1.25;"/><path d="M840,217.8906 L840,230.3906 L852.5,230.3906 L840,217.8906 " fill="#FBFB77" style="stroke:#A80036;stroke-width:1.25;"/><text fill="#000000" font-family="sans-serif" font-size="16.25" lengthAdjust="spacing" textLength="228.75" x="605" y="241.0095">cria lista temporária (lista temp)</text><path d="M572.5,265.8301 L1125,265.8301 L1125,275.8301 L1112.5,288.3301 L572.5,288.3301 L572.5,265.8301 " fill="#EEEEEE" style="stroke:#000000;stroke-width:1.25;"/><rect fill="none" height="108.8184" style="stroke:#000000;stroke-width:2.5;" width="558.75" x="572.5" y="265.8301"/><text fill="#000000" font-family="sans-serif" font-size="16.25" font-weight="bold" lengthAdjust="spacing" textLength="496.25" x="591.25" y="283.949">for each (ExecutorTarefasAutomaticas instância em instâncias)</text><path d="M585,297.5195 L883.75,297.5195 L883.75,307.5195 L871.25,320.0195 L585,320.0195 L585,297.5195 " fill="#EEEEEE" style="stroke:#000000;stroke-width:1.25;"/><rect fill="none" height="68.3789" style="stroke:#000000;stroke-width:2.5;" width="305" x="585" y="297.5195"/><text fill="#000000" font-family="sans-serif" font-size="16.25" font-weight="bold" lengthAdjust="spacing" textLength="242.5" x="603.75" y="315.6384">if (instância não está ocupada)</text><path d="M597.5,326.709 L597.5,359.209 L817.5,359.209 L817.5,339.209 L805,326.709 L597.5,326.709 " fill="#FBFB77" style="stroke:#A80036;stroke-width:1.25;"/><path d="M805,326.709 L805,339.209 L817.5,339.209 L805,326.709 " fill="#FBFB77" style="stroke:#A80036;stroke-width:1.25;"/><text fill="#000000" font-family="sans-serif" font-size="16.25" lengthAdjust="spacing" textLength="193.75" x="605" y="349.8279">adiciona instância no temp</text><path d="M332.5,392.1484 L408.75,392.1484 L408.75,402.1484 L396.25,414.6484 L332.5,414.6484 L332.5,392.1484 " fill="#EEEEEE" style="stroke:#000000;stroke-width:1.25;"/><rect fill="none" height="862.6074" style="stroke:#000000;stroke-width:2.5;" width="850" x="332.5" y="392.1484"/><text fill="#000000" font-family="sans-serif" font-size="16.25" font-weight="bold" lengthAdjust="spacing" textLength="20" x="351.25" y="410.2673">alt</text><text fill="#000000" font-family="sans-serif" font-size="13.75" font-weight="bold" lengthAdjust="spacing" textLength="148.75" x="427.5" y="408.9221">[se (temp está vazia)]</text><line style="stroke:#A80036;stroke-width:1.25;" x1="591.25" x2="643.75" y1="443.0273" y2="443.0273"/><line style="stroke:#A80036;stroke-width:1.25;" x1="643.75" x2="643.75" y1="443.0273" y2="459.2773"/><line style="stroke:#A80036;stroke-width:1.25;" x1="592.5" x2="643.75" y1="459.2773" y2="459.2773"/><polygon fill="#A80036" points="605,454.2773,592.5,459.2773,605,464.2773,600,459.2773" style="stroke:#A80036;stroke-width:1.25;"/><text fill="#000000" font-family="sans-serif" font-size="16.25" font-weight="bold" lengthAdjust="spacing" textLength="8.75" x="600" y="436.9568">3</text><text fill="#000000" font-family="sans-serif" font-size="16.25" lengthAdjust="spacing" textLength="0" x="618.75" y="436.9568"/><path d="M653.75,425.7129 L653.75,458.2129 L917.5,458.2129 L917.5,438.2129 L905,425.7129 L653.75,425.7129 " fill="#FBFB77" style="stroke:#A80036;stroke-width:1.25;"/><path d="M905,425.7129 L905,438.2129 L917.5,438.2129 L905,425.7129 " fill="#FBFB77" style="stroke:#A80036;stroke-width:1.25;"/><text fill="#000000" font-family="sans-serif" font-size="16.25" lengthAdjust="spacing" textLength="237.5" x="661.25" y="448.8318">adiciona trabalho à fila de espera</text><line style="stroke:#000000;stroke-width:1.25;stroke-dasharray:2.0,2.0;" x1="332.5" x2="1182.5" y1="470.5273" y2="470.5273"/><text fill="#000000" font-family="sans-serif" font-size="13.75" font-weight="bold" lengthAdjust="spacing" textLength="177.5" x="338.75" y="484.801">[se (temp não está vazia)]</text><path d="M345,497.8223 L421.25,497.8223 L421.25,507.8223 L408.75,520.3223 L345,520.3223 L345,497.8223 " fill="#EEEEEE" style="stroke:#000000;stroke-width:1.25;"/><rect fill="none" height="748.1836" style="stroke:#000000;stroke-width:2.5;" width="825" x="345" y="497.8223"/><text fill="#000000" font-family="sans-serif" font-size="16.25" font-weight="bold" lengthAdjust="spacing" textLength="20" x="363.75" y="515.9412">alt</text><text fill="#000000" font-family="sans-serif" font-size="13.75" font-weight="bold" lengthAdjust="spacing" textLength="182.5" x="440" y="514.5959">[se (emEspera está vazia)]</text><polygon fill="#A80036" points="888.125,543.7012,900.625,548.7012,888.125,553.7012,893.125,548.7012" style="stroke:#A80036;stroke-width:1.25;"/><line style="stroke:#A80036;stroke-width:1.25;" x1="591.25" x2="895.625" y1="548.7012" y2="548.7012"/><text fill="#000000" font-family="sans-serif" font-size="16.25" font-weight="bold" lengthAdjust="spacing" textLength="8.75" x="600" y="542.6306">4</text><text fill="#000000" font-family="sans-serif" font-size="16.25" lengthAdjust="spacing" textLength="133.75" x="613.75" y="542.6306">setOcupacao(true)</text><polygon fill="#A80036" points="888.125,581.6406,900.625,586.6406,888.125,591.6406,893.125,586.6406" style="stroke:#A80036;stroke-width:1.25;"/><line style="stroke:#A80036;stroke-width:1.25;" x1="591.25" x2="895.625" y1="586.6406" y2="586.6406"/><text fill="#000000" font-family="sans-serif" font-size="16.25" font-weight="bold" lengthAdjust="spacing" textLength="8.75" x="600" y="580.5701">5</text><text fill="#000000" font-family="sans-serif" font-size="16.25" lengthAdjust="spacing" textLength="120" x="613.75" y="580.5701">aumentarCarga()</text><polygon fill="#A80036" points="894.375,619.5801,906.875,624.5801,894.375,629.5801,899.375,624.5801" style="stroke:#A80036;stroke-width:1.25;"/><line style="stroke:#A80036;stroke-width:1.25;" x1="591.25" x2="901.875" y1="624.5801" y2="624.5801"/><text fill="#000000" font-family="sans-serif" font-size="16.25" font-weight="bold" lengthAdjust="spacing" textLength="8.75" x="600" y="618.5095">6</text><text fill="#000000" font-family="sans-serif" font-size="16.25" lengthAdjust="spacing" textLength="221.25" x="613.75" y="618.5095">associarTrabalho(this.trabalho)</text><polygon fill="#A80036" points="1028.75,657.5195,1041.25,662.5195,1028.75,667.5195,1033.75,662.5195" style="stroke:#A80036;stroke-width:1.25;"/><line style="stroke:#A80036;stroke-width:1.25;stroke-dasharray:2.0,2.0;" x1="591.25" x2="1036.25" y1="662.5195" y2="662.5195"/><text fill="#000000" font-family="sans-serif" font-size="16.25" font-weight="bold" lengthAdjust="spacing" textLength="8.75" x="600" y="656.449">7</text><text fill="#000000" font-family="sans-serif" font-size="16.25" lengthAdjust="spacing" textLength="55" x="613.75" y="656.449">create()</text><rect fill="#FEFECE" height="61.5234" style="stroke:#A80036;stroke-width:1.875;" width="88.75" x="1043.75" y="634.5801"/><text fill="#000000" font-family="sans-serif" font-size="17.5" font-style="italic" lengthAdjust="spacing" textLength="71.25" x="1052.5" y="661.4966">«thread»</text><text fill="#000000" font-family="sans-serif" font-size="17.5" lengthAdjust="spacing" textLength="57.5" x="1059.375" y="683.5083">Thread</text><polygon fill="#A80036" points="1066.875,732.793,1079.375,737.793,1066.875,742.793,1071.875,737.793" style="stroke:#A80036;stroke-width:1.25;"/><line style="stroke:#A80036;stroke-width:1.25;" x1="591.25" x2="1074.375" y1="737.793" y2="737.793"/><text fill="#000000" font-family="sans-serif" font-size="16.25" font-weight="bold" lengthAdjust="spacing" textLength="8.75" x="600" y="731.7224">8</text><text fill="#000000" font-family="sans-serif" font-size="16.25" lengthAdjust="spacing" textLength="42.5" x="613.75" y="731.7224">start()</text><polygon fill="#A80036" points="1073.125,770.7324,1085.625,775.7324,1073.125,780.7324,1078.125,775.7324" style="stroke:#A80036;stroke-width:1.25;"/><line style="stroke:#A80036;stroke-width:1.25;" x1="591.25" x2="1080.625" y1="775.7324" y2="775.7324"/><text fill="#000000" font-family="sans-serif" font-size="16.25" font-weight="bold" lengthAdjust="spacing" textLength="8.75" x="600" y="769.6619">9</text><text fill="#000000" font-family="sans-serif" font-size="16.25" lengthAdjust="spacing" textLength="35" x="613.75" y="769.6619">join()</text><line style="stroke:#000000;stroke-width:1.25;stroke-dasharray:2.0,2.0;" x1="345" x2="1170" y1="786.9824" y2="786.9824"/><text fill="#000000" font-family="sans-serif" font-size="13.75" font-weight="bold" lengthAdjust="spacing" textLength="211.25" x="351.25" y="801.2561">[se (emEspera não está vazia)]</text><path d="M370,814.2773 L446.25,814.2773 L446.25,824.2773 L433.75,836.7773 L370,836.7773 L370,814.2773 " fill="#EEEEEE" style="stroke:#000000;stroke-width:1.25;"/><rect fill="none" height="77.1289" style="stroke:#000000;stroke-width:2.5;" width="588.75" x="370" y="814.2773"/><text fill="#000000" font-family="sans-serif" font-size="16.25" font-weight="bold" lengthAdjust="spacing" textLength="20" x="388.75" y="832.3962">alt</text><text fill="#000000" font-family="sans-serif" font-size="13.75" font-weight="bold" lengthAdjust="spacing" textLength="208.75" x="465" y="831.051">[se (this.trabalho não for null)]</text><line style="stroke:#A80036;stroke-width:1.25;" x1="591.25" x2="643.75" y1="865.1563" y2="865.1563"/><line style="stroke:#A80036;stroke-width:1.25;" x1="643.75" x2="643.75" y1="865.1563" y2="881.4063"/><line style="stroke:#A80036;stroke-width:1.25;" x1="592.5" x2="643.75" y1="881.4063" y2="881.4063"/><polygon fill="#A80036" points="605,876.4063,592.5,881.4063,605,886.4063,600,881.4063" style="stroke:#A80036;stroke-width:1.25;"/><text fill="#000000" font-family="sans-serif" font-size="16.25" font-weight="bold" lengthAdjust="spacing" textLength="17.5" x="600" y="859.0857">10</text><text fill="#000000" font-family="sans-serif" font-size="16.25" lengthAdjust="spacing" textLength="0" x="627.5" y="859.0857"/><path d="M653.75,847.8418 L653.75,880.3418 L927.5,880.3418 L927.5,860.3418 L915,847.8418 L653.75,847.8418 " fill="#FBFB77" style="stroke:#A80036;stroke-width:1.25;"/><path d="M915,847.8418 L915,860.3418 L927.5,860.3418 L915,847.8418 " fill="#FBFB77" style="stroke:#A80036;stroke-width:1.25;"/><text fill="#000000" font-family="sans-serif" font-size="16.25" lengthAdjust="spacing" textLength="247.5" x="661.25" y="870.9607">adiciona trabalho à lista de espera</text><path d="M357.5,908.9063 L1006.25,908.9063 L1006.25,918.9063 L993.75,931.4063 L357.5,931.4063 L357.5,908.9063 " fill="#EEEEEE" style="stroke:#000000;stroke-width:1.25;"/><rect fill="none" height="328.3496" style="stroke:#000000;stroke-width:2.5;" width="800" x="357.5" y="908.9063"/><text fill="#000000" font-family="sans-serif" font-size="16.25" font-weight="bold" lengthAdjust="spacing" textLength="592.5" x="376.25" y="927.0251">for each (ExecutorTarefasAutomaticas executorTarefasAutomaticas : temp)</text><path d="M370,940.5957 L605,940.5957 L605,950.5957 L592.5,963.0957 L370,963.0957 L370,940.5957 " fill="#EEEEEE" style="stroke:#000000;stroke-width:1.25;"/><rect fill="none" height="287.9102" style="stroke:#000000;stroke-width:2.5;" width="775" x="370" y="940.5957"/><text fill="#000000" font-family="sans-serif" font-size="16.25" font-weight="bold" lengthAdjust="spacing" textLength="178.75" x="388.75" y="958.7146">if (emEspera.size() &gt; 0)</text><polygon fill="#A80036" points="888.125,986.4746,900.625,991.4746,888.125,996.4746,893.125,991.4746" style="stroke:#A80036;stroke-width:1.25;"/><line style="stroke:#A80036;stroke-width:1.25;" x1="591.25" x2="895.625" y1="991.4746" y2="991.4746"/><text fill="#000000" font-family="sans-serif" font-size="16.25" font-weight="bold" lengthAdjust="spacing" textLength="17.5" x="600" y="985.4041">11</text><text fill="#000000" font-family="sans-serif" font-size="16.25" lengthAdjust="spacing" textLength="133.75" x="622.5" y="985.4041">setOcupacao(true)</text><polygon fill="#A80036" points="888.125,1024.4141,900.625,1029.4141,888.125,1034.4141,893.125,1029.4141" style="stroke:#A80036;stroke-width:1.25;"/><line style="stroke:#A80036;stroke-width:1.25;" x1="591.25" x2="895.625" y1="1029.4141" y2="1029.4141"/><text fill="#000000" font-family="sans-serif" font-size="16.25" font-weight="bold" lengthAdjust="spacing" textLength="17.5" x="600" y="1023.3435">12</text><text fill="#000000" font-family="sans-serif" font-size="16.25" lengthAdjust="spacing" textLength="120" x="622.5" y="1023.3435">aumentarCarga()</text><polygon fill="#A80036" points="894.375,1062.3535,906.875,1067.3535,894.375,1072.3535,899.375,1067.3535" style="stroke:#A80036;stroke-width:1.25;"/><line style="stroke:#A80036;stroke-width:1.25;" x1="591.25" x2="901.875" y1="1067.3535" y2="1067.3535"/><text fill="#000000" font-family="sans-serif" font-size="16.25" font-weight="bold" lengthAdjust="spacing" textLength="17.5" x="600" y="1061.283">13</text><text fill="#000000" font-family="sans-serif" font-size="16.25" lengthAdjust="spacing" textLength="221.25" x="622.5" y="1061.283">associarTrabalho(this.trabalho)</text><polygon fill="#A80036" points="1028.75,1100.293,1041.25,1105.293,1028.75,1110.293,1033.75,1105.293" style="stroke:#A80036;stroke-width:1.25;"/><line style="stroke:#A80036;stroke-width:1.25;stroke-dasharray:2.0,2.0;" x1="591.25" x2="1036.25" y1="1105.293" y2="1105.293"/><text fill="#000000" font-family="sans-serif" font-size="16.25" font-weight="bold" lengthAdjust="spacing" textLength="17.5" x="600" y="1099.2224">14</text><text fill="#000000" font-family="sans-serif" font-size="16.25" lengthAdjust="spacing" textLength="55" x="622.5" y="1099.2224">create()</text><rect fill="#FEFECE" height="61.5234" style="stroke:#A80036;stroke-width:1.875;" width="88.75" x="1043.75" y="1077.3535"/><text fill="#000000" font-family="sans-serif" font-size="17.5" font-style="italic" lengthAdjust="spacing" textLength="71.25" x="1052.5" y="1104.27">«thread»</text><text fill="#000000" font-family="sans-serif" font-size="17.5" lengthAdjust="spacing" textLength="57.5" x="1059.375" y="1126.2817">Thread</text><polygon fill="#A80036" points="1066.875,1175.5664,1079.375,1180.5664,1066.875,1185.5664,1071.875,1180.5664" style="stroke:#A80036;stroke-width:1.25;"/><line style="stroke:#A80036;stroke-width:1.25;" x1="591.25" x2="1074.375" y1="1180.5664" y2="1180.5664"/><text fill="#000000" font-family="sans-serif" font-size="16.25" font-weight="bold" lengthAdjust="spacing" textLength="17.5" x="600" y="1174.4958">15</text><text fill="#000000" font-family="sans-serif" font-size="16.25" lengthAdjust="spacing" textLength="42.5" x="622.5" y="1174.4958">start()</text><polygon fill="#A80036" points="1073.125,1213.5059,1085.625,1218.5059,1073.125,1223.5059,1078.125,1218.5059" style="stroke:#A80036;stroke-width:1.25;"/><line style="stroke:#A80036;stroke-width:1.25;" x1="591.25" x2="1080.625" y1="1218.5059" y2="1218.5059"/><text fill="#000000" font-family="sans-serif" font-size="16.25" font-weight="bold" lengthAdjust="spacing" textLength="17.5" x="600" y="1212.4353">16</text><text fill="#000000" font-family="sans-serif" font-size="16.25" lengthAdjust="spacing" textLength="35" x="622.5" y="1212.4353">join()</text><!--MD5=[197821a1053b17fba06d3cd16b110af5]
@startuml
'http://plantuml.com/skinparam.html
skinparam shadowing false
autonumber

actor "ExecutorTarefasAutomaticasTCPServerConn" as TCP
participant EscalonadorFCFSAtividadeAutomaticaInstancia as ESC <<escalonador>>
participant ExecutorTarefasAutomaticas as EXEC <<domain>>
participant Thread as THR <<thread>>
participant AtividadeAutomatica as AA <<domain>>

activate TCP
TCP - -> ESC : adicionarTrabalho()
activate ESC

ESC -> ESC: escalonar()
activate ESC

note right of ESC: cria lista temporária (lista temp)
group for each (ExecutorTarefasAutomaticas instância em instâncias)
group if (instância não está ocupada)
note right of ESC: adiciona instância no temp
end
end

alt se (temp está vazia)
ESC -> ESC
note right: adiciona trabalho à fila de espera

else se (temp não está vazia)
alt se (emEspera está vazia)
ESC -> EXEC : setOcupacao(true)
activate EXEC
ESC -> EXEC : aumentarCarga()
ESC -> EXEC : associarTrabalho(this.trabalho)
deactivate EXEC
ESC - -> THR** : create()
activate THR
ESC -> THR : start()
ESC -> THR : join()
deactivate THR

else se (emEspera não está vazia)
alt se (this.trabalho não for null)
ESC -> ESC
note right: adiciona trabalho à lista de espera
end

group for each (ExecutorTarefasAutomaticas executorTarefasAutomaticas : temp)
group if (emEspera.size() > 0)
ESC -> EXEC : setOcupacao(true)
activate EXEC
ESC -> EXEC : aumentarCarga()
ESC -> EXEC : associarTrabalho(this.trabalho)
deactivate EXEC
ESC - -> THR** : create()
activate THR
ESC -> THR : start()
ESC -> THR : join()
deactivate THR

end
end
end
end
deactivate ESC
deactivate ESC
deactivate TCP
@enduml

@startuml
skinparam shadowing false
autonumber

actor "ExecutorTarefasAutomaticasTCPServerConn" as TCP
participant EscalonadorFCFSAtividadeAutomaticaInstancia as ESC <<escalonador>>
participant ExecutorTarefasAutomaticas as EXEC <<domain>>
participant Thread as THR <<thread>>
participant AtividadeAutomatica as AA <<domain>>

activate TCP
TCP - -> ESC : adicionarTrabalho()
activate ESC

ESC -> ESC: escalonar()
activate ESC

note right of ESC: cria lista temporária (lista temp)
group for each (ExecutorTarefasAutomaticas instância em instâncias)
group if (instância não está ocupada)
note right of ESC: adiciona instância no temp
end
end

alt se (temp está vazia)
ESC -> ESC
note right: adiciona trabalho à fila de espera

else se (temp não está vazia)
alt se (emEspera está vazia)
ESC -> EXEC : setOcupacao(true)
activate EXEC
ESC -> EXEC : aumentarCarga()
ESC -> EXEC : associarTrabalho(this.trabalho)
deactivate EXEC
ESC - -> THR** : create()
activate THR
ESC -> THR : start()
ESC -> THR : join()
deactivate THR

else se (emEspera não está vazia)
alt se (this.trabalho não for null)
ESC -> ESC
note right: adiciona trabalho à lista de espera
end

group for each (ExecutorTarefasAutomaticas executorTarefasAutomaticas : temp)
group if (emEspera.size() > 0)
ESC -> EXEC : setOcupacao(true)
activate EXEC
ESC -> EXEC : aumentarCarga()
ESC -> EXEC : associarTrabalho(this.trabalho)
deactivate EXEC
ESC - -> THR** : create()
activate THR
ESC -> THR : start()
ESC -> THR : join()
deactivate THR

end
end
end
end
deactivate ESC
deactivate ESC
deactivate TCP
@enduml

PlantUML version 1.2021.7(Sun May 23 13:40:07 BST 2021)
(GPL source distribution)
Java Runtime: OpenJDK Runtime Environment
JVM: Dynamic Code Evolution 64-Bit Server VM
Default Encoding: Cp1252
Language: en
Country: US
--></g></svg>