<?xml version="1.0" encoding="UTF-8" standalone="no"?><svg xmlns="http://www.w3.org/2000/svg" xmlns:xlink="http://www.w3.org/1999/xlink" contentScriptType="application/ecmascript" contentStyleType="text/css" height="1732px" preserveAspectRatio="none" style="width:2502px;height:1732px;" version="1.1" viewBox="0 0 2502 1732" width="2502px" zoomAndPan="magnify"><defs><filter height="300%" id="f117z7n3gu61xv" width="300%" x="-1" y="-1"><feGaussianBlur result="blurOut" stdDeviation="2.0"/><feColorMatrix in="blurOut" result="blurOut2" type="matrix" values="0 0 0 0 0 0 0 0 0 0 0 0 0 0 0 0 0 0 .4 0"/><feOffset dx="4.0" dy="4.0" in="blurOut2" result="blurOut3"/><feBlend in="SourceGraphic" in2="blurOut3" mode="normal"/></filter></defs><g><rect fill="#FFFFFF" filter="url(#f117z7n3gu61xv)" height="297.0313" style="stroke:#A80036;stroke-width:1.0;" width="10" x="403" y="1300.0391"/><rect fill="#FFFFFF" filter="url(#f117z7n3gu61xv)" height="327.3828" style="stroke:#A80036;stroke-width:1.0;" width="10" x="646.5" y="621.7578"/><rect fill="#FFFFFF" filter="url(#f117z7n3gu61xv)" height="54.2188" style="stroke:#A80036;stroke-width:1.0;" width="10" x="915.5" y="1114.4141"/><rect fill="#FFFFFF" filter="url(#f117z7n3gu61xv)" height="54.2188" style="stroke:#A80036;stroke-width:1.0;" width="10" x="1127.5" y="496.8359"/><rect fill="#FFFFFF" filter="url(#f117z7n3gu61xv)" height="54.2188" style="stroke:#A80036;stroke-width:1.0;" width="10" x="1502.5" y="1019.8438"/><rect fill="#FFFFFF" filter="url(#f117z7n3gu61xv)" height="1504.4609" style="stroke:#A80036;stroke-width:1.0;" width="10" x="1971.5" y="131.9609"/><rect fill="#FFFFFF" filter="url(#f117z7n3gu61xv)" height="358.2266" style="stroke:#A80036;stroke-width:1.0;" width="10" x="2093.5" y="223.1797"/><rect fill="#FFFFFF" filter="url(#f117z7n3gu61xv)" height="665.0938" style="stroke:#A80036;stroke-width:1.0;" width="10" x="2231.5" y="314.3984"/><rect fill="#FFFFFF" filter="url(#f117z7n3gu61xv)" height="854.0703" style="stroke:#A80036;stroke-width:1.0;" width="10" x="2407" y="405.6172"/><line style="stroke:#A80036;stroke-width:1.0;stroke-dasharray:5.0,5.0;" x1="101" x2="101" y1="89.6094" y2="1645.4219"/><line style="stroke:#A80036;stroke-width:1.0;stroke-dasharray:5.0,5.0;" x1="408" x2="408" y1="1309.7969" y2="1645.4219"/><line style="stroke:#A80036;stroke-width:1.0;stroke-dasharray:5.0,5.0;" x1="651" x2="651" y1="631.5156" y2="1645.4219"/><line style="stroke:#A80036;stroke-width:1.0;stroke-dasharray:5.0,5.0;" x1="920" x2="920" y1="1124.1719" y2="1645.4219"/><line style="stroke:#A80036;stroke-width:1.0;stroke-dasharray:5.0,5.0;" x1="1132" x2="1132" y1="506.5938" y2="1645.4219"/><line style="stroke:#A80036;stroke-width:1.0;stroke-dasharray:5.0,5.0;" x1="1306" x2="1306" y1="89.6094" y2="1645.4219"/><line style="stroke:#A80036;stroke-width:1.0;stroke-dasharray:5.0,5.0;" x1="1507" x2="1507" y1="1029.6016" y2="1645.4219"/><line style="stroke:#A80036;stroke-width:1.0;stroke-dasharray:5.0,5.0;" x1="1710" x2="1710" y1="89.6094" y2="1645.4219"/><line style="stroke:#A80036;stroke-width:1.0;stroke-dasharray:5.0,5.0;" x1="1858" x2="1858" y1="89.6094" y2="1645.4219"/><line style="stroke:#A80036;stroke-width:1.0;stroke-dasharray:5.0,5.0;" x1="1976" x2="1976" y1="155.2188" y2="1645.4219"/><line style="stroke:#A80036;stroke-width:1.0;stroke-dasharray:5.0,5.0;" x1="2098" x2="2098" y1="246.4375" y2="1645.4219"/><line style="stroke:#A80036;stroke-width:1.0;stroke-dasharray:5.0,5.0;" x1="2236" x2="2236" y1="337.6563" y2="1645.4219"/><line style="stroke:#A80036;stroke-width:1.0;stroke-dasharray:5.0,5.0;" x1="2412" x2="2412" y1="428.875" y2="1645.4219"/><text fill="#000000" font-family="sans-serif" font-size="14" lengthAdjust="spacing" textLength="186" x="5" y="86.5332">CatalogoServicoBootstrapper</text><ellipse cx="101" cy="15" fill="#FEFECE" filter="url(#f117z7n3gu61xv)" rx="8" ry="8" style="stroke:#A80036;stroke-width:2.0;"/><path d="M101,23 L101,50 M88,31 L114,31 M101,50 L88,65 M101,50 L114,65 " fill="none" filter="url(#f117z7n3gu61xv)" style="stroke:#A80036;stroke-width:2.0;"/><text fill="#000000" font-family="sans-serif" font-size="14" lengthAdjust="spacing" textLength="186" x="5" y="1658.9551">CatalogoServicoBootstrapper</text><ellipse cx="101" cy="1672.0313" fill="#FEFECE" filter="url(#f117z7n3gu61xv)" rx="8" ry="8" style="stroke:#A80036;stroke-width:2.0;"/><path d="M101,1680.0313 L101,1707.0313 M88,1688.0313 L114,1688.0313 M101,1707.0313 L88,1722.0313 M101,1707.0313 L114,1722.0313 " fill="none" filter="url(#f117z7n3gu61xv)" style="stroke:#A80036;stroke-width:2.0;"/><rect fill="#FEFECE" filter="url(#f117z7n3gu61xv)" height="49.2188" style="stroke:#A80036;stroke-width:1.5;" width="198" x="307" y="1644.4219"/><text fill="#000000" font-family="sans-serif" font-size="14" font-style="italic" lengthAdjust="spacing" textLength="59" x="376.5" y="1665.9551">«builder»</text><text fill="#000000" font-family="sans-serif" font-size="14" lengthAdjust="spacing" textLength="184" x="314" y="1683.5645">servicoBuilder:ServicoBuilder</text><rect fill="#FEFECE" filter="url(#f117z7n3gu61xv)" height="49.2188" style="stroke:#A80036;stroke-width:1.5;" width="261" x="519" y="1644.4219"/><text fill="#000000" font-family="sans-serif" font-size="14" font-style="italic" lengthAdjust="spacing" textLength="59" x="620" y="1665.9551">«builder»</text><text fill="#000000" font-family="sans-serif" font-size="14" lengthAdjust="spacing" textLength="247" x="526" y="1683.5645">colaboradorBuilder:ColaboradorBuilder</text><rect fill="#FEFECE" filter="url(#f117z7n3gu61xv)" height="49.2188" style="stroke:#A80036;stroke-width:1.5;" width="249" x="794" y="1644.4219"/><text fill="#000000" font-family="sans-serif" font-size="14" font-style="italic" lengthAdjust="spacing" textLength="75" x="881" y="1665.9551">«controller»</text><text fill="#000000" font-family="sans-serif" font-size="14" lengthAdjust="spacing" textLength="235" x="801" y="1683.5645">catController:CriarCatalogoController</text><rect fill="#FEFECE" filter="url(#f117z7n3gu61xv)" height="49.2188" style="stroke:#A80036;stroke-width:1.5;" width="147" x="1057" y="1644.4219"/><text fill="#000000" font-family="sans-serif" font-size="14" font-style="italic" lengthAdjust="spacing" textLength="62" x="1099.5" y="1665.9551">«domain»</text><text fill="#000000" font-family="sans-serif" font-size="14" lengthAdjust="spacing" textLength="133" x="1064" y="1683.5645">newUser:SystemUser</text><rect fill="#FEFECE" filter="url(#f117z7n3gu61xv)" height="49.2188" style="stroke:#A80036;stroke-width:1.5;" width="173" x="1218" y="35.3906"/><text fill="#000000" font-family="sans-serif" font-size="14" font-style="italic" lengthAdjust="spacing" textLength="62" x="1273.5" y="56.9238">«domain»</text><text fill="#000000" font-family="sans-serif" font-size="14" lengthAdjust="spacing" textLength="159" x="1225" y="74.5332">colaborador:Colaborador</text><rect fill="#FEFECE" filter="url(#f117z7n3gu61xv)" height="49.2188" style="stroke:#A80036;stroke-width:1.5;" width="173" x="1218" y="1644.4219"/><text fill="#000000" font-family="sans-serif" font-size="14" font-style="italic" lengthAdjust="spacing" textLength="62" x="1273.5" y="1665.9551">«domain»</text><text fill="#000000" font-family="sans-serif" font-size="14" lengthAdjust="spacing" textLength="159" x="1225" y="1683.5645">colaborador:Colaborador</text><rect fill="#FEFECE" filter="url(#f117z7n3gu61xv)" height="49.2188" style="stroke:#A80036;stroke-width:1.5;" width="201" x="1405" y="1644.4219"/><text fill="#000000" font-family="sans-serif" font-size="14" font-style="italic" lengthAdjust="spacing" textLength="36" x="1487.5" y="1665.9551">«dto»</text><text fill="#000000" font-family="sans-serif" font-size="14" lengthAdjust="spacing" textLength="187" x="1412" y="1683.5645">catDTO:CatalogoServicoDTO</text><rect fill="#FEFECE" filter="url(#f117z7n3gu61xv)" height="49.2188" style="stroke:#A80036;stroke-width:1.5;" width="176" x="1620" y="35.3906"/><text fill="#000000" font-family="sans-serif" font-size="14" font-style="italic" lengthAdjust="spacing" textLength="62" x="1677" y="56.9238">«domain»</text><text fill="#000000" font-family="sans-serif" font-size="14" lengthAdjust="spacing" textLength="162" x="1627" y="74.5332">catalogo:CatalogoServico</text><rect fill="#FEFECE" filter="url(#f117z7n3gu61xv)" height="49.2188" style="stroke:#A80036;stroke-width:1.5;" width="176" x="1620" y="1644.4219"/><text fill="#000000" font-family="sans-serif" font-size="14" font-style="italic" lengthAdjust="spacing" textLength="62" x="1677" y="1665.9551">«domain»</text><text fill="#000000" font-family="sans-serif" font-size="14" lengthAdjust="spacing" textLength="162" x="1627" y="1683.5645">catalogo:CatalogoServico</text><rect fill="#FEFECE" filter="url(#f117z7n3gu61xv)" height="49.2188" style="stroke:#A80036;stroke-width:1.5;" width="92" x="1810" y="35.3906"/><text fill="#000000" font-family="sans-serif" font-size="14" font-style="italic" lengthAdjust="spacing" textLength="62" x="1825" y="56.9238">«domain»</text><text fill="#000000" font-family="sans-serif" font-size="14" lengthAdjust="spacing" textLength="78" x="1817" y="74.5332">serv:Servico</text><rect fill="#FEFECE" filter="url(#f117z7n3gu61xv)" height="49.2188" style="stroke:#A80036;stroke-width:1.5;" width="92" x="1810" y="1644.4219"/><text fill="#000000" font-family="sans-serif" font-size="14" font-style="italic" lengthAdjust="spacing" textLength="62" x="1825" y="1665.9551">«domain»</text><text fill="#000000" font-family="sans-serif" font-size="14" lengthAdjust="spacing" textLength="78" x="1817" y="1683.5645">serv:Servico</text><text fill="#000000" font-family="sans-serif" font-size="14" font-style="italic" lengthAdjust="spacing" textLength="79" x="1934" y="1658.9551">«repository»</text><text fill="#000000" font-family="sans-serif" font-size="14" lengthAdjust="spacing" textLength="115" x="1916" y="1676.5645">ServicoRepository</text><path d="M1958.5,1689.6406 C1958.5,1679.6406 1976.5,1679.6406 1976.5,1679.6406 C1976.5,1679.6406 1994.5,1679.6406 1994.5,1689.6406 L1994.5,1715.6406 C1994.5,1725.6406 1976.5,1725.6406 1976.5,1725.6406 C1976.5,1725.6406 1958.5,1725.6406 1958.5,1715.6406 L1958.5,1689.6406 " fill="#FEFECE" filter="url(#f117z7n3gu61xv)" style="stroke:#000000;stroke-width:1.5;"/><path d="M1958.5,1689.6406 C1958.5,1699.6406 1976.5,1699.6406 1976.5,1699.6406 C1976.5,1699.6406 1994.5,1699.6406 1994.5,1689.6406 " fill="none" style="stroke:#000000;stroke-width:1.5;"/><text fill="#000000" font-family="sans-serif" font-size="14" font-style="italic" lengthAdjust="spacing" textLength="79" x="2056" y="1658.9551">«repository»</text><text fill="#000000" font-family="sans-serif" font-size="14" lengthAdjust="spacing" textLength="97" x="2047" y="1676.5645">UserRepository</text><path d="M2080.5,1689.6406 C2080.5,1679.6406 2098.5,1679.6406 2098.5,1679.6406 C2098.5,1679.6406 2116.5,1679.6406 2116.5,1689.6406 L2116.5,1715.6406 C2116.5,1725.6406 2098.5,1725.6406 2098.5,1725.6406 C2098.5,1725.6406 2080.5,1725.6406 2080.5,1715.6406 L2080.5,1689.6406 " fill="#FEFECE" filter="url(#f117z7n3gu61xv)" style="stroke:#000000;stroke-width:1.5;"/><path d="M2080.5,1689.6406 C2080.5,1699.6406 2098.5,1699.6406 2098.5,1699.6406 C2098.5,1699.6406 2116.5,1699.6406 2116.5,1689.6406 " fill="none" style="stroke:#000000;stroke-width:1.5;"/><text fill="#000000" font-family="sans-serif" font-size="14" font-style="italic" lengthAdjust="spacing" textLength="79" x="2194" y="1658.9551">«repository»</text><text fill="#000000" font-family="sans-serif" font-size="14" lengthAdjust="spacing" textLength="147" x="2160" y="1676.5645">ColaboradorRepository</text><path d="M2218.5,1689.6406 C2218.5,1679.6406 2236.5,1679.6406 2236.5,1679.6406 C2236.5,1679.6406 2254.5,1679.6406 2254.5,1689.6406 L2254.5,1715.6406 C2254.5,1725.6406 2236.5,1725.6406 2236.5,1725.6406 C2236.5,1725.6406 2218.5,1725.6406 2218.5,1715.6406 L2218.5,1689.6406 " fill="#FEFECE" filter="url(#f117z7n3gu61xv)" style="stroke:#000000;stroke-width:1.5;"/><path d="M2218.5,1689.6406 C2218.5,1699.6406 2236.5,1699.6406 2236.5,1699.6406 C2236.5,1699.6406 2254.5,1699.6406 2254.5,1689.6406 " fill="none" style="stroke:#000000;stroke-width:1.5;"/><text fill="#000000" font-family="sans-serif" font-size="14" font-style="italic" lengthAdjust="spacing" textLength="79" x="2369.5" y="1658.9551">«repository»</text><text fill="#000000" font-family="sans-serif" font-size="14" lengthAdjust="spacing" textLength="172" x="2323" y="1676.5645">CatalogoServicoRepository</text><path d="M2394,1689.6406 C2394,1679.6406 2412,1679.6406 2412,1679.6406 C2412,1679.6406 2430,1679.6406 2430,1689.6406 L2430,1715.6406 C2430,1725.6406 2412,1725.6406 2412,1725.6406 C2412,1725.6406 2394,1725.6406 2394,1715.6406 L2394,1689.6406 " fill="#FEFECE" filter="url(#f117z7n3gu61xv)" style="stroke:#000000;stroke-width:1.5;"/><path d="M2394,1689.6406 C2394,1699.6406 2412,1699.6406 2412,1699.6406 C2412,1699.6406 2430,1699.6406 2430,1689.6406 " fill="none" style="stroke:#000000;stroke-width:1.5;"/><rect fill="#FFFFFF" filter="url(#f117z7n3gu61xv)" height="297.0313" style="stroke:#A80036;stroke-width:1.0;" width="10" x="403" y="1300.0391"/><rect fill="#FFFFFF" filter="url(#f117z7n3gu61xv)" height="327.3828" style="stroke:#A80036;stroke-width:1.0;" width="10" x="646.5" y="621.7578"/><rect fill="#FFFFFF" filter="url(#f117z7n3gu61xv)" height="54.2188" style="stroke:#A80036;stroke-width:1.0;" width="10" x="915.5" y="1114.4141"/><rect fill="#FFFFFF" filter="url(#f117z7n3gu61xv)" height="54.2188" style="stroke:#A80036;stroke-width:1.0;" width="10" x="1127.5" y="496.8359"/><rect fill="#FFFFFF" filter="url(#f117z7n3gu61xv)" height="54.2188" style="stroke:#A80036;stroke-width:1.0;" width="10" x="1502.5" y="1019.8438"/><rect fill="#FFFFFF" filter="url(#f117z7n3gu61xv)" height="1504.4609" style="stroke:#A80036;stroke-width:1.0;" width="10" x="1971.5" y="131.9609"/><rect fill="#FFFFFF" filter="url(#f117z7n3gu61xv)" height="358.2266" style="stroke:#A80036;stroke-width:1.0;" width="10" x="2093.5" y="223.1797"/><rect fill="#FFFFFF" filter="url(#f117z7n3gu61xv)" height="665.0938" style="stroke:#A80036;stroke-width:1.0;" width="10" x="2231.5" y="314.3984"/><rect fill="#FFFFFF" filter="url(#f117z7n3gu61xv)" height="854.0703" style="stroke:#A80036;stroke-width:1.0;" width="10" x="2407" y="405.6172"/><polygon fill="#A80036" points="1904,117.9609,1914,121.9609,1904,125.9609,1908,121.9609" style="stroke:#A80036;stroke-width:1.0;"/><line style="stroke:#A80036;stroke-width:1.0;" x1="101" x2="1910" y1="121.9609" y2="121.9609"/><text fill="#000000" font-family="sans-serif" font-size="13" font-weight="bold" lengthAdjust="spacing" textLength="7" x="108" y="117.1045">1</text><text fill="#000000" font-family="sans-serif" font-size="13" lengthAdjust="spacing" textLength="44" x="119" y="117.1045">create()</text><text fill="#000000" font-family="sans-serif" font-size="14" font-style="italic" lengthAdjust="spacing" textLength="79" x="1934" y="160.1426">«repository»</text><text fill="#000000" font-family="sans-serif" font-size="14" lengthAdjust="spacing" textLength="115" x="1916" y="177.752">ServicoRepository</text><path d="M1958.5,109.6094 C1958.5,99.6094 1976.5,99.6094 1976.5,99.6094 C1976.5,99.6094 1994.5,99.6094 1994.5,109.6094 L1994.5,135.6094 C1994.5,145.6094 1976.5,145.6094 1976.5,145.6094 C1976.5,145.6094 1958.5,145.6094 1958.5,135.6094 L1958.5,109.6094 " fill="#FEFECE" filter="url(#f117z7n3gu61xv)" style="stroke:#000000;stroke-width:1.5;"/><path d="M1958.5,109.6094 C1958.5,119.6094 1976.5,119.6094 1976.5,119.6094 C1976.5,119.6094 1994.5,119.6094 1994.5,109.6094 " fill="none" style="stroke:#000000;stroke-width:1.5;"/><polygon fill="#A80036" points="2035,209.1797,2045,213.1797,2035,217.1797,2039,213.1797" style="stroke:#A80036;stroke-width:1.0;"/><line style="stroke:#A80036;stroke-width:1.0;" x1="101" x2="2041" y1="213.1797" y2="213.1797"/><text fill="#000000" font-family="sans-serif" font-size="13" font-weight="bold" lengthAdjust="spacing" textLength="7" x="108" y="208.3232">2</text><text fill="#000000" font-family="sans-serif" font-size="13" lengthAdjust="spacing" textLength="44" x="119" y="208.3232">create()</text><text fill="#000000" font-family="sans-serif" font-size="14" font-style="italic" lengthAdjust="spacing" textLength="79" x="2056" y="251.3613">«repository»</text><text fill="#000000" font-family="sans-serif" font-size="14" lengthAdjust="spacing" textLength="97" x="2047" y="268.9707">UserRepository</text><path d="M2080.5,200.8281 C2080.5,190.8281 2098.5,190.8281 2098.5,190.8281 C2098.5,190.8281 2116.5,190.8281 2116.5,200.8281 L2116.5,226.8281 C2116.5,236.8281 2098.5,236.8281 2098.5,236.8281 C2098.5,236.8281 2080.5,236.8281 2080.5,226.8281 L2080.5,200.8281 " fill="#FEFECE" filter="url(#f117z7n3gu61xv)" style="stroke:#000000;stroke-width:1.5;"/><path d="M2080.5,200.8281 C2080.5,210.8281 2098.5,210.8281 2098.5,210.8281 C2098.5,210.8281 2116.5,210.8281 2116.5,200.8281 " fill="none" style="stroke:#000000;stroke-width:1.5;"/><polygon fill="#A80036" points="2148,300.3984,2158,304.3984,2148,308.3984,2152,304.3984" style="stroke:#A80036;stroke-width:1.0;"/><line style="stroke:#A80036;stroke-width:1.0;" x1="101" x2="2154" y1="304.3984" y2="304.3984"/><text fill="#000000" font-family="sans-serif" font-size="13" font-weight="bold" lengthAdjust="spacing" textLength="7" x="108" y="299.542">3</text><text fill="#000000" font-family="sans-serif" font-size="13" lengthAdjust="spacing" textLength="44" x="119" y="299.542">create()</text><text fill="#000000" font-family="sans-serif" font-size="14" font-style="italic" lengthAdjust="spacing" textLength="79" x="2194" y="342.5801">«repository»</text><text fill="#000000" font-family="sans-serif" font-size="14" lengthAdjust="spacing" textLength="147" x="2160" y="360.1895">ColaboradorRepository</text><path d="M2218.5,292.0469 C2218.5,282.0469 2236.5,282.0469 2236.5,282.0469 C2236.5,282.0469 2254.5,282.0469 2254.5,292.0469 L2254.5,318.0469 C2254.5,328.0469 2236.5,328.0469 2236.5,328.0469 C2236.5,328.0469 2218.5,328.0469 2218.5,318.0469 L2218.5,292.0469 " fill="#FEFECE" filter="url(#f117z7n3gu61xv)" style="stroke:#000000;stroke-width:1.5;"/><path d="M2218.5,292.0469 C2218.5,302.0469 2236.5,302.0469 2236.5,302.0469 C2236.5,302.0469 2254.5,302.0469 2254.5,292.0469 " fill="none" style="stroke:#000000;stroke-width:1.5;"/><polygon fill="#A80036" points="2311,391.6172,2321,395.6172,2311,399.6172,2315,395.6172" style="stroke:#A80036;stroke-width:1.0;"/><line style="stroke:#A80036;stroke-width:1.0;" x1="101" x2="2317" y1="395.6172" y2="395.6172"/><text fill="#000000" font-family="sans-serif" font-size="13" font-weight="bold" lengthAdjust="spacing" textLength="7" x="108" y="390.7607">4</text><text fill="#000000" font-family="sans-serif" font-size="13" lengthAdjust="spacing" textLength="44" x="119" y="390.7607">create()</text><text fill="#000000" font-family="sans-serif" font-size="14" font-style="italic" lengthAdjust="spacing" textLength="79" x="2369.5" y="433.7988">«repository»</text><text fill="#000000" font-family="sans-serif" font-size="14" lengthAdjust="spacing" textLength="172" x="2323" y="451.4082">CatalogoServicoRepository</text><path d="M2394,383.2656 C2394,373.2656 2412,373.2656 2412,373.2656 C2412,373.2656 2430,373.2656 2430,383.2656 L2430,409.2656 C2430,419.2656 2412,419.2656 2412,419.2656 C2412,419.2656 2394,419.2656 2394,409.2656 L2394,383.2656 " fill="#FEFECE" filter="url(#f117z7n3gu61xv)" style="stroke:#000000;stroke-width:1.5;"/><path d="M2394,383.2656 C2394,393.2656 2412,393.2656 2412,393.2656 C2412,393.2656 2430,393.2656 2430,383.2656 " fill="none" style="stroke:#000000;stroke-width:1.5;"/><polygon fill="#A80036" points="1045,482.8359,1055,486.8359,1045,490.8359,1049,486.8359" style="stroke:#A80036;stroke-width:1.0;"/><line style="stroke:#A80036;stroke-width:1.0;" x1="101" x2="1051" y1="486.8359" y2="486.8359"/><text fill="#000000" font-family="sans-serif" font-size="13" font-weight="bold" lengthAdjust="spacing" textLength="7" x="108" y="481.9795">5</text><text fill="#000000" font-family="sans-serif" font-size="13" lengthAdjust="spacing" textLength="478" x="119" y="481.9795">create("username", POWERUSER_A1, "First Name", "Last Name", "Email", roles)</text><rect fill="#FEFECE" filter="url(#f117z7n3gu61xv)" height="49.2188" style="stroke:#A80036;stroke-width:1.5;" width="147" x="1057" y="464.4844"/><text fill="#000000" font-family="sans-serif" font-size="14" font-style="italic" lengthAdjust="spacing" textLength="62" x="1099.5" y="486.0176">«domain»</text><text fill="#000000" font-family="sans-serif" font-size="14" lengthAdjust="spacing" textLength="133" x="1064" y="503.627">newUser:SystemUser</text><polygon fill="#A80036" points="112,547.0547,102,551.0547,112,555.0547,108,551.0547" style="stroke:#A80036;stroke-width:1.0;"/><line style="stroke:#A80036;stroke-width:1.0;stroke-dasharray:2.0,2.0;" x1="106" x2="1131.5" y1="551.0547" y2="551.0547"/><text fill="#000000" font-family="sans-serif" font-size="13" font-weight="bold" lengthAdjust="spacing" textLength="7" x="118" y="546.1982">6</text><text fill="#000000" font-family="sans-serif" font-size="13" lengthAdjust="spacing" textLength="50" x="129" y="546.1982">newUser</text><polygon fill="#A80036" points="2086.5,577.4063,2096.5,581.4063,2086.5,585.4063,2090.5,581.4063" style="stroke:#A80036;stroke-width:1.0;"/><line style="stroke:#A80036;stroke-width:1.0;" x1="101" x2="2092.5" y1="581.4063" y2="581.4063"/><text fill="#000000" font-family="sans-serif" font-size="13" font-weight="bold" lengthAdjust="spacing" textLength="7" x="108" y="576.5498">7</text><text fill="#000000" font-family="sans-serif" font-size="13" lengthAdjust="spacing" textLength="84" x="119" y="576.5498">save(newUser)</text><polygon fill="#A80036" points="507,607.7578,517,611.7578,507,615.7578,511,611.7578" style="stroke:#A80036;stroke-width:1.0;"/><line style="stroke:#A80036;stroke-width:1.0;" x1="101" x2="513" y1="611.7578" y2="611.7578"/><text fill="#000000" font-family="sans-serif" font-size="13" font-weight="bold" lengthAdjust="spacing" textLength="7" x="108" y="606.9014">8</text><text fill="#000000" font-family="sans-serif" font-size="13" lengthAdjust="spacing" textLength="44" x="119" y="606.9014">create()</text><rect fill="#FEFECE" filter="url(#f117z7n3gu61xv)" height="49.2188" style="stroke:#A80036;stroke-width:1.5;" width="261" x="519" y="589.4063"/><text fill="#000000" font-family="sans-serif" font-size="14" font-style="italic" lengthAdjust="spacing" textLength="59" x="620" y="610.9395">«builder»</text><text fill="#000000" font-family="sans-serif" font-size="14" lengthAdjust="spacing" textLength="247" x="526" y="628.5488">colaboradorBuilder:ColaboradorBuilder</text><polygon fill="#A80036" points="634.5,671.9766,644.5,675.9766,634.5,679.9766,638.5,675.9766" style="stroke:#A80036;stroke-width:1.0;"/><line style="stroke:#A80036;stroke-width:1.0;" x1="101" x2="640.5" y1="675.9766" y2="675.9766"/><text fill="#000000" font-family="sans-serif" font-size="13" font-weight="bold" lengthAdjust="spacing" textLength="7" x="108" y="671.1201">9</text><text fill="#000000" font-family="sans-serif" font-size="13" lengthAdjust="spacing" textLength="153" x="119" y="671.1201">withSystemUser(newUser)</text><polygon fill="#A80036" points="634.5,702.3281,644.5,706.3281,634.5,710.3281,638.5,706.3281" style="stroke:#A80036;stroke-width:1.0;"/><line style="stroke:#A80036;stroke-width:1.0;" x1="101" x2="640.5" y1="706.3281" y2="706.3281"/><text fill="#000000" font-family="sans-serif" font-size="13" font-weight="bold" lengthAdjust="spacing" textLength="14" x="108" y="701.4717">10</text><text fill="#000000" font-family="sans-serif" font-size="13" lengthAdjust="spacing" textLength="223" x="126" y="701.4717">withMecanographicNumber("1234759")</text><polygon fill="#A80036" points="634.5,732.6797,644.5,736.6797,634.5,740.6797,638.5,736.6797" style="stroke:#A80036;stroke-width:1.0;"/><line style="stroke:#A80036;stroke-width:1.0;" x1="101" x2="640.5" y1="736.6797" y2="736.6797"/><text fill="#000000" font-family="sans-serif" font-size="13" font-weight="bold" lengthAdjust="spacing" textLength="14" x="108" y="731.8232">11</text><text fill="#000000" font-family="sans-serif" font-size="13" lengthAdjust="spacing" textLength="175" x="126" y="731.8232">withNomeCurto("Nome Curto")</text><polygon fill="#A80036" points="634.5,763.0313,644.5,767.0313,634.5,771.0313,638.5,767.0313" style="stroke:#A80036;stroke-width:1.0;"/><line style="stroke:#A80036;stroke-width:1.0;" x1="101" x2="640.5" y1="767.0313" y2="767.0313"/><text fill="#000000" font-family="sans-serif" font-size="13" font-weight="bold" lengthAdjust="spacing" textLength="14" x="108" y="762.1748">12</text><text fill="#000000" font-family="sans-serif" font-size="13" lengthAdjust="spacing" textLength="223" x="126" y="762.1748">withNomeCompleto("Nome Completo")</text><polygon fill="#A80036" points="634.5,793.3828,644.5,797.3828,634.5,801.3828,638.5,797.3828" style="stroke:#A80036;stroke-width:1.0;"/><line style="stroke:#A80036;stroke-width:1.0;" x1="101" x2="640.5" y1="797.3828" y2="797.3828"/><text fill="#000000" font-family="sans-serif" font-size="13" font-weight="bold" lengthAdjust="spacing" textLength="14" x="108" y="792.5264">13</text><text fill="#000000" font-family="sans-serif" font-size="13" lengthAdjust="spacing" textLength="215" x="126" y="792.5264">withContactoColaborador(122456789)</text><polygon fill="#A80036" points="634.5,823.7344,644.5,827.7344,634.5,831.7344,638.5,827.7344" style="stroke:#A80036;stroke-width:1.0;"/><line style="stroke:#A80036;stroke-width:1.0;" x1="101" x2="640.5" y1="827.7344" y2="827.7344"/><text fill="#000000" font-family="sans-serif" font-size="13" font-weight="bold" lengthAdjust="spacing" textLength="14" x="108" y="822.8779">14</text><text fill="#000000" font-family="sans-serif" font-size="13" lengthAdjust="spacing" textLength="206" x="126" y="822.8779">withDataNascimento(ano, mes, dia)</text><polygon fill="#A80036" points="634.5,854.0859,644.5,858.0859,634.5,862.0859,638.5,858.0859" style="stroke:#A80036;stroke-width:1.0;"/><line style="stroke:#A80036;stroke-width:1.0;" x1="101" x2="640.5" y1="858.0859" y2="858.0859"/><text fill="#000000" font-family="sans-serif" font-size="13" font-weight="bold" lengthAdjust="spacing" textLength="14" x="108" y="853.2295">15</text><text fill="#000000" font-family="sans-serif" font-size="13" lengthAdjust="spacing" textLength="176" x="126" y="853.2295">withEmailColaborador("Email")</text><polygon fill="#A80036" points="634.5,884.4375,644.5,888.4375,634.5,892.4375,638.5,888.4375" style="stroke:#A80036;stroke-width:1.0;"/><line style="stroke:#A80036;stroke-width:1.0;" x1="101" x2="640.5" y1="888.4375" y2="888.4375"/><text fill="#000000" font-family="sans-serif" font-size="13" font-weight="bold" lengthAdjust="spacing" textLength="14" x="108" y="883.5811">16</text><text fill="#000000" font-family="sans-serif" font-size="13" lengthAdjust="spacing" textLength="318" x="126" y="883.5811">withLocalResidenciaColaborador("Distrito", "Concelho")</text><polygon fill="#A80036" points="634.5,914.7891,644.5,918.7891,634.5,922.7891,638.5,918.7891" style="stroke:#A80036;stroke-width:1.0;"/><line style="stroke:#A80036;stroke-width:1.0;" x1="101" x2="640.5" y1="918.7891" y2="918.7891"/><text fill="#000000" font-family="sans-serif" font-size="13" font-weight="bold" lengthAdjust="spacing" textLength="14" x="108" y="913.9326">17</text><text fill="#000000" font-family="sans-serif" font-size="13" lengthAdjust="spacing" textLength="35" x="126" y="913.9326">build()</text><polygon fill="#A80036" points="112,945.1406,102,949.1406,112,953.1406,108,949.1406" style="stroke:#A80036;stroke-width:1.0;"/><line style="stroke:#A80036;stroke-width:1.0;stroke-dasharray:2.0,2.0;" x1="106" x2="650.5" y1="949.1406" y2="949.1406"/><text fill="#000000" font-family="sans-serif" font-size="13" font-weight="bold" lengthAdjust="spacing" textLength="14" x="118" y="944.2842">18</text><text fill="#000000" font-family="sans-serif" font-size="13" lengthAdjust="spacing" textLength="67" x="136" y="944.2842">colaborador</text><polygon fill="#A80036" points="2224.5,975.4922,2234.5,979.4922,2224.5,983.4922,2228.5,979.4922" style="stroke:#A80036;stroke-width:1.0;"/><line style="stroke:#A80036;stroke-width:1.0;" x1="101" x2="2230.5" y1="979.4922" y2="979.4922"/><text fill="#000000" font-family="sans-serif" font-size="13" font-weight="bold" lengthAdjust="spacing" textLength="14" x="108" y="974.6357">19</text><text fill="#000000" font-family="sans-serif" font-size="13" lengthAdjust="spacing" textLength="101" x="126" y="974.6357">save(colaborador)</text><polygon fill="#A80036" points="1393,1005.8438,1403,1009.8438,1393,1013.8438,1397,1009.8438" style="stroke:#A80036;stroke-width:1.0;"/><line style="stroke:#A80036;stroke-width:1.0;" x1="101" x2="1399" y1="1009.8438" y2="1009.8438"/><text fill="#000000" font-family="sans-serif" font-size="13" font-weight="bold" lengthAdjust="spacing" textLength="14" x="108" y="1004.9873">20</text><text fill="#000000" font-family="sans-serif" font-size="13" lengthAdjust="spacing" textLength="486" x="126" y="1004.9873">create("ID", "DescBreve", "DescComp", "Titulo", criterioAcessoCatalogo, "1234759")</text><rect fill="#FEFECE" filter="url(#f117z7n3gu61xv)" height="49.2188" style="stroke:#A80036;stroke-width:1.5;" width="201" x="1405" y="987.4922"/><text fill="#000000" font-family="sans-serif" font-size="14" font-style="italic" lengthAdjust="spacing" textLength="36" x="1487.5" y="1009.0254">«dto»</text><text fill="#000000" font-family="sans-serif" font-size="14" lengthAdjust="spacing" textLength="187" x="1412" y="1026.6348">catDTO:CatalogoServicoDTO</text><polygon fill="#A80036" points="112,1070.0625,102,1074.0625,112,1078.0625,108,1074.0625" style="stroke:#A80036;stroke-width:1.0;"/><line style="stroke:#A80036;stroke-width:1.0;stroke-dasharray:2.0,2.0;" x1="106" x2="1506.5" y1="1074.0625" y2="1074.0625"/><text fill="#000000" font-family="sans-serif" font-size="13" font-weight="bold" lengthAdjust="spacing" textLength="14" x="118" y="1069.2061">21</text><text fill="#000000" font-family="sans-serif" font-size="13" lengthAdjust="spacing" textLength="44" x="136" y="1069.2061">catDTO</text><polygon fill="#A80036" points="782,1100.4141,792,1104.4141,782,1108.4141,786,1104.4141" style="stroke:#A80036;stroke-width:1.0;"/><line style="stroke:#A80036;stroke-width:1.0;" x1="101" x2="788" y1="1104.4141" y2="1104.4141"/><text fill="#000000" font-family="sans-serif" font-size="13" font-weight="bold" lengthAdjust="spacing" textLength="14" x="108" y="1099.5576">22</text><text fill="#000000" font-family="sans-serif" font-size="13" lengthAdjust="spacing" textLength="44" x="126" y="1099.5576">create()</text><rect fill="#FEFECE" filter="url(#f117z7n3gu61xv)" height="49.2188" style="stroke:#A80036;stroke-width:1.5;" width="249" x="794" y="1082.0625"/><text fill="#000000" font-family="sans-serif" font-size="14" font-style="italic" lengthAdjust="spacing" textLength="75" x="881" y="1103.5957">«controller»</text><text fill="#000000" font-family="sans-serif" font-size="14" lengthAdjust="spacing" textLength="235" x="801" y="1121.2051">catController:CriarCatalogoController</text><polygon fill="#A80036" points="908.5,1164.6328,918.5,1168.6328,908.5,1172.6328,912.5,1168.6328" style="stroke:#A80036;stroke-width:1.0;"/><line style="stroke:#A80036;stroke-width:1.0;" x1="101" x2="914.5" y1="1168.6328" y2="1168.6328"/><text fill="#000000" font-family="sans-serif" font-size="13" font-weight="bold" lengthAdjust="spacing" textLength="14" x="108" y="1163.7764">23</text><text fill="#000000" font-family="sans-serif" font-size="13" lengthAdjust="spacing" textLength="197" x="126" y="1163.7764">adicionarCatalogoServico(catDTO)</text><polygon fill="#A80036" points="2395,1194.9844,2405,1198.9844,2395,1202.9844,2399,1198.9844" style="stroke:#A80036;stroke-width:1.0;"/><line style="stroke:#A80036;stroke-width:1.0;" x1="101" x2="2401" y1="1198.9844" y2="1198.9844"/><text fill="#000000" font-family="sans-serif" font-size="13" font-weight="bold" lengthAdjust="spacing" textLength="14" x="108" y="1194.1279">24</text><text fill="#000000" font-family="sans-serif" font-size="13" lengthAdjust="spacing" textLength="129" x="126" y="1194.1279">ofIdentity(Identificador)</text><polygon fill="#A80036" points="112,1225.3359,102,1229.3359,112,1233.3359,108,1229.3359" style="stroke:#A80036;stroke-width:1.0;"/><line style="stroke:#A80036;stroke-width:1.0;stroke-dasharray:2.0,2.0;" x1="106" x2="2406" y1="1229.3359" y2="1229.3359"/><text fill="#000000" font-family="sans-serif" font-size="13" font-weight="bold" lengthAdjust="spacing" textLength="14" x="118" y="1224.4795">25</text><text fill="#000000" font-family="sans-serif" font-size="13" lengthAdjust="spacing" textLength="49" x="136" y="1224.4795">catalogo</text><polygon fill="#A80036" points="2400,1255.6875,2410,1259.6875,2400,1263.6875,2404,1259.6875" style="stroke:#A80036;stroke-width:1.0;"/><line style="stroke:#A80036;stroke-width:1.0;" x1="101" x2="2406" y1="1259.6875" y2="1259.6875"/><text fill="#000000" font-family="sans-serif" font-size="13" font-weight="bold" lengthAdjust="spacing" textLength="14" x="108" y="1254.8311">26</text><text fill="#000000" font-family="sans-serif" font-size="13" lengthAdjust="spacing" textLength="83" x="126" y="1254.8311">save(catalogo)</text><polygon fill="#A80036" points="295,1286.0391,305,1290.0391,295,1294.0391,299,1290.0391" style="stroke:#A80036;stroke-width:1.0;"/><line style="stroke:#A80036;stroke-width:1.0;" x1="101" x2="301" y1="1290.0391" y2="1290.0391"/><text fill="#000000" font-family="sans-serif" font-size="13" font-weight="bold" lengthAdjust="spacing" textLength="14" x="108" y="1285.1826">27</text><text fill="#000000" font-family="sans-serif" font-size="13" lengthAdjust="spacing" textLength="44" x="126" y="1285.1826">create()</text><rect fill="#FEFECE" filter="url(#f117z7n3gu61xv)" height="49.2188" style="stroke:#A80036;stroke-width:1.5;" width="198" x="307" y="1267.6875"/><text fill="#000000" font-family="sans-serif" font-size="14" font-style="italic" lengthAdjust="spacing" textLength="59" x="376.5" y="1289.2207">«builder»</text><text fill="#000000" font-family="sans-serif" font-size="14" lengthAdjust="spacing" textLength="184" x="314" y="1306.8301">servicoBuilder:ServicoBuilder</text><polygon fill="#A80036" points="391,1350.2578,401,1354.2578,391,1358.2578,395,1354.2578" style="stroke:#A80036;stroke-width:1.0;"/><line style="stroke:#A80036;stroke-width:1.0;" x1="101" x2="397" y1="1354.2578" y2="1354.2578"/><text fill="#000000" font-family="sans-serif" font-size="13" font-weight="bold" lengthAdjust="spacing" textLength="14" x="108" y="1349.4014">28</text><text fill="#000000" font-family="sans-serif" font-size="13" lengthAdjust="spacing" textLength="186" x="126" y="1349.4014">withCodigoUnicoServico("Code")</text><polygon fill="#A80036" points="391,1380.6094,401,1384.6094,391,1388.6094,395,1384.6094" style="stroke:#A80036;stroke-width:1.0;"/><line style="stroke:#A80036;stroke-width:1.0;" x1="101" x2="397" y1="1384.6094" y2="1384.6094"/><text fill="#000000" font-family="sans-serif" font-size="13" font-weight="bold" lengthAdjust="spacing" textLength="14" x="108" y="1379.7529">29</text><text fill="#000000" font-family="sans-serif" font-size="13" lengthAdjust="spacing" textLength="145" x="126" y="1379.7529">withTituloServico("Titulo")</text><polygon fill="#A80036" points="391,1410.9609,401,1414.9609,391,1418.9609,395,1414.9609" style="stroke:#A80036;stroke-width:1.0;"/><line style="stroke:#A80036;stroke-width:1.0;" x1="101" x2="397" y1="1414.9609" y2="1414.9609"/><text fill="#000000" font-family="sans-serif" font-size="13" font-weight="bold" lengthAdjust="spacing" textLength="14" x="108" y="1410.1045">30</text><text fill="#000000" font-family="sans-serif" font-size="13" lengthAdjust="spacing" textLength="151" x="126" y="1410.1045">withKeyWords(keyWords)</text><polygon fill="#A80036" points="391,1441.3125,401,1445.3125,391,1449.3125,395,1445.3125" style="stroke:#A80036;stroke-width:1.0;"/><line style="stroke:#A80036;stroke-width:1.0;" x1="101" x2="397" y1="1445.3125" y2="1445.3125"/><text fill="#000000" font-family="sans-serif" font-size="13" font-weight="bold" lengthAdjust="spacing" textLength="14" x="108" y="1440.4561">31</text><text fill="#000000" font-family="sans-serif" font-size="13" lengthAdjust="spacing" textLength="235" x="126" y="1440.4561">withDescricaoBreveServico("DescBreve")</text><polygon fill="#A80036" points="391,1471.6641,401,1475.6641,391,1479.6641,395,1475.6641" style="stroke:#A80036;stroke-width:1.0;"/><line style="stroke:#A80036;stroke-width:1.0;" x1="101" x2="397" y1="1475.6641" y2="1475.6641"/><text fill="#000000" font-family="sans-serif" font-size="13" font-weight="bold" lengthAdjust="spacing" textLength="14" x="108" y="1470.8076">32</text><text fill="#000000" font-family="sans-serif" font-size="13" lengthAdjust="spacing" textLength="260" x="126" y="1470.8076">withDescricaoCompletaServico("DescComp")</text><polygon fill="#A80036" points="391,1502.0156,401,1506.0156,391,1510.0156,395,1506.0156" style="stroke:#A80036;stroke-width:1.0;"/><line style="stroke:#A80036;stroke-width:1.0;" x1="101" x2="397" y1="1506.0156" y2="1506.0156"/><text fill="#000000" font-family="sans-serif" font-size="13" font-weight="bold" lengthAdjust="spacing" textLength="14" x="108" y="1501.1592">33</text><text fill="#000000" font-family="sans-serif" font-size="13" lengthAdjust="spacing" textLength="175" x="126" y="1501.1592">withObjetivoServico("Objetivo")</text><polygon fill="#A80036" points="391,1532.3672,401,1536.3672,391,1540.3672,395,1536.3672" style="stroke:#A80036;stroke-width:1.0;"/><line style="stroke:#A80036;stroke-width:1.0;" x1="101" x2="397" y1="1536.3672" y2="1536.3672"/><text fill="#000000" font-family="sans-serif" font-size="13" font-weight="bold" lengthAdjust="spacing" textLength="14" x="108" y="1531.5107">34</text><text fill="#000000" font-family="sans-serif" font-size="13" lengthAdjust="spacing" textLength="173" x="126" y="1531.5107">withCatalogoServico(catalogo)</text><polygon fill="#A80036" points="391,1562.7188,401,1566.7188,391,1570.7188,395,1566.7188" style="stroke:#A80036;stroke-width:1.0;"/><line style="stroke:#A80036;stroke-width:1.0;" x1="101" x2="397" y1="1566.7188" y2="1566.7188"/><text fill="#000000" font-family="sans-serif" font-size="13" font-weight="bold" lengthAdjust="spacing" textLength="14" x="108" y="1561.8623">35</text><text fill="#000000" font-family="sans-serif" font-size="13" lengthAdjust="spacing" textLength="35" x="126" y="1561.8623">build()</text><polygon fill="#A80036" points="112,1593.0703,102,1597.0703,112,1601.0703,108,1597.0703" style="stroke:#A80036;stroke-width:1.0;"/><line style="stroke:#A80036;stroke-width:1.0;stroke-dasharray:2.0,2.0;" x1="106" x2="407" y1="1597.0703" y2="1597.0703"/><text fill="#000000" font-family="sans-serif" font-size="13" font-weight="bold" lengthAdjust="spacing" textLength="14" x="118" y="1592.2139">36</text><text fill="#000000" font-family="sans-serif" font-size="13" lengthAdjust="spacing" textLength="68" x="136" y="1592.2139">novoServico</text><polygon fill="#A80036" points="1959.5,1623.4219,1969.5,1627.4219,1959.5,1631.4219,1963.5,1627.4219" style="stroke:#A80036;stroke-width:1.0;"/><line style="stroke:#A80036;stroke-width:1.0;" x1="101" x2="1965.5" y1="1627.4219" y2="1627.4219"/><text fill="#000000" font-family="sans-serif" font-size="13" font-weight="bold" lengthAdjust="spacing" textLength="14" x="108" y="1622.5654">37</text><text fill="#000000" font-family="sans-serif" font-size="13" lengthAdjust="spacing" textLength="102" x="126" y="1622.5654">save(novoServico)</text><!--MD5=[fff1f84925422eeb25cad0e8c1daaa96]
@startuml
autonumber

actor "CatalogoServicoBootstrapper" as BOOT
participant "servicoBuilder:ServicoBuilder" as SBUILD <<builder>>
participant "colaboradorBuilder:ColaboradorBuilder" as CBUILD <<builder>>
participant "catController:CriarCatalogoController" as CCONTR <<controller>>
participant "newUser:SystemUser" as SYSUSER <<domain>>
participant "colaborador:Colaborador" as COL <<domain>>
participant "catDTO:CatalogoServicoDTO" as CDTO <<dto>>
participant "catalogo:CatalogoServico" as CAT <<domain>>
participant "serv:Servico" as SER <<domain>>

database ServicoRepository as SREPO <<repository>>
database UserRepository as UREPO <<repository>>
database ColaboradorRepository as CREPO <<repository>>
database CatalogoServicoRepository as CSREPO <<repository>>

    BOOT -> SREPO** : create()
activate SREPO
    BOOT -> UREPO** : create()
activate UREPO
    BOOT -> CREPO** : create()
activate CREPO
    BOOT -> CSREPO** : create()
activate CSREPO

    BOOT -> SYSUSER** : create("username", POWERUSER_A1, "First Name", "Last Name", "Email", roles)
activate SYSUSER
    SYSUSER - -> BOOT : newUser
deactivate SYSUSER

    BOOT -> UREPO : save(newUser)
deactivate UREPO

    BOOT -> CBUILD** : create()
activate CBUILD

    BOOT -> CBUILD : withSystemUser(newUser)
    BOOT -> CBUILD : withMecanographicNumber("1234759")
    BOOT -> CBUILD : withNomeCurto("Nome Curto")
    BOOT -> CBUILD : withNomeCompleto("Nome Completo")
    BOOT -> CBUILD : withContactoColaborador(122456789)
    BOOT -> CBUILD : withDataNascimento(ano, mes, dia)
    BOOT -> CBUILD : withEmailColaborador("Email")
    BOOT -> CBUILD : withLocalResidenciaColaborador("Distrito", "Concelho")
    BOOT -> CBUILD : build()

    CBUILD - -> BOOT : colaborador
deactivate CBUILD

    BOOT -> CREPO : save(colaborador)
deactivate CREPO

    BOOT -> CDTO** : create("ID", "DescBreve", "DescComp", "Titulo", criterioAcessoCatalogo, "1234759")
activate CDTO
    CDTO - -> BOOT : catDTO
deactivate CDTO

    BOOT -> CCONTR** : create()
activate CCONTR
    BOOT -> CCONTR : adicionarCatalogoServico(catDTO)
deactivate CCONTR

    BOOT -> CSREPO : ofIdentity(Identificador)
    CSREPO - -> BOOT : catalogo

    BOOT -> CSREPO : save(catalogo)
deactivate CSREPO

    BOOT -> SBUILD** : create()
activate SBUILD

    BOOT -> SBUILD : withCodigoUnicoServico("Code")
    BOOT -> SBUILD : withTituloServico("Titulo")
    BOOT -> SBUILD : withKeyWords(keyWords)
    BOOT -> SBUILD : withDescricaoBreveServico("DescBreve")
    BOOT -> SBUILD : withDescricaoCompletaServico("DescComp")
    BOOT -> SBUILD : withObjetivoServico("Objetivo")
    BOOT -> SBUILD : withCatalogoServico(catalogo)
    BOOT -> SBUILD : build()

    SBUILD - -> BOOT : novoServico
deactivate SBUILD

    BOOT -> SREPO : save(novoServico)

@enduml

PlantUML version 1.2021.5(Sun Apr 25 12:20:28 BST 2021)
(GPL source distribution)
Java Runtime: OpenJDK Runtime Environment
JVM: Dynamic Code Evolution 64-Bit Server VM
Default Encoding: Cp1252
Language: pt
Country: PT
--></g></svg>