<?xml version="1.0" encoding="UTF-8" standalone="no"?><svg xmlns="http://www.w3.org/2000/svg" xmlns:xlink="http://www.w3.org/1999/xlink" contentScriptType="application/ecmascript" contentStyleType="text/css" height="673px" preserveAspectRatio="none" style="width:623px;height:673px;" version="1.1" viewBox="0 0 623 673" width="623px" zoomAndPan="magnify"><defs><filter height="300%" id="f1jkomerm6ctza" width="300%" x="-1" y="-1"><feGaussianBlur result="blurOut" stdDeviation="2.0"/><feColorMatrix in="blurOut" result="blurOut2" type="matrix" values="0 0 0 0 0 0 0 0 0 0 0 0 0 0 0 0 0 0 .4 0"/><feOffset dx="4.0" dy="4.0" in="blurOut2" result="blurOut3"/><feBlend in="SourceGraphic" in2="blurOut3" mode="normal"/></filter></defs><g><!--MD5=[b2fc5e602213dd4a6c2260d65fee8179]
class CriarEquipaUI--><rect codeLine="4" fill="#FEFECE" filter="url(#f1jkomerm6ctza)" height="56.1875" id="CriarEquipaUI" style="stroke:#A80036;stroke-width:1.5;" width="110" x="427" y="7"/><ellipse cx="442" cy="27.0938" fill="#ADD1B2" rx="11" ry="11" style="stroke:#A80036;stroke-width:1.0;"/><path d="M444,23.5938 Q444.2031,23.0938 444.4375,22.8438 Q444.6719,22.5938 444.9375,22.5938 Q445.4063,22.5938 445.7031,22.875 Q446,23.1563 446,23.8125 L446,25.375 Q446,26.0313 445.7188,26.3125 Q445.4375,26.5938 445,26.5938 Q444.6094,26.5938 444.3594,26.4219 Q444.1094,26.25 444,25.7969 Q443.9531,25.4844 443.7813,25.3125 Q443.4688,24.9844 442.9063,24.7969 Q442.3438,24.5938 441.7813,24.5938 Q441.0781,24.5938 440.4844,24.875 Q439.9063,25.1563 439.4531,25.7813 Q439,26.4063 439,27.2656 L439,28.1875 Q439,29.2188 439.8438,29.9063 Q440.6875,30.5938 442.1875,30.5938 Q443.0781,30.5938 443.7031,30.3906 Q444.0625,30.2813 444.4688,29.9219 Q444.7344,29.7188 444.875,29.6563 Q445.0156,29.5938 445.1875,29.5938 Q445.5156,29.5938 445.75,29.8594 Q446,30.1094 446,30.4688 Q446,30.8125 445.6563,31.2188 Q445.1563,31.8125 444.3594,32.1406 Q443.3125,32.5938 442.0313,32.5938 Q440.5313,32.5938 439.3281,32 Q438.3594,31.5313 437.6719,30.5156 Q437,29.5 437,28.2969 L437,27.2031 Q437,25.9531 437.5938,24.8594 Q438.2031,23.7656 439.25,23.1875 Q440.3125,22.5938 441.5,22.5938 Q442.2188,22.5938 442.8438,22.8438 Q443.4688,23.0938 444,23.5938 Z " fill="#000000"/><text fill="#000000" font-family="sans-serif" font-size="12" font-style="italic" lengthAdjust="spacing" textLength="82" x="454" y="24.457">«presentation»</text><text fill="#000000" font-family="sans-serif" font-size="12" lengthAdjust="spacing" textLength="78" x="456" y="39.5508">CriarEquipaUI</text><line style="stroke:#A80036;stroke-width:1.5;" x1="428" x2="536" y1="47.1875" y2="47.1875"/><line style="stroke:#A80036;stroke-width:1.5;" x1="428" x2="536" y1="55.1875" y2="55.1875"/><!--MD5=[ce96b3a97af628d6ebe090b2bbef2caa]
class CriarEquipaController--><rect codeLine="8" fill="#FEFECE" filter="url(#f1jkomerm6ctza)" height="153.0391" id="CriarEquipaController" style="stroke:#A80036;stroke-width:1.5;" width="190" x="304" y="141"/><ellipse cx="336.1" cy="161.0938" fill="#ADD1B2" rx="11" ry="11" style="stroke:#A80036;stroke-width:1.0;"/><path d="M338.1,157.5938 Q338.3031,157.0938 338.5375,156.8438 Q338.7719,156.5938 339.0375,156.5938 Q339.5063,156.5938 339.8031,156.875 Q340.1,157.1563 340.1,157.8125 L340.1,159.375 Q340.1,160.0313 339.8188,160.3125 Q339.5375,160.5938 339.1,160.5938 Q338.7094,160.5938 338.4594,160.4219 Q338.2094,160.25 338.1,159.7969 Q338.0531,159.4844 337.8813,159.3125 Q337.5688,158.9844 337.0063,158.7969 Q336.4438,158.5938 335.8813,158.5938 Q335.1781,158.5938 334.5844,158.875 Q334.0063,159.1563 333.5531,159.7813 Q333.1,160.4063 333.1,161.2656 L333.1,162.1875 Q333.1,163.2188 333.9438,163.9063 Q334.7875,164.5938 336.2875,164.5938 Q337.1781,164.5938 337.8031,164.3906 Q338.1625,164.2813 338.5688,163.9219 Q338.8344,163.7188 338.975,163.6563 Q339.1156,163.5938 339.2875,163.5938 Q339.6156,163.5938 339.85,163.8594 Q340.1,164.1094 340.1,164.4688 Q340.1,164.8125 339.7563,165.2188 Q339.2563,165.8125 338.4594,166.1406 Q337.4125,166.5938 336.1313,166.5938 Q334.6313,166.5938 333.4281,166 Q332.4594,165.5313 331.7719,164.5156 Q331.1,163.5 331.1,162.2969 L331.1,161.2031 Q331.1,159.9531 331.6938,158.8594 Q332.3031,157.7656 333.35,157.1875 Q334.4125,156.5938 335.6,156.5938 Q336.3188,156.5938 336.9438,156.8438 Q337.5688,157.0938 338.1,157.5938 Z " fill="#000000"/><text fill="#000000" font-family="sans-serif" font-size="12" font-style="italic" lengthAdjust="spacing" textLength="74" x="376.9" y="158.457">«application»</text><text fill="#000000" font-family="sans-serif" font-size="12" lengthAdjust="spacing" textLength="120" x="353.9" y="173.5508">CriarEquipaController</text><line style="stroke:#A80036;stroke-width:1.5;" x1="305" x2="493" y1="181.1875" y2="181.1875"/><line style="stroke:#A80036;stroke-width:1.5;" x1="305" x2="493" y1="189.1875" y2="189.1875"/><text fill="#000000" font-family="sans-serif" font-size="11" lengthAdjust="spacing" textLength="81" x="310" y="204.6064">getTiposEquipa()</text><text fill="#000000" font-family="sans-serif" font-size="11" lengthAdjust="spacing" textLength="175" x="310" y="218.4424">criarEquipa(tipoEquipa, codigoUnico,</text><text fill="#000000" font-family="sans-serif" font-size="11" lengthAdjust="spacing" textLength="110" x="310" y="232.2783">acronimo, designacao)</text><text fill="#000000" font-family="sans-serif" font-size="11" lengthAdjust="spacing" textLength="94" x="310" y="246.1143">getColaboradores()</text><text fill="#000000" font-family="sans-serif" font-size="11" lengthAdjust="spacing" textLength="94" x="310" y="259.9502">qtdColaboradores()</text><text fill="#000000" font-family="sans-serif" font-size="11" lengthAdjust="spacing" textLength="97" x="310" y="273.7861">addColaboradores()</text><text fill="#000000" font-family="sans-serif" font-size="11" lengthAdjust="spacing" textLength="107" x="310" y="287.6221">showColaboradores()</text><!--MD5=[48590afff58a68e2fcba47824d6f8a11]
class RepositoryFactory--><rect codeLine="17" fill="#FEFECE" filter="url(#f1jkomerm6ctza)" height="56.1875" id="RepositoryFactory" style="stroke:#A80036;stroke-width:1.5;" width="130" x="354" y="413.5"/><ellipse cx="369" cy="433.5938" fill="#ADD1B2" rx="11" ry="11" style="stroke:#A80036;stroke-width:1.0;"/><path d="M371,430.0938 Q371.2031,429.5938 371.4375,429.3438 Q371.6719,429.0938 371.9375,429.0938 Q372.4063,429.0938 372.7031,429.375 Q373,429.6563 373,430.3125 L373,431.875 Q373,432.5313 372.7188,432.8125 Q372.4375,433.0938 372,433.0938 Q371.6094,433.0938 371.3594,432.9219 Q371.1094,432.75 371,432.2969 Q370.9531,431.9844 370.7813,431.8125 Q370.4688,431.4844 369.9063,431.2969 Q369.3438,431.0938 368.7813,431.0938 Q368.0781,431.0938 367.4844,431.375 Q366.9063,431.6563 366.4531,432.2813 Q366,432.9063 366,433.7656 L366,434.6875 Q366,435.7188 366.8438,436.4063 Q367.6875,437.0938 369.1875,437.0938 Q370.0781,437.0938 370.7031,436.8906 Q371.0625,436.7813 371.4688,436.4219 Q371.7344,436.2188 371.875,436.1563 Q372.0156,436.0938 372.1875,436.0938 Q372.5156,436.0938 372.75,436.3594 Q373,436.6094 373,436.9688 Q373,437.3125 372.6563,437.7188 Q372.1563,438.3125 371.3594,438.6406 Q370.3125,439.0938 369.0313,439.0938 Q367.5313,439.0938 366.3281,438.5 Q365.3594,438.0313 364.6719,437.0156 Q364,436 364,434.7969 L364,433.7031 Q364,432.4531 364.5938,431.3594 Q365.2031,430.2656 366.25,429.6875 Q367.3125,429.0938 368.5,429.0938 Q369.2188,429.0938 369.8438,429.3438 Q370.4688,429.5938 371,430.0938 Z " fill="#000000"/><text fill="#000000" font-family="sans-serif" font-size="12" font-style="italic" lengthAdjust="spacing" textLength="50" x="407" y="430.957">«factory»</text><text fill="#000000" font-family="sans-serif" font-size="12" lengthAdjust="spacing" textLength="98" x="383" y="446.0508">RepositoryFactory</text><line style="stroke:#A80036;stroke-width:1.5;" x1="355" x2="483" y1="453.6875" y2="453.6875"/><line style="stroke:#A80036;stroke-width:1.5;" x1="355" x2="483" y1="461.6875" y2="461.6875"/><!--MD5=[e8c189551b7885b999ad7cefb30fc2a3]
class PersistenceContext--><rect codeLine="21" fill="#FEFECE" filter="url(#f1jkomerm6ctza)" height="70.0234" id="PersistenceContext" style="stroke:#A80036;stroke-width:1.5;" width="139" x="179.5" y="406.5"/><ellipse cx="194.5" cy="426.5938" fill="#ADD1B2" rx="11" ry="11" style="stroke:#A80036;stroke-width:1.0;"/><path d="M196.5,423.0938 Q196.7031,422.5938 196.9375,422.3438 Q197.1719,422.0938 197.4375,422.0938 Q197.9063,422.0938 198.2031,422.375 Q198.5,422.6563 198.5,423.3125 L198.5,424.875 Q198.5,425.5313 198.2188,425.8125 Q197.9375,426.0938 197.5,426.0938 Q197.1094,426.0938 196.8594,425.9219 Q196.6094,425.75 196.5,425.2969 Q196.4531,424.9844 196.2813,424.8125 Q195.9688,424.4844 195.4063,424.2969 Q194.8438,424.0938 194.2813,424.0938 Q193.5781,424.0938 192.9844,424.375 Q192.4063,424.6563 191.9531,425.2813 Q191.5,425.9063 191.5,426.7656 L191.5,427.6875 Q191.5,428.7188 192.3438,429.4063 Q193.1875,430.0938 194.6875,430.0938 Q195.5781,430.0938 196.2031,429.8906 Q196.5625,429.7813 196.9688,429.4219 Q197.2344,429.2188 197.375,429.1563 Q197.5156,429.0938 197.6875,429.0938 Q198.0156,429.0938 198.25,429.3594 Q198.5,429.6094 198.5,429.9688 Q198.5,430.3125 198.1563,430.7188 Q197.6563,431.3125 196.8594,431.6406 Q195.8125,432.0938 194.5313,432.0938 Q193.0313,432.0938 191.8281,431.5 Q190.8594,431.0313 190.1719,430.0156 Q189.5,429 189.5,427.7969 L189.5,426.7031 Q189.5,425.4531 190.0938,424.3594 Q190.7031,423.2656 191.75,422.6875 Q192.8125,422.0938 194,422.0938 Q194.7188,422.0938 195.3438,422.3438 Q195.9688,422.5938 196.5,423.0938 Z " fill="#000000"/><text fill="#000000" font-family="sans-serif" font-size="12" font-style="italic" lengthAdjust="spacing" textLength="78" x="223" y="423.957">«Persistence»</text><text fill="#000000" font-family="sans-serif" font-size="12" lengthAdjust="spacing" textLength="107" x="208.5" y="439.0508">PersistenceContext</text><line style="stroke:#A80036;stroke-width:1.5;" x1="180.5" x2="317.5" y1="446.6875" y2="446.6875"/><line style="stroke:#A80036;stroke-width:1.5;" x1="180.5" x2="317.5" y1="454.6875" y2="454.6875"/><text fill="#000000" font-family="sans-serif" font-size="11" lengthAdjust="spacing" textLength="65" x="185.5" y="470.1064">repositories()</text><!--MD5=[d34c3374e9f1ea92600999ba19e06c1c]
class Equipa--><rect codeLine="25" fill="#FEFECE" filter="url(#f1jkomerm6ctza)" height="56.1875" id="Equipa" style="stroke:#A80036;stroke-width:1.5;" width="84" x="521" y="413.5"/><ellipse cx="536" cy="433.5938" fill="#ADD1B2" rx="11" ry="11" style="stroke:#A80036;stroke-width:1.0;"/><path d="M538,430.0938 Q538.2031,429.5938 538.4375,429.3438 Q538.6719,429.0938 538.9375,429.0938 Q539.4063,429.0938 539.7031,429.375 Q540,429.6563 540,430.3125 L540,431.875 Q540,432.5313 539.7188,432.8125 Q539.4375,433.0938 539,433.0938 Q538.6094,433.0938 538.3594,432.9219 Q538.1094,432.75 538,432.2969 Q537.9531,431.9844 537.7813,431.8125 Q537.4688,431.4844 536.9063,431.2969 Q536.3438,431.0938 535.7813,431.0938 Q535.0781,431.0938 534.4844,431.375 Q533.9063,431.6563 533.4531,432.2813 Q533,432.9063 533,433.7656 L533,434.6875 Q533,435.7188 533.8438,436.4063 Q534.6875,437.0938 536.1875,437.0938 Q537.0781,437.0938 537.7031,436.8906 Q538.0625,436.7813 538.4688,436.4219 Q538.7344,436.2188 538.875,436.1563 Q539.0156,436.0938 539.1875,436.0938 Q539.5156,436.0938 539.75,436.3594 Q540,436.6094 540,436.9688 Q540,437.3125 539.6563,437.7188 Q539.1563,438.3125 538.3594,438.6406 Q537.3125,439.0938 536.0313,439.0938 Q534.5313,439.0938 533.3281,438.5 Q532.3594,438.0313 531.6719,437.0156 Q531,436 531,434.7969 L531,433.7031 Q531,432.4531 531.5938,431.3594 Q532.2031,430.2656 533.25,429.6875 Q534.3125,429.0938 535.5,429.0938 Q536.2188,429.0938 536.8438,429.3438 Q537.4688,429.5938 538,430.0938 Z " fill="#000000"/><text fill="#000000" font-family="sans-serif" font-size="12" font-style="italic" lengthAdjust="spacing" textLength="56" x="548" y="430.957">«domain»</text><text fill="#000000" font-family="sans-serif" font-size="12" lengthAdjust="spacing" textLength="39" x="556.5" y="446.0508">Equipa</text><line style="stroke:#A80036;stroke-width:1.5;" x1="522" x2="604" y1="453.6875" y2="453.6875"/><line style="stroke:#A80036;stroke-width:1.5;" x1="522" x2="604" y1="461.6875" y2="461.6875"/><!--MD5=[3e8f3c06641ed1d81a5ed1c8b73ad1c7]
class EquipaBuilder--><rect codeLine="28" fill="#FEFECE" filter="url(#f1jkomerm6ctza)" height="139.2031" id="EquipaBuilder" style="stroke:#A80036;stroke-width:1.5;" width="110" x="34" y="372"/><ellipse cx="49" cy="392.0938" fill="#ADD1B2" rx="11" ry="11" style="stroke:#A80036;stroke-width:1.0;"/><path d="M51,388.5938 Q51.2031,388.0938 51.4375,387.8438 Q51.6719,387.5938 51.9375,387.5938 Q52.4063,387.5938 52.7031,387.875 Q53,388.1563 53,388.8125 L53,390.375 Q53,391.0313 52.7188,391.3125 Q52.4375,391.5938 52,391.5938 Q51.6094,391.5938 51.3594,391.4219 Q51.1094,391.25 51,390.7969 Q50.9531,390.4844 50.7813,390.3125 Q50.4688,389.9844 49.9063,389.7969 Q49.3438,389.5938 48.7813,389.5938 Q48.0781,389.5938 47.4844,389.875 Q46.9063,390.1563 46.4531,390.7813 Q46,391.4063 46,392.2656 L46,393.1875 Q46,394.2188 46.8438,394.9063 Q47.6875,395.5938 49.1875,395.5938 Q50.0781,395.5938 50.7031,395.3906 Q51.0625,395.2813 51.4688,394.9219 Q51.7344,394.7188 51.875,394.6563 Q52.0156,394.5938 52.1875,394.5938 Q52.5156,394.5938 52.75,394.8594 Q53,395.1094 53,395.4688 Q53,395.8125 52.6563,396.2188 Q52.1563,396.8125 51.3594,397.1406 Q50.3125,397.5938 49.0313,397.5938 Q47.5313,397.5938 46.3281,397 Q45.3594,396.5313 44.6719,395.5156 Q44,394.5 44,393.2969 L44,392.2031 Q44,390.9531 44.5938,389.8594 Q45.2031,388.7656 46.25,388.1875 Q47.3125,387.5938 48.5,387.5938 Q49.2188,387.5938 49.8438,387.8438 Q50.4688,388.0938 51,388.5938 Z " fill="#000000"/><text fill="#000000" font-family="sans-serif" font-size="12" font-style="italic" lengthAdjust="spacing" textLength="53" x="75.5" y="389.457">«Builder»</text><text fill="#000000" font-family="sans-serif" font-size="12" lengthAdjust="spacing" textLength="78" x="63" y="404.5508">EquipaBuilder</text><line style="stroke:#A80036;stroke-width:1.5;" x1="35" x2="143" y1="412.1875" y2="412.1875"/><line style="stroke:#A80036;stroke-width:1.5;" x1="35" x2="143" y1="420.1875" y2="420.1875"/><text fill="#000000" font-family="sans-serif" font-size="11" lengthAdjust="spacing" textLength="75" x="40" y="435.6064">setTipoEquipa()</text><text fill="#000000" font-family="sans-serif" font-size="11" lengthAdjust="spacing" textLength="83" x="40" y="449.4424">setCodigoUnico()</text><text fill="#000000" font-family="sans-serif" font-size="11" lengthAdjust="spacing" textLength="69" x="40" y="463.2783">setAcronimo()</text><text fill="#000000" font-family="sans-serif" font-size="11" lengthAdjust="spacing" textLength="80" x="40" y="477.1143">setDesignacao()</text><text fill="#000000" font-family="sans-serif" font-size="11" lengthAdjust="spacing" textLength="62" x="40" y="490.9502">criarEquipa()</text><text fill="#000000" font-family="sans-serif" font-size="11" lengthAdjust="spacing" textLength="85" x="40" y="504.7861">addColaborador()</text><!--MD5=[e3d99162b7328c3f1201e3bd1b8bcde6]
class EquipaRepository--><rect codeLine="37" fill="#FEFECE" filter="url(#f1jkomerm6ctza)" height="70.0234" id="EquipaRepository" style="stroke:#A80036;stroke-width:1.5;" width="130" x="7" y="589"/><ellipse cx="22" cy="609.0938" fill="#ADD1B2" rx="11" ry="11" style="stroke:#A80036;stroke-width:1.0;"/><path d="M24,605.5938 Q24.2031,605.0938 24.4375,604.8438 Q24.6719,604.5938 24.9375,604.5938 Q25.4063,604.5938 25.7031,604.875 Q26,605.1563 26,605.8125 L26,607.375 Q26,608.0313 25.7188,608.3125 Q25.4375,608.5938 25,608.5938 Q24.6094,608.5938 24.3594,608.4219 Q24.1094,608.25 24,607.7969 Q23.9531,607.4844 23.7813,607.3125 Q23.4688,606.9844 22.9063,606.7969 Q22.3438,606.5938 21.7813,606.5938 Q21.0781,606.5938 20.4844,606.875 Q19.9063,607.1563 19.4531,607.7813 Q19,608.4063 19,609.2656 L19,610.1875 Q19,611.2188 19.8438,611.9063 Q20.6875,612.5938 22.1875,612.5938 Q23.0781,612.5938 23.7031,612.3906 Q24.0625,612.2813 24.4688,611.9219 Q24.7344,611.7188 24.875,611.6563 Q25.0156,611.5938 25.1875,611.5938 Q25.5156,611.5938 25.75,611.8594 Q26,612.1094 26,612.4688 Q26,612.8125 25.6563,613.2188 Q25.1563,613.8125 24.3594,614.1406 Q23.3125,614.5938 22.0313,614.5938 Q20.5313,614.5938 19.3281,614 Q18.3594,613.5313 17.6719,612.5156 Q17,611.5 17,610.2969 L17,609.2031 Q17,607.9531 17.5938,606.8594 Q18.2031,605.7656 19.25,605.1875 Q20.3125,604.5938 21.5,604.5938 Q22.2188,604.5938 22.8438,604.8438 Q23.4688,605.0938 24,605.5938 Z " fill="#000000"/><text fill="#000000" font-family="sans-serif" font-size="12" font-style="italic" lengthAdjust="spacing" textLength="68" x="51" y="606.457">«repository»</text><text fill="#000000" font-family="sans-serif" font-size="12" lengthAdjust="spacing" textLength="98" x="36" y="621.5508">EquipaRepository</text><line style="stroke:#A80036;stroke-width:1.5;" x1="8" x2="136" y1="629.1875" y2="629.1875"/><line style="stroke:#A80036;stroke-width:1.5;" x1="8" x2="136" y1="637.1875" y2="637.1875"/><text fill="#000000" font-family="sans-serif" font-size="11" lengthAdjust="spacing" textLength="64" x="13" y="652.6064">save(equipa)</text><!--MD5=[7ebe7a091837043f239f88bb431abcb2]
class TipoEquipaRepository--><rect codeLine="41" fill="#FEFECE" filter="url(#f1jkomerm6ctza)" height="70.0234" id="TipoEquipaRepository" style="stroke:#A80036;stroke-width:1.5;" width="154" x="172" y="589"/><ellipse cx="187" cy="609.0938" fill="#ADD1B2" rx="11" ry="11" style="stroke:#A80036;stroke-width:1.0;"/><path d="M189,605.5938 Q189.2031,605.0938 189.4375,604.8438 Q189.6719,604.5938 189.9375,604.5938 Q190.4063,604.5938 190.7031,604.875 Q191,605.1563 191,605.8125 L191,607.375 Q191,608.0313 190.7188,608.3125 Q190.4375,608.5938 190,608.5938 Q189.6094,608.5938 189.3594,608.4219 Q189.1094,608.25 189,607.7969 Q188.9531,607.4844 188.7813,607.3125 Q188.4688,606.9844 187.9063,606.7969 Q187.3438,606.5938 186.7813,606.5938 Q186.0781,606.5938 185.4844,606.875 Q184.9063,607.1563 184.4531,607.7813 Q184,608.4063 184,609.2656 L184,610.1875 Q184,611.2188 184.8438,611.9063 Q185.6875,612.5938 187.1875,612.5938 Q188.0781,612.5938 188.7031,612.3906 Q189.0625,612.2813 189.4688,611.9219 Q189.7344,611.7188 189.875,611.6563 Q190.0156,611.5938 190.1875,611.5938 Q190.5156,611.5938 190.75,611.8594 Q191,612.1094 191,612.4688 Q191,612.8125 190.6563,613.2188 Q190.1563,613.8125 189.3594,614.1406 Q188.3125,614.5938 187.0313,614.5938 Q185.5313,614.5938 184.3281,614 Q183.3594,613.5313 182.6719,612.5156 Q182,611.5 182,610.2969 L182,609.2031 Q182,607.9531 182.5938,606.8594 Q183.2031,605.7656 184.25,605.1875 Q185.3125,604.5938 186.5,604.5938 Q187.2188,604.5938 187.8438,604.8438 Q188.4688,605.0938 189,605.5938 Z " fill="#000000"/><text fill="#000000" font-family="sans-serif" font-size="12" font-style="italic" lengthAdjust="spacing" textLength="68" x="228" y="606.457">«repository»</text><text fill="#000000" font-family="sans-serif" font-size="12" lengthAdjust="spacing" textLength="122" x="201" y="621.5508">TipoEquipaRepository</text><line style="stroke:#A80036;stroke-width:1.5;" x1="173" x2="325" y1="629.1875" y2="629.1875"/><line style="stroke:#A80036;stroke-width:1.5;" x1="173" x2="325" y1="637.1875" y2="637.1875"/><text fill="#000000" font-family="sans-serif" font-size="11" lengthAdjust="spacing" textLength="85" x="178" y="652.6064">listaTiposEquipa()</text><!--MD5=[9a0e8f7957502662f95e783c1c3d84fe]
class ColaboradorRepository--><rect codeLine="45" fill="#FEFECE" filter="url(#f1jkomerm6ctza)" height="70.0234" id="ColaboradorRepository" style="stroke:#A80036;stroke-width:1.5;" width="160" x="361" y="589"/><ellipse cx="376" cy="609.0938" fill="#ADD1B2" rx="11" ry="11" style="stroke:#A80036;stroke-width:1.0;"/><path d="M378,605.5938 Q378.2031,605.0938 378.4375,604.8438 Q378.6719,604.5938 378.9375,604.5938 Q379.4063,604.5938 379.7031,604.875 Q380,605.1563 380,605.8125 L380,607.375 Q380,608.0313 379.7188,608.3125 Q379.4375,608.5938 379,608.5938 Q378.6094,608.5938 378.3594,608.4219 Q378.1094,608.25 378,607.7969 Q377.9531,607.4844 377.7813,607.3125 Q377.4688,606.9844 376.9063,606.7969 Q376.3438,606.5938 375.7813,606.5938 Q375.0781,606.5938 374.4844,606.875 Q373.9063,607.1563 373.4531,607.7813 Q373,608.4063 373,609.2656 L373,610.1875 Q373,611.2188 373.8438,611.9063 Q374.6875,612.5938 376.1875,612.5938 Q377.0781,612.5938 377.7031,612.3906 Q378.0625,612.2813 378.4688,611.9219 Q378.7344,611.7188 378.875,611.6563 Q379.0156,611.5938 379.1875,611.5938 Q379.5156,611.5938 379.75,611.8594 Q380,612.1094 380,612.4688 Q380,612.8125 379.6563,613.2188 Q379.1563,613.8125 378.3594,614.1406 Q377.3125,614.5938 376.0313,614.5938 Q374.5313,614.5938 373.3281,614 Q372.3594,613.5313 371.6719,612.5156 Q371,611.5 371,610.2969 L371,609.2031 Q371,607.9531 371.5938,606.8594 Q372.2031,605.7656 373.25,605.1875 Q374.3125,604.5938 375.5,604.5938 Q376.2188,604.5938 376.8438,604.8438 Q377.4688,605.0938 378,605.5938 Z " fill="#000000"/><text fill="#000000" font-family="sans-serif" font-size="12" font-style="italic" lengthAdjust="spacing" textLength="68" x="420" y="606.457">«repository»</text><text fill="#000000" font-family="sans-serif" font-size="12" lengthAdjust="spacing" textLength="128" x="390" y="621.5508">ColaboradorRepository</text><line style="stroke:#A80036;stroke-width:1.5;" x1="362" x2="520" y1="629.1875" y2="629.1875"/><line style="stroke:#A80036;stroke-width:1.5;" x1="362" x2="520" y1="637.1875" y2="637.1875"/><text fill="#000000" font-family="sans-serif" font-size="11" lengthAdjust="spacing" textLength="98" x="367" y="652.6064">listaColaboradores()</text><!--MD5=[df2642184b5a8c35330a65fd73d5bebf]
link CriarEquipaUI to CriarEquipaController--><path codeLine="49" d="M469.57,63.02 C460.6,82.55 447.97,110 435.88,136.31 " fill="none" id="CriarEquipaUI-to-CriarEquipaController" style="stroke:#A80036;stroke-width:1.0;"/><polygon fill="#A80036" points="433.78,140.86,441.1872,134.369,435.878,136.3215,433.9256,131.0122,433.78,140.86" style="stroke:#A80036;stroke-width:1.0;"/><text fill="#000000" font-family="sans-serif" font-size="13" lengthAdjust="spacing" textLength="73" x="456" y="107.4951">theController</text><!--MD5=[ce7925c7edc7cd431b7d03b1b4807216]
link CriarEquipaUI to Equipa--><path codeLine="51" d="M516.21,63.05 C524.79,71.66 532.98,81.87 538,93 C586.31,199.97 575.75,344.43 567.8,408.09 " fill="none" id="CriarEquipaUI-to-Equipa" style="stroke:#A80036;stroke-width:1.0;stroke-dasharray:7.0,7.0;"/><polygon fill="#A80036" points="567.14,413.26,572.2404,404.8347,567.769,408.2997,564.3039,403.8283,567.14,413.26" style="stroke:#A80036;stroke-width:1.0;"/><text fill="#000000" font-family="sans-serif" font-size="13" lengthAdjust="spacing" textLength="40" x="575" y="222.9951">Equipa</text><!--MD5=[5623a528ead61961fc472a83e75226dc]
link CriarEquipaController to Equipa--><path codeLine="53" d="M454.98,294.28 C483.99,333.55 517.85,379.38 539.81,409.11 " fill="none" id="CriarEquipaController-to-Equipa" style="stroke:#A80036;stroke-width:1.0;"/><polygon fill="#A80036" points="542.97,413.38,540.8305,403.7663,539.9952,409.3612,534.4004,408.526,542.97,413.38" style="stroke:#A80036;stroke-width:1.0;"/><text fill="#000000" font-family="sans-serif" font-size="13" lengthAdjust="spacing" textLength="40" x="486" y="338.4951">Equipa</text><!--MD5=[7c8a08da7a4ec4f2bbb6db12249fd690]
link CriarEquipaController to EquipaBuilder--><path codeLine="54" d="M303.77,274.74 C259.41,302.29 206.68,337.02 162,372 C157.4,375.6 152.75,379.43 148.15,383.38 " fill="none" id="CriarEquipaController-to-EquipaBuilder" style="stroke:#A80036;stroke-width:1.0;"/><polygon fill="#A80036" points="144.29,386.72,153.715,383.8619,148.0732,383.4508,148.4843,377.8089,144.29,386.72" style="stroke:#A80036;stroke-width:1.0;"/><text fill="#000000" font-family="sans-serif" font-size="13" lengthAdjust="spacing" textLength="58" x="225" y="338.4951">theBuilder</text><!--MD5=[c1285af236608b39d68ff3302ba55601]
link CriarEquipaController to RepositoryFactory--><path codeLine="56" d="M405.83,294.28 C409.34,333.23 413.43,378.63 416.11,408.38 " fill="none" id="CriarEquipaController-to-RepositoryFactory" style="stroke:#A80036;stroke-width:1.0;"/><polygon fill="#A80036" points="416.56,413.38,419.7457,404.0606,416.1164,408.3997,411.7772,404.7704,416.56,413.38" style="stroke:#A80036;stroke-width:1.0;"/><text fill="#000000" font-family="sans-serif" font-size="13" lengthAdjust="spacing" textLength="39" x="410" y="338.4951">factory</text><!--MD5=[79bd67021e09c8818cf7c4a583c20881]
link CriarEquipaController to PersistenceContext--><path codeLine="58" d="M347.8,294.28 C323.29,330.55 294.99,372.43 274.98,402.04 " fill="none" id="CriarEquipaController-to-PersistenceContext" style="stroke:#A80036;stroke-width:1.0;"/><polygon fill="#A80036" points="272.09,406.32,280.4437,401.1032,274.8898,402.1774,273.8156,396.6235,272.09,406.32" style="stroke:#A80036;stroke-width:1.0;"/><text fill="#000000" font-family="sans-serif" font-size="13" lengthAdjust="spacing" textLength="67" x="325" y="338.4951">persistence</text><!--MD5=[220d566646908776f583778b1aa0a8b0]
link PersistenceContext to EquipaRepository--><path codeLine="59" d="M215.29,476.88 C185.03,507.74 140.67,552.97 109.34,584.92 " fill="none" id="PersistenceContext-to-EquipaRepository" style="stroke:#A80036;stroke-width:1.0;"/><polygon fill="#A80036" points="105.58,588.75,114.7362,585.1218,109.0796,585.1789,109.0225,579.5224,105.58,588.75" style="stroke:#A80036;stroke-width:1.0;"/><text fill="#000000" font-family="sans-serif" font-size="13" lengthAdjust="spacing" textLength="25" x="151" y="555.4951">repo</text><!--MD5=[b15ff563f2a950453b258eff1b491bd6]
link PersistenceContext to TipoEquipaRepository--><path codeLine="60" d="M249,476.88 C249,507.36 249,551.87 249,583.75 " fill="none" id="PersistenceContext-to-TipoEquipaRepository" style="stroke:#A80036;stroke-width:1.0;"/><polygon fill="#A80036" points="249,588.75,253,579.75,249,583.75,245,579.75,249,588.75" style="stroke:#A80036;stroke-width:1.0;"/><text fill="#000000" font-family="sans-serif" font-size="13" lengthAdjust="spacing" textLength="25" x="250" y="555.4951">repo</text><!--MD5=[b41437e2739974f4201be0aff7d578d2]
link PersistenceContext to ColaboradorRepository--><path codeLine="61" d="M285.57,476.88 C318.53,507.86 366.9,553.34 400.91,585.31 " fill="none" id="PersistenceContext-to-ColaboradorRepository" style="stroke:#A80036;stroke-width:1.0;"/><polygon fill="#A80036" points="404.57,588.75,400.7577,579.6689,400.929,585.3232,395.2747,585.4945,404.57,588.75" style="stroke:#A80036;stroke-width:1.0;"/><text fill="#000000" font-family="sans-serif" font-size="13" lengthAdjust="spacing" textLength="25" x="368" y="555.4951">repo</text><!--MD5=[226dc60000183d1e969e68b321cf324c]
@startuml
'https://plantuml.com/class-diagram


class CriarEquipaUI <<presentation>>{

}

class CriarEquipaController <<application>>{
getTiposEquipa()
criarEquipa(tipoEquipa, codigoUnico, \nacronimo, designacao)
getColaboradores()
qtdColaboradores()
addColaboradores()
showColaboradores()
}

class RepositoryFactory <<factory>>{

}

class PersistenceContext <<Persistence>>{
repositories()
}

class Equipa <<domain>>{
}

class EquipaBuilder <<Builder>>{
setTipoEquipa()
setCodigoUnico()
setAcronimo()
setDesignacao()
criarEquipa()
addColaborador()
}

class EquipaRepository <<repository>>{
save(equipa)
}

class TipoEquipaRepository <<repository>>{
listaTiposEquipa()
}

class ColaboradorRepository <<repository>>{
listaColaboradores()
}

CriarEquipaUI - -> CriarEquipaController : theController

CriarEquipaUI ..> Equipa : Equipa

CriarEquipaController - -> Equipa : Equipa
CriarEquipaController - -> EquipaBuilder : theBuilder

CriarEquipaController - -> RepositoryFactory : factory

CriarEquipaController - -> PersistenceContext : persistence
PersistenceContext - -> EquipaRepository : repo
PersistenceContext - -> TipoEquipaRepository : repo
PersistenceContext - -> ColaboradorRepository : repo

@enduml

@startuml


class CriarEquipaUI <<presentation>>{

}

class CriarEquipaController <<application>>{
getTiposEquipa()
criarEquipa(tipoEquipa, codigoUnico, \nacronimo, designacao)
getColaboradores()
qtdColaboradores()
addColaboradores()
showColaboradores()
}

class RepositoryFactory <<factory>>{

}

class PersistenceContext <<Persistence>>{
repositories()
}

class Equipa <<domain>>{
}

class EquipaBuilder <<Builder>>{
setTipoEquipa()
setCodigoUnico()
setAcronimo()
setDesignacao()
criarEquipa()
addColaborador()
}

class EquipaRepository <<repository>>{
save(equipa)
}

class TipoEquipaRepository <<repository>>{
listaTiposEquipa()
}

class ColaboradorRepository <<repository>>{
listaColaboradores()
}

CriarEquipaUI - -> CriarEquipaController : theController

CriarEquipaUI ..> Equipa : Equipa

CriarEquipaController - -> Equipa : Equipa
CriarEquipaController - -> EquipaBuilder : theBuilder

CriarEquipaController - -> RepositoryFactory : factory

CriarEquipaController - -> PersistenceContext : persistence
PersistenceContext - -> EquipaRepository : repo
PersistenceContext - -> TipoEquipaRepository : repo
PersistenceContext - -> ColaboradorRepository : repo

@enduml

PlantUML version 1.2021.2(Sun Mar 07 11:10:27 GMT 2021)
(GPL source distribution)
Java Runtime: OpenJDK Runtime Environment
JVM: OpenJDK 64-Bit Server VM
Default Encoding: Cp1252
Language: pt
Country: PT
--></g></svg>