<?xml version="1.0" encoding="UTF-8" standalone="no"?><svg xmlns="http://www.w3.org/2000/svg" xmlns:xlink="http://www.w3.org/1999/xlink" contentScriptType="application/ecmascript" contentStyleType="text/css" height="702.24px" preserveAspectRatio="none" style="width:1397px;height:702px;" version="1.1" viewBox="0 0 1397 702" width="1397.76px" zoomAndPan="magnify"><defs><filter height="300%" id="f1j3a5ci4vcs9z" width="300%" x="-1" y="-1"><feGaussianBlur result="blurOut" stdDeviation="2.24"/><feColorMatrix in="blurOut" result="blurOut2" type="matrix" values="0 0 0 0 0 0 0 0 0 0 0 0 0 0 0 0 0 0 .4 0"/><feOffset dx="4.48" dy="4.48" in="blurOut2" result="blurOut3"/><feBlend in="SourceGraphic" in2="blurOut3" mode="normal"/></filter></defs><g><!--MD5=[66159032ba99ed93c2e58672d4717004]
class CatalogoServicoBootstrapper--><rect codeLine="3" fill="#FEFECE" filter="url(#f1j3a5ci4vcs9z)" height="93.9225" id="CatalogoServicoBootstrapper" style="stroke:#A80036;stroke-width:1.6800000000000002;" width="672" x="7.84" y="7.84"/><ellipse cx="248.92" cy="30.345" fill="#ADD1B2" rx="12.32" ry="12.32" style="stroke:#A80036;stroke-width:1.12;"/><path d="M251.16,26.425 Q251.3875,25.865 251.65,25.585 Q251.9125,25.305 252.21,25.305 Q252.735,25.305 253.0675,25.62 Q253.4,25.935 253.4,26.67 L253.4,28.42 Q253.4,29.155 253.085,29.47 Q252.77,29.785 252.28,29.785 Q251.8425,29.785 251.5625,29.5925 Q251.2825,29.4 251.16,28.8925 Q251.1075,28.5425 250.915,28.35 Q250.565,27.9825 249.935,27.7725 Q249.305,27.545 248.675,27.545 Q247.8875,27.545 247.2225,27.86 Q246.575,28.175 246.0675,28.875 Q245.56,29.575 245.56,30.5375 L245.56,31.57 Q245.56,32.725 246.505,33.495 Q247.45,34.265 249.13,34.265 Q250.1275,34.265 250.8275,34.0375 Q251.23,33.915 251.685,33.5125 Q251.9825,33.285 252.14,33.215 Q252.2975,33.145 252.49,33.145 Q252.8575,33.145 253.12,33.4425 Q253.4,33.7225 253.4,34.125 Q253.4,34.51 253.015,34.965 Q252.455,35.63 251.5625,35.9975 Q250.39,36.505 248.955,36.505 Q247.275,36.505 245.9275,35.84 Q244.8425,35.315 244.0725,34.1775 Q243.32,33.04 243.32,31.6925 L243.32,30.4675 Q243.32,29.0675 243.985,27.8425 Q244.6675,26.6175 245.84,25.97 Q247.03,25.305 248.36,25.305 Q249.165,25.305 249.865,25.585 Q250.565,25.865 251.16,26.425 Z " fill="#000000"/><text fill="#000000" font-family="sans-serif" font-size="13.44" font-style="italic" lengthAdjust="spacing" textLength="91.84" x="316.12" y="27.3919">«presentation»</text><text fill="#000000" font-family="sans-serif" font-size="13.44" lengthAdjust="spacing" textLength="180.32" x="271.88" y="44.2969">CatalogoServicoBootstrapper</text><line style="stroke:#A80036;stroke-width:1.6800000000000002;" x1="8.96" x2="678.72" y1="52.85" y2="52.85"/><line style="stroke:#A80036;stroke-width:1.6800000000000002;" x1="8.96" x2="678.72" y1="61.81" y2="61.81"/><text fill="#000000" font-family="sans-serif" font-size="12.32" lengthAdjust="spacing" textLength="658.56" x="14.56" y="79.0792">registarCatalogoServico(identificador,descBreve,descCompleta,icone,titulo,criteriosAcesso,ColaboradorResponsavel,null)</text><text fill="#000000" font-family="sans-serif" font-size="12.32" lengthAdjust="spacing" textLength="460.32" x="14.56" y="94.5755">registarServico(codigoUnico,tituloServico,keyWords,icone,descBreve,descCompleta)</text><!--MD5=[4d6b4af98c58f6811e9147a30fcb5238]
class AdicionarCatalogoServicoController--><rect codeLine="9" fill="#FEFECE" filter="url(#f1j3a5ci4vcs9z)" height="155.9075" id="AdicionarCatalogoServicoController" style="stroke:#A80036;stroke-width:1.6800000000000002;" width="430.08" x="404.32" y="169.12"/><ellipse cx="505.4" cy="191.625" fill="#ADD1B2" rx="12.32" ry="12.32" style="stroke:#A80036;stroke-width:1.12;"/><path d="M507.64,187.705 Q507.8675,187.145 508.13,186.865 Q508.3925,186.585 508.69,186.585 Q509.215,186.585 509.5475,186.9 Q509.88,187.215 509.88,187.95 L509.88,189.7 Q509.88,190.435 509.565,190.75 Q509.25,191.065 508.76,191.065 Q508.3225,191.065 508.0425,190.8725 Q507.7625,190.68 507.64,190.1725 Q507.5875,189.8225 507.395,189.63 Q507.045,189.2625 506.415,189.0525 Q505.785,188.825 505.155,188.825 Q504.3675,188.825 503.7025,189.14 Q503.055,189.455 502.5475,190.155 Q502.04,190.855 502.04,191.8175 L502.04,192.85 Q502.04,194.005 502.985,194.775 Q503.93,195.545 505.61,195.545 Q506.6075,195.545 507.3075,195.3175 Q507.71,195.195 508.165,194.7925 Q508.4625,194.565 508.62,194.495 Q508.7775,194.425 508.97,194.425 Q509.3375,194.425 509.6,194.7225 Q509.88,195.0025 509.88,195.405 Q509.88,195.79 509.495,196.245 Q508.935,196.91 508.0425,197.2775 Q506.87,197.785 505.435,197.785 Q503.755,197.785 502.4075,197.12 Q501.3225,196.595 500.5525,195.4575 Q499.8,194.32 499.8,192.9725 L499.8,191.7475 Q499.8,190.3475 500.465,189.1225 Q501.1475,187.8975 502.32,187.25 Q503.51,186.585 504.84,186.585 Q505.645,186.585 506.345,186.865 Q507.045,187.145 507.64,187.705 Z " fill="#000000"/><text fill="#000000" font-family="sans-serif" font-size="13.44" font-style="italic" lengthAdjust="spacing" textLength="82.88" x="596.12" y="188.6719">«application»</text><text fill="#000000" font-family="sans-serif" font-size="13.44" lengthAdjust="spacing" textLength="218.4" x="528.36" y="205.5769">AdicionarCatalogoServicoController</text><line style="stroke:#A80036;stroke-width:1.6800000000000002;" x1="405.44" x2="833.28" y1="214.13" y2="214.13"/><line style="stroke:#A80036;stroke-width:1.6800000000000002;" x1="405.44" x2="833.28" y1="223.09" y2="223.09"/><text fill="#000000" font-family="sans-serif" font-size="12.32" lengthAdjust="spacing" textLength="257.6" x="411.04" y="240.3592">adicionarCatalogoServico(catalogoServicoDTO)</text><text fill="#000000" font-family="sans-serif" font-size="12.32" lengthAdjust="spacing" textLength="402.08" x="411.04" y="255.8555">extrairConteudoFicheiroCatalogoServico(caminhoFicheiroCatalogoServico)</text><text fill="#000000" font-family="sans-serif" font-size="12.32" lengthAdjust="spacing" textLength="416.64" x="411.04" y="271.3517">determinarFormatoFicheiroCatalogoServico(caminhoFicheiroCatalogoServico)</text><text fill="#000000" font-family="sans-serif" font-size="12.32" lengthAdjust="spacing" textLength="163.52" x="411.04" y="286.848">adicionarServico(servicoDTO)</text><text fill="#000000" font-family="sans-serif" font-size="12.32" lengthAdjust="spacing" textLength="308" x="411.04" y="302.3442">extrairConteudoFicheiroServico(caminhoFicheiroServico)</text><text fill="#000000" font-family="sans-serif" font-size="12.32" lengthAdjust="spacing" textLength="322.56" x="411.04" y="317.8405">determinarFormatoFicheiroServico(caminhoFicheiroServico)</text><!--MD5=[782a9e45ea0386f9eee9e4f725707966]
class CatalogoServicoDTO--><rect codeLine="19" fill="#FEFECE" filter="url(#f1j3a5ci4vcs9z)" height="62.93" id="CatalogoServicoDTO" style="stroke:#A80036;stroke-width:1.6800000000000002;" width="164.64" x="85.68" y="400.4"/><ellipse cx="102.48" cy="422.905" fill="#ADD1B2" rx="12.32" ry="12.32" style="stroke:#A80036;stroke-width:1.12;"/><path d="M104.72,418.985 Q104.9475,418.425 105.21,418.145 Q105.4725,417.865 105.77,417.865 Q106.295,417.865 106.6275,418.18 Q106.96,418.495 106.96,419.23 L106.96,420.98 Q106.96,421.715 106.645,422.03 Q106.33,422.345 105.84,422.345 Q105.4025,422.345 105.1225,422.1525 Q104.8425,421.96 104.72,421.4525 Q104.6675,421.1025 104.475,420.91 Q104.125,420.5425 103.495,420.3325 Q102.865,420.105 102.235,420.105 Q101.4475,420.105 100.7825,420.42 Q100.135,420.735 99.6275,421.435 Q99.12,422.135 99.12,423.0975 L99.12,424.13 Q99.12,425.285 100.065,426.055 Q101.01,426.825 102.69,426.825 Q103.6875,426.825 104.3875,426.5975 Q104.79,426.475 105.245,426.0725 Q105.5425,425.845 105.7,425.775 Q105.8575,425.705 106.05,425.705 Q106.4175,425.705 106.68,426.0025 Q106.96,426.2825 106.96,426.685 Q106.96,427.07 106.575,427.525 Q106.015,428.19 105.1225,428.5575 Q103.95,429.065 102.515,429.065 Q100.835,429.065 99.4875,428.4 Q98.4025,427.875 97.6325,426.7375 Q96.88,425.6 96.88,424.2525 L96.88,423.0275 Q96.88,421.6275 97.545,420.4025 Q98.2275,419.1775 99.4,418.53 Q100.59,417.865 101.92,417.865 Q102.725,417.865 103.425,418.145 Q104.125,418.425 104.72,418.985 Z " fill="#000000"/><text fill="#000000" font-family="sans-serif" font-size="13.44" font-style="italic" lengthAdjust="spacing" textLength="43.68" x="160.72" y="419.9519">«DTO»</text><text fill="#000000" font-family="sans-serif" font-size="13.44" lengthAdjust="spacing" textLength="128.8" x="118.16" y="436.8569">CatalogoServicoDTO</text><line style="stroke:#A80036;stroke-width:1.6800000000000002;" x1="86.8" x2="249.2" y1="445.41" y2="445.41"/><line style="stroke:#A80036;stroke-width:1.6800000000000002;" x1="86.8" x2="249.2" y1="454.37" y2="454.37"/><!--MD5=[e7d05a74eb4ed1e8247d3fb64c3727d2]
class ServicoDTO--><rect codeLine="23" fill="#FEFECE" filter="url(#f1j3a5ci4vcs9z)" height="62.93" id="ServicoDTO" style="stroke:#A80036;stroke-width:1.6800000000000002;" width="108.64" x="289.52" y="400.4"/><ellipse cx="306.32" cy="422.905" fill="#ADD1B2" rx="12.32" ry="12.32" style="stroke:#A80036;stroke-width:1.12;"/><path d="M308.56,418.985 Q308.7875,418.425 309.05,418.145 Q309.3125,417.865 309.61,417.865 Q310.135,417.865 310.4675,418.18 Q310.8,418.495 310.8,419.23 L310.8,420.98 Q310.8,421.715 310.485,422.03 Q310.17,422.345 309.68,422.345 Q309.2425,422.345 308.9625,422.1525 Q308.6825,421.96 308.56,421.4525 Q308.5075,421.1025 308.315,420.91 Q307.965,420.5425 307.335,420.3325 Q306.705,420.105 306.075,420.105 Q305.2875,420.105 304.6225,420.42 Q303.975,420.735 303.4675,421.435 Q302.96,422.135 302.96,423.0975 L302.96,424.13 Q302.96,425.285 303.905,426.055 Q304.85,426.825 306.53,426.825 Q307.5275,426.825 308.2275,426.5975 Q308.63,426.475 309.085,426.0725 Q309.3825,425.845 309.54,425.775 Q309.6975,425.705 309.89,425.705 Q310.2575,425.705 310.52,426.0025 Q310.8,426.2825 310.8,426.685 Q310.8,427.07 310.415,427.525 Q309.855,428.19 308.9625,428.5575 Q307.79,429.065 306.355,429.065 Q304.675,429.065 303.3275,428.4 Q302.2425,427.875 301.4725,426.7375 Q300.72,425.6 300.72,424.2525 L300.72,423.0275 Q300.72,421.6275 301.385,420.4025 Q302.0675,419.1775 303.24,418.53 Q304.43,417.865 305.76,417.865 Q306.565,417.865 307.265,418.145 Q307.965,418.425 308.56,418.985 Z " fill="#000000"/><text fill="#000000" font-family="sans-serif" font-size="13.44" font-style="italic" lengthAdjust="spacing" textLength="43.68" x="336.56" y="419.9519">«DTO»</text><text fill="#000000" font-family="sans-serif" font-size="13.44" lengthAdjust="spacing" textLength="72.8" x="322" y="436.8569">ServicoDTO</text><line style="stroke:#A80036;stroke-width:1.6800000000000002;" x1="290.64" x2="397.04" y1="445.41" y2="445.41"/><line style="stroke:#A80036;stroke-width:1.6800000000000002;" x1="290.64" x2="397.04" y1="454.37" y2="454.37"/><!--MD5=[e69ac6862bf3058bb9c1d55dcbaf741e]
class CatalogoServicoRepository--><rect codeLine="27" fill="#FEFECE" filter="url(#f1j3a5ci4vcs9z)" height="78.4263" id="CatalogoServicoRepository" style="stroke:#A80036;stroke-width:1.6800000000000002;" width="202.72" x="518" y="392.56"/><ellipse cx="534.8" cy="415.065" fill="#ADD1B2" rx="12.32" ry="12.32" style="stroke:#A80036;stroke-width:1.12;"/><path d="M537.04,411.145 Q537.2675,410.585 537.53,410.305 Q537.7925,410.025 538.09,410.025 Q538.615,410.025 538.9475,410.34 Q539.28,410.655 539.28,411.39 L539.28,413.14 Q539.28,413.875 538.965,414.19 Q538.65,414.505 538.16,414.505 Q537.7225,414.505 537.4425,414.3125 Q537.1625,414.12 537.04,413.6125 Q536.9875,413.2625 536.795,413.07 Q536.445,412.7025 535.815,412.4925 Q535.185,412.265 534.555,412.265 Q533.7675,412.265 533.1025,412.58 Q532.455,412.895 531.9475,413.595 Q531.44,414.295 531.44,415.2575 L531.44,416.29 Q531.44,417.445 532.385,418.215 Q533.33,418.985 535.01,418.985 Q536.0075,418.985 536.7075,418.7575 Q537.11,418.635 537.565,418.2325 Q537.8625,418.005 538.02,417.935 Q538.1775,417.865 538.37,417.865 Q538.7375,417.865 539,418.1625 Q539.28,418.4425 539.28,418.845 Q539.28,419.23 538.895,419.685 Q538.335,420.35 537.4425,420.7175 Q536.27,421.225 534.835,421.225 Q533.155,421.225 531.8075,420.56 Q530.7225,420.035 529.9525,418.8975 Q529.2,417.76 529.2,416.4125 L529.2,415.1875 Q529.2,413.7875 529.865,412.5625 Q530.5475,411.3375 531.72,410.69 Q532.91,410.025 534.24,410.025 Q535.045,410.025 535.745,410.305 Q536.445,410.585 537.04,411.145 Z " fill="#000000"/><text fill="#000000" font-family="sans-serif" font-size="13.44" font-style="italic" lengthAdjust="spacing" textLength="76.16" x="595.84" y="412.1119">«repository»</text><text fill="#000000" font-family="sans-serif" font-size="13.44" lengthAdjust="spacing" textLength="166.88" x="550.48" y="429.0169">CatalogoServicoRepository</text><line style="stroke:#A80036;stroke-width:1.6800000000000002;" x1="519.12" x2="719.6" y1="437.57" y2="437.57"/><line style="stroke:#A80036;stroke-width:1.6800000000000002;" x1="519.12" x2="719.6" y1="446.53" y2="446.53"/><text fill="#000000" font-family="sans-serif" font-size="12.32" lengthAdjust="spacing" textLength="151.2" x="524.72" y="463.7992">save(novoCatalogoServico)</text><!--MD5=[51865f8cbfe0824679c335d6e733f291]
class ServicoRepository--><rect codeLine="31" fill="#FEFECE" filter="url(#f1j3a5ci4vcs9z)" height="78.4263" id="ServicoRepository" style="stroke:#A80036;stroke-width:1.6800000000000002;" width="146.72" x="840.56" y="392.56"/><ellipse cx="857.36" cy="415.065" fill="#ADD1B2" rx="12.32" ry="12.32" style="stroke:#A80036;stroke-width:1.12;"/><path d="M859.6,411.145 Q859.8275,410.585 860.09,410.305 Q860.3525,410.025 860.65,410.025 Q861.175,410.025 861.5075,410.34 Q861.84,410.655 861.84,411.39 L861.84,413.14 Q861.84,413.875 861.525,414.19 Q861.21,414.505 860.72,414.505 Q860.2825,414.505 860.0025,414.3125 Q859.7225,414.12 859.6,413.6125 Q859.5475,413.2625 859.355,413.07 Q859.005,412.7025 858.375,412.4925 Q857.745,412.265 857.115,412.265 Q856.3275,412.265 855.6625,412.58 Q855.015,412.895 854.5075,413.595 Q854,414.295 854,415.2575 L854,416.29 Q854,417.445 854.945,418.215 Q855.89,418.985 857.57,418.985 Q858.5675,418.985 859.2675,418.7575 Q859.67,418.635 860.125,418.2325 Q860.4225,418.005 860.58,417.935 Q860.7375,417.865 860.93,417.865 Q861.2975,417.865 861.56,418.1625 Q861.84,418.4425 861.84,418.845 Q861.84,419.23 861.455,419.685 Q860.895,420.35 860.0025,420.7175 Q858.83,421.225 857.395,421.225 Q855.715,421.225 854.3675,420.56 Q853.2825,420.035 852.5125,418.8975 Q851.76,417.76 851.76,416.4125 L851.76,415.1875 Q851.76,413.7875 852.425,412.5625 Q853.1075,411.3375 854.28,410.69 Q855.47,410.025 856.8,410.025 Q857.605,410.025 858.305,410.305 Q859.005,410.585 859.6,411.145 Z " fill="#000000"/><text fill="#000000" font-family="sans-serif" font-size="13.44" font-style="italic" lengthAdjust="spacing" textLength="76.16" x="890.4" y="412.1119">«repository»</text><text fill="#000000" font-family="sans-serif" font-size="13.44" lengthAdjust="spacing" textLength="110.88" x="873.04" y="429.0169">ServicoRepository</text><line style="stroke:#A80036;stroke-width:1.6800000000000002;" x1="841.68" x2="986.16" y1="437.57" y2="437.57"/><line style="stroke:#A80036;stroke-width:1.6800000000000002;" x1="841.68" x2="986.16" y1="446.53" y2="446.53"/><text fill="#000000" font-family="sans-serif" font-size="12.32" lengthAdjust="spacing" textLength="104.16" x="847.28" y="463.7992">save(novoServico)</text><!--MD5=[b743b54862a9dd20961a1022928d03ce]
class FicheiroCatalogoServico--><rect codeLine="35" fill="#FEFECE" filter="url(#f1j3a5ci4vcs9z)" height="79.835" id="FicheiroCatalogoServico" style="stroke:#A80036;stroke-width:1.6800000000000002;" width="185.92" x="1027.04" y="392"/><ellipse cx="1043.84" cy="422.9575" fill="#ADD1B2" rx="12.32" ry="12.32" style="stroke:#A80036;stroke-width:1.12;"/><path d="M1046.08,419.0375 Q1046.3075,418.4775 1046.57,418.1975 Q1046.8325,417.9175 1047.13,417.9175 Q1047.655,417.9175 1047.9875,418.2325 Q1048.32,418.5475 1048.32,419.2825 L1048.32,421.0325 Q1048.32,421.7675 1048.005,422.0825 Q1047.69,422.3975 1047.2,422.3975 Q1046.7625,422.3975 1046.4825,422.205 Q1046.2025,422.0125 1046.08,421.505 Q1046.0275,421.155 1045.835,420.9625 Q1045.485,420.595 1044.855,420.385 Q1044.225,420.1575 1043.595,420.1575 Q1042.8075,420.1575 1042.1425,420.4725 Q1041.495,420.7875 1040.9875,421.4875 Q1040.48,422.1875 1040.48,423.15 L1040.48,424.1825 Q1040.48,425.3375 1041.425,426.1075 Q1042.37,426.8775 1044.05,426.8775 Q1045.0475,426.8775 1045.7475,426.65 Q1046.15,426.5275 1046.605,426.125 Q1046.9025,425.8975 1047.06,425.8275 Q1047.2175,425.7575 1047.41,425.7575 Q1047.7775,425.7575 1048.04,426.055 Q1048.32,426.335 1048.32,426.7375 Q1048.32,427.1225 1047.935,427.5775 Q1047.375,428.2425 1046.4825,428.61 Q1045.31,429.1175 1043.875,429.1175 Q1042.195,429.1175 1040.8475,428.4525 Q1039.7625,427.9275 1038.9925,426.79 Q1038.24,425.6525 1038.24,424.305 L1038.24,423.08 Q1038.24,421.68 1038.905,420.455 Q1039.5875,419.23 1040.76,418.5825 Q1041.95,417.9175 1043.28,417.9175 Q1044.085,417.9175 1044.785,418.1975 Q1045.485,418.4775 1046.08,419.0375 Z " fill="#000000"/><text fill="#000000" font-family="sans-serif" font-size="13.44" font-style="italic" lengthAdjust="spacing" textLength="62.72" x="1103.2" y="411.5519">«domain»</text><text fill="#000000" font-family="sans-serif" font-size="13.44" font-style="italic" lengthAdjust="spacing" textLength="89.6" x="1089.76" y="428.4569">«valueObject»</text><text fill="#000000" font-family="sans-serif" font-size="13.44" lengthAdjust="spacing" textLength="150.08" x="1059.52" y="445.3619">FicheiroCatalogoServico</text><line style="stroke:#A80036;stroke-width:1.6800000000000002;" x1="1028.16" x2="1211.84" y1="453.915" y2="453.915"/><line style="stroke:#A80036;stroke-width:1.6800000000000002;" x1="1028.16" x2="1211.84" y1="462.875" y2="462.875"/><!--MD5=[0fb5be0a9eee4a5aabc3eee44f1aee4a]
class CatalogoServico--><rect codeLine="39" fill="#FEFECE" filter="url(#f1j3a5ci4vcs9z)" height="79.835" id="CatalogoServico" style="stroke:#A80036;stroke-width:1.6800000000000002;" width="136.64" x="430.08" y="607.04"/><ellipse cx="446.88" cy="637.9975" fill="#ADD1B2" rx="12.32" ry="12.32" style="stroke:#A80036;stroke-width:1.12;"/><path d="M449.12,634.0775 Q449.3475,633.5175 449.61,633.2375 Q449.8725,632.9575 450.17,632.9575 Q450.695,632.9575 451.0275,633.2725 Q451.36,633.5875 451.36,634.3225 L451.36,636.0725 Q451.36,636.8075 451.045,637.1225 Q450.73,637.4375 450.24,637.4375 Q449.8025,637.4375 449.5225,637.245 Q449.2425,637.0525 449.12,636.545 Q449.0675,636.195 448.875,636.0025 Q448.525,635.635 447.895,635.425 Q447.265,635.1975 446.635,635.1975 Q445.8475,635.1975 445.1825,635.5125 Q444.535,635.8275 444.0275,636.5275 Q443.52,637.2275 443.52,638.19 L443.52,639.2225 Q443.52,640.3775 444.465,641.1475 Q445.41,641.9175 447.09,641.9175 Q448.0875,641.9175 448.7875,641.69 Q449.19,641.5675 449.645,641.165 Q449.9425,640.9375 450.1,640.8675 Q450.2575,640.7975 450.45,640.7975 Q450.8175,640.7975 451.08,641.095 Q451.36,641.375 451.36,641.7775 Q451.36,642.1625 450.975,642.6175 Q450.415,643.2825 449.5225,643.65 Q448.35,644.1575 446.915,644.1575 Q445.235,644.1575 443.8875,643.4925 Q442.8025,642.9675 442.0325,641.83 Q441.28,640.6925 441.28,639.345 L441.28,638.12 Q441.28,636.72 441.945,635.495 Q442.6275,634.27 443.8,633.6225 Q444.99,632.9575 446.32,632.9575 Q447.125,632.9575 447.825,633.2375 Q448.525,633.5175 449.12,634.0775 Z " fill="#000000"/><text fill="#000000" font-family="sans-serif" font-size="13.44" font-style="italic" lengthAdjust="spacing" textLength="62.72" x="481.6" y="626.5919">«domain»</text><text fill="#000000" font-family="sans-serif" font-size="13.44" font-style="italic" lengthAdjust="spacing" textLength="48.16" x="488.88" y="643.4969">«entity»</text><text fill="#000000" font-family="sans-serif" font-size="13.44" lengthAdjust="spacing" textLength="100.8" x="462.56" y="660.4019">CatalogoServico</text><line style="stroke:#A80036;stroke-width:1.6800000000000002;" x1="431.2" x2="565.6" y1="668.955" y2="668.955"/><line style="stroke:#A80036;stroke-width:1.6800000000000002;" x1="431.2" x2="565.6" y1="677.915" y2="677.915"/><!--MD5=[27d68ca6942f4cd6fac36edad7c7d0b7]
class FicheiroServico--><rect codeLine="43" fill="#FEFECE" filter="url(#f1j3a5ci4vcs9z)" height="79.835" id="FicheiroServico" style="stroke:#A80036;stroke-width:1.6800000000000002;" width="129.92" x="1252.16" y="392"/><ellipse cx="1268.96" cy="422.9575" fill="#ADD1B2" rx="12.32" ry="12.32" style="stroke:#A80036;stroke-width:1.12;"/><path d="M1271.2,419.0375 Q1271.4275,418.4775 1271.69,418.1975 Q1271.9525,417.9175 1272.25,417.9175 Q1272.775,417.9175 1273.1075,418.2325 Q1273.44,418.5475 1273.44,419.2825 L1273.44,421.0325 Q1273.44,421.7675 1273.125,422.0825 Q1272.81,422.3975 1272.32,422.3975 Q1271.8825,422.3975 1271.6025,422.205 Q1271.3225,422.0125 1271.2,421.505 Q1271.1475,421.155 1270.955,420.9625 Q1270.605,420.595 1269.975,420.385 Q1269.345,420.1575 1268.715,420.1575 Q1267.9275,420.1575 1267.2625,420.4725 Q1266.615,420.7875 1266.1075,421.4875 Q1265.6,422.1875 1265.6,423.15 L1265.6,424.1825 Q1265.6,425.3375 1266.545,426.1075 Q1267.49,426.8775 1269.17,426.8775 Q1270.1675,426.8775 1270.8675,426.65 Q1271.27,426.5275 1271.725,426.125 Q1272.0225,425.8975 1272.18,425.8275 Q1272.3375,425.7575 1272.53,425.7575 Q1272.8975,425.7575 1273.16,426.055 Q1273.44,426.335 1273.44,426.7375 Q1273.44,427.1225 1273.055,427.5775 Q1272.495,428.2425 1271.6025,428.61 Q1270.43,429.1175 1268.995,429.1175 Q1267.315,429.1175 1265.9675,428.4525 Q1264.8825,427.9275 1264.1125,426.79 Q1263.36,425.6525 1263.36,424.305 L1263.36,423.08 Q1263.36,421.68 1264.025,420.455 Q1264.7075,419.23 1265.88,418.5825 Q1267.07,417.9175 1268.4,417.9175 Q1269.205,417.9175 1269.905,418.1975 Q1270.605,418.4775 1271.2,419.0375 Z " fill="#000000"/><text fill="#000000" font-family="sans-serif" font-size="13.44" font-style="italic" lengthAdjust="spacing" textLength="62.72" x="1300.32" y="411.5519">«domain»</text><text fill="#000000" font-family="sans-serif" font-size="13.44" font-style="italic" lengthAdjust="spacing" textLength="89.6" x="1286.88" y="428.4569">«valueObject»</text><text fill="#000000" font-family="sans-serif" font-size="13.44" lengthAdjust="spacing" textLength="94.08" x="1284.64" y="445.3619">FicheiroServico</text><line style="stroke:#A80036;stroke-width:1.6800000000000002;" x1="1253.28" x2="1380.96" y1="453.915" y2="453.915"/><line style="stroke:#A80036;stroke-width:1.6800000000000002;" x1="1253.28" x2="1380.96" y1="462.875" y2="462.875"/><!--MD5=[faf4d635eea35b16677487bac6ad9bf5]
class Servico--><rect codeLine="47" fill="#FEFECE" filter="url(#f1j3a5ci4vcs9z)" height="79.835" id="Servico" style="stroke:#A80036;stroke-width:1.6800000000000002;" width="94.08" x="786.24" y="607.04"/><ellipse cx="803.04" cy="637.9975" fill="#ADD1B2" rx="12.32" ry="12.32" style="stroke:#A80036;stroke-width:1.12;"/><path d="M805.28,634.0775 Q805.5075,633.5175 805.77,633.2375 Q806.0325,632.9575 806.33,632.9575 Q806.855,632.9575 807.1875,633.2725 Q807.52,633.5875 807.52,634.3225 L807.52,636.0725 Q807.52,636.8075 807.205,637.1225 Q806.89,637.4375 806.4,637.4375 Q805.9625,637.4375 805.6825,637.245 Q805.4025,637.0525 805.28,636.545 Q805.2275,636.195 805.035,636.0025 Q804.685,635.635 804.055,635.425 Q803.425,635.1975 802.795,635.1975 Q802.0075,635.1975 801.3425,635.5125 Q800.695,635.8275 800.1875,636.5275 Q799.68,637.2275 799.68,638.19 L799.68,639.2225 Q799.68,640.3775 800.625,641.1475 Q801.57,641.9175 803.25,641.9175 Q804.2475,641.9175 804.9475,641.69 Q805.35,641.5675 805.805,641.165 Q806.1025,640.9375 806.26,640.8675 Q806.4175,640.7975 806.61,640.7975 Q806.9775,640.7975 807.24,641.095 Q807.52,641.375 807.52,641.7775 Q807.52,642.1625 807.135,642.6175 Q806.575,643.2825 805.6825,643.65 Q804.51,644.1575 803.075,644.1575 Q801.395,644.1575 800.0475,643.4925 Q798.9625,642.9675 798.1925,641.83 Q797.44,640.6925 797.44,639.345 L797.44,638.12 Q797.44,636.72 798.105,635.495 Q798.7875,634.27 799.96,633.6225 Q801.15,632.9575 802.48,632.9575 Q803.285,632.9575 803.985,633.2375 Q804.685,633.5175 805.28,634.0775 Z " fill="#000000"/><text fill="#000000" font-family="sans-serif" font-size="13.44" font-style="italic" lengthAdjust="spacing" textLength="62.72" x="816.48" y="626.5919">«domain»</text><text fill="#000000" font-family="sans-serif" font-size="13.44" font-style="italic" lengthAdjust="spacing" textLength="48.16" x="823.76" y="643.4969">«entity»</text><text fill="#000000" font-family="sans-serif" font-size="13.44" lengthAdjust="spacing" textLength="44.8" x="825.44" y="660.4019">Servico</text><line style="stroke:#A80036;stroke-width:1.6800000000000002;" x1="787.36" x2="879.2" y1="668.955" y2="668.955"/><line style="stroke:#A80036;stroke-width:1.6800000000000002;" x1="787.36" x2="879.2" y1="677.915" y2="677.915"/><!--MD5=[6e9a56ed9eafdc318b8959c8a1e4566d]
link CatalogoServicoBootstrapper to AdicionarCatalogoServicoController--><path codeLine="52" d="M410.536,101.9536 C438.312,121.0944 471.3968,143.8976 502.9584,165.6368 " fill="none" id="CatalogoServicoBootstrapper-to-AdicionarCatalogoServicoController" style="stroke:#A80036;stroke-width:1.12;"/><polygon fill="#A80036" points="507.5952,168.8288,501.8491,159.4129,502.988,165.6454,496.7556,166.7844,507.5952,168.8288" style="stroke:#A80036;stroke-width:1.12;"/><!--MD5=[a6b0af6f3f9010df69ffce3f4ea8e053]
link CatalogoServicoBootstrapper to CatalogoServicoDTO--><path codeLine="53" d="M322.28,101.9424 C286.7984,177.5424 216.832,326.592 184.7664,394.912 " fill="none" id="CatalogoServicoBootstrapper-to-CatalogoServicoDTO" style="stroke:#A80036;stroke-width:1.12;stroke-dasharray:7.0,7.0;"/><polygon fill="#A80036" points="182.3472,400.0864,190.6708,392.848,184.7162,395.0122,182.5521,389.0576,182.3472,400.0864" style="stroke:#A80036;stroke-width:1.12;"/><!--MD5=[623b21d84a1dca860da3a76b57f0e202]
link CatalogoServicoBootstrapper to ServicoDTO--><path codeLine="54" d="M343.84,101.9424 C343.84,177.24 343.84,325.4048 343.84,394.0832 " fill="none" id="CatalogoServicoBootstrapper-to-ServicoDTO" style="stroke:#A80036;stroke-width:1.12;stroke-dasharray:7.0,7.0;"/><polygon fill="#A80036" points="343.84,400.0864,348.32,390.0064,343.84,394.4864,339.36,390.0064,343.84,400.0864" style="stroke:#A80036;stroke-width:1.12;"/><!--MD5=[fc1e72d3759314f043f1b027252b18ef]
link AdicionarCatalogoServicoController to CatalogoServicoDTO--><path codeLine="56" d="M429.576,324.8448 C366.3072,350.4368 299.1744,377.5856 248.7632,397.9696 " fill="none" id="AdicionarCatalogoServicoController-to-CatalogoServicoDTO" style="stroke:#A80036;stroke-width:1.12;stroke-dasharray:7.0,7.0;"/><polygon fill="#A80036" points="243.32,400.176,254.3439,400.5627,248.5139,398.0824,250.9942,392.2524,243.32,400.176" style="stroke:#A80036;stroke-width:1.12;"/><!--MD5=[21b73bb15298a241206070b22bf33d52]
link AdicionarCatalogoServicoController to ServicoDTO--><path codeLine="57" d="M503.3168,324.968 C465.3376,350.1344 425.1184,376.7904 394.5648,397.0288 " fill="none" id="AdicionarCatalogoServicoController-to-ServicoDTO" style="stroke:#A80036;stroke-width:1.12;stroke-dasharray:7.0,7.0;"/><polygon fill="#A80036" points="389.7376,400.2208,400.617,398.4001,394.4094,397.133,395.6765,390.9253,389.7376,400.2208" style="stroke:#A80036;stroke-width:1.12;"/><!--MD5=[48c2e2e9c7f3b4813fcae5459ff5798c]
link AdicionarCatalogoServicoController to CatalogoServicoRepository--><path codeLine="58" d="M619.36,324.968 C619.36,345.9904 619.36,368.0544 619.36,386.5456 " fill="none" id="AdicionarCatalogoServicoController-to-CatalogoServicoRepository" style="stroke:#A80036;stroke-width:1.12;"/><polygon fill="#A80036" points="619.36,392.168,623.84,382.088,619.36,386.568,614.88,382.088,619.36,392.168" style="stroke:#A80036;stroke-width:1.12;"/><!--MD5=[2ee7f462032497ddfde60154d04388cf]
link AdicionarCatalogoServicoController to ServicoRepository--><path codeLine="59" d="M743.4224,324.968 C779.0944,347.0768 816.6256,370.3392 847.3696,389.3904 " fill="none" id="AdicionarCatalogoServicoController-to-ServicoRepository" style="stroke:#A80036;stroke-width:1.12;"/><polygon fill="#A80036" points="852.2416,392.4144,846.0322,383.2974,847.4811,389.4652,841.3134,390.9141,852.2416,392.4144" style="stroke:#A80036;stroke-width:1.12;"/><!--MD5=[0985c19d240d096a738eea4f3f4a7e08]
link AdicionarCatalogoServicoController to CatalogoServico--><path codeLine="60" d="M538.1936,324.9792 C521.9424,345.0832 507.1696,367.9312 498.4,392 C473.0096,461.664 481.0176,549.4272 489.4736,601.3392 " fill="none" id="AdicionarCatalogoServicoController-to-CatalogoServico" style="stroke:#A80036;stroke-width:1.12;"/><polygon fill="#A80036" points="490.4032,606.872,493.15,596.1888,489.4748,601.3495,484.314,597.6742,490.4032,606.872" style="stroke:#A80036;stroke-width:1.12;"/><!--MD5=[cccd6702d5f07813be31931445c6f1d6]
link AdicionarCatalogoServicoController to Servico--><path codeLine="61" d="M692.44,325.0688 C709.6768,345.7552 726.9024,368.8384 740.32,392 C780.024,460.5328 807.7888,549.0128 822.1024,601.3168 " fill="none" id="AdicionarCatalogoServicoController-to-Servico" style="stroke:#A80036;stroke-width:1.12;"/><polygon fill="#A80036" points="823.6032,606.8944,825.3086,595.9963,822.1473,601.487,816.6567,598.3257,823.6032,606.8944" style="stroke:#A80036;stroke-width:1.12;"/><!--MD5=[d0fd7586ed73b80d95ff59cd0ceb9083]
link AdicionarCatalogoServicoController to FicheiroCatalogoServico--><path codeLine="62" d="M829.864,324.8448 C896.3024,349.0704 966.5936,374.696 1021.3392,394.6656 " fill="none" id="AdicionarCatalogoServicoController-to-FicheiroCatalogoServico" style="stroke:#A80036;stroke-width:1.12;"/><polygon fill="#A80036" points="1026.928,396.704,1018.9934,389.0412,1021.667,394.7851,1015.9231,397.4588,1026.928,396.704" style="stroke:#A80036;stroke-width:1.12;"/><!--MD5=[8c65451bdef31a0585b8190a19d0ccf2]
link AdicionarCatalogoServicoController to FicheiroServico--><path codeLine="63" d="M834.6688,287.5264 C953.7696,312.0768 1103.4688,347.48 1233.12,392 C1237.5888,393.5344 1242.1472,395.2256 1246.7168,397.0288 " fill="none" id="AdicionarCatalogoServicoController-to-FicheiroServico" style="stroke:#A80036;stroke-width:1.12;"/><polygon fill="#A80036" points="1252.0704,399.1792,1244.3962,391.2556,1246.8765,397.0856,1241.0465,399.5659,1252.0704,399.1792" style="stroke:#A80036;stroke-width:1.12;"/><!--MD5=[58eb7d4428032acd3effb69de6d5dc08]
link CatalogoServicoRepository to CatalogoServico--><path codeLine="65" d="M597.4528,471.4192 C576.6096,508.0992 545.2608,563.248 523.432,601.6416 " fill="none" id="CatalogoServicoRepository-to-CatalogoServico" style="stroke:#A80036;stroke-width:1.12;stroke-dasharray:7.0,7.0;"/><polygon fill="#A80036" points="520.5536,606.7152,529.4328,600.1703,523.3234,601.8481,521.6455,595.7387,520.5536,606.7152" style="stroke:#A80036;stroke-width:1.12;"/><!--MD5=[dfb084a615439c9ae1d6a169a0559ddc]
link ServicoRepository to Servico--><path codeLine="66" d="M899.3152,471.4192 C885.472,507.9424 864.6848,562.7888 850.1472,601.1712 " fill="none" id="ServicoRepository-to-Servico" style="stroke:#A80036;stroke-width:1.12;stroke-dasharray:7.0,7.0;"/><polygon fill="#A80036" points="848.0416,606.7152,855.8046,598.8786,850.0272,601.479,847.4267,595.7016,848.0416,606.7152" style="stroke:#A80036;stroke-width:1.12;"/><!--MD5=[2be11077ad6461a31543034a90163f16]
@startuml
'https://plantuml.com/use-case-diagram

class CatalogoServicoBootstrapper <<presentation>>{
    registarCatalogoServico(identificador,descBreve,descCompleta,icone,titulo,criteriosAcesso,ColaboradorResponsavel,null)
    registarServico(codigoUnico,tituloServico,keyWords,icone,descBreve,descCompleta)
}


class AdicionarCatalogoServicoController <<application>>{
    adicionarCatalogoServico(catalogoServicoDTO)
    extrairConteudoFicheiroCatalogoServico(caminhoFicheiroCatalogoServico)
    determinarFormatoFicheiroCatalogoServico(caminhoFicheiroCatalogoServico)
    adicionarServico(servicoDTO)
    extrairConteudoFicheiroServico(caminhoFicheiroServico)
    determinarFormatoFicheiroServico(caminhoFicheiroServico)
}


class CatalogoServicoDTO <<DTO>>{

}

class ServicoDTO <<DTO>>{

}

class CatalogoServicoRepository <<repository>>{
    save(novoCatalogoServico)
}

class ServicoRepository <<repository>>{
    save(novoServico)
}

class FicheiroCatalogoServico <<domain>> <<valueObject>> {

}

class CatalogoServico <<domain>> <<entity>> {

}

class FicheiroServico <<domain>> <<valueObject>> {

}

class Servico <<domain>> <<entity>> {

}


CatalogoServicoBootstrapper - -> AdicionarCatalogoServicoController
CatalogoServicoBootstrapper ..> CatalogoServicoDTO
CatalogoServicoBootstrapper ..> ServicoDTO

AdicionarCatalogoServicoController ..> CatalogoServicoDTO
AdicionarCatalogoServicoController ..> ServicoDTO
AdicionarCatalogoServicoController - -> CatalogoServicoRepository
AdicionarCatalogoServicoController - -> ServicoRepository
AdicionarCatalogoServicoController - -> CatalogoServico
AdicionarCatalogoServicoController - -> Servico
AdicionarCatalogoServicoController - -> FicheiroCatalogoServico
AdicionarCatalogoServicoController - -> FicheiroServico

CatalogoServicoRepository ...> CatalogoServico
ServicoRepository ...> Servico


@enduml

@startuml

class CatalogoServicoBootstrapper <<presentation>>{
    registarCatalogoServico(identificador,descBreve,descCompleta,icone,titulo,criteriosAcesso,ColaboradorResponsavel,null)
    registarServico(codigoUnico,tituloServico,keyWords,icone,descBreve,descCompleta)
}


class AdicionarCatalogoServicoController <<application>>{
    adicionarCatalogoServico(catalogoServicoDTO)
    extrairConteudoFicheiroCatalogoServico(caminhoFicheiroCatalogoServico)
    determinarFormatoFicheiroCatalogoServico(caminhoFicheiroCatalogoServico)
    adicionarServico(servicoDTO)
    extrairConteudoFicheiroServico(caminhoFicheiroServico)
    determinarFormatoFicheiroServico(caminhoFicheiroServico)
}


class CatalogoServicoDTO <<DTO>>{

}

class ServicoDTO <<DTO>>{

}

class CatalogoServicoRepository <<repository>>{
    save(novoCatalogoServico)
}

class ServicoRepository <<repository>>{
    save(novoServico)
}

class FicheiroCatalogoServico <<domain>> <<valueObject>> {

}

class CatalogoServico <<domain>> <<entity>> {

}

class FicheiroServico <<domain>> <<valueObject>> {

}

class Servico <<domain>> <<entity>> {

}


CatalogoServicoBootstrapper - -> AdicionarCatalogoServicoController
CatalogoServicoBootstrapper ..> CatalogoServicoDTO
CatalogoServicoBootstrapper ..> ServicoDTO

AdicionarCatalogoServicoController ..> CatalogoServicoDTO
AdicionarCatalogoServicoController ..> ServicoDTO
AdicionarCatalogoServicoController - -> CatalogoServicoRepository
AdicionarCatalogoServicoController - -> ServicoRepository
AdicionarCatalogoServicoController - -> CatalogoServico
AdicionarCatalogoServicoController - -> Servico
AdicionarCatalogoServicoController - -> FicheiroCatalogoServico
AdicionarCatalogoServicoController - -> FicheiroServico

CatalogoServicoRepository ...> CatalogoServico
ServicoRepository ...> Servico


@enduml

PlantUML version 1.2021.5(Sun Apr 25 12:20:28 BST 2021)
(GPL source distribution)
Java Runtime: OpenJDK Runtime Environment
JVM: Dynamic Code Evolution 64-Bit Server VM
Default Encoding: Cp1252
Language: pt
Country: PT
--></g></svg>