<?xml version="1.0" encoding="UTF-8" standalone="no"?><svg xmlns="http://www.w3.org/2000/svg" xmlns:xlink="http://www.w3.org/1999/xlink" contentScriptType="application/ecmascript" contentStyleType="text/css" height="1111.25px" preserveAspectRatio="none" style="width:2125px;height:1111px;background:#FFFFFF;" version="1.1" viewBox="0 0 2125 1111" width="2125px" zoomAndPan="magnify"><defs/><g><polygon fill="#FFFFFF" points="548.75,225.8301,548.75,225.9177,551.25,225.6574,553.75,225.9106,556.25,225.9966,558.75,225.5328,561.25,225.8301,561.1529,225.8301,560.7169,238.2764,560.7706,250.7228,561.1648,263.1692,560.3858,275.6156,561.9421,288.0619,560.4621,300.5083,561.0028,312.9547,561.7899,325.401,561.1428,337.8474,561.3353,350.2938,561.2101,362.7401,561.4732,375.1865,561.5489,387.6329,561.9821,400.0792,562.0888,412.5256,562.0991,424.972,561.5683,437.4184,561.8295,449.8647,562.1278,462.3111,560.3485,474.7575,562.0981,487.2038,560.8794,499.6502,561.9173,512.0966,560.6312,524.5429,561.1644,536.9893,562.177,549.4357,561.1891,561.882,561.3816,574.3284,561.6733,586.7748,561.7703,599.2212,561.2451,611.6675,561.609,624.1139,560.5345,636.5603,561.6055,649.0066,561.9352,661.453,561.8057,673.8994,562.0163,686.3457,560.6461,698.7921,560.4348,711.2385,560.4732,723.6848,561.1764,736.1312,561.0043,748.5776,562.1018,761.0239,561.0317,773.4703,560.8212,785.9167,561.5353,798.3631,560.4165,810.8094,560.6011,823.2558,562.0612,835.7022,561.7946,848.1485,562.1681,860.5949,560.8478,873.0413,561.649,885.4876,561.988,897.934,560.6595,910.3804,561.1302,922.8267,561.4075,935.2731,562.0647,947.7195,561.2448,960.1659,561.8282,972.6122,561.25,985.0586,561.25,984.8278,558.75,984.7764,556.25,985.2684,553.75,984.7599,551.25,985.2707,548.75,985.0586,549.0083,985.0586,548.4151,972.6122,548.3078,960.1659,549.3234,947.7195,548.3758,935.2731,549.4898,922.8267,548.0591,910.3804,549.5218,897.934,549.3554,885.4876,549.0562,873.0413,548.809,860.5949,549.6583,848.1485,549.517,835.7022,548.9616,823.2558,549.0852,810.8094,548.5872,798.3631,549.6456,785.9167,548.9436,773.4703,548.9657,761.0239,547.9896,748.5776,548.2435,736.1312,549.4134,723.6848,549.2872,711.2385,548.6963,698.7921,548.3473,686.3457,548.4763,673.8994,547.8923,661.453,549.2684,649.0066,549.6745,636.5603,549.408,624.1139,549.6187,611.6675,548.5791,599.2212,548.859,586.7748,548.2655,574.3284,549.1051,561.882,549.0585,549.4357,549.4405,536.9893,548.4629,524.5429,548.582,512.0966,549.3043,499.6502,549.4592,487.2038,548.1093,474.7575,548.5076,462.3111,548.9366,449.8647,547.9864,437.4184,549.1917,424.972,549.0725,412.5256,548.624,400.0792,548.9278,387.6329,549.6608,375.1865,548.3589,362.7401,549.1437,350.2938,549.1071,337.8474,548.8947,325.401,548.9262,312.9547,548.8918,300.5083,547.9698,288.0619,548.249,275.6156,548.1731,263.1692,548.8298,250.7228,548.8602,238.2764,548.75,225.8301" style="stroke:#383838;stroke-width:1.25;"/><polygon fill="#FFFFFF" points="1111.25,179.1406,1111.25,179.2282,1113.75,178.968,1116.25,179.2212,1118.75,179.3072,1121.25,178.8434,1123.75,179.1406,1123.6529,179.1406,1123.2169,191.7331,1123.2706,204.3256,1123.6648,216.918,1122.8858,229.5105,1124.4421,242.103,1122.9621,254.6954,1123.5028,267.2879,1124.2899,279.8804,1123.6428,292.4728,1123.8353,305.0653,1123.7101,317.6578,1123.9732,330.2502,1124.0489,342.8427,1124.4821,355.4352,1124.5888,368.0276,1124.5991,380.6201,1124.0683,393.2126,1124.3295,405.8051,1124.6278,418.3975,1122.8485,430.99,1124.5981,443.5825,1123.3794,456.1749,1124.4173,468.7674,1123.1312,481.3599,1123.6644,493.9523,1124.677,506.5448,1123.6891,519.1373,1123.8816,531.7297,1124.1733,544.3222,1124.2703,556.9147,1123.7451,569.5071,1124.109,582.0996,1123.0345,594.6921,1124.1055,607.2845,1124.4352,619.877,1124.3057,632.4695,1124.5163,645.062,1123.1461,657.6544,1122.9348,670.2469,1122.9732,682.8394,1123.6764,695.4318,1123.5043,708.0243,1124.6018,720.6168,1123.5317,733.2092,1123.3212,745.8017,1124.0353,758.3942,1122.9165,770.9866,1123.1011,783.5791,1124.5612,796.1716,1124.2946,808.764,1124.6681,821.3565,1123.3478,833.949,1124.149,846.5414,1124.488,859.1339,1123.1595,871.7264,1123.6302,884.3188,1123.9075,896.9113,1124.5647,909.5038,1123.7448,922.0963,1124.3282,934.6887,1123.0578,947.2812,1122.9034,959.8737,1124.3795,972.4661,1123.75,985.0586,1123.75,984.7599,1121.25,985.2707,1118.75,985.1447,1116.25,984.947,1113.75,984.9112,1111.25,985.0586,1111.8234,985.0586,1110.8758,972.4661,1111.9898,959.8737,1110.5591,947.2812,1112.0218,934.6887,1111.8554,922.0963,1111.5562,909.5038,1111.309,896.9113,1112.1583,884.3188,1112.017,871.7264,1111.4616,859.1339,1111.5852,846.5414,1111.0872,833.949,1112.1456,821.3565,1111.4436,808.764,1111.4657,796.1716,1110.4896,783.5791,1110.7435,770.9866,1111.9134,758.3942,1111.7872,745.8017,1111.1963,733.2092,1110.8473,720.6168,1110.9763,708.0243,1110.3923,695.4318,1111.7684,682.8394,1112.1745,670.2469,1111.908,657.6544,1112.1187,645.062,1111.0791,632.4695,1111.359,619.877,1110.7655,607.2845,1111.6051,594.6921,1111.5585,582.0996,1111.9405,569.5071,1110.9629,556.9147,1111.082,544.3222,1111.8043,531.7297,1111.9592,519.1373,1110.6093,506.5448,1111.0076,493.9523,1111.4366,481.3599,1110.4864,468.7674,1111.6917,456.1749,1111.5725,443.5825,1111.124,430.99,1111.4278,418.3975,1112.1608,405.8051,1110.8589,393.2126,1111.6437,380.6201,1111.6071,368.0276,1111.3947,355.4352,1111.4262,342.8427,1111.3918,330.2502,1110.4698,317.6578,1110.749,305.0653,1110.6731,292.4728,1111.3298,279.8804,1111.3602,267.2879,1111.4522,254.6954,1110.8863,242.103,1111.1656,229.5105,1111.0997,216.918,1111.9711,204.3256,1111.7832,191.7331,1111.25,179.1406" style="stroke:#383838;stroke-width:1.25;"/><polygon fill="#FFFFFF" points="1453.125,301.709,1453.125,301.7966,1455.625,301.5364,1458.125,301.7895,1460.625,301.8755,1463.125,301.4117,1465.625,301.709,1465.5279,301.709,1465.0919,313.8408,1465.1456,325.9727,1465.5398,338.1045,1464.7608,350.2363,1466.3171,362.3682,1464.8371,374.5,1465.3778,386.6318,1466.1649,398.7637,1465.5178,410.8955,1465.625,423.0273,1465.625,423.0558,1463.125,423.014,1460.625,423.1017,1458.125,423.127,1455.625,423.2714,1453.125,423.0273,1453.9638,423.0273,1453.9741,410.8955,1453.4433,398.7637,1453.7045,386.6318,1454.0028,374.5,1452.2235,362.3682,1453.9731,350.2363,1452.7544,338.1045,1453.7923,325.9727,1452.5062,313.8408,1453.125,301.709" style="stroke:#383838;stroke-width:1.25;"/><polygon fill="#FFFFFF" points="1631.875,385.0879,1631.875,385.1755,1634.375,384.9153,1636.875,385.1684,1639.375,385.2544,1641.875,384.7906,1644.375,385.0879,1644.2779,385.0879,1643.8419,397.6978,1643.8956,410.3076,1644.2898,422.9175,1643.5108,435.5273,1645.0671,448.1372,1643.5871,460.7471,1644.1278,473.3569,1644.9149,485.9668,1644.2678,498.5767,1644.4603,511.1865,1644.3351,523.7964,1644.375,536.4063,1644.375,536.4806,1641.875,536.5059,1639.375,536.6503,1636.875,536.6859,1634.375,536.6893,1631.875,536.4063,1632.1933,536.4063,1632.4545,523.7964,1632.7528,511.1865,1630.9735,498.5767,1632.7231,485.9668,1631.5044,473.3569,1632.5423,460.7471,1631.2562,448.1372,1631.7894,435.5273,1632.802,422.9175,1631.8141,410.3076,1632.0066,397.6978,1631.875,385.0879" style="stroke:#383838;stroke-width:1.25;"/><polygon fill="#FFFFFF" points="1804.375,498.9063,1804.375,498.9938,1806.875,498.7336,1809.375,498.9868,1811.875,499.0728,1814.375,498.609,1816.875,498.9063,1816.7779,498.9063,1816.3419,511.3661,1816.3956,523.8259,1816.7898,536.2857,1816.0108,548.7455,1817.5671,561.2053,1816.0871,573.6651,1816.6278,586.1249,1817.4149,598.5847,1816.7678,611.0445,1816.9603,623.5044,1816.8351,635.9642,1817.0982,648.424,1817.1739,660.8838,1817.6071,673.3436,1817.7138,685.8034,1817.7241,698.2632,1817.1933,710.723,1817.4545,723.1828,1817.7528,735.6427,1815.9735,748.1025,1817.7231,760.5623,1816.5044,773.0221,1817.5423,785.4819,1816.2562,797.9417,1816.7894,810.4015,1816.875,822.8613,1816.875,823.1703,1814.375,822.841,1811.875,822.9052,1809.375,823.0024,1806.875,823.0348,1804.375,822.8613,1804.3701,822.8613,1804.734,810.4015,1803.6595,797.9417,1804.7305,785.4819,1805.0602,773.0221,1804.9307,760.5623,1805.1413,748.1025,1803.7711,735.6427,1803.5598,723.1828,1803.5982,710.723,1804.3014,698.2632,1804.1293,685.8034,1805.2268,673.3436,1804.1567,660.8838,1803.9462,648.424,1804.6603,635.9642,1803.5415,623.5044,1803.7261,611.0445,1805.1862,598.5847,1804.9196,586.1249,1805.2931,573.6651,1803.9728,561.2053,1804.774,548.7455,1805.113,536.2857,1803.7845,523.8259,1804.2552,511.3661,1804.375,498.9063" style="stroke:#383838;stroke-width:1.25;"/><polygon fill="#FFFFFF" points="660.625,128.2617,660.625,128.5244,673.125,127.7438,685.625,128.5033,698.125,128.7613,710.625,127.37,723.125,128.1646,735.625,127.7286,748.125,127.7823,760.625,128.1765,773.125,127.3975,785.625,128.9538,798.125,127.4739,810.625,128.0145,823.125,128.8017,835.625,128.1545,848.125,128.347,860.625,128.2218,873.125,128.4849,885.625,128.5606,898.125,128.9938,910.625,129.1005,923.125,129.1108,935.625,128.58,948.125,128.8412,960.625,129.1395,973.125,127.3602,985.625,129.1099,998.125,127.8911,1010.625,128.929,1023.125,127.6429,1035.625,128.1761,1048.125,129.1887,1060.625,128.2008,1073.125,128.3933,1085.625,128.685,1098.125,128.782,1110.625,128.2568,1123.125,128.6207,1135.625,127.5462,1148.125,128.6172,1160.625,128.947,1173.125,128.8174,1185.625,129.028,1198.125,127.6579,1210.625,127.4465,1223.125,127.485,1235.625,128.1881,1248.125,128.0161,1260.625,129.1135,1273.125,128.0434,1285.625,127.8329,1298.125,128.5471,1310.625,127.4282,1323.125,127.6128,1335.625,129.0729,1348.125,128.8063,1360.625,129.1798,1373.125,128.2617,1372.7228,128.2617,1373.524,140.4375,1373.863,152.6133,1372.5345,164.7891,1373.0052,176.9648,1373.125,189.1406,1373.125,189.2981,1360.625,189.9553,1348.125,189.1354,1335.625,189.7188,1323.125,188.4484,1310.625,188.2941,1298.125,189.7701,1285.625,188.2444,1273.125,189.7768,1260.625,189.3989,1248.125,188.8057,1235.625,188.6984,1223.125,189.7141,1210.625,188.7665,1198.125,189.8805,1185.625,188.4497,1173.125,189.9124,1160.625,189.746,1148.125,189.4468,1135.625,189.1996,1123.125,190.0489,1110.625,189.9076,1098.125,189.3522,1085.625,189.4759,1073.125,188.9778,1060.625,190.0362,1048.125,189.3342,1035.625,189.3563,1023.125,188.3802,1010.625,188.6341,998.125,189.8041,985.625,189.6778,973.125,189.087,960.625,188.7379,948.125,188.867,935.625,188.2829,923.125,189.659,910.625,190.0651,898.125,189.7986,885.625,190.0093,873.125,188.9697,860.625,189.2497,848.125,188.6561,835.625,189.4957,823.125,189.4491,810.625,189.8311,798.125,188.8536,785.625,188.9726,773.125,189.695,760.625,189.8498,748.125,188.5,735.625,188.8983,723.125,189.3272,710.625,188.3771,698.125,189.5824,685.625,189.4631,673.125,189.0147,660.625,189.1406,660.8028,189.1406,661.5358,176.9648,660.2339,164.7891,661.0187,152.6133,660.9821,140.4375,660.625,128.2617" style="stroke:#000000;stroke-width:2.5;"/><path d="M137.5,107.0117 L137.8503,107.0117 L136.8095,119.5193 L137.8221,132.0269 L138.1661,144.5345 L136.311,157.0421 L137.3705,169.5497 L136.7892,182.0573 L136.8608,194.5649 L137.3864,207.0725 L136.3477,219.5801 L138.4227,232.0877 L136.4495,244.5953 L137.1704,257.1029 L138.2199,269.6105 L137.357,282.1181 L137.6137,294.6257 L137.4468,307.1332 L137.7975,319.6408 L137.8986,332.1484 L138.4761,344.656 L138.6184,357.1636 L138.6321,369.6712 L137.9244,382.1788 L138.2726,394.6864 L138.6704,407.194 L136.298,419.7016 L138.6309,432.2092 L137.0058,444.7168 L138.3897,457.2244 L136.675,469.732 L137.3858,482.2396 L138.736,494.7472 L137.4188,507.2548 L137.6755,519.7624 L138.0644,532.27 L138.1937,544.7776 L137.4935,557.2852 L137.9787,569.7928 L136.546,582.3003 L137.974,594.8079 L138.4137,607.3155 L138.2409,619.8231 L138.5217,632.3307 L136.6949,644.8383 L136.413,657.3459 L136.4643,669.8535 L137.4019,682.3611 L137.1725,694.8687 L138.6357,707.3763 L137.2089,719.8839 L136.9282,732.3915 L137.8804,744.8991 L136.3886,757.4067 L136.6348,769.9143 L138.5816,782.4219 L138.2261,794.9295 L138.7242,807.4371 L136.9637,819.9447 L138.032,832.4523 L138.484,844.9599 L136.7127,857.4674 L137.3402,869.975 L137.71,882.4826 L138.5863,894.9902 L137.493,907.4978 L138.2709,920.0054 L136.577,932.513 L136.3712,945.0206 L138.3394,957.5282 L136.3051,970.0358 L138.3483,982.5434 L137.8444,995.051 L137.5,1007.5586 " fill="none" style="stroke:#383838;stroke-width:1.25;stroke-dasharray:5.0,5.0;"/><path d="M554.375,107.0117 L554.7253,107.0117 L553.6845,119.5193 L554.6971,132.0269 L555.0411,144.5345 L553.186,157.0421 L554.2455,169.5497 L553.6642,182.0573 L553.7358,194.5649 L554.2614,207.0725 L553.2227,219.5801 L555.2977,232.0877 L553.3245,244.5953 L554.0454,257.1029 L555.0949,269.6105 L554.232,282.1181 L554.4887,294.6257 L554.3218,307.1332 L554.6725,319.6408 L554.7736,332.1484 L555.3511,344.656 L555.4934,357.1636 L555.5071,369.6712 L554.7994,382.1788 L555.1476,394.6864 L555.5454,407.194 L553.173,419.7016 L555.5059,432.2092 L553.8808,444.7168 L555.2647,457.2244 L553.55,469.732 L554.2608,482.2396 L555.611,494.7472 L554.2938,507.2548 L554.5505,519.7624 L554.9394,532.27 L555.0687,544.7776 L554.3685,557.2852 L554.8537,569.7928 L553.421,582.3003 L554.849,594.8079 L555.2887,607.3155 L555.1159,619.8231 L555.3967,632.3307 L553.5699,644.8383 L553.288,657.3459 L553.3393,669.8535 L554.2769,682.3611 L554.0475,694.8687 L555.5107,707.3763 L554.0839,719.8839 L553.8032,732.3915 L554.7554,744.8991 L553.2636,757.4067 L553.5098,769.9143 L555.4566,782.4219 L555.1011,794.9295 L555.5992,807.4371 L553.8387,819.9447 L554.907,832.4523 L555.359,844.9599 L553.5877,857.4674 L554.2152,869.975 L554.585,882.4826 L555.4613,894.9902 L554.368,907.4978 L555.1459,920.0054 L553.452,932.513 L553.2462,945.0206 L555.2144,957.5282 L553.1801,970.0358 L555.2233,982.5434 L554.7194,995.051 L554.375,1007.5586 " fill="none" style="stroke:#383838;stroke-width:1.25;stroke-dasharray:5.0,5.0;"/><path d="M820.625,107.0117 L820.9753,107.0117 L819.9345,119.5193 L820.9471,132.0269 L821.2911,144.5345 L819.436,157.0421 L820.4955,169.5497 L819.9142,182.0573 L819.9858,194.5649 L820.5114,207.0725 L819.4727,219.5801 L821.5477,232.0877 L819.5745,244.5953 L820.2954,257.1029 L821.3449,269.6105 L820.482,282.1181 L820.7387,294.6257 L820.5718,307.1332 L820.9225,319.6408 L821.0236,332.1484 L821.6011,344.656 L821.7434,357.1636 L821.7571,369.6712 L821.0494,382.1788 L821.3976,394.6864 L821.7954,407.194 L819.423,419.7016 L821.7559,432.2092 L820.1308,444.7168 L821.5147,457.2244 L819.8,469.732 L820.5108,482.2396 L821.861,494.7472 L820.5438,507.2548 L820.8005,519.7624 L821.1894,532.27 L821.3187,544.7776 L820.6185,557.2852 L821.1037,569.7928 L819.671,582.3003 L821.099,594.8079 L821.5387,607.3155 L821.3659,619.8231 L821.6467,632.3307 L819.8199,644.8383 L819.538,657.3459 L819.5893,669.8535 L820.5269,682.3611 L820.2975,694.8687 L821.7607,707.3763 L820.3339,719.8839 L820.0532,732.3915 L821.0054,744.8991 L819.5136,757.4067 L819.7598,769.9143 L821.7066,782.4219 L821.3511,794.9295 L821.8492,807.4371 L820.0887,819.9447 L821.157,832.4523 L821.609,844.9599 L819.8377,857.4674 L820.4652,869.975 L820.835,882.4826 L821.7113,894.9902 L820.618,907.4978 L821.3959,920.0054 L819.702,932.513 L819.4962,945.0206 L821.4644,957.5282 L819.4301,970.0358 L821.4733,982.5434 L820.9694,995.051 L820.625,1007.5586 " fill="none" style="stroke:#383838;stroke-width:1.25;stroke-dasharray:5.0,5.0;"/><path d="M1116.875,107.0117 L1117.2253,107.0117 L1116.1845,119.5193 L1117.1971,132.0269 L1117.5411,144.5345 L1115.686,157.0421 L1116.7455,169.5497 L1116.1642,182.0573 L1116.2358,194.5649 L1116.7614,207.0725 L1115.7227,219.5801 L1117.7977,232.0877 L1115.8245,244.5953 L1116.5454,257.1029 L1117.5949,269.6105 L1116.732,282.1181 L1116.9887,294.6257 L1116.8218,307.1332 L1117.1725,319.6408 L1117.2736,332.1484 L1117.8511,344.656 L1117.9934,357.1636 L1118.0071,369.6712 L1117.2994,382.1788 L1117.6476,394.6864 L1118.0454,407.194 L1115.673,419.7016 L1118.0059,432.2092 L1116.3808,444.7168 L1117.7647,457.2244 L1116.05,469.732 L1116.7608,482.2396 L1118.111,494.7472 L1116.7938,507.2548 L1117.0505,519.7624 L1117.4394,532.27 L1117.5687,544.7776 L1116.8685,557.2852 L1117.3537,569.7928 L1115.921,582.3003 L1117.349,594.8079 L1117.7887,607.3155 L1117.6159,619.8231 L1117.8967,632.3307 L1116.0699,644.8383 L1115.788,657.3459 L1115.8393,669.8535 L1116.7769,682.3611 L1116.5475,694.8687 L1118.0107,707.3763 L1116.5839,719.8839 L1116.3032,732.3915 L1117.2554,744.8991 L1115.7636,757.4067 L1116.0098,769.9143 L1117.9566,782.4219 L1117.6011,794.9295 L1118.0992,807.4371 L1116.3387,819.9447 L1117.407,832.4523 L1117.859,844.9599 L1116.0877,857.4674 L1116.7152,869.975 L1117.085,882.4826 L1117.9613,894.9902 L1116.868,907.4978 L1117.6459,920.0054 L1115.952,932.513 L1115.7462,945.0206 L1117.7144,957.5282 L1115.6801,970.0358 L1117.7233,982.5434 L1117.2194,995.051 L1116.875,1007.5586 " fill="none" style="stroke:#383838;stroke-width:1.25;stroke-dasharray:5.0,5.0;"/><path d="M1314.375,107.0117 L1314.7253,107.0117 L1313.6845,119.5193 L1314.6971,132.0269 L1315.0411,144.5345 L1313.186,157.0421 L1314.2455,169.5497 L1313.6642,182.0573 L1313.7358,194.5649 L1314.2614,207.0725 L1313.2227,219.5801 L1315.2977,232.0877 L1313.3245,244.5953 L1314.0454,257.1029 L1315.0949,269.6105 L1314.232,282.1181 L1314.4887,294.6257 L1314.3218,307.1332 L1314.6725,319.6408 L1314.7736,332.1484 L1315.3511,344.656 L1315.4934,357.1636 L1315.5071,369.6712 L1314.7994,382.1788 L1315.1476,394.6864 L1315.5454,407.194 L1313.173,419.7016 L1315.5059,432.2092 L1313.8808,444.7168 L1315.2647,457.2244 L1313.55,469.732 L1314.2608,482.2396 L1315.611,494.7472 L1314.2938,507.2548 L1314.5505,519.7624 L1314.9394,532.27 L1315.0687,544.7776 L1314.3685,557.2852 L1314.8537,569.7928 L1313.421,582.3003 L1314.849,594.8079 L1315.2887,607.3155 L1315.1159,619.8231 L1315.3967,632.3307 L1313.5699,644.8383 L1313.288,657.3459 L1313.3393,669.8535 L1314.2769,682.3611 L1314.0475,694.8687 L1315.5107,707.3763 L1314.0839,719.8839 L1313.8032,732.3915 L1314.7554,744.8991 L1313.2636,757.4067 L1313.5098,769.9143 L1315.4566,782.4219 L1315.1011,794.9295 L1315.5992,807.4371 L1313.8387,819.9447 L1314.907,832.4523 L1315.359,844.9599 L1313.5877,857.4674 L1314.2152,869.975 L1314.585,882.4826 L1315.4613,894.9902 L1314.368,907.4978 L1315.1459,920.0054 L1313.452,932.513 L1313.2462,945.0206 L1315.2144,957.5282 L1313.1801,970.0358 L1315.2233,982.5434 L1314.7194,995.051 L1314.375,1007.5586 " fill="none" style="stroke:#383838;stroke-width:1.25;stroke-dasharray:5.0,5.0;"/><path d="M1459.375,107.0117 L1459.7253,107.0117 L1458.6845,119.5193 L1459.6971,132.0269 L1460.0411,144.5345 L1458.186,157.0421 L1459.2455,169.5497 L1458.6642,182.0573 L1458.7358,194.5649 L1459.2614,207.0725 L1458.2227,219.5801 L1460.2977,232.0877 L1458.3245,244.5953 L1459.0454,257.1029 L1460.0949,269.6105 L1459.232,282.1181 L1459.4887,294.6257 L1459.3218,307.1332 L1459.6725,319.6408 L1459.7736,332.1484 L1460.3511,344.656 L1460.4934,357.1636 L1460.5071,369.6712 L1459.7994,382.1788 L1460.1476,394.6864 L1460.5454,407.194 L1458.173,419.7016 L1460.5059,432.2092 L1458.8808,444.7168 L1460.2647,457.2244 L1458.55,469.732 L1459.2608,482.2396 L1460.611,494.7472 L1459.2938,507.2548 L1459.5505,519.7624 L1459.9394,532.27 L1460.0687,544.7776 L1459.3685,557.2852 L1459.8537,569.7928 L1458.421,582.3003 L1459.849,594.8079 L1460.2887,607.3155 L1460.1159,619.8231 L1460.3967,632.3307 L1458.5699,644.8383 L1458.288,657.3459 L1458.3393,669.8535 L1459.2769,682.3611 L1459.0475,694.8687 L1460.5107,707.3763 L1459.0839,719.8839 L1458.8032,732.3915 L1459.7554,744.8991 L1458.2636,757.4067 L1458.5098,769.9143 L1460.4566,782.4219 L1460.1011,794.9295 L1460.5992,807.4371 L1458.8387,819.9447 L1459.907,832.4523 L1460.359,844.9599 L1458.5877,857.4674 L1459.2152,869.975 L1459.585,882.4826 L1460.4613,894.9902 L1459.368,907.4978 L1460.1459,920.0054 L1458.452,932.513 L1458.2462,945.0206 L1460.2144,957.5282 L1458.1801,970.0358 L1460.2233,982.5434 L1459.7194,995.051 L1459.375,1007.5586 " fill="none" style="stroke:#383838;stroke-width:1.25;stroke-dasharray:5.0,5.0;"/><path d="M1638.125,107.0117 L1638.4753,107.0117 L1637.4345,119.5193 L1638.4471,132.0269 L1638.7911,144.5345 L1636.936,157.0421 L1637.9955,169.5497 L1637.4142,182.0573 L1637.4858,194.5649 L1638.0114,207.0725 L1636.9727,219.5801 L1639.0477,232.0877 L1637.0745,244.5953 L1637.7954,257.1029 L1638.8449,269.6105 L1637.982,282.1181 L1638.2387,294.6257 L1638.0718,307.1332 L1638.4225,319.6408 L1638.5236,332.1484 L1639.1011,344.656 L1639.2434,357.1636 L1639.2571,369.6712 L1638.5494,382.1788 L1638.8976,394.6864 L1639.2954,407.194 L1636.923,419.7016 L1639.2559,432.2092 L1637.6308,444.7168 L1639.0147,457.2244 L1637.3,469.732 L1638.0108,482.2396 L1639.361,494.7472 L1638.0438,507.2548 L1638.3005,519.7624 L1638.6894,532.27 L1638.8187,544.7776 L1638.1185,557.2852 L1638.6037,569.7928 L1637.171,582.3003 L1638.599,594.8079 L1639.0387,607.3155 L1638.8659,619.8231 L1639.1467,632.3307 L1637.3199,644.8383 L1637.038,657.3459 L1637.0893,669.8535 L1638.0269,682.3611 L1637.7975,694.8687 L1639.2607,707.3763 L1637.8339,719.8839 L1637.5532,732.3915 L1638.5054,744.8991 L1637.0136,757.4067 L1637.2598,769.9143 L1639.2066,782.4219 L1638.8511,794.9295 L1639.3492,807.4371 L1637.5887,819.9447 L1638.657,832.4523 L1639.109,844.9599 L1637.3377,857.4674 L1637.9652,869.975 L1638.335,882.4826 L1639.2113,894.9902 L1638.118,907.4978 L1638.8959,920.0054 L1637.202,932.513 L1636.9962,945.0206 L1638.9644,957.5282 L1636.9301,970.0358 L1638.9733,982.5434 L1638.4694,995.051 L1638.125,1007.5586 " fill="none" style="stroke:#383838;stroke-width:1.25;stroke-dasharray:5.0,5.0;"/><path d="M1810.625,107.0117 L1810.9753,107.0117 L1809.9345,119.5193 L1810.9471,132.0269 L1811.2911,144.5345 L1809.436,157.0421 L1810.4955,169.5497 L1809.9142,182.0573 L1809.9858,194.5649 L1810.5114,207.0725 L1809.4727,219.5801 L1811.5477,232.0877 L1809.5745,244.5953 L1810.2954,257.1029 L1811.3449,269.6105 L1810.482,282.1181 L1810.7387,294.6257 L1810.5718,307.1332 L1810.9225,319.6408 L1811.0236,332.1484 L1811.6011,344.656 L1811.7434,357.1636 L1811.7571,369.6712 L1811.0494,382.1788 L1811.3976,394.6864 L1811.7954,407.194 L1809.423,419.7016 L1811.7559,432.2092 L1810.1308,444.7168 L1811.5147,457.2244 L1809.8,469.732 L1810.5108,482.2396 L1811.861,494.7472 L1810.5438,507.2548 L1810.8005,519.7624 L1811.1894,532.27 L1811.3187,544.7776 L1810.6185,557.2852 L1811.1037,569.7928 L1809.671,582.3003 L1811.099,594.8079 L1811.5387,607.3155 L1811.3659,619.8231 L1811.6467,632.3307 L1809.8199,644.8383 L1809.538,657.3459 L1809.5893,669.8535 L1810.5269,682.3611 L1810.2975,694.8687 L1811.7607,707.3763 L1810.3339,719.8839 L1810.0532,732.3915 L1811.0054,744.8991 L1809.5136,757.4067 L1809.7598,769.9143 L1811.7066,782.4219 L1811.3511,794.9295 L1811.8492,807.4371 L1810.0887,819.9447 L1811.157,832.4523 L1811.609,844.9599 L1809.8377,857.4674 L1810.4652,869.975 L1810.835,882.4826 L1811.7113,894.9902 L1810.618,907.4978 L1811.3959,920.0054 L1809.702,932.513 L1809.4962,945.0206 L1811.4644,957.5282 L1809.4301,970.0358 L1811.4733,982.5434 L1810.9694,995.051 L1810.625,1007.5586 " fill="none" style="stroke:#383838;stroke-width:1.25;stroke-dasharray:5.0,5.0;"/><text fill="#000000" font-family="FG Virgil" font-size="17.5" lengthAdjust="spacing" textLength="255" x="6.25" y="103.1665">Gestor_De_Recursos_Humanos</text><polygon fill="#F8F8F8" points="147.5552,21.1824,146.0894,23.1853,144.3556,26.1188,141.876,28.0958,139.2703,29.1769,137.1927,29.2707,134.5224,27.9187,132.0029,27.0354,130.0905,25.242,129.0873,23.1889,128.4924,21.5541,127.9096,19.4188,126.9636,17.5813,127.6906,15.7873,128.3275,13.822,130.7175,12.2677,132.3991,10.251,134.4804,9.5813,136.9547,9.0046,140.1276,9.3472,141.8655,10.1668,143.8861,10.5384,146.3429,13.0554,147.1993,15.7127,147.5714,17.5258,147.15,20.5135" style="stroke:#383838;stroke-width:2.5;"/><path d="M137.5,28.75 L137.7335,28.75 L137.0396,35.5 L137.7148,42.25 L137.9441,49 L136.7073,55.75 L137.5,62.5 M121.25,38.75 L121.25,38.6637 L127.75,38.2761 L134.25,38.3239 L140.75,38.6743 L147.25,37.9818 L153.75,38.75 M137.5,62.5 L137.9649,62.9029 L133.7208,65.7913 L130.8339,69.8561 L128.1127,74.0643 L124.428,77.4376 L121.25,81.25 M137.5,62.5 L137.5573,62.5497 L140.7232,66.2268 L144.1499,70.1299 L147.4508,73.924 L150.9918,77.9262 L153.75,81.25 " fill="none" style="stroke:#383838;stroke-width:2.5;"/><text fill="#000000" font-family="FG Virgil" font-size="17.5" lengthAdjust="spacing" textLength="255" x="6.25" y="1024.4751">Gestor_De_Recursos_Humanos</text><polygon fill="#F8F8F8" points="147.5552,1043.2527,146.0894,1045.2556,144.3556,1048.1891,141.876,1050.1661,139.2703,1051.2472,137.1927,1051.3411,134.5224,1049.989,132.0029,1049.1057,130.0905,1047.3123,129.0873,1045.2592,128.4924,1043.6244,127.9096,1041.4891,126.9636,1039.6517,127.6906,1037.8576,128.3275,1035.8923,130.7175,1034.338,132.3991,1032.3213,134.4804,1031.6516,136.9547,1031.0749,140.1276,1031.4176,141.8655,1032.2372,143.8861,1032.6087,146.3429,1035.1257,147.1993,1037.783,147.5714,1039.5961,147.15,1042.5838" style="stroke:#383838;stroke-width:2.5;"/><path d="M137.5,1050.8203 L137.7335,1050.8203 L137.0396,1057.5703 L137.7148,1064.3203 L137.9441,1071.0703 L136.7073,1077.8203 L137.5,1084.5703 M121.25,1060.8203 L121.25,1060.734 L127.75,1060.3464 L134.25,1060.3942 L140.75,1060.7446 L147.25,1060.0521 L153.75,1060.8203 M137.5,1084.5703 L137.9649,1084.9732 L133.7208,1087.8617 L130.8339,1091.9264 L128.1127,1096.1346 L124.428,1099.5079 L121.25,1103.3203 M137.5,1084.5703 L137.5573,1084.62 L140.7232,1088.2971 L144.1499,1092.2002 L147.4508,1095.9943 L150.9918,1099.9965 L153.75,1103.3203 " fill="none" style="stroke:#383838;stroke-width:2.5;"/><polygon fill="#F8F8F8" points="449.375,44.2383,449.375,44.501,461.8015,43.7204,474.2279,44.4799,486.6544,44.7379,499.0809,43.3465,511.5074,44.1411,523.9338,43.7052,536.3603,43.7589,548.7868,44.1531,561.2132,43.3741,573.6397,44.9303,586.0662,43.4504,598.4926,43.9911,610.9191,44.7782,623.3456,44.1311,635.7721,44.3236,648.1985,44.1983,660.625,44.2383,660.8482,44.2383,660.9239,56.543,661.3571,68.8477,661.4638,81.1523,661.4741,93.457,660.625,105.7617,660.625,106.08,648.1985,106.3412,635.7721,106.6395,623.3456,104.8602,610.9191,106.6099,598.4926,105.3911,586.0662,106.429,573.6397,105.1429,561.2132,105.6761,548.7868,106.6887,536.3603,105.7008,523.9338,105.8933,511.5074,106.185,499.0809,106.282,486.6544,105.7568,474.2279,106.1207,461.8015,105.0462,449.375,105.7617,449.7305,105.7617,450.0602,93.457,449.9307,81.1523,450.1413,68.8477,448.7711,56.543,449.375,44.2383" style="stroke:#383838;stroke-width:1.875;"/><text fill="#000000" font-family="FG Virgil" font-size="17.5" font-style="italic" lengthAdjust="spacing" textLength="118.75" x="495.625" y="71.1548">«presentation»</text><text fill="#000000" font-family="FG Virgil" font-size="17.5" lengthAdjust="spacing" textLength="193.75" x="458.125" y="93.1665">VerEstadoMotorFluxosUI</text><polygon fill="#F8F8F8" points="449.375,1006.3086,449.375,1006.5713,461.8015,1005.7907,474.2279,1006.5502,486.6544,1006.8082,499.0809,1005.4169,511.5074,1006.2115,523.9338,1005.7755,536.3603,1005.8292,548.7868,1006.2234,561.2132,1005.4444,573.6397,1007.0006,586.0662,1005.5207,598.4926,1006.0614,610.9191,1006.8485,623.3456,1006.2014,635.7721,1006.3939,648.1985,1006.2687,660.625,1006.3086,660.8482,1006.3086,660.9239,1018.6133,661.3571,1030.918,661.4638,1043.2227,661.4741,1055.5273,660.625,1067.832,660.625,1068.1503,648.1985,1068.4115,635.7721,1068.7098,623.3456,1066.9305,610.9191,1068.6802,598.4926,1067.4614,586.0662,1068.4993,573.6397,1067.2133,561.2132,1067.7464,548.7868,1068.759,536.3603,1067.7711,523.9338,1067.9637,511.5074,1068.2553,499.0809,1068.3523,486.6544,1067.8271,474.2279,1068.191,461.8015,1067.1165,449.375,1067.832,449.7305,1067.832,450.0602,1055.5273,449.9307,1043.2227,450.1413,1030.918,448.7711,1018.6133,449.375,1006.3086" style="stroke:#383838;stroke-width:1.875;"/><text fill="#000000" font-family="FG Virgil" font-size="17.5" font-style="italic" lengthAdjust="spacing" textLength="118.75" x="495.625" y="1033.2251">«presentation»</text><text fill="#000000" font-family="FG Virgil" font-size="17.5" lengthAdjust="spacing" textLength="193.75" x="458.125" y="1055.2368">VerEstadoMotorFluxosUI</text><polygon fill="#F8F8F8" points="673.125,44.2383,673.125,44.501,685.4167,43.7204,697.7083,44.4799,710,44.7379,722.2917,43.3465,734.5833,44.1411,746.875,43.7052,759.1667,43.7589,771.4583,44.1531,783.75,43.3741,796.0417,44.9303,808.3333,43.4504,820.625,43.9911,832.9167,44.7782,845.2083,44.1311,857.5,44.3236,869.7917,44.1983,882.0833,44.4614,894.375,44.5372,906.6667,44.9704,918.9583,45.0771,931.25,45.0874,943.5417,44.5566,955.8333,44.8178,968.125,44.2383,969.0028,44.2383,967.2235,56.543,968.9731,68.8477,967.7544,81.1523,968.7923,93.457,968.125,105.7617,968.125,105.1429,955.8333,105.6761,943.5417,106.6887,931.25,105.7008,918.9583,105.8933,906.6667,106.185,894.375,106.282,882.0833,105.7568,869.7917,106.1207,857.5,105.0462,845.2083,106.1172,832.9167,106.447,820.625,106.3174,808.3333,106.528,796.0417,105.1579,783.75,104.9465,771.4583,104.985,759.1667,105.6881,746.875,105.5161,734.5833,106.6135,722.2917,105.5434,710,105.3329,697.7083,106.0471,685.4167,104.9282,673.125,105.7617,672.4761,105.7617,673.9362,93.457,673.6696,81.1523,674.0431,68.8477,672.7228,56.543,673.125,44.2383" style="stroke:#383838;stroke-width:1.875;"/><text fill="#000000" font-family="FG Virgil" font-size="17.5" font-style="italic" lengthAdjust="spacing" textLength="75" x="783.125" y="71.1548">«service»</text><text fill="#000000" font-family="FG Virgil" font-size="17.5" lengthAdjust="spacing" textLength="277.5" x="681.875" y="93.1665">AtualizarEstadoMotorFluxosService</text><polygon fill="#F8F8F8" points="673.125,1006.3086,673.125,1006.5713,685.4167,1005.7907,697.7083,1006.5502,710,1006.8082,722.2917,1005.4169,734.5833,1006.2115,746.875,1005.7755,759.1667,1005.8292,771.4583,1006.2234,783.75,1005.4444,796.0417,1007.0006,808.3333,1005.5207,820.625,1006.0614,832.9167,1006.8485,845.2083,1006.2014,857.5,1006.3939,869.7917,1006.2687,882.0833,1006.5318,894.375,1006.6075,906.6667,1007.0407,918.9583,1007.1474,931.25,1007.1577,943.5417,1006.6269,955.8333,1006.8881,968.125,1006.3086,969.0028,1006.3086,967.2235,1018.6133,968.9731,1030.918,967.7544,1043.2227,968.7923,1055.5273,968.125,1067.832,968.125,1067.2133,955.8333,1067.7464,943.5417,1068.759,931.25,1067.7711,918.9583,1067.9637,906.6667,1068.2553,894.375,1068.3523,882.0833,1067.8271,869.7917,1068.191,857.5,1067.1165,845.2083,1068.1875,832.9167,1068.5173,820.625,1068.3877,808.3333,1068.5983,796.0417,1067.2282,783.75,1067.0168,771.4583,1067.0553,759.1667,1067.7584,746.875,1067.5864,734.5833,1068.6838,722.2917,1067.6137,710,1067.4032,697.7083,1068.1174,685.4167,1066.9985,673.125,1067.832,672.4761,1067.832,673.9362,1055.5273,673.6696,1043.2227,674.0431,1030.918,672.7228,1018.6133,673.125,1006.3086" style="stroke:#383838;stroke-width:1.875;"/><text fill="#000000" font-family="FG Virgil" font-size="17.5" font-style="italic" lengthAdjust="spacing" textLength="75" x="783.125" y="1033.2251">«service»</text><text fill="#000000" font-family="FG Virgil" font-size="17.5" lengthAdjust="spacing" textLength="277.5" x="681.875" y="1055.2368">AtualizarEstadoMotorFluxosService</text><polygon fill="#F8F8F8" points="980.625,44.2383,980.625,44.501,993.0682,43.7204,1005.5114,44.4799,1017.9545,44.7379,1030.3977,43.3465,1042.8409,44.1411,1055.2841,43.7052,1067.7273,43.7589,1080.1705,44.1531,1092.6136,43.3741,1105.0568,44.9303,1117.5,43.4504,1129.9432,43.9911,1142.3864,44.7782,1154.8295,44.1311,1167.2727,44.3236,1179.7159,44.1983,1192.1591,44.4614,1204.6023,44.5372,1217.0455,44.9704,1229.4886,45.0771,1241.9318,45.0874,1254.375,44.2383,1254.6933,44.2383,1254.9545,56.543,1255.2528,68.8477,1253.4735,81.1523,1255.2231,93.457,1254.375,105.7617,1254.375,105.3911,1241.9318,106.429,1229.4886,105.1429,1217.0455,105.6761,1204.6023,106.6887,1192.1591,105.7008,1179.7159,105.8933,1167.2727,106.185,1154.8295,106.282,1142.3864,105.7568,1129.9432,106.1207,1117.5,105.0462,1105.0568,106.1172,1092.6136,106.447,1080.1705,106.3174,1067.7273,106.528,1055.2841,105.1579,1042.8409,104.9465,1030.3977,104.985,1017.9545,105.6881,1005.5114,105.5161,993.0682,106.6135,980.625,105.7617,980.4067,105.7617,980.1962,93.457,980.9103,81.1523,979.7915,68.8477,979.9761,56.543,980.625,44.2383" style="stroke:#383838;stroke-width:1.875;"/><text fill="#000000" font-family="FG Virgil" font-size="17.5" font-style="italic" lengthAdjust="spacing" textLength="105" x="1065" y="71.1548">«application»</text><text fill="#000000" font-family="FG Virgil" font-size="17.5" lengthAdjust="spacing" textLength="256.25" x="989.375" y="93.1665">VerEstadoMotorFluxosController</text><polygon fill="#F8F8F8" points="980.625,1006.3086,980.625,1006.5713,993.0682,1005.7907,1005.5114,1006.5502,1017.9545,1006.8082,1030.3977,1005.4169,1042.8409,1006.2115,1055.2841,1005.7755,1067.7273,1005.8292,1080.1705,1006.2234,1092.6136,1005.4444,1105.0568,1007.0006,1117.5,1005.5207,1129.9432,1006.0614,1142.3864,1006.8485,1154.8295,1006.2014,1167.2727,1006.3939,1179.7159,1006.2687,1192.1591,1006.5318,1204.6023,1006.6075,1217.0455,1007.0407,1229.4886,1007.1474,1241.9318,1007.1577,1254.375,1006.3086,1254.6933,1006.3086,1254.9545,1018.6133,1255.2528,1030.918,1253.4735,1043.2227,1255.2231,1055.5273,1254.375,1067.832,1254.375,1067.4614,1241.9318,1068.4993,1229.4886,1067.2133,1217.0455,1067.7464,1204.6023,1068.759,1192.1591,1067.7711,1179.7159,1067.9637,1167.2727,1068.2553,1154.8295,1068.3523,1142.3864,1067.8271,1129.9432,1068.191,1117.5,1067.1165,1105.0568,1068.1875,1092.6136,1068.5173,1080.1705,1068.3877,1067.7273,1068.5983,1055.2841,1067.2282,1042.8409,1067.0168,1030.3977,1067.0553,1017.9545,1067.7584,1005.5114,1067.5864,993.0682,1068.6838,980.625,1067.832,980.4067,1067.832,980.1962,1055.5273,980.9103,1043.2227,979.7915,1030.918,979.9761,1018.6133,980.625,1006.3086" style="stroke:#383838;stroke-width:1.875;"/><text fill="#000000" font-family="FG Virgil" font-size="17.5" font-style="italic" lengthAdjust="spacing" textLength="105" x="1065" y="1033.2251">«application»</text><text fill="#000000" font-family="FG Virgil" font-size="17.5" lengthAdjust="spacing" textLength="256.25" x="989.375" y="1055.2368">VerEstadoMotorFluxosController</text><polygon fill="#F8F8F8" points="1266.875,44.2383,1266.875,44.501,1278.75,43.7204,1290.625,44.4799,1302.5,44.7379,1314.375,43.3465,1326.25,44.1411,1338.125,43.7052,1350,43.7589,1361.875,44.2383,1361.7898,44.2383,1361.0108,56.543,1362.5671,68.8477,1361.0871,81.1523,1361.6278,93.457,1361.875,105.7617,1361.875,106.3017,1350,105.6545,1338.125,105.847,1326.25,105.7218,1314.375,105.9849,1302.5,106.0606,1290.625,106.4938,1278.75,106.6005,1266.875,105.7617,1267.7241,105.7617,1267.1933,93.457,1267.4545,81.1523,1267.7528,68.8477,1265.9735,56.543,1266.875,44.2383" style="stroke:#383838;stroke-width:1.875;"/><text fill="#000000" font-family="FG Virgil" font-size="17.5" font-style="italic" lengthAdjust="spacing" textLength="77.5" x="1275.625" y="71.1548">«domain»</text><text fill="#000000" font-family="FG Virgil" font-size="17.5" lengthAdjust="spacing" textLength="55" x="1286.875" y="93.1665">Pedido</text><polygon fill="#F8F8F8" points="1266.875,1006.3086,1266.875,1006.5713,1278.75,1005.7907,1290.625,1006.5502,1302.5,1006.8082,1314.375,1005.4169,1326.25,1006.2115,1338.125,1005.7755,1350,1005.8292,1361.875,1006.3086,1361.7898,1006.3086,1361.0108,1018.6133,1362.5671,1030.918,1361.0871,1043.2227,1361.6278,1055.5273,1361.875,1067.832,1361.875,1068.372,1350,1067.7248,1338.125,1067.9173,1326.25,1067.7921,1314.375,1068.0552,1302.5,1068.1309,1290.625,1068.5641,1278.75,1068.6708,1266.875,1067.832,1267.7241,1067.832,1267.1933,1055.5273,1267.4545,1043.2227,1267.7528,1030.918,1265.9735,1018.6133,1266.875,1006.3086" style="stroke:#383838;stroke-width:1.875;"/><text fill="#000000" font-family="FG Virgil" font-size="17.5" font-style="italic" lengthAdjust="spacing" textLength="77.5" x="1275.625" y="1033.2251">«domain»</text><text fill="#000000" font-family="FG Virgil" font-size="17.5" lengthAdjust="spacing" textLength="55" x="1286.875" y="1055.2368">Pedido</text><polygon fill="#F8F8F8" points="1374.375,44.2383,1374.375,44.501,1386.5179,43.7204,1398.6607,44.4799,1410.8036,44.7379,1422.9464,43.3465,1435.0893,44.1411,1447.2321,43.7052,1459.375,43.7589,1471.5179,44.1531,1483.6607,43.3741,1495.8036,44.9303,1507.9464,43.4504,1520.0893,43.9911,1532.2321,44.7782,1544.375,44.2383,1544.2678,44.2383,1544.4603,56.543,1544.3351,68.8477,1544.5982,81.1523,1544.6739,93.457,1544.375,105.7617,1544.375,106.4938,1532.2321,106.6005,1520.0893,106.6108,1507.9464,106.08,1495.8036,106.3412,1483.6607,106.6395,1471.5179,104.8602,1459.375,106.6099,1447.2321,105.3911,1435.0893,106.429,1422.9464,105.1429,1410.8036,105.6761,1398.6607,106.6887,1386.5179,105.7008,1374.375,105.7617,1374.5066,105.7617,1374.7983,93.457,1374.8953,81.1523,1374.3701,68.8477,1374.734,56.543,1374.375,44.2383" style="stroke:#383838;stroke-width:1.875;"/><text fill="#000000" font-family="FG Virgil" font-size="17.5" font-style="italic" lengthAdjust="spacing" textLength="111.25" x="1403.75" y="71.1548">«persistence»</text><text fill="#000000" font-family="FG Virgil" font-size="17.5" lengthAdjust="spacing" textLength="152.5" x="1383.125" y="93.1665">PersistenceContext</text><polygon fill="#F8F8F8" points="1374.375,1006.3086,1374.375,1006.5713,1386.5179,1005.7907,1398.6607,1006.5502,1410.8036,1006.8082,1422.9464,1005.4169,1435.0893,1006.2115,1447.2321,1005.7755,1459.375,1005.8292,1471.5179,1006.2234,1483.6607,1005.4444,1495.8036,1007.0006,1507.9464,1005.5207,1520.0893,1006.0614,1532.2321,1006.8485,1544.375,1006.3086,1544.2678,1006.3086,1544.4603,1018.6133,1544.3351,1030.918,1544.5982,1043.2227,1544.6739,1055.5273,1544.375,1067.832,1544.375,1068.5641,1532.2321,1068.6708,1520.0893,1068.6811,1507.9464,1068.1503,1495.8036,1068.4115,1483.6607,1068.7098,1471.5179,1066.9305,1459.375,1068.6802,1447.2321,1067.4614,1435.0893,1068.4993,1422.9464,1067.2133,1410.8036,1067.7464,1398.6607,1068.759,1386.5179,1067.7711,1374.375,1067.832,1374.5066,1067.832,1374.7983,1055.5273,1374.8953,1043.2227,1374.3701,1030.918,1374.734,1018.6133,1374.375,1006.3086" style="stroke:#383838;stroke-width:1.875;"/><text fill="#000000" font-family="FG Virgil" font-size="17.5" font-style="italic" lengthAdjust="spacing" textLength="111.25" x="1403.75" y="1033.2251">«persistence»</text><text fill="#000000" font-family="FG Virgil" font-size="17.5" lengthAdjust="spacing" textLength="152.5" x="1383.125" y="1055.2368">PersistenceContext</text><polygon fill="#F8F8F8" points="1556.875,44.2383,1556.875,44.501,1569.375,43.7204,1581.875,44.4799,1594.375,44.7379,1606.875,43.3465,1619.375,44.1411,1631.875,43.7052,1644.375,43.7589,1656.875,44.1531,1669.375,43.3741,1681.875,44.9303,1694.375,43.4504,1706.875,43.9911,1719.375,44.2383,1719.9149,44.2383,1719.2678,56.543,1719.4603,68.8477,1719.3351,81.1523,1719.5982,93.457,1719.375,105.7617,1719.375,106.0606,1706.875,106.4938,1694.375,106.6005,1681.875,106.6108,1669.375,106.08,1656.875,106.3412,1644.375,106.6395,1631.875,104.8602,1619.375,106.6099,1606.875,105.3911,1594.375,106.429,1581.875,105.1429,1569.375,105.6761,1556.875,105.7617,1557.802,105.7617,1556.8141,93.457,1557.0066,81.1523,1557.2983,68.8477,1557.3953,56.543,1556.875,44.2383" style="stroke:#383838;stroke-width:1.875;"/><text fill="#000000" font-family="FG Virgil" font-size="17.5" font-style="italic" lengthAdjust="spacing" textLength="73.75" x="1601.25" y="71.1548">«factory»</text><text fill="#000000" font-family="FG Virgil" font-size="17.5" lengthAdjust="spacing" textLength="145" x="1565.625" y="93.1665">RepositoryFactory</text><polygon fill="#F8F8F8" points="1556.875,1006.3086,1556.875,1006.5713,1569.375,1005.7907,1581.875,1006.5502,1594.375,1006.8082,1606.875,1005.4169,1619.375,1006.2115,1631.875,1005.7755,1644.375,1005.8292,1656.875,1006.2234,1669.375,1005.4444,1681.875,1007.0006,1694.375,1005.5207,1706.875,1006.0614,1719.375,1006.3086,1719.9149,1006.3086,1719.2678,1018.6133,1719.4603,1030.918,1719.3351,1043.2227,1719.5982,1055.5273,1719.375,1067.832,1719.375,1068.1309,1706.875,1068.5641,1694.375,1068.6708,1681.875,1068.6811,1669.375,1068.1503,1656.875,1068.4115,1644.375,1068.7098,1631.875,1066.9305,1619.375,1068.6802,1606.875,1067.4614,1594.375,1068.4993,1581.875,1067.2133,1569.375,1067.7464,1556.875,1067.832,1557.802,1067.832,1556.8141,1055.5273,1557.0066,1043.2227,1557.2983,1030.918,1557.3953,1018.6133,1556.875,1006.3086" style="stroke:#383838;stroke-width:1.875;"/><text fill="#000000" font-family="FG Virgil" font-size="17.5" font-style="italic" lengthAdjust="spacing" textLength="73.75" x="1601.25" y="1033.2251">«factory»</text><text fill="#000000" font-family="FG Virgil" font-size="17.5" lengthAdjust="spacing" textLength="145" x="1565.625" y="1055.2368">RepositoryFactory</text><polygon fill="#F8F8F8" points="1731.875,44.2383,1731.875,44.501,1743.9904,43.7204,1756.1058,44.4799,1768.2212,44.7379,1780.3365,43.3465,1792.4519,44.1411,1804.5673,43.7052,1816.6827,43.7589,1828.7981,44.1531,1840.9135,43.3741,1853.0288,44.9303,1865.1442,43.4504,1877.2596,43.9911,1889.375,44.2383,1889.9149,44.2383,1889.2678,56.543,1889.4603,68.8477,1889.3351,81.1523,1889.5982,93.457,1889.375,105.7617,1889.375,106.0606,1877.2596,106.4938,1865.1442,106.6005,1853.0288,106.6108,1840.9135,106.08,1828.7981,106.3412,1816.6827,106.6395,1804.5673,104.8602,1792.4519,106.6099,1780.3365,105.3911,1768.2212,106.429,1756.1058,105.1429,1743.9904,105.6761,1731.875,105.7617,1732.802,105.7617,1731.8141,93.457,1732.0066,81.1523,1732.2983,68.8477,1732.3953,56.543,1731.875,44.2383" style="stroke:#383838;stroke-width:1.875;"/><text fill="#000000" font-family="FG Virgil" font-size="17.5" font-style="italic" lengthAdjust="spacing" textLength="98.75" x="1761.25" y="71.1548">«repository»</text><text fill="#000000" font-family="FG Virgil" font-size="17.5" lengthAdjust="spacing" textLength="140" x="1740.625" y="93.1665">PedidoRepository</text><polygon fill="#F8F8F8" points="1731.875,1006.3086,1731.875,1006.5713,1743.9904,1005.7907,1756.1058,1006.5502,1768.2212,1006.8082,1780.3365,1005.4169,1792.4519,1006.2115,1804.5673,1005.7755,1816.6827,1005.8292,1828.7981,1006.2234,1840.9135,1005.4444,1853.0288,1007.0006,1865.1442,1005.5207,1877.2596,1006.0614,1889.375,1006.3086,1889.9149,1006.3086,1889.2678,1018.6133,1889.4603,1030.918,1889.3351,1043.2227,1889.5982,1055.5273,1889.375,1067.832,1889.375,1068.1309,1877.2596,1068.5641,1865.1442,1068.6708,1853.0288,1068.6811,1840.9135,1068.1503,1828.7981,1068.4115,1816.6827,1068.7098,1804.5673,1066.9305,1792.4519,1068.6802,1780.3365,1067.4614,1768.2212,1068.4993,1756.1058,1067.2133,1743.9904,1067.7464,1731.875,1067.832,1732.802,1067.832,1731.8141,1055.5273,1732.0066,1043.2227,1732.2983,1030.918,1732.3953,1018.6133,1731.875,1006.3086" style="stroke:#383838;stroke-width:1.875;"/><text fill="#000000" font-family="FG Virgil" font-size="17.5" font-style="italic" lengthAdjust="spacing" textLength="98.75" x="1761.25" y="1033.2251">«repository»</text><text fill="#000000" font-family="FG Virgil" font-size="17.5" lengthAdjust="spacing" textLength="140" x="1740.625" y="1055.2368">PedidoRepository</text><polygon fill="#FFFFFF" points="548.75,225.8301,548.75,225.9177,551.25,225.6574,553.75,225.9106,556.25,225.9966,558.75,225.5328,561.25,225.8301,561.1529,225.8301,560.7169,238.2764,560.7706,250.7228,561.1648,263.1692,560.3858,275.6156,561.9421,288.0619,560.4621,300.5083,561.0028,312.9547,561.7899,325.401,561.1428,337.8474,561.3353,350.2938,561.2101,362.7401,561.4732,375.1865,561.5489,387.6329,561.9821,400.0792,562.0888,412.5256,562.0991,424.972,561.5683,437.4184,561.8295,449.8647,562.1278,462.3111,560.3485,474.7575,562.0981,487.2038,560.8794,499.6502,561.9173,512.0966,560.6312,524.5429,561.1644,536.9893,562.177,549.4357,561.1891,561.882,561.3816,574.3284,561.6733,586.7748,561.7703,599.2212,561.2451,611.6675,561.609,624.1139,560.5345,636.5603,561.6055,649.0066,561.9352,661.453,561.8057,673.8994,562.0163,686.3457,560.6461,698.7921,560.4348,711.2385,560.4732,723.6848,561.1764,736.1312,561.0043,748.5776,562.1018,761.0239,561.0317,773.4703,560.8212,785.9167,561.5353,798.3631,560.4165,810.8094,560.6011,823.2558,562.0612,835.7022,561.7946,848.1485,562.1681,860.5949,560.8478,873.0413,561.649,885.4876,561.988,897.934,560.6595,910.3804,561.1302,922.8267,561.4075,935.2731,562.0647,947.7195,561.2448,960.1659,561.8282,972.6122,561.25,985.0586,561.25,984.8278,558.75,984.7764,556.25,985.2684,553.75,984.7599,551.25,985.2707,548.75,985.0586,549.0083,985.0586,548.4151,972.6122,548.3078,960.1659,549.3234,947.7195,548.3758,935.2731,549.4898,922.8267,548.0591,910.3804,549.5218,897.934,549.3554,885.4876,549.0562,873.0413,548.809,860.5949,549.6583,848.1485,549.517,835.7022,548.9616,823.2558,549.0852,810.8094,548.5872,798.3631,549.6456,785.9167,548.9436,773.4703,548.9657,761.0239,547.9896,748.5776,548.2435,736.1312,549.4134,723.6848,549.2872,711.2385,548.6963,698.7921,548.3473,686.3457,548.4763,673.8994,547.8923,661.453,549.2684,649.0066,549.6745,636.5603,549.408,624.1139,549.6187,611.6675,548.5791,599.2212,548.859,586.7748,548.2655,574.3284,549.1051,561.882,549.0585,549.4357,549.4405,536.9893,548.4629,524.5429,548.582,512.0966,549.3043,499.6502,549.4592,487.2038,548.1093,474.7575,548.5076,462.3111,548.9366,449.8647,547.9864,437.4184,549.1917,424.972,549.0725,412.5256,548.624,400.0792,548.9278,387.6329,549.6608,375.1865,548.3589,362.7401,549.1437,350.2938,549.1071,337.8474,548.8947,325.401,548.9262,312.9547,548.8918,300.5083,547.9698,288.0619,548.249,275.6156,548.1731,263.1692,548.8298,250.7228,548.8602,238.2764,548.75,225.8301" style="stroke:#383838;stroke-width:1.25;"/><polygon fill="#FFFFFF" points="1111.25,179.1406,1111.25,179.2282,1113.75,178.968,1116.25,179.2212,1118.75,179.3072,1121.25,178.8434,1123.75,179.1406,1123.6529,179.1406,1123.2169,191.7331,1123.2706,204.3256,1123.6648,216.918,1122.8858,229.5105,1124.4421,242.103,1122.9621,254.6954,1123.5028,267.2879,1124.2899,279.8804,1123.6428,292.4728,1123.8353,305.0653,1123.7101,317.6578,1123.9732,330.2502,1124.0489,342.8427,1124.4821,355.4352,1124.5888,368.0276,1124.5991,380.6201,1124.0683,393.2126,1124.3295,405.8051,1124.6278,418.3975,1122.8485,430.99,1124.5981,443.5825,1123.3794,456.1749,1124.4173,468.7674,1123.1312,481.3599,1123.6644,493.9523,1124.677,506.5448,1123.6891,519.1373,1123.8816,531.7297,1124.1733,544.3222,1124.2703,556.9147,1123.7451,569.5071,1124.109,582.0996,1123.0345,594.6921,1124.1055,607.2845,1124.4352,619.877,1124.3057,632.4695,1124.5163,645.062,1123.1461,657.6544,1122.9348,670.2469,1122.9732,682.8394,1123.6764,695.4318,1123.5043,708.0243,1124.6018,720.6168,1123.5317,733.2092,1123.3212,745.8017,1124.0353,758.3942,1122.9165,770.9866,1123.1011,783.5791,1124.5612,796.1716,1124.2946,808.764,1124.6681,821.3565,1123.3478,833.949,1124.149,846.5414,1124.488,859.1339,1123.1595,871.7264,1123.6302,884.3188,1123.9075,896.9113,1124.5647,909.5038,1123.7448,922.0963,1124.3282,934.6887,1123.0578,947.2812,1122.9034,959.8737,1124.3795,972.4661,1123.75,985.0586,1123.75,984.7599,1121.25,985.2707,1118.75,985.1447,1116.25,984.947,1113.75,984.9112,1111.25,985.0586,1111.8234,985.0586,1110.8758,972.4661,1111.9898,959.8737,1110.5591,947.2812,1112.0218,934.6887,1111.8554,922.0963,1111.5562,909.5038,1111.309,896.9113,1112.1583,884.3188,1112.017,871.7264,1111.4616,859.1339,1111.5852,846.5414,1111.0872,833.949,1112.1456,821.3565,1111.4436,808.764,1111.4657,796.1716,1110.4896,783.5791,1110.7435,770.9866,1111.9134,758.3942,1111.7872,745.8017,1111.1963,733.2092,1110.8473,720.6168,1110.9763,708.0243,1110.3923,695.4318,1111.7684,682.8394,1112.1745,670.2469,1111.908,657.6544,1112.1187,645.062,1111.0791,632.4695,1111.359,619.877,1110.7655,607.2845,1111.6051,594.6921,1111.5585,582.0996,1111.9405,569.5071,1110.9629,556.9147,1111.082,544.3222,1111.8043,531.7297,1111.9592,519.1373,1110.6093,506.5448,1111.0076,493.9523,1111.4366,481.3599,1110.4864,468.7674,1111.6917,456.1749,1111.5725,443.5825,1111.124,430.99,1111.4278,418.3975,1112.1608,405.8051,1110.8589,393.2126,1111.6437,380.6201,1111.6071,368.0276,1111.3947,355.4352,1111.4262,342.8427,1111.3918,330.2502,1110.4698,317.6578,1110.749,305.0653,1110.6731,292.4728,1111.3298,279.8804,1111.3602,267.2879,1111.4522,254.6954,1110.8863,242.103,1111.1656,229.5105,1111.0997,216.918,1111.9711,204.3256,1111.7832,191.7331,1111.25,179.1406" style="stroke:#383838;stroke-width:1.25;"/><polygon fill="#FFFFFF" points="1453.125,301.709,1453.125,301.7966,1455.625,301.5364,1458.125,301.7895,1460.625,301.8755,1463.125,301.4117,1465.625,301.709,1465.5279,301.709,1465.0919,313.8408,1465.1456,325.9727,1465.5398,338.1045,1464.7608,350.2363,1466.3171,362.3682,1464.8371,374.5,1465.3778,386.6318,1466.1649,398.7637,1465.5178,410.8955,1465.625,423.0273,1465.625,423.0558,1463.125,423.014,1460.625,423.1017,1458.125,423.127,1455.625,423.2714,1453.125,423.0273,1453.9638,423.0273,1453.9741,410.8955,1453.4433,398.7637,1453.7045,386.6318,1454.0028,374.5,1452.2235,362.3682,1453.9731,350.2363,1452.7544,338.1045,1453.7923,325.9727,1452.5062,313.8408,1453.125,301.709" style="stroke:#383838;stroke-width:1.25;"/><polygon fill="#FFFFFF" points="1631.875,385.0879,1631.875,385.1755,1634.375,384.9153,1636.875,385.1684,1639.375,385.2544,1641.875,384.7906,1644.375,385.0879,1644.2779,385.0879,1643.8419,397.6978,1643.8956,410.3076,1644.2898,422.9175,1643.5108,435.5273,1645.0671,448.1372,1643.5871,460.7471,1644.1278,473.3569,1644.9149,485.9668,1644.2678,498.5767,1644.4603,511.1865,1644.3351,523.7964,1644.375,536.4063,1644.375,536.4806,1641.875,536.5059,1639.375,536.6503,1636.875,536.6859,1634.375,536.6893,1631.875,536.4063,1632.1933,536.4063,1632.4545,523.7964,1632.7528,511.1865,1630.9735,498.5767,1632.7231,485.9668,1631.5044,473.3569,1632.5423,460.7471,1631.2562,448.1372,1631.7894,435.5273,1632.802,422.9175,1631.8141,410.3076,1632.0066,397.6978,1631.875,385.0879" style="stroke:#383838;stroke-width:1.25;"/><polygon fill="#FFFFFF" points="1804.375,498.9063,1804.375,498.9938,1806.875,498.7336,1809.375,498.9868,1811.875,499.0728,1814.375,498.609,1816.875,498.9063,1816.7779,498.9063,1816.3419,511.3661,1816.3956,523.8259,1816.7898,536.2857,1816.0108,548.7455,1817.5671,561.2053,1816.0871,573.6651,1816.6278,586.1249,1817.4149,598.5847,1816.7678,611.0445,1816.9603,623.5044,1816.8351,635.9642,1817.0982,648.424,1817.1739,660.8838,1817.6071,673.3436,1817.7138,685.8034,1817.7241,698.2632,1817.1933,710.723,1817.4545,723.1828,1817.7528,735.6427,1815.9735,748.1025,1817.7231,760.5623,1816.5044,773.0221,1817.5423,785.4819,1816.2562,797.9417,1816.7894,810.4015,1816.875,822.8613,1816.875,823.1703,1814.375,822.841,1811.875,822.9052,1809.375,823.0024,1806.875,823.0348,1804.375,822.8613,1804.3701,822.8613,1804.734,810.4015,1803.6595,797.9417,1804.7305,785.4819,1805.0602,773.0221,1804.9307,760.5623,1805.1413,748.1025,1803.7711,735.6427,1803.5598,723.1828,1803.5982,710.723,1804.3014,698.2632,1804.1293,685.8034,1805.2268,673.3436,1804.1567,660.8838,1803.9462,648.424,1804.6603,635.9642,1803.5415,623.5044,1803.7261,611.0445,1805.1862,598.5847,1804.9196,586.1249,1805.2931,573.6651,1803.9728,561.2053,1804.774,548.7455,1805.113,536.2857,1803.7845,523.8259,1804.2552,511.3661,1804.375,498.9063" style="stroke:#383838;stroke-width:1.25;"/><path d="M660.625,128.2617 L660.625,128.9623 L673.6607,126.8807 L686.6964,128.906 L699.7321,129.594 L712.7679,125.8837 L725.8036,128.0027 L738.8393,126.8401 L751.875,128.2617 L751.4489,128.2617 L751.7993,130.2617 L751.1068,132.2617 L752.4902,134.2617 L751.1747,136.2617 L751.875,138.2617 L751.7196,138.1063 L749.7144,141.1011 L746.8076,143.1943 L744.4286,145.8153 L741.8499,148.2366 L739.375,150.7617 L739.375,151.3568 L726.25,151.5588 L713.125,152.714 L700,152.9986 L686.875,153.0259 L673.75,151.6105 L660.625,150.7617 L661.1401,150.7617 L661.4053,146.2617 L659.8237,141.7617 L661.3789,137.2617 L660.2956,132.7617 L660.625,128.2617 " fill="#EEEEEE" style="stroke:#000000;stroke-width:1.25;"/><polygon fill="none" points="660.625,128.2617,660.625,128.5244,673.125,127.7438,685.625,128.5033,698.125,128.7613,710.625,127.37,723.125,128.1646,735.625,127.7286,748.125,127.7823,760.625,128.1765,773.125,127.3975,785.625,128.9538,798.125,127.4739,810.625,128.0145,823.125,128.8017,835.625,128.1545,848.125,128.347,860.625,128.2218,873.125,128.4849,885.625,128.5606,898.125,128.9938,910.625,129.1005,923.125,129.1108,935.625,128.58,948.125,128.8412,960.625,129.1395,973.125,127.3602,985.625,129.1099,998.125,127.8911,1010.625,128.929,1023.125,127.6429,1035.625,128.1761,1048.125,129.1887,1060.625,128.2008,1073.125,128.3933,1085.625,128.685,1098.125,128.782,1110.625,128.2568,1123.125,128.6207,1135.625,127.5462,1148.125,128.6172,1160.625,128.947,1173.125,128.8174,1185.625,129.028,1198.125,127.6579,1210.625,127.4465,1223.125,127.485,1235.625,128.1881,1248.125,128.0161,1260.625,129.1135,1273.125,128.0434,1285.625,127.8329,1298.125,128.5471,1310.625,127.4282,1323.125,127.6128,1335.625,129.0729,1348.125,128.8063,1360.625,129.1798,1373.125,128.2617,1372.7228,128.2617,1373.524,140.4375,1373.863,152.6133,1372.5345,164.7891,1373.0052,176.9648,1373.125,189.1406,1373.125,189.2981,1360.625,189.9553,1348.125,189.1354,1335.625,189.7188,1323.125,188.4484,1310.625,188.2941,1298.125,189.7701,1285.625,188.2444,1273.125,189.7768,1260.625,189.3989,1248.125,188.8057,1235.625,188.6984,1223.125,189.7141,1210.625,188.7665,1198.125,189.8805,1185.625,188.4497,1173.125,189.9124,1160.625,189.746,1148.125,189.4468,1135.625,189.1996,1123.125,190.0489,1110.625,189.9076,1098.125,189.3522,1085.625,189.4759,1073.125,188.9778,1060.625,190.0362,1048.125,189.3342,1035.625,189.3563,1023.125,188.3802,1010.625,188.6341,998.125,189.8041,985.625,189.6778,973.125,189.087,960.625,188.7379,948.125,188.867,935.625,188.2829,923.125,189.659,910.625,190.0651,898.125,189.7986,885.625,190.0093,873.125,188.9697,860.625,189.2497,848.125,188.6561,835.625,189.4957,823.125,189.4491,810.625,189.8311,798.125,188.8536,785.625,188.9726,773.125,189.695,760.625,189.8498,748.125,188.5,735.625,188.8983,723.125,189.3272,710.625,188.3771,698.125,189.5824,685.625,189.4631,673.125,189.0147,660.625,189.1406,660.8028,189.1406,661.5358,176.9648,660.2339,164.7891,661.0187,152.6133,660.9821,140.4375,660.625,128.2617" style="stroke:#000000;stroke-width:2.5;"/><text fill="#000000" font-family="FG Virgil" font-size="16.25" font-weight="bold" lengthAdjust="spacing" textLength="35" x="679.375" y="146.3806">loop</text><text fill="#000000" font-family="FG Virgil" font-size="13.75" font-weight="bold" lengthAdjust="spacing" textLength="596.25" x="770.625" y="145.0354">[automaticamente e periodicamente atualiza o estado do motor de fluxos na webpage]</text><polygon fill="#383838" points="1096.25,174.1406,1096.2825,174.2219,1098.6859,174.9803,1101.2799,176.2154,1103.8118,177.2952,1106.1396,177.8646,1108.75,179.1406,1108.738,179.1106,1106.184,179.9756,1103.6907,180.9923,1101.2395,182.1143,1098.643,182.8732,1096.25,184.1406,1096.4131,184.3037,1097.0643,182.9549,1098.1917,182.0824,1099.3773,181.2679,1100.2247,180.1154,1101.25,179.1406,1101.2701,179.1607,1100.2406,178.1312,1099.3026,177.1932,1098.3205,176.2111,1097.4226,175.3132,1096.25,174.1406" style="stroke:#383838;stroke-width:1.25;"/><path d="M820.625,179.1406 L820.625,179.4909 L832.9348,178.4501 L845.2446,179.4628 L857.5543,179.8068 L869.8641,177.9516 L882.1739,179.0111 L894.4837,178.4298 L906.7935,178.5015 L919.1033,179.027 L931.413,177.9883 L943.7228,180.0634 L956.0326,178.0902 L968.3424,178.811 L980.6522,179.8605 L992.962,178.9977 L1005.2717,179.2544 L1017.5815,179.0874 L1029.8913,179.4382 L1042.2011,179.5392 L1054.5109,180.1168 L1066.8207,180.259 L1079.1304,180.2727 L1091.4402,179.565 L1103.75,179.1406 " fill="none" style="stroke:#383838;stroke-width:1.25;"/><text fill="#000000" font-family="FG Virgil" font-size="16.25" font-weight="bold" lengthAdjust="spacing" textLength="8.75" x="829.375" y="173.0701">1</text><text fill="#000000" font-family="FG Virgil" font-size="16.25" lengthAdjust="spacing" textLength="122.5" x="843.125" y="173.0701">atualizarEstado()</text><polygon fill="#383838" points="533.75,220.8301,533.7825,220.9114,536.1859,221.6698,538.7799,222.9049,541.3118,223.9847,543.6396,224.5541,546.25,225.8301,546.238,225.8,543.684,226.6651,541.1907,227.6817,538.7395,228.8037,536.143,229.5626,533.75,230.8301,533.9131,230.9932,534.5643,229.6444,535.6917,228.7718,536.8773,227.9573,537.7247,226.8048,538.75,225.8301,538.7701,225.8502,537.7406,224.8207,536.8026,223.8827,535.8205,222.9005,534.9226,222.0026,533.75,220.8301" style="stroke:#383838;stroke-width:1.25;"/><path d="M137.5,225.8301 L137.5,226.1804 L150.1172,225.1395 L162.7344,226.1522 L175.3516,226.4962 L187.9688,224.6411 L200.5859,225.7006 L213.2031,225.1193 L225.8203,225.1909 L238.4375,225.7165 L251.0547,224.6778 L263.6719,226.7528 L276.2891,224.7796 L288.9063,225.5005 L301.5234,226.55 L314.1406,225.6871 L326.7578,225.9438 L339.375,225.7768 L351.9922,226.1276 L364.6094,226.2286 L377.2266,226.8062 L389.8438,226.9485 L402.4609,226.9622 L415.0781,226.2545 L427.6953,226.6027 L440.3125,227.0005 L452.9297,224.6281 L465.5469,226.9609 L478.1641,225.3359 L490.7813,226.7198 L503.3984,225.005 L516.0156,225.7159 L528.6328,227.0661 L541.25,225.8301 " fill="none" style="stroke:#383838;stroke-width:1.25;"/><text fill="#000000" font-family="FG Virgil" font-size="16.25" font-weight="bold" lengthAdjust="spacing" textLength="8.75" x="146.25" y="219.7595">2</text><text fill="#000000" font-family="FG Virgil" font-size="16.25" lengthAdjust="spacing" textLength="302.5" x="160" y="219.7595">pede para ver o estado do motor de fluxos</text><polygon fill="#383838" points="1096.25,258.7695,1096.2825,258.8508,1098.6859,259.6092,1101.2799,260.8443,1103.8118,261.9242,1106.1396,262.4935,1108.75,263.7695,1108.738,263.7395,1106.184,264.6045,1103.6907,265.6212,1101.2395,266.7432,1098.643,267.5021,1096.25,268.7695,1096.4131,268.9326,1097.0643,267.5838,1098.1917,266.7113,1099.3773,265.8968,1100.2247,264.7443,1101.25,263.7695,1101.2701,263.7896,1100.2406,262.7601,1099.3026,261.8221,1098.3205,260.84,1097.4226,259.9421,1096.25,258.7695" style="stroke:#383838;stroke-width:1.25;"/><path d="M561.25,263.7695 L561.25,264.1198 L573.8663,263.079 L586.4826,264.0917 L599.0988,264.4357 L611.7151,262.5805 L624.3314,263.64 L636.9477,263.0587 L649.564,263.1304 L662.1802,263.6559 L674.7965,262.6172 L687.4128,264.6923 L700.0291,262.7191 L712.6453,263.4399 L725.2616,264.4894 L737.8779,263.6266 L750.4942,263.8833 L763.1105,263.7163 L775.7267,264.0671 L788.343,264.1681 L800.9593,264.7457 L813.5756,264.888 L826.1919,264.9016 L838.8081,264.1939 L851.4244,264.5422 L864.0407,264.9399 L876.657,262.5676 L889.2733,264.9004 L901.8895,263.2754 L914.5058,264.6592 L927.1221,262.9445 L939.7384,263.6554 L952.3547,265.0055 L964.9709,263.6883 L977.5872,263.945 L990.2035,264.3339 L1002.8198,264.4633 L1015.436,263.763 L1028.0523,264.2482 L1040.6686,262.8155 L1053.2849,264.2435 L1065.9012,264.6832 L1078.5174,264.5104 L1091.1337,264.7912 L1103.75,263.7695 " fill="none" style="stroke:#383838;stroke-width:1.25;"/><text fill="#000000" font-family="FG Virgil" font-size="16.25" font-weight="bold" lengthAdjust="spacing" textLength="8.75" x="570" y="257.699">3</text><text fill="#000000" font-family="FG Virgil" font-size="16.25" lengthAdjust="spacing" textLength="272.5" x="583.75" y="257.699">mostrarEstatisticaDoMotorDeFluxos()</text><polygon fill="#383838" points="1438.125,296.709,1438.1575,296.7903,1440.5609,297.5487,1443.1549,298.7838,1445.6868,299.8636,1448.0146,300.433,1450.625,301.709,1450.613,301.6789,1448.059,302.544,1445.5657,303.5606,1443.1145,304.6826,1440.518,305.4415,1438.125,306.709,1438.2881,306.8721,1438.9393,305.5233,1440.0667,304.6507,1441.2523,303.8362,1442.0997,302.6837,1443.125,301.709,1443.1451,301.7291,1442.1156,300.6996,1441.1776,299.7616,1440.1955,298.7794,1439.2976,297.8815,1438.125,296.709" style="stroke:#383838;stroke-width:1.25;"/><path d="M1123.75,301.709 L1123.75,302.0593 L1136.1298,301.0185 L1148.5096,302.0311 L1160.8894,302.3751 L1173.2692,300.52 L1185.649,301.5795 L1198.0288,300.9982 L1210.4087,301.0698 L1222.7885,301.5954 L1235.1683,300.5567 L1247.5481,302.6317 L1259.9279,300.6585 L1272.3077,301.3794 L1284.6875,302.4289 L1297.0673,301.566 L1309.4471,301.8227 L1321.8269,301.6557 L1334.2067,302.0065 L1346.5865,302.1075 L1358.9663,302.6851 L1371.3462,302.8274 L1383.726,302.8411 L1396.1058,302.1334 L1408.4856,302.4816 L1420.8654,302.8794 L1433.2452,300.507 L1445.625,301.709 " fill="none" style="stroke:#383838;stroke-width:1.25;stroke-dasharray:2.0,2.0;"/><text fill="#000000" font-family="FG Virgil" font-size="16.25" font-weight="bold" lengthAdjust="spacing" textLength="8.75" x="1132.5" y="295.6384">4</text><text fill="#000000" font-family="FG Virgil" font-size="16.25" lengthAdjust="spacing" textLength="93.75" x="1146.25" y="295.6384">repositories()</text><path d="M1471.25,317.959 L1471.4835,317.959 L1470.7896,324.459 L1471.4648,330.959 L1471.6941,337.459 L1470.4573,343.959 L1471.25,350.459 L1471.25,350.1999 L1483.9423,349.0373 L1496.6346,349.1807 L1509.3269,350.2318 L1522.0192,348.1544 L1534.7115,352.3045 L1547.4038,348.358 L1560.0962,349.7998 L1572.7885,351.8988 L1585.4808,350.1731 L1598.1731,350.6864 L1610.8654,350.3525 L1623.5577,351.0541 L1636.25,351.2561 L1648.9423,352.4113 L1661.6346,352.6958 L1674.3269,352.7232 L1687.0192,351.3077 L1699.7115,352.0043 L1712.4038,352.7998 L1725.0962,348.055 L1737.7885,352.7207 L1750.4808,349.4706 L1763.1731,352.2384 L1775.8654,348.8089 L1788.5577,350.2307 L1801.25,350.459 L1802.074,350.459 L1801.1959,346.459 L1801.367,342.459 L1801.6263,338.459 L1801.7125,334.459 L1801.25,330.459 L1801.2469,330.4559 L1798.9757,328.1846 L1795.8003,325.0093 L1793.9734,323.1824 L1791.6807,320.8897 L1788.75,317.959 L1788.75,319.4408 L1776.05,320.0024 L1763.35,316.3487 L1750.65,315.785 L1737.95,315.8877 L1725.25,317.7627 L1712.55,317.3039 L1699.85,320.2304 L1687.15,317.3767 L1674.45,316.8155 L1661.75,318.7199 L1649.05,315.7362 L1636.35,316.2286 L1623.65,320.1222 L1610.95,319.4112 L1598.25,320.4073 L1585.55,316.8863 L1572.85,319.023 L1560.15,319.927 L1547.45,316.3843 L1534.75,317.6395 L1522.05,318.3789 L1509.35,320.1315 L1496.65,317.945 L1483.95,319.5009 L1471.25,317.959 " fill="#EBEBEB" style="stroke:#383838;stroke-width:1.25;"/><path d="M1788.75,317.959 L1788.1347,317.959 L1787.9975,320.459 L1789.3096,322.959 L1787.9534,325.459 L1789.3155,327.959 L1788.75,330.459 L1788.75,330.6886 L1791.25,330.1613 L1793.75,330.0659 L1796.25,330.9687 L1798.75,330.1264 L1801.25,330.459 L1801.715,330.924 L1798.3157,327.5247 L1796.7351,325.9441 L1794.1305,323.3395 L1791.4425,320.6514 L1788.75,317.959 " fill="#EBEBEB" style="stroke:#383838;stroke-width:1.25;"/><text fill="#000000" font-family="FG Virgil" font-size="16.25" lengthAdjust="spacing" textLength="303.75" x="1478.75" y="341.0779">pode criar repositório em memória ou JPA</text><polygon fill="#383838" points="1616.875,380.0879,1616.9075,380.1692,1619.3109,380.9276,1621.9049,382.1627,1624.4368,383.2425,1626.7646,383.8119,1629.375,385.0879,1629.363,385.0578,1626.809,385.9229,1624.3157,386.9395,1621.8645,388.0615,1619.268,388.8204,1616.875,390.0879,1617.0381,390.251,1617.6893,388.9022,1618.8167,388.0296,1620.0023,387.2152,1620.8497,386.0626,1621.875,385.0879,1621.8951,385.108,1620.8656,384.0785,1619.9276,383.1405,1618.9455,382.1583,1618.0476,381.2605,1616.875,380.0879" style="stroke:#383838;stroke-width:1.25;"/><path d="M1465.625,385.0879 L1465.625,385.4382 L1477.8365,384.3974 L1490.0481,385.41 L1502.2596,385.754 L1514.4712,383.8989 L1526.6827,384.9584 L1538.8942,384.3771 L1551.1058,384.4487 L1563.3173,384.9743 L1575.5288,383.9356 L1587.7404,386.0106 L1599.9519,384.0374 L1612.1635,384.7583 L1624.375,385.0879 " fill="none" style="stroke:#383838;stroke-width:1.25;stroke-dasharray:2.0,2.0;"/><text fill="#000000" font-family="FG Virgil" font-size="16.25" font-weight="bold" lengthAdjust="spacing" textLength="8.75" x="1474.375" y="379.0173">5</text><text fill="#000000" font-family="FG Virgil" font-size="16.25" lengthAdjust="spacing" textLength="55" x="1488.125" y="379.0173">create()</text><polygon fill="#383838" points="1137.5,418.0273,1137.5325,418.1087,1134.9359,418.8671,1132.5299,420.1021,1130.0618,421.182,1127.3896,421.7514,1125,423.0273,1124.988,422.9973,1127.434,423.8623,1129.9407,424.879,1132.4895,426.001,1134.893,426.7599,1137.5,428.0273,1137.6631,428.1905,1136.3143,426.8416,1135.4417,425.9691,1134.6273,425.1546,1133.4747,424.0021,1132.5,423.0273,1132.5201,423.0474,1133.4906,422.0179,1134.5526,421.0799,1135.5705,420.0978,1136.6726,419.1999,1137.5,418.0273" style="stroke:#383838;stroke-width:1.25;"/><path d="M1130,423.0273 L1130,423.3776 L1142.6202,422.3368 L1155.2404,423.3495 L1167.8606,423.6935 L1180.4808,421.8384 L1193.101,422.8978 L1205.7212,422.3165 L1218.3413,422.3882 L1230.9615,422.9137 L1243.5817,421.8751 L1256.2019,423.9501 L1268.8221,421.9769 L1281.4423,422.6977 L1294.0625,423.7473 L1306.6827,422.8844 L1319.3029,423.1411 L1331.9231,422.9741 L1344.5433,423.3249 L1357.1635,423.4259 L1369.7837,424.0035 L1382.4038,424.1458 L1395.024,424.1594 L1407.6442,423.4517 L1420.2644,423.8 L1432.8846,424.1977 L1445.5048,421.8254 L1458.125,423.0273 " fill="none" style="stroke:#383838;stroke-width:1.25;stroke-dasharray:2.0,2.0;"/><text fill="#000000" font-family="FG Virgil" font-size="16.25" font-weight="bold" lengthAdjust="spacing" textLength="8.75" x="1145" y="416.9568">6</text><text fill="#000000" font-family="FG Virgil" font-size="16.25" lengthAdjust="spacing" textLength="58.75" x="1158.75" y="416.9568">factory()</text><polygon fill="#383838" points="1616.875,455.9668,1616.9075,456.0481,1619.3109,456.8065,1621.9049,458.0416,1624.4368,459.1214,1626.7646,459.6908,1629.375,460.9668,1629.363,460.9367,1626.809,461.8018,1624.3157,462.8184,1621.8645,463.9404,1619.268,464.6993,1616.875,465.9668,1617.0381,466.1299,1617.6893,464.7811,1618.8167,463.9085,1620.0023,463.0941,1620.8497,461.9415,1621.875,460.9668,1621.8951,460.9869,1620.8656,459.9574,1619.9276,459.0194,1618.9455,458.0373,1618.0476,457.1394,1616.875,455.9668" style="stroke:#383838;stroke-width:1.25;"/><path d="M1123.75,460.9668 L1123.75,461.3171 L1136.2656,460.2763 L1148.7813,461.2889 L1161.2969,461.6329 L1173.8125,459.7778 L1186.3281,460.8373 L1198.8438,460.256 L1211.3594,460.3276 L1223.875,460.8532 L1236.3906,459.8145 L1248.9063,461.8895 L1261.4219,459.9163 L1273.9375,460.6372 L1286.4531,461.6867 L1298.9688,460.8238 L1311.4844,461.0805 L1324,460.9136 L1336.5156,461.2643 L1349.0313,461.3654 L1361.5469,461.9429 L1374.0625,462.0852 L1386.5781,462.0989 L1399.0938,461.3912 L1411.6094,461.7394 L1424.125,462.1372 L1436.6406,459.7648 L1449.1563,462.0976 L1461.6719,460.4726 L1474.1875,461.8565 L1486.7031,460.1418 L1499.2188,460.8526 L1511.7344,462.2028 L1524.25,460.8856 L1536.7656,461.1423 L1549.2813,461.5312 L1561.7969,461.6605 L1574.3125,460.9603 L1586.8281,461.4455 L1599.3438,460.0128 L1611.8594,461.4408 L1624.375,460.9668 " fill="none" style="stroke:#383838;stroke-width:1.25;"/><text fill="#000000" font-family="FG Virgil" font-size="16.25" font-weight="bold" lengthAdjust="spacing" textLength="8.75" x="1132.5" y="454.8962">7</text><text fill="#000000" font-family="FG Virgil" font-size="16.25" lengthAdjust="spacing" textLength="66.25" x="1146.25" y="454.8962">pedidos()</text><polygon fill="#383838" points="1789.375,493.9063,1789.4075,493.9876,1791.8109,494.746,1794.4049,495.981,1796.9368,497.0609,1799.2646,497.6303,1801.875,498.9063,1801.863,498.8762,1799.309,499.7413,1796.8157,500.7579,1794.3645,501.8799,1791.768,502.6388,1789.375,503.9063,1789.5381,504.0694,1790.1893,502.7206,1791.3167,501.848,1792.5023,501.0335,1793.3497,499.881,1794.375,498.9063,1794.3951,498.9264,1793.3656,497.8968,1792.4276,496.9588,1791.4455,495.9767,1790.5476,495.0788,1789.375,493.9063" style="stroke:#383838;stroke-width:1.25;"/><path d="M1644.375,498.9063 L1644.375,499.2566 L1657.0833,498.2157 L1669.7917,499.2284 L1682.5,499.5724 L1695.2083,497.7173 L1707.9167,498.7767 L1720.625,498.1954 L1733.3333,498.2671 L1746.0417,498.7927 L1758.75,497.754 L1771.4583,499.829 L1784.1667,497.8558 L1796.875,498.9063 " fill="none" style="stroke:#383838;stroke-width:1.25;stroke-dasharray:2.0,2.0;"/><text fill="#000000" font-family="FG Virgil" font-size="16.25" font-weight="bold" lengthAdjust="spacing" textLength="8.75" x="1653.125" y="492.8357">8</text><text fill="#000000" font-family="FG Virgil" font-size="16.25" lengthAdjust="spacing" textLength="55" x="1666.875" y="492.8357">create()</text><polygon fill="#383838" points="1789.375,569.3457,1789.4075,569.427,1791.8109,570.1854,1794.4049,571.4205,1796.9368,572.5003,1799.2646,573.0697,1801.875,574.3457,1801.863,574.3156,1799.309,575.1807,1796.8157,576.1973,1794.3645,577.3193,1791.768,578.0782,1789.375,579.3457,1789.5381,579.5088,1790.1893,578.16,1791.3167,577.2874,1792.5023,576.473,1793.3497,575.3204,1794.375,574.3457,1794.3951,574.3658,1793.3656,573.3363,1792.4276,572.3983,1791.4455,571.4162,1790.5476,570.5183,1789.375,569.3457" style="stroke:#383838;stroke-width:1.25;"/><path d="M1123.75,574.3457 L1123.75,574.696 L1136.2153,573.6552 L1148.6806,574.6678 L1161.1458,575.0118 L1173.6111,573.1567 L1186.0764,574.2162 L1198.5417,573.6349 L1211.0069,573.7065 L1223.4722,574.2321 L1235.9375,573.1934 L1248.4028,575.2684 L1260.8681,573.2952 L1273.3333,574.0161 L1285.7986,575.0656 L1298.2639,574.2027 L1310.7292,574.4594 L1323.1944,574.2925 L1335.6597,574.6432 L1348.125,574.7443 L1360.5903,575.3219 L1373.0556,575.4641 L1385.5208,575.4778 L1397.9861,574.7701 L1410.4514,575.1183 L1422.9167,575.5161 L1435.3819,573.1437 L1447.8472,575.4766 L1460.3125,573.8515 L1472.7778,575.2354 L1485.2431,573.5207 L1497.7083,574.2315 L1510.1736,575.5817 L1522.6389,574.2645 L1535.1042,574.5212 L1547.5694,574.9101 L1560.0347,575.0394 L1572.5,574.3392 L1584.9653,574.8244 L1597.4306,573.3917 L1609.8958,574.8197 L1622.3611,575.2594 L1634.8264,575.0866 L1647.2917,575.3674 L1659.7569,573.5406 L1672.2222,573.2587 L1684.6875,573.31 L1697.1528,574.2476 L1709.6181,574.0182 L1722.0833,575.4814 L1734.5486,574.0546 L1747.0139,573.7739 L1759.4792,574.7262 L1771.9444,573.2343 L1784.4097,573.4805 L1796.875,574.3457 " fill="none" style="stroke:#383838;stroke-width:1.25;"/><text fill="#000000" font-family="FG Virgil" font-size="16.25" font-weight="bold" lengthAdjust="spacing" textLength="8.75" x="1132.5" y="568.2751">9</text><text fill="#000000" font-family="FG Virgil" font-size="16.25" lengthAdjust="spacing" textLength="242.5" x="1146.25" y="568.2751">calcularMediaTemposAprovacao()</text><path d="M1822.5,590.5957 L1823.2006,590.5957 L1821.1189,602.8874 L1823.1443,615.179 L1823.8323,627.4707 L1820.122,639.7624 L1822.241,652.054 L1822.5,664.3457 L1822.5,662.9241 L1835.0568,663.0674 L1847.6136,664.1185 L1860.1705,662.0411 L1872.7273,666.1912 L1885.2841,662.2448 L1897.8409,663.6865 L1910.3977,665.7855 L1922.9545,664.0598 L1935.5114,664.5732 L1948.0682,664.2392 L1960.625,664.9408 L1973.1818,665.1428 L1985.7386,666.298 L1998.2955,666.5825 L2010.8523,666.6099 L2023.4091,665.1945 L2035.9659,665.891 L2048.5227,666.6865 L2061.0795,661.9418 L2073.6364,666.6074 L2086.1932,663.3574 L2098.75,664.3457 L2100.5294,664.3457 L2097.0999,652.0957 L2098.5217,639.8457 L2101.222,627.5957 L2098.5876,615.3457 L2098.75,603.0957 L2098.8327,603.1784 L2096.5161,600.8618 L2094.077,598.4227 L2091.2469,595.5926 L2088.9757,593.3214 L2086.25,590.5957 L2086.25,588.6876 L2073.6905,591.5437 L2061.131,592.423 L2048.5714,592.0775 L2036.0119,592.6391 L2023.4524,588.9854 L2010.8929,588.4218 L1998.3333,588.5244 L1985.7738,590.3994 L1973.2143,589.9406 L1960.6548,592.8671 L1948.0952,590.0134 L1935.5357,589.4522 L1922.9762,591.3566 L1910.4167,588.3729 L1897.8571,588.8653 L1885.2976,592.7589 L1872.7381,592.0479 L1860.1786,593.044 L1847.619,589.5231 L1835.0595,591.6597 L1822.5,590.5957 " fill="#EBEBEB" style="stroke:#383838;stroke-width:1.25;"/><path d="M2086.25,590.5957 L2086.906,590.5957 L2085.7251,593.0957 L2086.1435,595.5957 L2086.39,598.0957 L2086.9742,600.5957 L2086.25,603.0957 L2086.25,603.091 L2088.75,603.6097 L2091.25,602.4804 L2093.75,602.3432 L2096.25,603.6553 L2098.75,603.0957 L2098.1867,602.5324 L2096.6499,600.9956 L2093.9123,598.258 L2091.0395,595.3852 L2088.472,592.8178 L2086.25,590.5957 " fill="#EBEBEB" style="stroke:#383838;stroke-width:1.25;"/><text fill="#000000" font-family="FG Virgil" font-size="16.25" lengthAdjust="spacing" textLength="198.75" x="1830" y="613.7146">Query de JPQL que devolve</text><text fill="#000000" font-family="FG Virgil" font-size="16.25" lengthAdjust="spacing" textLength="245" x="1835" y="634.1541">a media dos tempos de resolucao</text><text fill="#000000" font-family="FG Virgil" font-size="16.25" lengthAdjust="spacing" textLength="227.5" x="1835" y="654.5935">de todos os pedidos resolvidos.</text><polygon fill="#383838" points="1789.375,693.6035,1789.4075,693.6848,1791.8109,694.4432,1794.4049,695.6783,1796.9368,696.7581,1799.2646,697.3275,1801.875,698.6035,1801.863,698.5735,1799.309,699.4385,1796.8157,700.4552,1794.3645,701.5771,1791.768,702.336,1789.375,703.6035,1789.5381,703.7666,1790.1893,702.4178,1791.3167,701.5452,1792.5023,700.7308,1793.3497,699.5782,1794.375,698.6035,1794.3951,698.6236,1793.3656,697.5941,1792.4276,696.6561,1791.4455,695.674,1790.5476,694.7761,1789.375,693.6035" style="stroke:#383838;stroke-width:1.25;"/><path d="M1123.75,698.6035 L1123.75,698.9538 L1136.2153,697.913 L1148.6806,698.9257 L1161.1458,699.2696 L1173.6111,697.4145 L1186.0764,698.474 L1198.5417,697.8927 L1211.0069,697.9644 L1223.4722,698.4899 L1235.9375,697.4512 L1248.4028,699.5263 L1260.8681,697.553 L1273.3333,698.2739 L1285.7986,699.3234 L1298.2639,698.4606 L1310.7292,698.7172 L1323.1944,698.5503 L1335.6597,698.9011 L1348.125,699.0021 L1360.5903,699.5797 L1373.0556,699.7219 L1385.5208,699.7356 L1397.9861,699.0279 L1410.4514,699.3762 L1422.9167,699.7739 L1435.3819,697.4015 L1447.8472,699.7344 L1460.3125,698.1093 L1472.7778,699.4932 L1485.2431,697.7785 L1497.7083,698.4894 L1510.1736,699.8395 L1522.6389,698.5223 L1535.1042,698.779 L1547.5694,699.1679 L1560.0347,699.2972 L1572.5,698.597 L1584.9653,699.0822 L1597.4306,697.6495 L1609.8958,699.0775 L1622.3611,699.5172 L1634.8264,699.3444 L1647.2917,699.6252 L1659.7569,697.7984 L1672.2222,697.5165 L1684.6875,697.5678 L1697.1528,698.5054 L1709.6181,698.276 L1722.0833,699.7392 L1734.5486,698.3124 L1747.0139,698.0318 L1759.4792,698.984 L1771.9444,697.4921 L1784.4097,697.7383 L1796.875,698.6035 " fill="none" style="stroke:#383838;stroke-width:1.25;"/><text fill="#000000" font-family="FG Virgil" font-size="16.25" font-weight="bold" lengthAdjust="spacing" textLength="17.5" x="1132.5" y="692.533">10</text><text fill="#000000" font-family="FG Virgil" font-size="16.25" lengthAdjust="spacing" textLength="321.25" x="1155" y="692.533">calcularMediaTemposResolucaoResolvidos()</text><path d="M1822.5,714.8535 L1823.2006,714.8535 L1821.1189,727.1452 L1823.1443,739.4368 L1823.8323,751.7285 L1820.122,764.0202 L1822.241,776.3118 L1822.5,788.6035 L1822.5,787.1819 L1835.1705,787.3252 L1847.8409,788.3763 L1860.5114,786.299 L1873.1818,790.449 L1885.8523,786.5026 L1898.5227,787.9443 L1911.1932,790.0433 L1923.8636,788.3176 L1936.5341,788.831 L1949.2045,788.497 L1961.875,789.1986 L1974.5455,789.4006 L1987.2159,790.5558 L1999.8864,790.8404 L2012.5568,790.8677 L2025.2273,789.4523 L2037.8977,790.1488 L2050.5682,790.9443 L2063.2386,786.1996 L2075.9091,790.8652 L2088.5795,787.6152 L2101.25,788.6035 L2103.0294,788.6035 L2099.5999,776.3535 L2101.0217,764.1035 L2103.722,751.8535 L2101.0876,739.6035 L2101.25,727.3535 L2101.3327,727.4362 L2099.0161,725.1196 L2096.577,722.6805 L2093.7469,719.8504 L2091.4757,717.5792 L2088.75,714.8535 L2088.75,712.9455 L2076.0714,715.8015 L2063.3929,716.6808 L2050.7143,716.3353 L2038.0357,716.8969 L2025.3571,713.2432 L2012.6786,712.6796 L2000,712.7822 L1987.3214,714.6572 L1974.6429,714.1984 L1961.9643,717.1249 L1949.2857,714.2713 L1936.6071,713.71 L1923.9286,715.6144 L1911.25,712.6307 L1898.5714,713.1231 L1885.8929,717.0167 L1873.2143,716.3057 L1860.5357,717.3018 L1847.8571,713.7809 L1835.1786,715.9175 L1822.5,714.8535 " fill="#EBEBEB" style="stroke:#383838;stroke-width:1.25;"/><path d="M2088.75,714.8535 L2089.406,714.8535 L2088.2251,717.3535 L2088.6435,719.8535 L2088.89,722.3535 L2089.4742,724.8535 L2088.75,727.3535 L2088.75,727.3489 L2091.25,727.8675 L2093.75,726.7382 L2096.25,726.601 L2098.75,727.9131 L2101.25,727.3535 L2100.6867,726.7902 L2099.1499,725.2534 L2096.4123,722.5159 L2093.5395,719.643 L2090.972,717.0756 L2088.75,714.8535 " fill="#EBEBEB" style="stroke:#383838;stroke-width:1.25;"/><text fill="#000000" font-family="FG Virgil" font-size="16.25" lengthAdjust="spacing" textLength="198.75" x="1830" y="737.9724">Query de JPQL que devolve</text><text fill="#000000" font-family="FG Virgil" font-size="16.25" lengthAdjust="spacing" textLength="247.5" x="1835" y="758.4119">a media dos tempos de aprovacao</text><text fill="#000000" font-family="FG Virgil" font-size="16.25" lengthAdjust="spacing" textLength="227.5" x="1835" y="778.8513">de todos os pedidos resolvidos.</text><polygon fill="#383838" points="1795.625,817.8613,1795.6575,817.9426,1798.0609,818.701,1800.6549,819.9361,1803.1868,821.016,1805.5146,821.5853,1808.125,822.8613,1808.113,822.8313,1805.559,823.6963,1803.0657,824.713,1800.6145,825.835,1798.018,826.5939,1795.625,827.8613,1795.7881,828.0244,1796.4393,826.6756,1797.5667,825.8031,1798.7523,824.9886,1799.5997,823.8361,1800.625,822.8613,1800.6451,822.8814,1799.6156,821.8519,1798.6776,820.9139,1797.6955,819.9318,1796.7976,819.0339,1795.625,817.8613" style="stroke:#383838;stroke-width:1.25;"/><path d="M1123.75,822.8613 L1123.75,823.2116 L1136.331,822.1708 L1148.912,823.1835 L1161.4931,823.5275 L1174.0741,821.6723 L1186.6551,822.7318 L1199.2361,822.1505 L1211.8171,822.2222 L1224.3981,822.7477 L1236.9792,821.709 L1249.5602,823.7841 L1262.1412,821.8109 L1274.7222,822.5317 L1287.3032,823.5812 L1299.8843,822.7184 L1312.4653,822.9751 L1325.0463,822.8081 L1337.6273,823.1589 L1350.2083,823.2599 L1362.7894,823.8375 L1375.3704,823.9798 L1387.9514,823.9934 L1400.5324,823.2857 L1413.1134,823.634 L1425.6944,824.0317 L1438.2755,821.6594 L1450.8565,823.9922 L1463.4375,822.3672 L1476.0185,823.751 L1488.5995,822.0363 L1501.1806,822.7472 L1513.7616,824.0973 L1526.3426,822.7801 L1538.9236,823.0368 L1551.5046,823.4257 L1564.0856,823.555 L1576.6667,822.8548 L1589.2477,823.34 L1601.8287,821.9073 L1614.4097,823.3353 L1626.9907,823.775 L1639.5718,823.6022 L1652.1528,823.883 L1664.7338,822.0562 L1677.3148,821.7744 L1689.8958,821.8257 L1702.4769,822.7632 L1715.0579,822.5338 L1727.6389,823.997 L1740.2199,822.5702 L1752.8009,822.2896 L1765.3819,823.2418 L1777.963,821.7499 L1790.544,821.9961 L1803.125,822.8613 " fill="none" style="stroke:#383838;stroke-width:1.25;"/><text fill="#000000" font-family="FG Virgil" font-size="16.25" font-weight="bold" lengthAdjust="spacing" textLength="17.5" x="1132.5" y="816.7908">11</text><text fill="#000000" font-family="FG Virgil" font-size="16.25" lengthAdjust="spacing" textLength="350" x="1155" y="816.7908">calcularMediaTemposResolucaoNaoResolvidos()</text><path d="M1816.25,839.1113 L1816.9506,839.1113 L1814.8689,851.403 L1816.8943,863.6947 L1817.5823,875.9863 L1813.872,888.278 L1815.991,900.5697 L1816.25,912.8613 L1816.25,911.4397 L1828.75,911.583 L1841.25,912.6341 L1853.75,910.5568 L1866.25,914.7068 L1878.75,910.7604 L1891.25,912.2021 L1903.75,914.3012 L1916.25,912.5754 L1928.75,913.0888 L1941.25,912.7548 L1953.75,913.4564 L1966.25,913.6584 L1978.75,914.8136 L1991.25,915.0982 L2003.75,915.1255 L2016.25,913.7101 L2028.75,914.4066 L2041.25,915.2021 L2053.75,910.4574 L2066.25,915.123 L2078.75,911.873 L2091.25,914.6407 L2103.75,911.2113 L2116.25,912.8613 L2116.0217,912.8613 L2118.722,900.6113 L2116.0876,888.3613 L2116.601,876.1113 L2117.3788,863.8613 L2116.25,851.6113 L2116.577,851.9384 L2113.7469,849.1083 L2111.4757,846.837 L2108.3003,843.6616 L2106.4734,841.8348 L2103.75,839.1113 L2103.75,840.9386 L2091.25,840.5931 L2078.75,841.1547 L2066.25,837.5011 L2053.75,836.9374 L2041.25,837.04 L2028.75,838.9151 L2016.25,838.4562 L2003.75,841.3827 L1991.25,838.5291 L1978.75,837.9678 L1966.25,839.8722 L1953.75,836.8885 L1941.25,837.3809 L1928.75,841.2745 L1916.25,840.5636 L1903.75,841.5596 L1891.25,838.0387 L1878.75,840.1753 L1866.25,841.0794 L1853.75,837.5366 L1841.25,838.7918 L1828.75,839.5313 L1816.25,839.1113 " fill="#EBEBEB" style="stroke:#383838;stroke-width:1.25;"/><path d="M2103.75,839.1113 L2104.4742,839.1113 L2103.7453,841.6113 L2104.264,844.1113 L2103.1347,846.6113 L2102.9975,849.1113 L2103.75,851.6113 L2103.75,852.1709 L2106.25,850.8147 L2108.75,852.1768 L2111.25,851.8409 L2113.75,851.3136 L2116.25,851.6113 L2115.972,851.3334 L2114.1104,849.4718 L2111.0148,846.3762 L2109.215,844.5763 L2105.8157,841.1771 L2103.75,839.1113 " fill="#EBEBEB" style="stroke:#383838;stroke-width:1.25;"/><text fill="#000000" font-family="FG Virgil" font-size="16.25" lengthAdjust="spacing" textLength="198.75" x="1823.75" y="862.2302">Query de JPQL que devolve</text><text fill="#000000" font-family="FG Virgil" font-size="16.25" lengthAdjust="spacing" textLength="247.5" x="1828.75" y="882.6697">a media dos tempos de aprovacao</text><text fill="#000000" font-family="FG Virgil" font-size="16.25" lengthAdjust="spacing" textLength="268.75" x="1828.75" y="903.1091">de todos os pedidos a ser resolvidos.</text><polygon fill="#383838" points="575,942.1191,575.0325,942.2005,572.4359,942.9589,570.0299,944.1939,567.5618,945.2738,564.8896,945.8432,562.5,947.1191,562.488,947.0891,564.934,947.9541,567.4407,948.9708,569.9895,950.0928,572.393,950.8517,575,952.1191,575.1631,952.2823,573.8143,950.9334,572.9417,950.0609,572.1273,949.2464,570.9747,948.0939,570,947.1191,570.0201,947.1392,570.9906,946.1097,572.0526,945.1717,573.0705,944.1896,574.1726,943.2917,575,942.1191" style="stroke:#383838;stroke-width:1.25;"/><path d="M567.5,947.1191 L567.5,947.4694 L580.1163,946.4286 L592.7326,947.4413 L605.3488,947.7853 L617.9651,945.9301 L630.5814,946.9896 L643.1977,946.4083 L655.814,946.48 L668.4302,947.0055 L681.0465,945.9669 L693.6628,948.0419 L706.2791,946.0687 L718.8953,946.7895 L731.5116,947.8391 L744.1279,946.9762 L756.7442,947.2329 L769.3605,947.0659 L781.9767,947.4167 L794.593,947.5177 L807.2093,948.0953 L819.8256,948.2376 L832.4419,948.2512 L845.0581,947.5435 L857.6744,947.8918 L870.2907,948.2895 L882.907,945.9172 L895.5233,948.25 L908.1395,946.625 L920.7558,948.0088 L933.3721,946.2941 L945.9884,947.005 L958.6047,948.3551 L971.2209,947.0379 L983.8372,947.2946 L996.4535,947.6835 L1009.0698,947.8129 L1021.686,947.1126 L1034.3023,947.5978 L1046.9186,946.1651 L1059.5349,947.5931 L1072.1512,948.0328 L1084.7674,947.86 L1097.3837,948.1408 L1110,947.1191 " fill="none" style="stroke:#383838;stroke-width:1.25;"/><text fill="#000000" font-family="FG Virgil" font-size="16.25" font-weight="bold" lengthAdjust="spacing" textLength="17.5" x="582.5" y="941.0486">12</text><text fill="#000000" font-family="FG Virgil" font-size="16.25" lengthAdjust="spacing" textLength="272.5" x="605" y="941.0486">mostrarEstatisticaDoMotorDeFluxos()</text><polygon fill="#383838" points="151.25,980.0586,151.2825,980.1399,148.6859,980.8983,146.2799,982.1334,143.8118,983.2132,141.1396,983.7826,138.75,985.0586,138.738,985.0285,141.184,985.8936,143.6907,986.9102,146.2395,988.0322,148.643,988.7911,151.25,990.0586,151.4131,990.2217,150.0643,988.8729,149.1917,988.0003,148.3773,987.1859,147.2247,986.0333,146.25,985.0586,146.2701,985.0787,147.2406,984.0492,148.3026,983.1112,149.3205,982.129,150.4226,981.2312,151.25,980.0586" style="stroke:#383838;stroke-width:1.25;"/><path d="M143.75,985.0586 L143.75,985.4089 L156.1742,984.3681 L168.5985,985.3807 L181.0227,985.7247 L193.447,983.8696 L205.8712,984.9291 L218.2955,984.3478 L230.7197,984.4194 L243.1439,984.945 L255.5682,983.9063 L267.9924,985.9813 L280.4167,984.0081 L292.8409,984.729 L305.2652,985.7785 L317.6894,984.9156 L330.1136,985.1723 L342.5379,985.0053 L354.9621,985.3561 L367.3864,985.4572 L379.8106,986.0347 L392.2348,986.177 L404.6591,986.1907 L417.0833,985.483 L429.5076,985.8312 L441.9318,986.229 L454.3561,983.8566 L466.7803,986.1894 L479.2045,984.5644 L491.6288,985.9483 L504.053,984.2336 L516.4773,984.9444 L528.9015,986.2946 L541.3258,984.9774 L553.75,985.0586 " fill="none" style="stroke:#383838;stroke-width:1.25;"/><text fill="#000000" font-family="FG Virgil" font-size="16.25" font-weight="bold" lengthAdjust="spacing" textLength="17.5" x="158.75" y="978.988">13</text><text fill="#000000" font-family="FG Virgil" font-size="16.25" lengthAdjust="spacing" textLength="358.75" x="181.25" y="978.988">mostra a estatística do estado do motor de fluxos</text><!--MD5=[6e9b6f86a926b9282b2e389b23bdc3a1]
@startuml
'http://plantuml.com/skinparam.html
skinparam handwritten true
skinparam monochrome true
skinparam packageStyle rect
skinparam defaultFontName FG Virgil
skinparam shadowing false

autonumber

'Ator'
actor Gestor_De_Recursos_Humanos as GSH

'PRESENTATION'
participant VerEstadoMotorFluxosUI as UI<<presentation>>

'SERVICE'
participant AtualizarEstadoMotorFluxosService as MFS<<service>>

'APPLICATION'
participant VerEstadoMotorFluxosController as Controller <<application>>

'DOMAIN'
participant Pedido <<domain>>

'PERSISTENCE'
participant PersistenceContext as Persistence <<persistence>>
participant RepositoryFactory as RepositoryFactory <<factory>>

'REPOSITORY'
participant PedidoRepository as PR <<repository>>


loop automaticamente e periodicamente atualiza o estado do motor de fluxos na webpage
MFS->Controller: atualizarEstado()
activate Controller
end loop

GSH->UI: pede para ver o estado do motor de fluxos
activate UI

UI->Controller: mostrarEstatisticaDoMotorDeFluxos()


Controller - -> Persistence: repositories()
        activate Persistence
            note right of Persistence: pode criar repositório em memória ou JPA
            Persistence - -> RepositoryFactory: create()
            activate RepositoryFactory
            Persistence - -> Controller: factory()
        deactivate Persistence

'inicializar repositórios'
Controller -> RepositoryFactory: pedidos()

RepositoryFactory - -> PR: create()
activate PR
deactivate RepositoryFactory

Controller->PR:calcularMediaTemposAprovacao()
note right of PR : Query de JPQL que devolve\n a media dos tempos de resolucao\n de todos os pedidos resolvidos.

Controller->PR:calcularMediaTemposResolucaoResolvidos()
note right of PR : Query de JPQL que devolve\n a media dos tempos de aprovacao\n de todos os pedidos resolvidos.

Controller->PR:calcularMediaTemposResolucaoNaoResolvidos()
note right of PR : Query de JPQL que devolve\n a media dos tempos de aprovacao\n de todos os pedidos a ser resolvidos.

deactivate PR

Controller->UI:mostrarEstatisticaDoMotorDeFluxos()

UI->GSH: mostra a estatística do estado do motor de fluxos
deactivate Controller
deactivate UI

@enduml

@startuml
skinparam handwritten true
skinparam monochrome true
skinparam packageStyle rect
skinparam defaultFontName FG Virgil
skinparam shadowing false

autonumber

actor Gestor_De_Recursos_Humanos as GSH

participant VerEstadoMotorFluxosUI as UI<<presentation>>

participant AtualizarEstadoMotorFluxosService as MFS<<service>>

participant VerEstadoMotorFluxosController as Controller <<application>>

participant Pedido <<domain>>

participant PersistenceContext as Persistence <<persistence>>
participant RepositoryFactory as RepositoryFactory <<factory>>

participant PedidoRepository as PR <<repository>>


loop automaticamente e periodicamente atualiza o estado do motor de fluxos na webpage
MFS->Controller: atualizarEstado()
activate Controller
end loop

GSH->UI: pede para ver o estado do motor de fluxos
activate UI

UI->Controller: mostrarEstatisticaDoMotorDeFluxos()


Controller - -> Persistence: repositories()
        activate Persistence
            note right of Persistence: pode criar repositório em memória ou JPA
            Persistence - -> RepositoryFactory: create()
            activate RepositoryFactory
            Persistence - -> Controller: factory()
        deactivate Persistence

Controller -> RepositoryFactory: pedidos()

RepositoryFactory - -> PR: create()
activate PR
deactivate RepositoryFactory

Controller->PR:calcularMediaTemposAprovacao()
note right of PR : Query de JPQL que devolve\n a media dos tempos de resolucao\n de todos os pedidos resolvidos.

Controller->PR:calcularMediaTemposResolucaoResolvidos()
note right of PR : Query de JPQL que devolve\n a media dos tempos de aprovacao\n de todos os pedidos resolvidos.

Controller->PR:calcularMediaTemposResolucaoNaoResolvidos()
note right of PR : Query de JPQL que devolve\n a media dos tempos de aprovacao\n de todos os pedidos a ser resolvidos.

deactivate PR

Controller->UI:mostrarEstatisticaDoMotorDeFluxos()

UI->GSH: mostra a estatística do estado do motor de fluxos
deactivate Controller
deactivate UI

@enduml

PlantUML version 1.2021.7(Sun May 23 13:40:07 BST 2021)
(GPL source distribution)
Java Runtime: OpenJDK Runtime Environment
JVM: Dynamic Code Evolution 64-Bit Server VM
Default Encoding: Cp1252
Language: en
Country: US
--></g></svg>